M48
; DRILL file {KiCad (6.0.11)} date Sun Sep 29 03:42:50 2024
; FORMAT={-:-/ absolute / inch / decimal}
; #@! TF.CreationDate,2024-09-29T03:42:50+09:00
; #@! TF.GenerationSoftware,Kicad,Pcbnew,(6.0.11)
; #@! TF.FileFunction,Plated,1,4,PTH
FMAT,2
INCH
; #@! TA.AperFunction,Plated,PTH,ViaDrill
T1C0.0079
; #@! TA.AperFunction,Plated,PTH,ComponentDrill
T2C0.0079
; #@! TA.AperFunction,Plated,PTH,ViaDrill
T3C0.0157
; #@! TA.AperFunction,Plated,PTH,ComponentDrill
T4C0.0236
; #@! TA.AperFunction,Plated,PTH,ComponentDrill
T5C0.0276
; #@! TA.AperFunction,Plated,PTH,ViaDrill
T6C0.0315
; #@! TA.AperFunction,Plated,PTH,ComponentDrill
T7C0.0354
; #@! TA.AperFunction,Plated,PTH,ComponentDrill
T8C0.0394
; #@! TA.AperFunction,Plated,PTH,ComponentDrill
T9C0.0748
%
G90
G05
T1
X3.685Y-5.4016
X3.714Y-5.3955
X3.7323Y-5.3465
X3.7323Y-5.378
X3.7638Y-5.3228
X3.7953Y-5.2835
X3.797Y-2.6387
X3.8189Y-2.6299
X3.874Y-2.6535
X3.9173Y-2.6575
X3.9377Y-2.6375
X3.9961Y-2.5384
X3.997Y-2.6565
X4.1142Y-3.3189
X4.2323Y-2.56
X4.2441Y-4.0976
X4.2441Y-4.1457
X4.25Y-3.5217
X4.252Y-2.9331
X4.252Y-3.1693
X4.252Y-3.5571
X4.252Y-3.6811
X4.2914Y-3.8078
X4.3055Y-4.1166
X4.3063Y-2.8394
X4.311Y-2.874
X4.311Y-4.5472
X4.312Y-3.6998
X4.3169Y-3.6498
X4.3211Y-3.939
X4.3271Y-3.6713
X4.3302Y-4.7446
X4.3307Y-4.6654
X4.3307Y-4.7047
X4.3335Y-3.9595
X4.3366Y-3.9213
X4.3583Y-3.9646
X4.3671Y-3.5817
X4.3888Y-3.6417
X4.3897Y-4.0236
X4.4016Y-3.8898
X4.4102Y-4.0352
X4.4252Y-4.0553
X4.4273Y-3.8967
X4.4409Y-2.7244
X4.4488Y-2.815
X4.4488Y-4.4291
X4.4498Y-3.8898
X4.4537Y-2.7756
X4.4677Y-4.822
X4.4685Y-3.0315
X4.4685Y-4.0866
X4.4882Y-3.3661
X4.4949Y-3.5039
X4.5276Y-2.3819
X4.5276Y-5.5118
X4.5292Y-4.4308
X4.5354Y-4.3661
X4.5443Y-3.8967
X4.5468Y-3.938
X4.5551Y-3.6575
X4.5669Y-3.5146
X4.5725Y-3.8166
X4.5748Y-3.7244
X4.5748Y-3.7677
X4.5897Y-4.0031
X4.5916Y-4.071
X4.5944Y-3.9616
X4.5955Y-3.8967
X4.6004Y-4.5079
X4.6004Y-4.5866
X4.6015Y-4.0236
X4.6024Y-4.3701
X4.6055Y-4.0504
X4.6095Y-3.8519
X4.6181Y-3.9764
X4.622Y-4.3494
X4.6339Y-3.8346
X4.6614Y-3.9882
X4.6654Y-3.8425
X4.6693Y-4.9055
X4.682Y-3.6723
X4.6969Y-3.8386
X4.7047Y-3.8701
X4.7213Y-3.9008
X4.7372Y-3.6742
X4.7503Y-4.1715
X4.752Y-4.2008
X4.7569Y-3.7569
X4.7598Y-4.2283
X4.7835Y-3.9488
X4.8031Y-4.4685
X4.8031Y-4.5276
X4.8031Y-4.5866
X4.8031Y-4.6457
T2
X3.7998Y-2.4803
X3.8099Y-5.3937
X3.829Y-2.4511
X3.829Y-2.5095
X3.8392Y-5.3645
X3.8392Y-5.4229
X3.8583Y-2.4219
X3.8583Y-2.4803
X3.8583Y-2.5388
X3.8684Y-5.3352
X3.8684Y-5.3937
X3.8684Y-5.4522
X3.8875Y-2.4511
X3.8875Y-2.5095
X3.8976Y-5.3645
X3.8976Y-5.4229
X3.9167Y-2.4803
X3.9269Y-5.3937
T3
X3.563Y-2.4409
X3.622Y-2.185
X3.622Y-5.689
X3.6417Y-2.3031
X3.6614Y-2.1457
X3.6614Y-5.4921
X3.6614Y-5.7283
X3.6811Y-2.2638
X3.7008Y-2.1063
X3.7008Y-5.7677
X3.7402Y-2.0669
X3.7402Y-2.2441
X3.7402Y-2.6378
X3.7402Y-5.6299
X3.7402Y-5.8071
X3.7795Y-2.0276
X3.7795Y-2.1654
X3.7795Y-5.6102
X3.7992Y-5.0984
X3.8189Y-1.9882
X3.8194Y-2.2047
X3.9173Y-1.9488
X3.9173Y-2.1063
X3.9173Y-5.7677
X3.937Y-1.8701
X3.937Y-6.0039
X3.9567Y-2.0669
X3.9567Y-2.1457
X3.9567Y-2.2638
X3.9567Y-5.7283
X3.9567Y-5.8071
X3.9764Y-1.8307
X3.9764Y-2.3031
X3.9764Y-3.3465
X3.9764Y-4.5276
X3.9764Y-6.0433
X3.9961Y-2.1063
X3.9961Y-5.5315
X3.9961Y-5.7677
X4.0157Y-2.3228
X4.0157Y-2.5984
X4.0157Y-5.315
X4.0157Y-5.8858
X4.0157Y-5.9252
X4.0354Y-1.9291
X4.0354Y-1.9685
X4.0354Y-2.0079
X4.0354Y-5.5709
X4.0551Y-5.3937
X4.0551Y-5.748
X4.0551Y-5.8465
X4.0551Y-5.8858
X4.0551Y-5.9252
X4.0551Y-5.9646
X4.0748Y-1.8898
X4.0748Y-1.9291
X4.0748Y-1.9685
X4.0748Y-2.0079
X4.0748Y-2.0472
X4.0748Y-3.3465
X4.0748Y-5.315
X4.0757Y-2.1465
X4.0945Y-4.685
X4.0945Y-5.8465
X4.0945Y-5.8858
X4.0945Y-5.9252
X4.0945Y-5.9646
X4.0945Y-6.0039
X4.1142Y-1.8504
X4.1142Y-1.8898
X4.1142Y-1.9291
X4.1142Y-1.9685
X4.1142Y-2.0079
X4.1142Y-5.2756
X4.1142Y-5.5906
X4.1146Y-2.4249
X4.1339Y-2.2638
X4.1339Y-5.4724
X4.1339Y-5.8858
X4.1339Y-5.9252
X4.1339Y-5.9646
X4.1339Y-6.0039
X4.1466Y-5.2165
X4.1491Y-5.6102
X4.1535Y-1.8504
X4.1535Y-1.8898
X4.1535Y-1.9291
X4.1535Y-1.9685
X4.1732Y-1.7717
X4.1732Y-2.3031
X4.1732Y-2.5394
X4.1732Y-5.7283
X4.1732Y-5.9252
X4.1732Y-5.9646
X4.1732Y-6.0039
X4.1732Y-6.1614
X4.1929Y-1.8898
X4.1929Y-1.9291
X4.1929Y-2.126
X4.1929Y-2.1654
X4.2086Y-5.5945
X4.2126Y-1.6732
X4.2126Y-1.811
X4.2126Y-2.4409
X4.2126Y-5.689
X4.2126Y-5.7283
X4.2126Y-5.7677
X4.2126Y-5.8071
X4.2126Y-5.9646
X4.2126Y-6.2008
X4.2323Y-2.0472
X4.2323Y-2.0866
X4.2323Y-2.126
X4.2323Y-2.1654
X4.2323Y-2.3819
X4.2323Y-2.6378
X4.2323Y-4.4094
X4.2323Y-5.4528
X4.252Y-1.6339
X4.252Y-2.3031
X4.252Y-5.7283
X4.252Y-5.7677
X4.252Y-5.8071
X4.252Y-5.8465
X4.252Y-6.0354
X4.252Y-6.2402
X4.2529Y-3.2087
X4.2717Y-2.0079
X4.2717Y-2.0472
X4.2717Y-2.0866
X4.2717Y-2.126
X4.2717Y-5.0197
X4.2717Y-5.4134
X4.2717Y-5.4921
X4.2913Y-1.5945
X4.2913Y-2.5394
X4.2913Y-5.7283
X4.2913Y-5.7677
X4.2913Y-5.8071
X4.2913Y-5.8465
X4.2913Y-5.8858
X4.2913Y-5.9843
X4.2913Y-6.2795
X4.311Y-2.0079
X4.311Y-2.0472
X4.311Y-2.0866
X4.311Y-2.126
X4.311Y-5.2953
X4.311Y-5.4528
X4.3137Y-2.7272
X4.3307Y-1.5945
X4.3307Y-1.9291
X4.3307Y-5.7677
X4.3307Y-5.8071
X4.3307Y-5.8465
X4.3307Y-6.2795
X4.3312Y-2.4611
X4.3504Y-2.0472
X4.3504Y-2.0866
X4.3504Y-2.5591
X4.3504Y-5.2559
X4.3504Y-5.3346
X4.3504Y-5.5315
X4.3504Y-5.5709
X4.3504Y-5.6102
X4.3701Y-1.5551
X4.3701Y-1.5945
X4.3701Y-1.6339
X4.3701Y-1.9685
X4.3701Y-2.2441
X4.3701Y-2.2835
X4.3701Y-2.3228
X4.3701Y-2.3622
X4.3701Y-5.4331
X4.3701Y-5.8071
X4.3701Y-6.2402
X4.3701Y-6.2795
X4.3701Y-6.3189
X4.3898Y-2.5197
X4.3898Y-2.5984
X4.3898Y-3.1299
X4.3898Y-5.2953
X4.3898Y-5.374
X4.3898Y-5.4921
X4.3898Y-5.5315
X4.3898Y-5.5709
X4.3898Y-5.6102
X4.3898Y-5.6496
X4.4094Y-1.5945
X4.4094Y-1.6339
X4.4094Y-1.6732
X4.4094Y-2.2047
X4.4094Y-2.2441
X4.4094Y-2.2835
X4.4094Y-2.3228
X4.4094Y-2.3622
X4.4094Y-2.4016
X4.4094Y-6.2008
X4.4094Y-6.2402
X4.4094Y-6.2795
X4.4134Y-5.878
X4.4291Y-2.4803
X4.4291Y-2.5591
X4.4291Y-2.6378
X4.4291Y-3.1299
X4.4291Y-5.2559
X4.4291Y-5.3346
X4.4291Y-5.4134
X4.4291Y-5.4921
X4.4291Y-5.5315
X4.4291Y-5.5709
X4.4291Y-5.6102
X4.4291Y-5.6496
X4.4291Y-5.689
X4.4409Y-5.8268
X4.4488Y-1.6339
X4.4488Y-1.6732
X4.4488Y-1.7126
X4.4488Y-2.1654
X4.4488Y-2.2047
X4.4488Y-2.2441
X4.4488Y-2.2835
X4.4488Y-2.3228
X4.4488Y-2.3622
X4.4488Y-6.1614
X4.4488Y-6.2008
X4.4488Y-6.2402
X4.4685Y-2.4409
X4.4685Y-2.5197
X4.4685Y-2.5984
X4.4685Y-5.2953
X4.4685Y-5.374
X4.4685Y-5.4528
X4.4685Y-5.5315
X4.4685Y-5.5709
X4.4685Y-5.6102
X4.4685Y-5.6496
X4.4685Y-5.689
X4.4882Y-1.6732
X4.4882Y-1.7126
X4.4882Y-1.752
X4.4882Y-2.0866
X4.4882Y-2.2047
X4.4882Y-2.2441
X4.4882Y-2.2835
X4.4882Y-2.3228
X4.4882Y-3.248
X4.4882Y-3.2874
X4.4882Y-6.122
X4.4882Y-6.1614
X4.4882Y-6.2008
X4.5079Y-5.5709
X4.5079Y-5.6102
X4.5079Y-5.6496
X4.5177Y-3.1496
X4.5276Y-1.7126
X4.5276Y-1.752
X4.5276Y-1.7913
X4.5276Y-2.126
X4.5276Y-2.2047
X4.5276Y-2.2441
X4.5276Y-2.2835
X4.5276Y-6.0827
X4.5276Y-6.122
X4.5276Y-6.1614
X4.5472Y-2.4409
X4.5472Y-2.5197
X4.5472Y-2.5984
X4.5472Y-2.6772
X4.5472Y-5.2165
X4.5472Y-5.2953
X4.5472Y-5.374
X4.5472Y-5.4528
X4.5669Y-1.752
X4.5669Y-1.7913
X4.5669Y-1.8307
X4.5669Y-3.1496
X4.5669Y-5.7165
X4.5669Y-6.0433
X4.5669Y-6.0827
X4.5669Y-6.122
X4.5712Y-3.9168
X4.5866Y-2.3228
X4.5866Y-2.4016
X4.5866Y-2.4803
X4.5866Y-2.5591
X4.5866Y-2.6378
X4.5866Y-2.7165
X4.5866Y-5.1772
X4.5866Y-5.2559
X4.5866Y-5.3346
X4.5866Y-5.4134
X4.5866Y-5.4921
X4.5866Y-5.5709
X4.5866Y-5.6693
X4.6063Y-1.7913
X4.6063Y-1.8307
X4.6063Y-1.8701
X4.6063Y-6.0039
X4.6063Y-6.0433
X4.6063Y-6.0827
X4.626Y-2.3622
X4.626Y-2.4409
X4.626Y-2.5197
X4.626Y-2.5984
X4.626Y-2.6772
X4.626Y-5.2362
X4.626Y-5.2953
X4.626Y-5.374
X4.626Y-5.4528
X4.626Y-5.5315
X4.6457Y-1.8307
X4.6457Y-1.8701
X4.6457Y-1.9094
X4.6457Y-2.2244
X4.6457Y-5.6496
X4.6457Y-5.9646
X4.6457Y-6.0039
X4.6457Y-6.0433
X4.6654Y-2.4016
X4.6654Y-2.4803
X4.6654Y-2.5591
X4.6654Y-2.6378
X4.6654Y-2.7165
X4.6654Y-5.3346
X4.6654Y-5.4134
X4.6654Y-5.4921
X4.685Y-1.8701
X4.685Y-1.9094
X4.685Y-1.9488
X4.685Y-2.185
X4.685Y-2.2244
X4.685Y-2.2638
X4.685Y-5.2362
X4.685Y-5.6102
X4.685Y-5.6496
X4.685Y-5.689
X4.685Y-5.9252
X4.685Y-5.9646
X4.685Y-6.0039
X4.6909Y-3.4902
X4.696Y-3.5433
X4.7047Y-2.4409
X4.7047Y-2.5197
X4.7047Y-2.5984
X4.7047Y-2.6772
X4.7047Y-2.7559
X4.7047Y-5.2953
X4.7047Y-5.374
X4.7047Y-5.4528
X4.7244Y-1.9094
X4.7244Y-1.9488
X4.7244Y-1.9882
X4.7244Y-2.1457
X4.7244Y-2.185
X4.7244Y-2.2244
X4.7244Y-2.2638
X4.7244Y-2.3031
X4.7244Y-5.5709
X4.7244Y-5.6102
X4.7244Y-5.6496
X4.7244Y-5.689
X4.7244Y-5.7283
X4.7244Y-5.8858
X4.7244Y-5.9252
X4.7244Y-5.9646
X4.7244Y-3.2874
X4.7441Y-2.4803
X4.7441Y-2.5591
X4.7441Y-2.6378
X4.7441Y-2.7165
X4.7441Y-2.7953
X4.7441Y-5.2362
X4.7441Y-5.3346
X4.7441Y-5.4134
X4.7463Y-4.8447
X4.7625Y-5.8887
X4.7638Y-1.9488
X4.7638Y-1.9882
X4.7638Y-2.0276
X4.7638Y-2.1063
X4.7638Y-2.1457
X4.7638Y-2.185
X4.7638Y-2.2244
X4.7638Y-2.2638
X4.7638Y-2.3031
X4.7638Y-2.3425
X4.7638Y-5.5315
X4.7638Y-5.5709
X4.7638Y-5.6102
X4.7638Y-5.6496
X4.7638Y-5.689
X4.7638Y-5.7283
X4.7638Y-5.7677
X4.7638Y-5.8465
X4.7638Y-5.9252
X4.7835Y-2.5197
X4.7835Y-2.5984
X4.7835Y-2.6772
X4.7835Y-2.7559
X4.7835Y-5.2953
X4.7835Y-5.374
X4.8031Y-1.9882
X4.8031Y-2.0276
X4.8031Y-2.0669
X4.8031Y-2.1063
X4.8031Y-2.1457
X4.8031Y-2.185
X4.8031Y-2.2244
X4.8031Y-2.2638
X4.8031Y-2.3031
X4.8031Y-2.3425
X4.8031Y-2.3819
X4.8031Y-2.9528
X4.8031Y-4.7638
X4.8031Y-4.8031
X4.8031Y-5.4921
X4.8031Y-5.5315
X4.8031Y-5.5709
X4.8031Y-5.6102
X4.8031Y-5.6496
X4.8031Y-5.689
X4.8031Y-5.7283
X4.8031Y-5.7677
X4.8031Y-5.8071
X4.8031Y-5.8465
X4.8031Y-5.8858
X4.8086Y-3.1693
X4.8228Y-2.5591
X4.8228Y-2.6378
X4.8228Y-5.2559
X4.8228Y-5.3346
X4.8425Y-2.1063
X4.8425Y-2.1457
X4.8425Y-2.185
X4.8425Y-2.2244
X4.8425Y-2.2638
X4.8425Y-2.3031
X4.8425Y-2.3425
X4.8425Y-2.3819
X4.8425Y-2.4213
X4.8425Y-3.1299
X4.8425Y-4.8425
X4.8425Y-5.4528
X4.8425Y-5.4921
X4.8425Y-5.5315
X4.8425Y-5.5709
X4.8425Y-5.6102
X4.8425Y-5.6496
X4.8425Y-5.689
X4.8425Y-5.7283
X4.8425Y-5.7677
X4.8622Y-2.5984
X4.8622Y-3.5827
X4.8622Y-3.6811
X4.8622Y-3.7795
X4.8622Y-3.878
X4.8622Y-4.0945
X4.8622Y-4.1732
X4.8622Y-4.252
X4.8622Y-4.3307
X4.8622Y-4.5276
X4.8622Y-4.626
X4.8622Y-5.2953
X4.8819Y-2.1457
X4.8819Y-2.185
X4.8819Y-2.2244
X4.8819Y-2.2638
X4.8819Y-2.3031
X4.8819Y-2.3425
X4.8819Y-2.3819
X4.8819Y-2.4213
X4.8819Y-2.4606
X4.8819Y-2.6772
X4.8819Y-2.7165
X4.8819Y-2.7559
X4.8819Y-2.7953
X4.8819Y-2.8346
X4.8819Y-2.874
X4.8819Y-2.9134
X4.8819Y-2.9528
X4.8819Y-2.9921
X4.8819Y-4.8622
X4.8819Y-4.9016
X4.8819Y-4.9409
X4.8819Y-4.9803
X4.8819Y-5.0197
X4.8819Y-5.0591
X4.8819Y-5.0984
X4.8819Y-5.1378
X4.8819Y-5.1772
X4.8819Y-5.2165
X4.8819Y-5.4134
X4.8819Y-5.4528
X4.8819Y-5.4921
X4.8819Y-5.5315
X4.8819Y-5.5709
X4.8819Y-5.6102
X4.8819Y-5.6496
X4.8819Y-5.689
X4.8819Y-5.7283
X4.9213Y-2.185
X4.9213Y-2.2244
X4.9213Y-2.2638
X4.9213Y-2.3031
X4.9213Y-2.3425
X4.9213Y-2.3819
X4.9213Y-2.4213
X4.9213Y-2.4606
X4.9213Y-2.5
X4.9213Y-3.7402
X4.9213Y-3.7795
X4.9213Y-3.8189
X4.9213Y-4.2126
X4.9213Y-4.252
X4.9213Y-4.2913
X4.9213Y-5.374
X4.9213Y-5.4134
X4.9213Y-5.4528
X4.9213Y-5.4921
X4.9213Y-5.5315
X4.9213Y-5.5709
X4.9213Y-5.6102
X4.9213Y-5.6496
X4.9213Y-5.689
X4.9606Y-2.2244
X4.9606Y-2.2638
X4.9606Y-2.3031
X4.9606Y-2.3425
X4.9606Y-2.3819
X4.9606Y-2.4213
X4.9606Y-2.4606
X4.9606Y-2.5
X4.9606Y-2.5394
X4.9606Y-2.5787
X4.9606Y-2.6181
X4.9606Y-2.6575
X4.9606Y-2.6969
X4.9606Y-2.7362
X4.9606Y-2.7756
X4.9606Y-2.815
X4.9606Y-5.0591
X4.9606Y-5.0984
X4.9606Y-5.1378
X4.9606Y-5.1772
X4.9606Y-5.2165
X4.9606Y-5.2559
X4.9606Y-5.2953
X4.9606Y-5.3346
X4.9606Y-5.374
X4.9606Y-5.4134
X4.9606Y-5.4528
X4.9606Y-5.4921
X4.9606Y-5.5315
X4.9606Y-5.5709
X4.9606Y-5.6102
X4.9606Y-5.6496
X5.0Y-2.3031
X5.0Y-2.3425
X5.0Y-2.3819
X5.0Y-2.4213
X5.0Y-2.4606
X5.0Y-2.5
X5.0Y-2.5394
X5.0Y-2.5787
X5.0Y-2.6181
X5.0Y-2.6575
X5.0Y-2.6969
X5.0Y-2.7362
X5.0Y-2.7756
X5.0Y-2.815
X5.0Y-2.8543
X5.0Y-5.0197
X5.0Y-5.0591
X5.0Y-5.0984
X5.0Y-5.1378
X5.0Y-5.1772
X5.0Y-5.2165
X5.0Y-5.2559
X5.0Y-5.2953
X5.0Y-5.3346
X5.0Y-5.374
X5.0Y-5.4134
X5.0Y-5.4528
X5.0Y-5.4921
X5.0Y-5.5315
X5.0Y-5.5709
X5.0394Y-2.3819
X5.0394Y-2.4213
X5.0394Y-2.4606
X5.0394Y-2.5
X5.0394Y-2.5394
X5.0394Y-2.5787
X5.0394Y-2.6181
X5.0394Y-2.6575
X5.0394Y-2.6969
X5.0394Y-2.7362
X5.0394Y-2.7756
X5.0394Y-2.815
X5.0394Y-2.8543
X5.0394Y-2.8937
X5.0394Y-4.9803
X5.0394Y-5.0197
X5.0394Y-5.0591
X5.0394Y-5.0984
X5.0394Y-5.1378
X5.0394Y-5.1772
X5.0394Y-5.2165
X5.0394Y-5.2559
X5.0394Y-5.2953
X5.0394Y-5.3346
X5.0394Y-5.374
X5.0394Y-5.4134
X5.0394Y-5.4528
X5.0394Y-5.4921
X5.0787Y-2.4606
X5.0787Y-2.5
X5.0787Y-2.5394
X5.0787Y-2.5787
X5.0787Y-2.6181
X5.0787Y-2.6575
X5.0787Y-2.6969
X5.0787Y-2.7362
X5.0787Y-2.7756
X5.0787Y-2.815
X5.0787Y-2.8543
X5.0787Y-2.8937
X5.0787Y-2.9331
X5.0787Y-4.9409
X5.0787Y-4.9803
X5.0787Y-5.0197
X5.0787Y-5.0591
X5.0787Y-5.0984
X5.0787Y-5.1378
X5.0787Y-5.1772
X5.0787Y-5.2165
X5.0787Y-5.2559
X5.0787Y-5.2953
X5.0787Y-5.3346
X5.0787Y-5.374
X5.0787Y-5.4134
X5.1181Y-2.5394
X5.1181Y-2.5787
X5.1181Y-2.6181
X5.1181Y-2.6575
X5.1181Y-2.815
X5.1181Y-2.8543
X5.1181Y-2.8937
X5.1181Y-4.9803
X5.1181Y-5.0197
X5.1181Y-5.0591
X5.1181Y-5.2165
X5.1181Y-5.2559
X5.1181Y-5.2953
X5.1181Y-5.3346
X5.1378Y-3.7402
X5.1378Y-3.7795
X5.1378Y-3.8189
X5.1378Y-4.2126
X5.1378Y-4.252
X5.1378Y-4.2913
X5.1575Y-2.6181
X5.1575Y-2.6575
X5.1575Y-2.815
X5.1575Y-5.0591
X5.1575Y-5.2165
X5.1575Y-5.2559
T4
X3.9764Y-5.0
X3.9843Y-2.8738
X4.0112Y-4.9652
X4.0191Y-2.9086
X4.046Y-4.9304
X4.0539Y-2.9434
X4.0808Y-4.8956
X4.0887Y-2.9782
X4.1156Y-4.8608
X4.1235Y-3.013
X4.1504Y-4.826
X4.1583Y-3.0478
X4.1852Y-4.7912
X4.1931Y-3.0826
X4.2323Y-4.4488
X4.2323Y-4.498
X4.2323Y-4.5472
X4.2323Y-4.5965
X4.2717Y-3.2726
X4.2717Y-3.3219
X4.2717Y-3.3711
X4.2717Y-3.4203
T5
X4.5276Y-4.4685
X4.5276Y-4.5276
X4.5276Y-4.5866
X4.5276Y-4.6457
X4.5276Y-4.7047
X4.5276Y-4.7638
T6
X4.6919Y-3.0315
X4.9213Y-3.189
T7
X4.8583Y-3.2323
X4.8583Y-3.3701
X4.8583Y-4.4134
X4.8583Y-4.7047
X5.1575Y-2.7362
X5.1575Y-5.1378
X5.4134Y-3.7205
X5.4134Y-4.1535
T8
X4.9085Y-3.4843
X4.9085Y-3.9173
X5.1043Y-3.9567
X5.1043Y-4.3898
T9
X5.3012Y-4.0748
X5.3012Y-4.2717
X5.3022Y-3.6024
X5.3022Y-3.7992
T0
M30
