%TF.GenerationSoftware,KiCad,Pcbnew,(6.0.8)*%
%TF.CreationDate,2023-03-29T20:05:15+09:00*%
%TF.ProjectId,ORION_VV_driver_v4,4f52494f-4e5f-4565-965f-647269766572,rev?*%
%TF.SameCoordinates,Original*%
%TF.FileFunction,Soldermask,Bot*%
%TF.FilePolarity,Negative*%
%FSLAX46Y46*%
G04 Gerber Fmt 4.6, Leading zero omitted, Abs format (unit mm)*
G04 Created by KiCad (PCBNEW (6.0.8)) date 2023-03-29 20:05:15*
%MOMM*%
%LPD*%
G01*
G04 APERTURE LIST*
G04 Aperture macros list*
%AMRoundRect*
0 Rectangle with rounded corners*
0 $1 Rounding radius*
0 $2 $3 $4 $5 $6 $7 $8 $9 X,Y pos of 4 corners*
0 Add a 4 corners polygon primitive as box body*
4,1,4,$2,$3,$4,$5,$6,$7,$8,$9,$2,$3,0*
0 Add four circle primitives for the rounded corners*
1,1,$1+$1,$2,$3*
1,1,$1+$1,$4,$5*
1,1,$1+$1,$6,$7*
1,1,$1+$1,$8,$9*
0 Add four rect primitives between the rounded corners*
20,1,$1+$1,$2,$3,$4,$5,0*
20,1,$1+$1,$4,$5,$6,$7,0*
20,1,$1+$1,$6,$7,$8,$9,0*
20,1,$1+$1,$8,$9,$2,$3,0*%
%AMHorizOval*
0 Thick line with rounded ends*
0 $1 width*
0 $2 $3 position (X,Y) of the first rounded end (center of the circle)*
0 $4 $5 position (X,Y) of the second rounded end (center of the circle)*
0 Add line between two ends*
20,1,$1,$2,$3,$4,$5,0*
0 Add two circle primitives to create the rounded ends*
1,1,$1,$2,$3*
1,1,$1,$4,$5*%
%AMRotRect*
0 Rectangle, with rotation*
0 The origin of the aperture is its center*
0 $1 length*
0 $2 width*
0 $3 Rotation angle, in degrees counterclockwise*
0 Add horizontal line*
21,1,$1,$2,0,0,$3*%
%AMFreePoly0*
4,1,21,3.024497,2.399497,3.045000,2.350000,3.045000,-2.350000,3.024497,-2.399497,2.975000,-2.420000,1.425000,-2.420000,1.375503,-2.399497,1.355000,-2.350000,1.355000,-2.170000,-1.650000,-2.170000,-1.699497,-2.149497,-1.720000,-2.100000,-1.720000,2.100000,-1.699497,2.149497,-1.650000,2.170000,1.355000,2.170000,1.355000,2.350000,1.375503,2.399497,1.425000,2.420000,2.975000,2.420000,
3.024497,2.399497,3.024497,2.399497,$1*%
G04 Aperture macros list end*
%ADD10RoundRect,0.225000X0.475000X-0.225000X0.475000X0.225000X-0.475000X0.225000X-0.475000X-0.225000X0*%
%ADD11O,1.400000X0.900000*%
%ADD12C,1.400000*%
%ADD13R,3.500000X3.500000*%
%ADD14C,3.500000*%
%ADD15RoundRect,0.225000X0.494975X0.176777X0.176777X0.494975X-0.494975X-0.176777X-0.176777X-0.494975X0*%
%ADD16HorizOval,0.900000X0.176777X0.176777X-0.176777X-0.176777X0*%
%ADD17RoundRect,0.225000X-0.475000X0.225000X-0.475000X-0.225000X0.475000X-0.225000X0.475000X0.225000X0*%
%ADD18RoundRect,0.225000X0.176777X-0.494975X0.494975X-0.176777X-0.176777X0.494975X-0.494975X0.176777X0*%
%ADD19HorizOval,0.900000X-0.176777X0.176777X0.176777X-0.176777X0*%
%ADD20RoundRect,0.225000X-0.575000X0.225000X-0.575000X-0.225000X0.575000X-0.225000X0.575000X0.225000X0*%
%ADD21RoundRect,0.140000X0.140000X0.170000X-0.140000X0.170000X-0.140000X-0.170000X0.140000X-0.170000X0*%
%ADD22RoundRect,0.200000X-0.275000X0.200000X-0.275000X-0.200000X0.275000X-0.200000X0.275000X0.200000X0*%
%ADD23RoundRect,0.200000X0.053033X-0.335876X0.335876X-0.053033X-0.053033X0.335876X-0.335876X0.053033X0*%
%ADD24RoundRect,0.200000X0.275000X-0.200000X0.275000X0.200000X-0.275000X0.200000X-0.275000X-0.200000X0*%
%ADD25RoundRect,0.200000X0.200000X0.275000X-0.200000X0.275000X-0.200000X-0.275000X0.200000X-0.275000X0*%
%ADD26RoundRect,0.225000X-0.335876X-0.017678X-0.017678X-0.335876X0.335876X0.017678X0.017678X0.335876X0*%
%ADD27RoundRect,0.200000X-0.200000X-0.275000X0.200000X-0.275000X0.200000X0.275000X-0.200000X0.275000X0*%
%ADD28RoundRect,0.070000X0.159099X-0.654074X0.654074X-0.159099X-0.159099X0.654074X-0.654074X0.159099X0*%
%ADD29FreePoly0,315.000000*%
%ADD30RoundRect,0.140000X-0.140000X-0.170000X0.140000X-0.170000X0.140000X0.170000X-0.140000X0.170000X0*%
%ADD31RoundRect,0.140000X0.170000X-0.140000X0.170000X0.140000X-0.170000X0.140000X-0.170000X-0.140000X0*%
%ADD32RoundRect,0.200000X-0.335876X-0.053033X-0.053033X-0.335876X0.335876X0.053033X0.053033X0.335876X0*%
%ADD33RoundRect,0.150000X0.150000X-0.725000X0.150000X0.725000X-0.150000X0.725000X-0.150000X-0.725000X0*%
%ADD34RoundRect,0.218750X0.256250X-0.218750X0.256250X0.218750X-0.256250X0.218750X-0.256250X-0.218750X0*%
%ADD35RoundRect,0.218750X-0.335876X-0.026517X-0.026517X-0.335876X0.335876X0.026517X0.026517X0.335876X0*%
%ADD36RoundRect,0.062500X-0.220971X-0.309359X0.309359X0.220971X0.220971X0.309359X-0.309359X-0.220971X0*%
%ADD37RoundRect,0.062500X0.220971X-0.309359X0.309359X-0.220971X-0.220971X0.309359X-0.309359X0.220971X0*%
%ADD38RotRect,2.600000X2.600000X45.000000*%
%ADD39RoundRect,0.218750X-0.218750X-0.256250X0.218750X-0.256250X0.218750X0.256250X-0.218750X0.256250X0*%
%ADD40R,0.650000X0.400000*%
%ADD41RoundRect,0.140000X0.021213X-0.219203X0.219203X-0.021213X-0.021213X0.219203X-0.219203X0.021213X0*%
%ADD42RoundRect,0.225000X0.225000X0.250000X-0.225000X0.250000X-0.225000X-0.250000X0.225000X-0.250000X0*%
%ADD43RoundRect,0.218750X-0.026517X0.335876X-0.335876X0.026517X0.026517X-0.335876X0.335876X-0.026517X0*%
%ADD44RoundRect,0.070000X0.654074X0.159099X0.159099X0.654074X-0.654074X-0.159099X-0.159099X-0.654074X0*%
%ADD45FreePoly0,45.000000*%
%ADD46RoundRect,0.225000X-0.250000X0.225000X-0.250000X-0.225000X0.250000X-0.225000X0.250000X0.225000X0*%
%ADD47RoundRect,0.200000X0.335876X0.053033X0.053033X0.335876X-0.335876X-0.053033X-0.053033X-0.335876X0*%
%ADD48RoundRect,0.150000X-0.512500X-0.150000X0.512500X-0.150000X0.512500X0.150000X-0.512500X0.150000X0*%
%ADD49RoundRect,0.200000X-0.053033X0.335876X-0.335876X0.053033X0.053033X-0.335876X0.335876X-0.053033X0*%
%ADD50RotRect,0.400000X1.900000X315.000000*%
%ADD51RoundRect,0.225000X0.017678X-0.335876X0.335876X-0.017678X-0.017678X0.335876X-0.335876X0.017678X0*%
%ADD52RoundRect,0.075000X-0.441942X-0.548008X0.548008X0.441942X0.441942X0.548008X-0.548008X-0.441942X0*%
%ADD53RoundRect,0.075000X0.441942X-0.548008X0.548008X-0.441942X-0.441942X0.548008X-0.548008X0.441942X0*%
%ADD54R,1.800000X2.500000*%
%ADD55RoundRect,0.062500X-0.309359X0.220971X0.220971X-0.309359X0.309359X-0.220971X-0.220971X0.309359X0*%
%ADD56RoundRect,0.062500X-0.309359X-0.220971X-0.220971X-0.309359X0.309359X0.220971X0.220971X0.309359X0*%
%ADD57RotRect,2.600000X2.600000X315.000000*%
%ADD58RoundRect,0.225000X-0.225000X-0.250000X0.225000X-0.250000X0.225000X0.250000X-0.225000X0.250000X0*%
%ADD59RoundRect,0.140000X-0.170000X0.140000X-0.170000X-0.140000X0.170000X-0.140000X0.170000X0.140000X0*%
%ADD60RoundRect,0.218750X0.218750X0.256250X-0.218750X0.256250X-0.218750X-0.256250X0.218750X-0.256250X0*%
%ADD61RoundRect,0.225000X0.335876X0.017678X0.017678X0.335876X-0.335876X-0.017678X-0.017678X-0.335876X0*%
G04 APERTURE END LIST*
D10*
%TO.C,J2*%
X108500000Y-86875000D03*
D11*
X108500000Y-85625000D03*
X108500000Y-84375000D03*
X108500000Y-83125000D03*
%TD*%
D12*
%TO.C,J11*%
X124675000Y-99500000D03*
X124675000Y-88500000D03*
D13*
X134675000Y-91500000D03*
D14*
X134675000Y-96500000D03*
%TD*%
D15*
%TO.C,J6*%
X106505204Y-78298097D03*
D16*
X105621321Y-77414214D03*
X104737437Y-76530330D03*
X103853554Y-75646447D03*
X102969670Y-74762563D03*
X102085787Y-73878680D03*
X101201903Y-72994796D03*
%TD*%
D17*
%TO.C,J3*%
X107500000Y-113000000D03*
D11*
X107500000Y-114250000D03*
X107500000Y-115500000D03*
X107500000Y-116750000D03*
%TD*%
D12*
%TO.C,J15*%
X129650000Y-111500000D03*
X129650000Y-100500000D03*
D13*
X134650000Y-108500000D03*
D14*
X134650000Y-103500000D03*
%TD*%
D18*
%TO.C,J5*%
X101000000Y-127000000D03*
D19*
X101883883Y-126116117D03*
X102767767Y-125232233D03*
X103651650Y-124348350D03*
X104535534Y-123464466D03*
X105419417Y-122580583D03*
X106303301Y-121696699D03*
%TD*%
D20*
%TO.C,J4*%
X115000000Y-113500000D03*
X115000000Y-115000000D03*
X115000000Y-116500000D03*
X115000000Y-118000000D03*
X115000000Y-119500000D03*
X115000000Y-121000000D03*
%TD*%
D21*
%TO.C,C7*%
X114480000Y-108500000D03*
X113520000Y-108500000D03*
%TD*%
D22*
%TO.C,FB1*%
X102500000Y-99675000D03*
X102500000Y-101325000D03*
%TD*%
D23*
%TO.C,R25*%
X101416637Y-61083363D03*
X102583363Y-59916637D03*
%TD*%
D24*
%TO.C,R32*%
X110000000Y-79825000D03*
X110000000Y-78175000D03*
%TD*%
D25*
%TO.C,R5*%
X108825000Y-74000000D03*
X107175000Y-74000000D03*
%TD*%
%TO.C,R10*%
X123325000Y-101500000D03*
X121675000Y-101500000D03*
%TD*%
D21*
%TO.C,C47*%
X113460000Y-75500000D03*
X112500000Y-75500000D03*
%TD*%
D26*
%TO.C,C22*%
X96451992Y-53451992D03*
X97548008Y-54548008D03*
%TD*%
D27*
%TO.C,R2*%
X120675000Y-115500000D03*
X122325000Y-115500000D03*
%TD*%
D24*
%TO.C,R13*%
X122000000Y-84825000D03*
X122000000Y-83175000D03*
%TD*%
D26*
%TO.C,C21*%
X101951992Y-57451992D03*
X103048008Y-58548008D03*
%TD*%
D28*
%TO.C,Q10*%
X100144778Y-148845926D03*
X101042804Y-147947901D03*
X101947901Y-147042804D03*
X102845926Y-146144778D03*
D29*
X103807591Y-149807591D03*
%TD*%
D27*
%TO.C,R24*%
X101175000Y-132500000D03*
X102825000Y-132500000D03*
%TD*%
D30*
%TO.C,C16*%
X112020000Y-90000000D03*
X112980000Y-90000000D03*
%TD*%
D31*
%TO.C,C15*%
X117473452Y-121980000D03*
X117473452Y-121020000D03*
%TD*%
D32*
%TO.C,R18*%
X102916637Y-138416637D03*
X104083363Y-139583363D03*
%TD*%
D33*
%TO.C,U3*%
X122405000Y-93575000D03*
X121135000Y-93575000D03*
X119865000Y-93575000D03*
X118595000Y-93575000D03*
X118595000Y-88425000D03*
X119865000Y-88425000D03*
X121135000Y-88425000D03*
X122405000Y-88425000D03*
%TD*%
D34*
%TO.C,D8*%
X106500000Y-133787500D03*
X106500000Y-132212500D03*
%TD*%
D26*
%TO.C,C43*%
X118451992Y-140451992D03*
X119548008Y-141548008D03*
%TD*%
%TO.C,C40*%
X97951992Y-150451992D03*
X99048008Y-151548008D03*
%TD*%
D35*
%TO.C,D10*%
X104443153Y-59943153D03*
X105556847Y-61056847D03*
%TD*%
D25*
%TO.C,R35*%
X134554524Y-75500000D03*
X132904524Y-75500000D03*
%TD*%
D28*
%TO.C,Q5*%
X109644778Y-150538335D03*
X110542804Y-149640310D03*
X111447901Y-148735213D03*
X112345926Y-147837187D03*
D29*
X113307591Y-151500000D03*
%TD*%
D36*
%TO.C,GD2*%
X97513864Y-65253903D03*
X97160311Y-64900349D03*
X96806757Y-64546796D03*
X96453204Y-64193243D03*
X96099651Y-63839689D03*
X95746097Y-63486136D03*
D37*
X95746097Y-62513864D03*
X96099651Y-62160311D03*
X96453204Y-61806757D03*
X96806757Y-61453204D03*
X97160311Y-61099651D03*
X97513864Y-60746097D03*
D36*
X98486136Y-60746097D03*
X98839689Y-61099651D03*
X99193243Y-61453204D03*
X99546796Y-61806757D03*
X99900349Y-62160311D03*
X100253903Y-62513864D03*
D37*
X100253903Y-63486136D03*
X99900349Y-63839689D03*
X99546796Y-64193243D03*
X99193243Y-64546796D03*
X98839689Y-64900349D03*
X98486136Y-65253903D03*
D38*
X98000000Y-63000000D03*
%TD*%
D21*
%TO.C,C9*%
X120980000Y-95500000D03*
X120020000Y-95500000D03*
%TD*%
D39*
%TO.C,D5*%
X110712500Y-115000000D03*
X112287500Y-115000000D03*
%TD*%
D40*
%TO.C,U5*%
X119523452Y-122650000D03*
X119523452Y-122000000D03*
X119523452Y-121350000D03*
X121423452Y-121350000D03*
X121423452Y-122000000D03*
X121423452Y-122650000D03*
%TD*%
D41*
%TO.C,C5*%
X108460589Y-92639411D03*
X109139411Y-91960589D03*
%TD*%
D31*
%TO.C,C11*%
X102500000Y-103480000D03*
X102500000Y-102520000D03*
%TD*%
D26*
%TO.C,C42*%
X117451992Y-141451992D03*
X118548008Y-142548008D03*
%TD*%
D42*
%TO.C,C12*%
X97775000Y-131500000D03*
X96225000Y-131500000D03*
%TD*%
D43*
%TO.C,D6*%
X94556847Y-139943153D03*
X93443153Y-141056847D03*
%TD*%
D28*
%TO.C,Q2*%
X108144778Y-140845926D03*
X109042804Y-139947901D03*
X109947901Y-139042804D03*
X110845926Y-138144778D03*
D29*
X111807591Y-141807591D03*
%TD*%
D44*
%TO.C,Q4*%
X102845926Y-53855222D03*
X101947901Y-52957196D03*
X101042804Y-52052099D03*
X100144778Y-51154074D03*
D45*
X103807591Y-50192409D03*
%TD*%
D27*
%TO.C,R4*%
X120675000Y-119500000D03*
X122325000Y-119500000D03*
%TD*%
%TO.C,R3*%
X120675000Y-113500000D03*
X122325000Y-113500000D03*
%TD*%
D46*
%TO.C,C24*%
X120500000Y-83225000D03*
X120500000Y-84775000D03*
%TD*%
D47*
%TO.C,R21*%
X99083363Y-58583363D03*
X97916637Y-57416637D03*
%TD*%
D28*
%TO.C,Q9*%
X105644778Y-154614070D03*
X106542804Y-153716045D03*
X107447901Y-152810948D03*
X108345926Y-151912922D03*
D29*
X109307591Y-155575735D03*
%TD*%
D44*
%TO.C,Q7*%
X112345926Y-52355222D03*
X111447901Y-51457196D03*
X110542804Y-50552099D03*
X109644778Y-49654074D03*
D45*
X113307591Y-48692409D03*
%TD*%
D48*
%TO.C,U1*%
X111862500Y-80450000D03*
X111862500Y-79500000D03*
X111862500Y-78550000D03*
X114137500Y-78550000D03*
X114137500Y-79500000D03*
X114137500Y-80450000D03*
%TD*%
D44*
%TO.C,Q8*%
X106845926Y-57855222D03*
X105947901Y-56957196D03*
X105042804Y-56052099D03*
X104144778Y-55154074D03*
D45*
X107807591Y-54192409D03*
%TD*%
D43*
%TO.C,D7*%
X97056847Y-144443153D03*
X95943153Y-145556847D03*
%TD*%
D49*
%TO.C,R15*%
X106083363Y-124916637D03*
X104916637Y-126083363D03*
%TD*%
D50*
%TO.C,Y1*%
X104151472Y-107651472D03*
X105000000Y-108500000D03*
X105848528Y-109348528D03*
%TD*%
D35*
%TO.C,D11*%
X98943153Y-55943153D03*
X100056847Y-57056847D03*
%TD*%
D42*
%TO.C,C20*%
X108275000Y-66000000D03*
X106725000Y-66000000D03*
%TD*%
D24*
%TO.C,R12*%
X120473452Y-125325000D03*
X120473452Y-123675000D03*
%TD*%
D51*
%TO.C,C44*%
X116951992Y-58548008D03*
X118048008Y-57451992D03*
%TD*%
D24*
%TO.C,R16*%
X111500000Y-73325000D03*
X111500000Y-71675000D03*
%TD*%
D52*
%TO.C,U4*%
X110138819Y-106664481D03*
X109785266Y-106310928D03*
X109431713Y-105957375D03*
X109078159Y-105603821D03*
X108724606Y-105250268D03*
X108371052Y-104896714D03*
X108017499Y-104543161D03*
X107663946Y-104189608D03*
X107310392Y-103836054D03*
X106956839Y-103482501D03*
X106603286Y-103128948D03*
X106249732Y-102775394D03*
X105896179Y-102421841D03*
X105542625Y-102068287D03*
X105189072Y-101714734D03*
X104835519Y-101361181D03*
D53*
X104835519Y-98638819D03*
X105189072Y-98285266D03*
X105542625Y-97931713D03*
X105896179Y-97578159D03*
X106249732Y-97224606D03*
X106603286Y-96871052D03*
X106956839Y-96517499D03*
X107310392Y-96163946D03*
X107663946Y-95810392D03*
X108017499Y-95456839D03*
X108371052Y-95103286D03*
X108724606Y-94749732D03*
X109078159Y-94396179D03*
X109431713Y-94042625D03*
X109785266Y-93689072D03*
X110138819Y-93335519D03*
D52*
X112861181Y-93335519D03*
X113214734Y-93689072D03*
X113568287Y-94042625D03*
X113921841Y-94396179D03*
X114275394Y-94749732D03*
X114628948Y-95103286D03*
X114982501Y-95456839D03*
X115336054Y-95810392D03*
X115689608Y-96163946D03*
X116043161Y-96517499D03*
X116396714Y-96871052D03*
X116750268Y-97224606D03*
X117103821Y-97578159D03*
X117457375Y-97931713D03*
X117810928Y-98285266D03*
X118164481Y-98638819D03*
D53*
X118164481Y-101361181D03*
X117810928Y-101714734D03*
X117457375Y-102068287D03*
X117103821Y-102421841D03*
X116750268Y-102775394D03*
X116396714Y-103128948D03*
X116043161Y-103482501D03*
X115689608Y-103836054D03*
X115336054Y-104189608D03*
X114982501Y-104543161D03*
X114628948Y-104896714D03*
X114275394Y-105250268D03*
X113921841Y-105603821D03*
X113568287Y-105957375D03*
X113214734Y-106310928D03*
X112861181Y-106664481D03*
%TD*%
D54*
%TO.C,D16*%
X130500000Y-108000000D03*
X130500000Y-104000000D03*
%TD*%
D25*
%TO.C,R11*%
X113325000Y-91500000D03*
X111675000Y-91500000D03*
%TD*%
D26*
%TO.C,C13*%
X92451992Y-63451992D03*
X93548008Y-64548008D03*
%TD*%
D24*
%TO.C,R17*%
X115000000Y-73325000D03*
X115000000Y-71675000D03*
%TD*%
D28*
%TO.C,Q1*%
X113644778Y-146538335D03*
X114542804Y-145640310D03*
X115447901Y-144735213D03*
X116345926Y-143837187D03*
D29*
X117307591Y-147500000D03*
%TD*%
D24*
%TO.C,R6*%
X106500000Y-84825000D03*
X106500000Y-83175000D03*
%TD*%
D55*
%TO.C,GD1*%
X96003635Y-136513864D03*
X96357189Y-136160311D03*
X96710742Y-135806757D03*
X97064295Y-135453204D03*
X97417849Y-135099651D03*
X97771402Y-134746097D03*
D56*
X98743674Y-134746097D03*
X99097227Y-135099651D03*
X99450781Y-135453204D03*
X99804334Y-135806757D03*
X100157887Y-136160311D03*
X100511441Y-136513864D03*
D55*
X100511441Y-137486136D03*
X100157887Y-137839689D03*
X99804334Y-138193243D03*
X99450781Y-138546796D03*
X99097227Y-138900349D03*
X98743674Y-139253903D03*
D56*
X97771402Y-139253903D03*
X97417849Y-138900349D03*
X97064295Y-138546796D03*
X96710742Y-138193243D03*
X96357189Y-137839689D03*
X96003635Y-137486136D03*
D57*
X98257538Y-137000000D03*
%TD*%
D24*
%TO.C,R8*%
X119000000Y-83825000D03*
X119000000Y-82175000D03*
%TD*%
D44*
%TO.C,Q3*%
X108398025Y-48398026D03*
X107500000Y-47500000D03*
X106594903Y-46594903D03*
X105696877Y-45696878D03*
D45*
X109359690Y-44735213D03*
%TD*%
D27*
%TO.C,R29*%
X101175000Y-134000000D03*
X102825000Y-134000000D03*
%TD*%
D54*
%TO.C,D17*%
X125000000Y-108000000D03*
X125000000Y-104000000D03*
%TD*%
D58*
%TO.C,C19*%
X104725000Y-135500000D03*
X106275000Y-135500000D03*
%TD*%
D27*
%TO.C,R19*%
X101175000Y-131000000D03*
X102825000Y-131000000D03*
%TD*%
D28*
%TO.C,Q6*%
X104144778Y-144845926D03*
X105042804Y-143947901D03*
X105947901Y-143042804D03*
X106845926Y-142144778D03*
D29*
X107807591Y-145807591D03*
%TD*%
D24*
%TO.C,R9*%
X119000000Y-80825000D03*
X119000000Y-79175000D03*
%TD*%
D27*
%TO.C,R33*%
X112175000Y-77000000D03*
X113825000Y-77000000D03*
%TD*%
%TO.C,R1*%
X120675000Y-117500000D03*
X122325000Y-117500000D03*
%TD*%
D47*
%TO.C,R22*%
X94083363Y-60083363D03*
X92916637Y-58916637D03*
%TD*%
D44*
%TO.C,Q12*%
X110845926Y-61855222D03*
X109947901Y-60957196D03*
X109042804Y-60052099D03*
X108144778Y-59154074D03*
D45*
X111807591Y-58192409D03*
%TD*%
D40*
%TO.C,U6*%
X121550000Y-81150000D03*
X121550000Y-80500000D03*
X121550000Y-79850000D03*
X123450000Y-79850000D03*
X123450000Y-80500000D03*
X123450000Y-81150000D03*
%TD*%
D44*
%TO.C,Q11*%
X116316152Y-56384996D03*
X115418127Y-55486970D03*
X114513030Y-54581873D03*
X113615004Y-53683848D03*
D45*
X117277817Y-52722183D03*
%TD*%
D47*
%TO.C,R31*%
X96083363Y-58083363D03*
X94916637Y-56916637D03*
%TD*%
D32*
%TO.C,R23*%
X100416637Y-140916637D03*
X101583363Y-142083363D03*
%TD*%
D21*
%TO.C,C6*%
X110980000Y-108500000D03*
X110020000Y-108500000D03*
%TD*%
D54*
%TO.C,D18*%
X125000000Y-96000000D03*
X125000000Y-92000000D03*
%TD*%
D59*
%TO.C,C8*%
X103500000Y-95020000D03*
X103500000Y-95980000D03*
%TD*%
D47*
%TO.C,R27*%
X95083363Y-59083363D03*
X93916637Y-57916637D03*
%TD*%
D60*
%TO.C,D9*%
X105287500Y-66000000D03*
X103712500Y-66000000D03*
%TD*%
D21*
%TO.C,C46*%
X113480000Y-81500000D03*
X112520000Y-81500000D03*
%TD*%
D49*
%TO.C,R28*%
X97583363Y-140916637D03*
X96416637Y-142083363D03*
%TD*%
D32*
%TO.C,R14*%
X103916637Y-72916637D03*
X105083363Y-74083363D03*
%TD*%
D27*
%TO.C,R7*%
X112675000Y-110000000D03*
X114325000Y-110000000D03*
%TD*%
D61*
%TO.C,C18*%
X99548008Y-144048008D03*
X98451992Y-142951992D03*
%TD*%
D21*
%TO.C,C50*%
X138789524Y-77740000D03*
X137829524Y-77740000D03*
%TD*%
D31*
%TO.C,C14*%
X120500000Y-80480000D03*
X120500000Y-79520000D03*
%TD*%
D25*
%TO.C,R34*%
X138564524Y-75500000D03*
X136914524Y-75500000D03*
%TD*%
D54*
%TO.C,D19*%
X130500000Y-96000000D03*
X130500000Y-92000000D03*
%TD*%
D51*
%TO.C,C45*%
X117951992Y-59548008D03*
X119048008Y-58451992D03*
%TD*%
%TO.C,C17*%
X95451992Y-141048008D03*
X96548008Y-139951992D03*
%TD*%
D27*
%TO.C,R30*%
X102675000Y-63500000D03*
X104325000Y-63500000D03*
%TD*%
D51*
%TO.C,C41*%
X97951992Y-49548008D03*
X99048008Y-48451992D03*
%TD*%
D46*
%TO.C,C23*%
X117973452Y-123725000D03*
X117973452Y-125275000D03*
%TD*%
G36*
X98054952Y-50553335D02*
G01*
X114996443Y-66996547D01*
X115004053Y-67002852D01*
X128446512Y-76462360D01*
X128490711Y-76517921D01*
X128500000Y-76565404D01*
X128500000Y-123933720D01*
X128479998Y-124001841D01*
X128445383Y-124037549D01*
X112504758Y-134996729D01*
X112495915Y-135004085D01*
X97073041Y-150426959D01*
X97010729Y-150460985D01*
X96939914Y-150455920D01*
X96914054Y-150442702D01*
X95627882Y-149585254D01*
X95582297Y-149530825D01*
X95573375Y-149460391D01*
X95608679Y-149391321D01*
X110991818Y-134008182D01*
X111009530Y-133993448D01*
X126985071Y-123010264D01*
X126998804Y-122993381D01*
X127000000Y-122987442D01*
X127000000Y-77518115D01*
X126993599Y-77496314D01*
X126990601Y-77493131D01*
X114007125Y-68005207D01*
X113993672Y-67993853D01*
X96648631Y-51144384D01*
X96613707Y-51082572D01*
X96617745Y-51011690D01*
X96659463Y-50954244D01*
X96696581Y-50934473D01*
X97927351Y-50524216D01*
X97998301Y-50521650D01*
X98054952Y-50553335D01*
G37*
M02*
