%TF.GenerationSoftware,KiCad,Pcbnew,(6.0.8)*%
%TF.CreationDate,2023-03-29T20:05:15+09:00*%
%TF.ProjectId,ORION_VV_driver_v4,4f52494f-4e5f-4565-965f-647269766572,rev?*%
%TF.SameCoordinates,Original*%
%TF.FileFunction,Legend,Bot*%
%TF.FilePolarity,Positive*%
%FSLAX46Y46*%
G04 Gerber Fmt 4.6, Leading zero omitted, Abs format (unit mm)*
G04 Created by KiCad (PCBNEW (6.0.8)) date 2023-03-29 20:05:15*
%MOMM*%
%LPD*%
G01*
G04 APERTURE LIST*
%ADD10C,0.150000*%
%ADD11C,0.120000*%
G04 APERTURE END LIST*
D10*
X137000000Y-100000000D02*
G75*
G03*
X137000000Y-100000000I-83000000J0D01*
G01*
%TO.C,C7*%
X116166666Y-108857142D02*
X116214285Y-108904761D01*
X116357142Y-108952380D01*
X116452380Y-108952380D01*
X116595238Y-108904761D01*
X116690476Y-108809523D01*
X116738095Y-108714285D01*
X116785714Y-108523809D01*
X116785714Y-108380952D01*
X116738095Y-108190476D01*
X116690476Y-108095238D01*
X116595238Y-108000000D01*
X116452380Y-107952380D01*
X116357142Y-107952380D01*
X116214285Y-108000000D01*
X116166666Y-108047619D01*
X115833333Y-107952380D02*
X115166666Y-107952380D01*
X115595238Y-108952380D01*
%TO.C,FB1*%
X100928571Y-99666666D02*
X100928571Y-99333333D01*
X101452380Y-99333333D02*
X100452380Y-99333333D01*
X100452380Y-99809523D01*
X100928571Y-100523809D02*
X100976190Y-100666666D01*
X101023809Y-100714285D01*
X101119047Y-100761904D01*
X101261904Y-100761904D01*
X101357142Y-100714285D01*
X101404761Y-100666666D01*
X101452380Y-100571428D01*
X101452380Y-100190476D01*
X100452380Y-100190476D01*
X100452380Y-100523809D01*
X100500000Y-100619047D01*
X100547619Y-100666666D01*
X100642857Y-100714285D01*
X100738095Y-100714285D01*
X100833333Y-100666666D01*
X100880952Y-100619047D01*
X100928571Y-100523809D01*
X100928571Y-100190476D01*
X101452380Y-101714285D02*
X101452380Y-101142857D01*
X101452380Y-101428571D02*
X100452380Y-101428571D01*
X100595238Y-101333333D01*
X100690476Y-101238095D01*
X100738095Y-101142857D01*
%TO.C,R25*%
X103785613Y-61376475D02*
X103684598Y-60804056D01*
X104189674Y-60972414D02*
X103482567Y-60265308D01*
X103213193Y-60534682D01*
X103179521Y-60635697D01*
X103179521Y-60703040D01*
X103213193Y-60804056D01*
X103314208Y-60905071D01*
X103415224Y-60938743D01*
X103482567Y-60938743D01*
X103583582Y-60905071D01*
X103852956Y-60635697D01*
X102876475Y-61006086D02*
X102809132Y-61006086D01*
X102708117Y-61039758D01*
X102539758Y-61208117D01*
X102506086Y-61309132D01*
X102506086Y-61376475D01*
X102539758Y-61477491D01*
X102607101Y-61544834D01*
X102741788Y-61612178D01*
X103549911Y-61612178D01*
X103112178Y-62049911D01*
X101765308Y-61982567D02*
X102102025Y-61645850D01*
X102472414Y-61948895D01*
X102405071Y-61948895D01*
X102304056Y-61982567D01*
X102135697Y-62150926D01*
X102102025Y-62251941D01*
X102102025Y-62319285D01*
X102135697Y-62420300D01*
X102304056Y-62588659D01*
X102405071Y-62622330D01*
X102472414Y-62622330D01*
X102573430Y-62588659D01*
X102741788Y-62420300D01*
X102775460Y-62319285D01*
X102775460Y-62251941D01*
%TO.C,R32*%
X111882380Y-78357142D02*
X111406190Y-78023809D01*
X111882380Y-77785714D02*
X110882380Y-77785714D01*
X110882380Y-78166666D01*
X110930000Y-78261904D01*
X110977619Y-78309523D01*
X111072857Y-78357142D01*
X111215714Y-78357142D01*
X111310952Y-78309523D01*
X111358571Y-78261904D01*
X111406190Y-78166666D01*
X111406190Y-77785714D01*
X110882380Y-78690476D02*
X110882380Y-79309523D01*
X111263333Y-78976190D01*
X111263333Y-79119047D01*
X111310952Y-79214285D01*
X111358571Y-79261904D01*
X111453809Y-79309523D01*
X111691904Y-79309523D01*
X111787142Y-79261904D01*
X111834761Y-79214285D01*
X111882380Y-79119047D01*
X111882380Y-78833333D01*
X111834761Y-78738095D01*
X111787142Y-78690476D01*
X110977619Y-79690476D02*
X110930000Y-79738095D01*
X110882380Y-79833333D01*
X110882380Y-80071428D01*
X110930000Y-80166666D01*
X110977619Y-80214285D01*
X111072857Y-80261904D01*
X111168095Y-80261904D01*
X111310952Y-80214285D01*
X111882380Y-79642857D01*
X111882380Y-80261904D01*
%TO.C,R5*%
X108166666Y-72952380D02*
X108500000Y-72476190D01*
X108738095Y-72952380D02*
X108738095Y-71952380D01*
X108357142Y-71952380D01*
X108261904Y-72000000D01*
X108214285Y-72047619D01*
X108166666Y-72142857D01*
X108166666Y-72285714D01*
X108214285Y-72380952D01*
X108261904Y-72428571D01*
X108357142Y-72476190D01*
X108738095Y-72476190D01*
X107261904Y-71952380D02*
X107738095Y-71952380D01*
X107785714Y-72428571D01*
X107738095Y-72380952D01*
X107642857Y-72333333D01*
X107404761Y-72333333D01*
X107309523Y-72380952D01*
X107261904Y-72428571D01*
X107214285Y-72523809D01*
X107214285Y-72761904D01*
X107261904Y-72857142D01*
X107309523Y-72904761D01*
X107404761Y-72952380D01*
X107642857Y-72952380D01*
X107738095Y-72904761D01*
X107785714Y-72857142D01*
%TO.C,R10*%
X123142857Y-103452380D02*
X123476190Y-102976190D01*
X123714285Y-103452380D02*
X123714285Y-102452380D01*
X123333333Y-102452380D01*
X123238095Y-102500000D01*
X123190476Y-102547619D01*
X123142857Y-102642857D01*
X123142857Y-102785714D01*
X123190476Y-102880952D01*
X123238095Y-102928571D01*
X123333333Y-102976190D01*
X123714285Y-102976190D01*
X122190476Y-103452380D02*
X122761904Y-103452380D01*
X122476190Y-103452380D02*
X122476190Y-102452380D01*
X122571428Y-102595238D01*
X122666666Y-102690476D01*
X122761904Y-102738095D01*
X121571428Y-102452380D02*
X121476190Y-102452380D01*
X121380952Y-102500000D01*
X121333333Y-102547619D01*
X121285714Y-102642857D01*
X121238095Y-102833333D01*
X121238095Y-103071428D01*
X121285714Y-103261904D01*
X121333333Y-103357142D01*
X121380952Y-103404761D01*
X121476190Y-103452380D01*
X121571428Y-103452380D01*
X121666666Y-103404761D01*
X121714285Y-103357142D01*
X121761904Y-103261904D01*
X121809523Y-103071428D01*
X121809523Y-102833333D01*
X121761904Y-102642857D01*
X121714285Y-102547619D01*
X121666666Y-102500000D01*
X121571428Y-102452380D01*
%TO.C,C47*%
X113622857Y-74697142D02*
X113670476Y-74744761D01*
X113813333Y-74792380D01*
X113908571Y-74792380D01*
X114051428Y-74744761D01*
X114146666Y-74649523D01*
X114194285Y-74554285D01*
X114241904Y-74363809D01*
X114241904Y-74220952D01*
X114194285Y-74030476D01*
X114146666Y-73935238D01*
X114051428Y-73840000D01*
X113908571Y-73792380D01*
X113813333Y-73792380D01*
X113670476Y-73840000D01*
X113622857Y-73887619D01*
X112765714Y-74125714D02*
X112765714Y-74792380D01*
X113003809Y-73744761D02*
X113241904Y-74459047D01*
X112622857Y-74459047D01*
X112337142Y-73792380D02*
X111670476Y-73792380D01*
X112099047Y-74792380D01*
%TO.C,C22*%
X96707106Y-55797969D02*
X96774450Y-55797969D01*
X96909137Y-55730625D01*
X96976480Y-55663282D01*
X97043824Y-55528595D01*
X97043824Y-55393908D01*
X97010152Y-55292893D01*
X96909137Y-55124534D01*
X96808122Y-55023519D01*
X96639763Y-54922503D01*
X96538748Y-54888832D01*
X96404061Y-54888832D01*
X96269374Y-54956175D01*
X96202030Y-55023519D01*
X96134687Y-55158206D01*
X96134687Y-55225549D01*
X95865312Y-55494923D02*
X95797969Y-55494923D01*
X95696954Y-55528595D01*
X95528595Y-55696954D01*
X95494923Y-55797969D01*
X95494923Y-55865312D01*
X95528595Y-55966328D01*
X95595938Y-56033671D01*
X95730625Y-56101015D01*
X96538748Y-56101015D01*
X96101015Y-56538748D01*
X95191877Y-56168358D02*
X95124534Y-56168358D01*
X95023519Y-56202030D01*
X94855160Y-56370389D01*
X94821488Y-56471404D01*
X94821488Y-56538748D01*
X94855160Y-56639763D01*
X94922503Y-56707106D01*
X95057190Y-56774450D01*
X95865312Y-56774450D01*
X95427580Y-57212183D01*
%TO.C,R2*%
X117666666Y-115992380D02*
X118000000Y-115516190D01*
X118238095Y-115992380D02*
X118238095Y-114992380D01*
X117857142Y-114992380D01*
X117761904Y-115040000D01*
X117714285Y-115087619D01*
X117666666Y-115182857D01*
X117666666Y-115325714D01*
X117714285Y-115420952D01*
X117761904Y-115468571D01*
X117857142Y-115516190D01*
X118238095Y-115516190D01*
X117285714Y-115087619D02*
X117238095Y-115040000D01*
X117142857Y-114992380D01*
X116904761Y-114992380D01*
X116809523Y-115040000D01*
X116761904Y-115087619D01*
X116714285Y-115182857D01*
X116714285Y-115278095D01*
X116761904Y-115420952D01*
X117333333Y-115992380D01*
X116714285Y-115992380D01*
%TO.C,R13*%
X123952380Y-83357142D02*
X123476190Y-83023809D01*
X123952380Y-82785714D02*
X122952380Y-82785714D01*
X122952380Y-83166666D01*
X123000000Y-83261904D01*
X123047619Y-83309523D01*
X123142857Y-83357142D01*
X123285714Y-83357142D01*
X123380952Y-83309523D01*
X123428571Y-83261904D01*
X123476190Y-83166666D01*
X123476190Y-82785714D01*
X123952380Y-84309523D02*
X123952380Y-83738095D01*
X123952380Y-84023809D02*
X122952380Y-84023809D01*
X123095238Y-83928571D01*
X123190476Y-83833333D01*
X123238095Y-83738095D01*
X122952380Y-84642857D02*
X122952380Y-85261904D01*
X123333333Y-84928571D01*
X123333333Y-85071428D01*
X123380952Y-85166666D01*
X123428571Y-85214285D01*
X123523809Y-85261904D01*
X123761904Y-85261904D01*
X123857142Y-85214285D01*
X123904761Y-85166666D01*
X123952380Y-85071428D01*
X123952380Y-84785714D01*
X123904761Y-84690476D01*
X123857142Y-84642857D01*
%TO.C,C21*%
X101297969Y-58292893D02*
X101297969Y-58225549D01*
X101230625Y-58090862D01*
X101163282Y-58023519D01*
X101028595Y-57956175D01*
X100893908Y-57956175D01*
X100792893Y-57989847D01*
X100624534Y-58090862D01*
X100523519Y-58191877D01*
X100422503Y-58360236D01*
X100388832Y-58461251D01*
X100388832Y-58595938D01*
X100456175Y-58730625D01*
X100523519Y-58797969D01*
X100658206Y-58865312D01*
X100725549Y-58865312D01*
X100994923Y-59134687D02*
X100994923Y-59202030D01*
X101028595Y-59303045D01*
X101196954Y-59471404D01*
X101297969Y-59505076D01*
X101365312Y-59505076D01*
X101466328Y-59471404D01*
X101533671Y-59404061D01*
X101601015Y-59269374D01*
X101601015Y-58461251D01*
X102038748Y-58898984D01*
X102712183Y-59572419D02*
X102308122Y-59168358D01*
X102510152Y-59370389D02*
X101803045Y-60077496D01*
X101836717Y-59909137D01*
X101836717Y-59774450D01*
X101803045Y-59673435D01*
%TO.C,Q10*%
X101483163Y-151208713D02*
X101382147Y-151175042D01*
X101247460Y-151175042D01*
X101045430Y-151175042D01*
X100944415Y-151141370D01*
X100877071Y-151074026D01*
X101079102Y-150939339D02*
X100978086Y-150905668D01*
X100843399Y-150905668D01*
X100675041Y-151006683D01*
X100439338Y-151242385D01*
X100338323Y-151410744D01*
X100338323Y-151545431D01*
X100371995Y-151646446D01*
X100506682Y-151781133D01*
X100607697Y-151814805D01*
X100742384Y-151814805D01*
X100910743Y-151713790D01*
X101146445Y-151478087D01*
X101247460Y-151309729D01*
X101247460Y-151175042D01*
X101213789Y-151074026D01*
X101079102Y-150939339D01*
X102055582Y-151915820D02*
X101651521Y-151511759D01*
X101853552Y-151713790D02*
X101146445Y-152420896D01*
X101180117Y-152252538D01*
X101180117Y-152117851D01*
X101146445Y-152016835D01*
X101786208Y-153060660D02*
X101853552Y-153128003D01*
X101954567Y-153161675D01*
X102021911Y-153161675D01*
X102122926Y-153128003D01*
X102291285Y-153026988D01*
X102459643Y-152858629D01*
X102560659Y-152690270D01*
X102594330Y-152589255D01*
X102594330Y-152521912D01*
X102560659Y-152420896D01*
X102493315Y-152353553D01*
X102392300Y-152319881D01*
X102324956Y-152319881D01*
X102223941Y-152353553D01*
X102055582Y-152454568D01*
X101887224Y-152622927D01*
X101786208Y-152791286D01*
X101752537Y-152892301D01*
X101752537Y-152959644D01*
X101786208Y-153060660D01*
%TO.C,R24*%
X102642857Y-134382380D02*
X102976190Y-133906190D01*
X103214285Y-134382380D02*
X103214285Y-133382380D01*
X102833333Y-133382380D01*
X102738095Y-133430000D01*
X102690476Y-133477619D01*
X102642857Y-133572857D01*
X102642857Y-133715714D01*
X102690476Y-133810952D01*
X102738095Y-133858571D01*
X102833333Y-133906190D01*
X103214285Y-133906190D01*
X102261904Y-133477619D02*
X102214285Y-133430000D01*
X102119047Y-133382380D01*
X101880952Y-133382380D01*
X101785714Y-133430000D01*
X101738095Y-133477619D01*
X101690476Y-133572857D01*
X101690476Y-133668095D01*
X101738095Y-133810952D01*
X102309523Y-134382380D01*
X101690476Y-134382380D01*
X100833333Y-133715714D02*
X100833333Y-134382380D01*
X101071428Y-133334761D02*
X101309523Y-134049047D01*
X100690476Y-134049047D01*
%TO.C,C16*%
X113142857Y-88857142D02*
X113190476Y-88904761D01*
X113333333Y-88952380D01*
X113428571Y-88952380D01*
X113571428Y-88904761D01*
X113666666Y-88809523D01*
X113714285Y-88714285D01*
X113761904Y-88523809D01*
X113761904Y-88380952D01*
X113714285Y-88190476D01*
X113666666Y-88095238D01*
X113571428Y-88000000D01*
X113428571Y-87952380D01*
X113333333Y-87952380D01*
X113190476Y-88000000D01*
X113142857Y-88047619D01*
X112190476Y-88952380D02*
X112761904Y-88952380D01*
X112476190Y-88952380D02*
X112476190Y-87952380D01*
X112571428Y-88095238D01*
X112666666Y-88190476D01*
X112761904Y-88238095D01*
X111333333Y-87952380D02*
X111523809Y-87952380D01*
X111619047Y-88000000D01*
X111666666Y-88047619D01*
X111761904Y-88190476D01*
X111809523Y-88380952D01*
X111809523Y-88761904D01*
X111761904Y-88857142D01*
X111714285Y-88904761D01*
X111619047Y-88952380D01*
X111428571Y-88952380D01*
X111333333Y-88904761D01*
X111285714Y-88857142D01*
X111238095Y-88761904D01*
X111238095Y-88523809D01*
X111285714Y-88428571D01*
X111333333Y-88380952D01*
X111428571Y-88333333D01*
X111619047Y-88333333D01*
X111714285Y-88380952D01*
X111761904Y-88428571D01*
X111809523Y-88523809D01*
%TO.C,C15*%
X116857142Y-120857142D02*
X116904761Y-120809523D01*
X116952380Y-120666666D01*
X116952380Y-120571428D01*
X116904761Y-120428571D01*
X116809523Y-120333333D01*
X116714285Y-120285714D01*
X116523809Y-120238095D01*
X116380952Y-120238095D01*
X116190476Y-120285714D01*
X116095238Y-120333333D01*
X116000000Y-120428571D01*
X115952380Y-120571428D01*
X115952380Y-120666666D01*
X116000000Y-120809523D01*
X116047619Y-120857142D01*
X116952380Y-121809523D02*
X116952380Y-121238095D01*
X116952380Y-121523809D02*
X115952380Y-121523809D01*
X116095238Y-121428571D01*
X116190476Y-121333333D01*
X116238095Y-121238095D01*
X115952380Y-122714285D02*
X115952380Y-122238095D01*
X116428571Y-122190476D01*
X116380952Y-122238095D01*
X116333333Y-122333333D01*
X116333333Y-122571428D01*
X116380952Y-122666666D01*
X116428571Y-122714285D01*
X116523809Y-122761904D01*
X116761904Y-122761904D01*
X116857142Y-122714285D01*
X116904761Y-122666666D01*
X116952380Y-122571428D01*
X116952380Y-122333333D01*
X116904761Y-122238095D01*
X116857142Y-122190476D01*
%TO.C,R18*%
X102354149Y-139236712D02*
X101781730Y-139337727D01*
X101950088Y-138832651D02*
X101242982Y-139539758D01*
X101512356Y-139809132D01*
X101613371Y-139842804D01*
X101680714Y-139842804D01*
X101781730Y-139809132D01*
X101882745Y-139708117D01*
X101916417Y-139607101D01*
X101916417Y-139539758D01*
X101882745Y-139438743D01*
X101613371Y-139169369D01*
X103027585Y-139910147D02*
X102623524Y-139506086D01*
X102825554Y-139708117D02*
X102118447Y-140415224D01*
X102152119Y-140246865D01*
X102152119Y-140112178D01*
X102118447Y-140011163D01*
X103027585Y-140718269D02*
X102926569Y-140684598D01*
X102859226Y-140684598D01*
X102758211Y-140718269D01*
X102724539Y-140751941D01*
X102690867Y-140852956D01*
X102690867Y-140920300D01*
X102724539Y-141021315D01*
X102859226Y-141156002D01*
X102960241Y-141189674D01*
X103027585Y-141189674D01*
X103128600Y-141156002D01*
X103162272Y-141122330D01*
X103195943Y-141021315D01*
X103195943Y-140953972D01*
X103162272Y-140852956D01*
X103027585Y-140718269D01*
X102993913Y-140617254D01*
X102993913Y-140549911D01*
X103027585Y-140448895D01*
X103162272Y-140314208D01*
X103263287Y-140280537D01*
X103330630Y-140280537D01*
X103431646Y-140314208D01*
X103566333Y-140448895D01*
X103600004Y-140549911D01*
X103600004Y-140617254D01*
X103566333Y-140718269D01*
X103431646Y-140852956D01*
X103330630Y-140886628D01*
X103263287Y-140886628D01*
X103162272Y-140852956D01*
%TO.C,U3*%
X116452380Y-90738095D02*
X117261904Y-90738095D01*
X117357142Y-90785714D01*
X117404761Y-90833333D01*
X117452380Y-90928571D01*
X117452380Y-91119047D01*
X117404761Y-91214285D01*
X117357142Y-91261904D01*
X117261904Y-91309523D01*
X116452380Y-91309523D01*
X116452380Y-91690476D02*
X116452380Y-92309523D01*
X116833333Y-91976190D01*
X116833333Y-92119047D01*
X116880952Y-92214285D01*
X116928571Y-92261904D01*
X117023809Y-92309523D01*
X117261904Y-92309523D01*
X117357142Y-92261904D01*
X117404761Y-92214285D01*
X117452380Y-92119047D01*
X117452380Y-91833333D01*
X117404761Y-91738095D01*
X117357142Y-91690476D01*
%TO.C,D8*%
X108198237Y-132093548D02*
X107198237Y-132093548D01*
X107198237Y-132331644D01*
X107245857Y-132474501D01*
X107341095Y-132569739D01*
X107436333Y-132617358D01*
X107626809Y-132664977D01*
X107769666Y-132664977D01*
X107960142Y-132617358D01*
X108055380Y-132569739D01*
X108150618Y-132474501D01*
X108198237Y-132331644D01*
X108198237Y-132093548D01*
X107626809Y-133236405D02*
X107579190Y-133141167D01*
X107531571Y-133093548D01*
X107436333Y-133045929D01*
X107388714Y-133045929D01*
X107293476Y-133093548D01*
X107245857Y-133141167D01*
X107198237Y-133236405D01*
X107198237Y-133426882D01*
X107245857Y-133522120D01*
X107293476Y-133569739D01*
X107388714Y-133617358D01*
X107436333Y-133617358D01*
X107531571Y-133569739D01*
X107579190Y-133522120D01*
X107626809Y-133426882D01*
X107626809Y-133236405D01*
X107674428Y-133141167D01*
X107722047Y-133093548D01*
X107817285Y-133045929D01*
X108007761Y-133045929D01*
X108102999Y-133093548D01*
X108150618Y-133141167D01*
X108198237Y-133236405D01*
X108198237Y-133426882D01*
X108150618Y-133522120D01*
X108102999Y-133569739D01*
X108007761Y-133617358D01*
X107817285Y-133617358D01*
X107722047Y-133569739D01*
X107674428Y-133522120D01*
X107626809Y-133426882D01*
%TO.C,C43*%
X120797969Y-138292893D02*
X120797969Y-138225549D01*
X120730625Y-138090862D01*
X120663282Y-138023519D01*
X120528595Y-137956175D01*
X120393908Y-137956175D01*
X120292893Y-137989847D01*
X120124534Y-138090862D01*
X120023519Y-138191877D01*
X119922503Y-138360236D01*
X119888832Y-138461251D01*
X119888832Y-138595938D01*
X119956175Y-138730625D01*
X120023519Y-138797969D01*
X120158206Y-138865312D01*
X120225549Y-138865312D01*
X121000000Y-139303045D02*
X121471404Y-138831641D01*
X120562267Y-139404061D02*
X120898984Y-138730625D01*
X121336717Y-139168358D01*
X121067343Y-139841793D02*
X121505076Y-140279526D01*
X121538748Y-139774450D01*
X121639763Y-139875465D01*
X121740778Y-139909137D01*
X121808122Y-139909137D01*
X121909137Y-139875465D01*
X122077496Y-139707106D01*
X122111167Y-139606091D01*
X122111167Y-139538748D01*
X122077496Y-139437732D01*
X121875465Y-139235702D01*
X121774450Y-139202030D01*
X121707106Y-139202030D01*
%TO.C,C40*%
X100797969Y-152292894D02*
X100797969Y-152225550D01*
X100730625Y-152090863D01*
X100663282Y-152023520D01*
X100528595Y-151956176D01*
X100393908Y-151956176D01*
X100292893Y-151989848D01*
X100124534Y-152090863D01*
X100023519Y-152191878D01*
X99922503Y-152360237D01*
X99888832Y-152461252D01*
X99888832Y-152595939D01*
X99956175Y-152730626D01*
X100023519Y-152797970D01*
X100158206Y-152865313D01*
X100225549Y-152865313D01*
X101000000Y-153303046D02*
X101471404Y-152831642D01*
X100562267Y-153404062D02*
X100898984Y-152730626D01*
X101336717Y-153168359D01*
X101269374Y-154043825D02*
X101336717Y-154111168D01*
X101437732Y-154144840D01*
X101505076Y-154144840D01*
X101606091Y-154111168D01*
X101774450Y-154010153D01*
X101942809Y-153841794D01*
X102043824Y-153673436D01*
X102077496Y-153572420D01*
X102077496Y-153505077D01*
X102043824Y-153404062D01*
X101976480Y-153336718D01*
X101875465Y-153303046D01*
X101808122Y-153303046D01*
X101707106Y-153336718D01*
X101538748Y-153437733D01*
X101370389Y-153606092D01*
X101269374Y-153774451D01*
X101235702Y-153875466D01*
X101235702Y-153942810D01*
X101269374Y-154043825D01*
%TO.C,D10*%
X103461251Y-60321488D02*
X102754145Y-61028595D01*
X102922503Y-61196954D01*
X103057190Y-61264297D01*
X103191877Y-61264297D01*
X103292893Y-61230625D01*
X103461251Y-61129610D01*
X103562267Y-61028595D01*
X103663282Y-60860236D01*
X103696954Y-60759221D01*
X103696954Y-60624534D01*
X103629610Y-60489847D01*
X103461251Y-60321488D01*
X104538748Y-61398984D02*
X104134687Y-60994923D01*
X104336717Y-61196954D02*
X103629610Y-61904061D01*
X103663282Y-61735702D01*
X103663282Y-61601015D01*
X103629610Y-61500000D01*
X104269374Y-62543824D02*
X104336717Y-62611167D01*
X104437732Y-62644839D01*
X104505076Y-62644839D01*
X104606091Y-62611167D01*
X104774450Y-62510152D01*
X104942809Y-62341793D01*
X105043824Y-62173435D01*
X105077496Y-62072419D01*
X105077496Y-62005076D01*
X105043824Y-61904061D01*
X104976480Y-61836717D01*
X104875465Y-61803045D01*
X104808122Y-61803045D01*
X104707106Y-61836717D01*
X104538748Y-61937732D01*
X104370389Y-62106091D01*
X104269374Y-62274450D01*
X104235702Y-62375465D01*
X104235702Y-62442809D01*
X104269374Y-62543824D01*
%TO.C,R35*%
X134372381Y-74522380D02*
X134705714Y-74046190D01*
X134943809Y-74522380D02*
X134943809Y-73522380D01*
X134562857Y-73522380D01*
X134467619Y-73570000D01*
X134420000Y-73617619D01*
X134372381Y-73712857D01*
X134372381Y-73855714D01*
X134420000Y-73950952D01*
X134467619Y-73998571D01*
X134562857Y-74046190D01*
X134943809Y-74046190D01*
X134039047Y-73522380D02*
X133420000Y-73522380D01*
X133753333Y-73903333D01*
X133610476Y-73903333D01*
X133515238Y-73950952D01*
X133467619Y-73998571D01*
X133420000Y-74093809D01*
X133420000Y-74331904D01*
X133467619Y-74427142D01*
X133515238Y-74474761D01*
X133610476Y-74522380D01*
X133896190Y-74522380D01*
X133991428Y-74474761D01*
X134039047Y-74427142D01*
X132515238Y-73522380D02*
X132991428Y-73522380D01*
X133039047Y-73998571D01*
X132991428Y-73950952D01*
X132896190Y-73903333D01*
X132658095Y-73903333D01*
X132562857Y-73950952D01*
X132515238Y-73998571D01*
X132467619Y-74093809D01*
X132467619Y-74331904D01*
X132515238Y-74427142D01*
X132562857Y-74474761D01*
X132658095Y-74522380D01*
X132896190Y-74522380D01*
X132991428Y-74474761D01*
X133039047Y-74427142D01*
%TO.C,Q5*%
X110685908Y-153025330D02*
X110584893Y-152991658D01*
X110450206Y-152991658D01*
X110248175Y-152991658D01*
X110147160Y-152957986D01*
X110079817Y-152890643D01*
X110281847Y-152755956D02*
X110180832Y-152722284D01*
X110046145Y-152722284D01*
X109877786Y-152823299D01*
X109642084Y-153059002D01*
X109541069Y-153227360D01*
X109541069Y-153362047D01*
X109574740Y-153463063D01*
X109709427Y-153597750D01*
X109810443Y-153631421D01*
X109945130Y-153631421D01*
X110113488Y-153530406D01*
X110349191Y-153294704D01*
X110450206Y-153126345D01*
X110450206Y-152991658D01*
X110416534Y-152890643D01*
X110281847Y-152755956D01*
X110517549Y-154405872D02*
X110180832Y-154069154D01*
X110483878Y-153698765D01*
X110483878Y-153766108D01*
X110517549Y-153867124D01*
X110685908Y-154035482D01*
X110786923Y-154069154D01*
X110854267Y-154069154D01*
X110955282Y-154035482D01*
X111123641Y-153867124D01*
X111157313Y-153766108D01*
X111157313Y-153698765D01*
X111123641Y-153597750D01*
X110955282Y-153429391D01*
X110854267Y-153395719D01*
X110786923Y-153395719D01*
%TO.C,GD2*%
X100499117Y-64488965D02*
X100532789Y-64387950D01*
X100633804Y-64286934D01*
X100768491Y-64219591D01*
X100903178Y-64219591D01*
X101004194Y-64253263D01*
X101172552Y-64354278D01*
X101273568Y-64455293D01*
X101374583Y-64623652D01*
X101408255Y-64724667D01*
X101408255Y-64859354D01*
X101340911Y-64994041D01*
X101273568Y-65061385D01*
X101138881Y-65128728D01*
X101071537Y-65128728D01*
X100835835Y-64893026D01*
X100970522Y-64758339D01*
X100835835Y-65499117D02*
X100128728Y-64792011D01*
X99960369Y-64960369D01*
X99893026Y-65095056D01*
X99893026Y-65229743D01*
X99926698Y-65330759D01*
X100027713Y-65499117D01*
X100128728Y-65600133D01*
X100297087Y-65701148D01*
X100398102Y-65734820D01*
X100532789Y-65734820D01*
X100667476Y-65667476D01*
X100835835Y-65499117D01*
X99522637Y-65532789D02*
X99455293Y-65532789D01*
X99354278Y-65566461D01*
X99185919Y-65734820D01*
X99152247Y-65835835D01*
X99152247Y-65903178D01*
X99185919Y-66004194D01*
X99253263Y-66071537D01*
X99387950Y-66138881D01*
X100196072Y-66138881D01*
X99758339Y-66576613D01*
%TO.C,C9*%
X122666666Y-95857142D02*
X122714285Y-95904761D01*
X122857142Y-95952380D01*
X122952380Y-95952380D01*
X123095238Y-95904761D01*
X123190476Y-95809523D01*
X123238095Y-95714285D01*
X123285714Y-95523809D01*
X123285714Y-95380952D01*
X123238095Y-95190476D01*
X123190476Y-95095238D01*
X123095238Y-95000000D01*
X122952380Y-94952380D01*
X122857142Y-94952380D01*
X122714285Y-95000000D01*
X122666666Y-95047619D01*
X122190476Y-95952380D02*
X122000000Y-95952380D01*
X121904761Y-95904761D01*
X121857142Y-95857142D01*
X121761904Y-95714285D01*
X121714285Y-95523809D01*
X121714285Y-95142857D01*
X121761904Y-95047619D01*
X121809523Y-95000000D01*
X121904761Y-94952380D01*
X122095238Y-94952380D01*
X122190476Y-95000000D01*
X122238095Y-95047619D01*
X122285714Y-95142857D01*
X122285714Y-95380952D01*
X122238095Y-95476190D01*
X122190476Y-95523809D01*
X122095238Y-95571428D01*
X121904761Y-95571428D01*
X121809523Y-95523809D01*
X121761904Y-95476190D01*
X121714285Y-95380952D01*
%TO.C,D5*%
X112238095Y-116952380D02*
X112238095Y-115952380D01*
X112000000Y-115952380D01*
X111857142Y-116000000D01*
X111761904Y-116095238D01*
X111714285Y-116190476D01*
X111666666Y-116380952D01*
X111666666Y-116523809D01*
X111714285Y-116714285D01*
X111761904Y-116809523D01*
X111857142Y-116904761D01*
X112000000Y-116952380D01*
X112238095Y-116952380D01*
X110761904Y-115952380D02*
X111238095Y-115952380D01*
X111285714Y-116428571D01*
X111238095Y-116380952D01*
X111142857Y-116333333D01*
X110904761Y-116333333D01*
X110809523Y-116380952D01*
X110761904Y-116428571D01*
X110714285Y-116523809D01*
X110714285Y-116761904D01*
X110761904Y-116857142D01*
X110809523Y-116904761D01*
X110904761Y-116952380D01*
X111142857Y-116952380D01*
X111238095Y-116904761D01*
X111285714Y-116857142D01*
%TO.C,U5*%
X123761904Y-120952380D02*
X123761904Y-121761904D01*
X123714285Y-121857142D01*
X123666666Y-121904761D01*
X123571428Y-121952380D01*
X123380952Y-121952380D01*
X123285714Y-121904761D01*
X123238095Y-121857142D01*
X123190476Y-121761904D01*
X123190476Y-120952380D01*
X122238095Y-120952380D02*
X122714285Y-120952380D01*
X122761904Y-121428571D01*
X122714285Y-121380952D01*
X122619047Y-121333333D01*
X122380952Y-121333333D01*
X122285714Y-121380952D01*
X122238095Y-121428571D01*
X122190476Y-121523809D01*
X122190476Y-121761904D01*
X122238095Y-121857142D01*
X122285714Y-121904761D01*
X122380952Y-121952380D01*
X122619047Y-121952380D01*
X122714285Y-121904761D01*
X122761904Y-121857142D01*
%TO.C,C5*%
X108286506Y-91550804D02*
X108353849Y-91550804D01*
X108488536Y-91483460D01*
X108555880Y-91416117D01*
X108623223Y-91281429D01*
X108623223Y-91146742D01*
X108589552Y-91045727D01*
X108488536Y-90877368D01*
X108387521Y-90776353D01*
X108219162Y-90675338D01*
X108118147Y-90641666D01*
X107983460Y-90641666D01*
X107848773Y-90709010D01*
X107781429Y-90776353D01*
X107714086Y-90911040D01*
X107714086Y-90978384D01*
X107006979Y-91550804D02*
X107343697Y-91214086D01*
X107714086Y-91517132D01*
X107646742Y-91517132D01*
X107545727Y-91550804D01*
X107377368Y-91719162D01*
X107343697Y-91820178D01*
X107343697Y-91887521D01*
X107377368Y-91988536D01*
X107545727Y-92156895D01*
X107646742Y-92190567D01*
X107714086Y-92190567D01*
X107815101Y-92156895D01*
X107983460Y-91988536D01*
X108017132Y-91887521D01*
X108017132Y-91820178D01*
%TO.C,C11*%
X101357142Y-102464978D02*
X101404761Y-102417359D01*
X101452380Y-102274502D01*
X101452380Y-102179264D01*
X101404761Y-102036407D01*
X101309523Y-101941169D01*
X101214285Y-101893550D01*
X101023809Y-101845931D01*
X100880952Y-101845931D01*
X100690476Y-101893550D01*
X100595238Y-101941169D01*
X100500000Y-102036407D01*
X100452380Y-102179264D01*
X100452380Y-102274502D01*
X100500000Y-102417359D01*
X100547619Y-102464978D01*
X101452380Y-103417359D02*
X101452380Y-102845931D01*
X101452380Y-103131645D02*
X100452380Y-103131645D01*
X100595238Y-103036407D01*
X100690476Y-102941169D01*
X100738095Y-102845931D01*
X101452380Y-104369740D02*
X101452380Y-103798312D01*
X101452380Y-104084026D02*
X100452380Y-104084026D01*
X100595238Y-103988788D01*
X100690476Y-103893550D01*
X100738095Y-103798312D01*
%TO.C,C42*%
X119797969Y-139292893D02*
X119797969Y-139225549D01*
X119730625Y-139090862D01*
X119663282Y-139023519D01*
X119528595Y-138956175D01*
X119393908Y-138956175D01*
X119292893Y-138989847D01*
X119124534Y-139090862D01*
X119023519Y-139191877D01*
X118922503Y-139360236D01*
X118888832Y-139461251D01*
X118888832Y-139595938D01*
X118956175Y-139730625D01*
X119023519Y-139797969D01*
X119158206Y-139865312D01*
X119225549Y-139865312D01*
X120000000Y-140303045D02*
X120471404Y-139831641D01*
X119562267Y-140404061D02*
X119898984Y-139730625D01*
X120336717Y-140168358D01*
X120168358Y-140808122D02*
X120168358Y-140875465D01*
X120202030Y-140976480D01*
X120370389Y-141144839D01*
X120471404Y-141178511D01*
X120538748Y-141178511D01*
X120639763Y-141144839D01*
X120707106Y-141077496D01*
X120774450Y-140942809D01*
X120774450Y-140134687D01*
X121212183Y-140572419D01*
%TO.C,C12*%
X97417857Y-130357142D02*
X97465476Y-130404761D01*
X97608333Y-130452380D01*
X97703571Y-130452380D01*
X97846428Y-130404761D01*
X97941666Y-130309523D01*
X97989285Y-130214285D01*
X98036904Y-130023809D01*
X98036904Y-129880952D01*
X97989285Y-129690476D01*
X97941666Y-129595238D01*
X97846428Y-129500000D01*
X97703571Y-129452380D01*
X97608333Y-129452380D01*
X97465476Y-129500000D01*
X97417857Y-129547619D01*
X96465476Y-130452380D02*
X97036904Y-130452380D01*
X96751190Y-130452380D02*
X96751190Y-129452380D01*
X96846428Y-129595238D01*
X96941666Y-129690476D01*
X97036904Y-129738095D01*
X96084523Y-129547619D02*
X96036904Y-129500000D01*
X95941666Y-129452380D01*
X95703571Y-129452380D01*
X95608333Y-129500000D01*
X95560714Y-129547619D01*
X95513095Y-129642857D01*
X95513095Y-129738095D01*
X95560714Y-129880952D01*
X96132142Y-130452380D01*
X95513095Y-130452380D01*
%TO.C,D6*%
X96202974Y-141199530D02*
X95495868Y-140492423D01*
X95327509Y-140660782D01*
X95260165Y-140795469D01*
X95260165Y-140930156D01*
X95293837Y-141031171D01*
X95394852Y-141199530D01*
X95495868Y-141300545D01*
X95664226Y-141401561D01*
X95765242Y-141435232D01*
X95899929Y-141435232D01*
X96034616Y-141367889D01*
X96202974Y-141199530D01*
X94485715Y-141502576D02*
X94620402Y-141367889D01*
X94721417Y-141334217D01*
X94788761Y-141334217D01*
X94957119Y-141367889D01*
X95125478Y-141468904D01*
X95394852Y-141738278D01*
X95428524Y-141839293D01*
X95428524Y-141906637D01*
X95394852Y-142007652D01*
X95260165Y-142142339D01*
X95159150Y-142176011D01*
X95091806Y-142176011D01*
X94990791Y-142142339D01*
X94822432Y-141973980D01*
X94788761Y-141872965D01*
X94788761Y-141805622D01*
X94822432Y-141704606D01*
X94957119Y-141569919D01*
X95058135Y-141536248D01*
X95125478Y-141536248D01*
X95226493Y-141569919D01*
%TO.C,Q2*%
X109185908Y-143332921D02*
X109084893Y-143299249D01*
X108950206Y-143299249D01*
X108748175Y-143299249D01*
X108647160Y-143265577D01*
X108579817Y-143198234D01*
X108781847Y-143063547D02*
X108680832Y-143029875D01*
X108546145Y-143029875D01*
X108377786Y-143130890D01*
X108142084Y-143366593D01*
X108041069Y-143534951D01*
X108041069Y-143669638D01*
X108074740Y-143770654D01*
X108209427Y-143905341D01*
X108310443Y-143939012D01*
X108445130Y-143939012D01*
X108613488Y-143837997D01*
X108849191Y-143602295D01*
X108950206Y-143433936D01*
X108950206Y-143299249D01*
X108916534Y-143198234D01*
X108781847Y-143063547D01*
X108714504Y-144275730D02*
X108714504Y-144343073D01*
X108748175Y-144444089D01*
X108916534Y-144612447D01*
X109017549Y-144646119D01*
X109084893Y-144646119D01*
X109185908Y-144612447D01*
X109253252Y-144545104D01*
X109320595Y-144410417D01*
X109320595Y-143602295D01*
X109758328Y-144040028D01*
%TO.C,Q4*%
X106242058Y-53453854D02*
X106275730Y-53352839D01*
X106275730Y-53218152D01*
X106275730Y-53016121D01*
X106309402Y-52915106D01*
X106376745Y-52847763D01*
X106511432Y-53049793D02*
X106545104Y-52948778D01*
X106545104Y-52814091D01*
X106444089Y-52645732D01*
X106208386Y-52410030D01*
X106040028Y-52309015D01*
X105905341Y-52309015D01*
X105804325Y-52342686D01*
X105669638Y-52477373D01*
X105635967Y-52578389D01*
X105635967Y-52713076D01*
X105736982Y-52881434D01*
X105972684Y-53117137D01*
X106141043Y-53218152D01*
X106275730Y-53218152D01*
X106376745Y-53184480D01*
X106511432Y-53049793D01*
X105130890Y-53487526D02*
X105602295Y-53958930D01*
X105029875Y-53049793D02*
X105703310Y-53386511D01*
X105265577Y-53824243D01*
%TO.C,R4*%
X117666666Y-119992380D02*
X118000000Y-119516190D01*
X118238095Y-119992380D02*
X118238095Y-118992380D01*
X117857142Y-118992380D01*
X117761904Y-119040000D01*
X117714285Y-119087619D01*
X117666666Y-119182857D01*
X117666666Y-119325714D01*
X117714285Y-119420952D01*
X117761904Y-119468571D01*
X117857142Y-119516190D01*
X118238095Y-119516190D01*
X116809523Y-119325714D02*
X116809523Y-119992380D01*
X117047619Y-118944761D02*
X117285714Y-119659047D01*
X116666666Y-119659047D01*
%TO.C,R3*%
X117666666Y-113992380D02*
X118000000Y-113516190D01*
X118238095Y-113992380D02*
X118238095Y-112992380D01*
X117857142Y-112992380D01*
X117761904Y-113040000D01*
X117714285Y-113087619D01*
X117666666Y-113182857D01*
X117666666Y-113325714D01*
X117714285Y-113420952D01*
X117761904Y-113468571D01*
X117857142Y-113516190D01*
X118238095Y-113516190D01*
X117333333Y-112992380D02*
X116714285Y-112992380D01*
X117047619Y-113373333D01*
X116904761Y-113373333D01*
X116809523Y-113420952D01*
X116761904Y-113468571D01*
X116714285Y-113563809D01*
X116714285Y-113801904D01*
X116761904Y-113897142D01*
X116809523Y-113944761D01*
X116904761Y-113992380D01*
X117190476Y-113992380D01*
X117285714Y-113944761D01*
X117333333Y-113897142D01*
%TO.C,C24*%
X119357142Y-83357142D02*
X119404761Y-83309523D01*
X119452380Y-83166666D01*
X119452380Y-83071428D01*
X119404761Y-82928571D01*
X119309523Y-82833333D01*
X119214285Y-82785714D01*
X119023809Y-82738095D01*
X118880952Y-82738095D01*
X118690476Y-82785714D01*
X118595238Y-82833333D01*
X118500000Y-82928571D01*
X118452380Y-83071428D01*
X118452380Y-83166666D01*
X118500000Y-83309523D01*
X118547619Y-83357142D01*
X118547619Y-83738095D02*
X118500000Y-83785714D01*
X118452380Y-83880952D01*
X118452380Y-84119047D01*
X118500000Y-84214285D01*
X118547619Y-84261904D01*
X118642857Y-84309523D01*
X118738095Y-84309523D01*
X118880952Y-84261904D01*
X119452380Y-83690476D01*
X119452380Y-84309523D01*
X118785714Y-85166666D02*
X119452380Y-85166666D01*
X118404761Y-84928571D02*
X119119047Y-84690476D01*
X119119047Y-85309523D01*
%TO.C,R21*%
X99376475Y-56214386D02*
X98804056Y-56315401D01*
X98972414Y-55810325D02*
X98265308Y-56517432D01*
X98534682Y-56786806D01*
X98635697Y-56820478D01*
X98703040Y-56820478D01*
X98804056Y-56786806D01*
X98905071Y-56685791D01*
X98938743Y-56584775D01*
X98938743Y-56517432D01*
X98905071Y-56416417D01*
X98635697Y-56147043D01*
X99006086Y-57123524D02*
X99006086Y-57190867D01*
X99039758Y-57291882D01*
X99208117Y-57460241D01*
X99309132Y-57493913D01*
X99376475Y-57493913D01*
X99477491Y-57460241D01*
X99544834Y-57392898D01*
X99612178Y-57258211D01*
X99612178Y-56450088D01*
X100049911Y-56887821D01*
X100723346Y-57561256D02*
X100319285Y-57157195D01*
X100521315Y-57359226D02*
X99814208Y-58066333D01*
X99847880Y-57897974D01*
X99847880Y-57763287D01*
X99814208Y-57662272D01*
%TO.C,Q9*%
X106685908Y-157101065D02*
X106584893Y-157067393D01*
X106450206Y-157067393D01*
X106248175Y-157067393D01*
X106147160Y-157033721D01*
X106079817Y-156966378D01*
X106281847Y-156831691D02*
X106180832Y-156798019D01*
X106046145Y-156798019D01*
X105877786Y-156899034D01*
X105642084Y-157134737D01*
X105541069Y-157303095D01*
X105541069Y-157437782D01*
X105574740Y-157538798D01*
X105709427Y-157673485D01*
X105810443Y-157707156D01*
X105945130Y-157707156D01*
X106113488Y-157606141D01*
X106349191Y-157370439D01*
X106450206Y-157202080D01*
X106450206Y-157067393D01*
X106416534Y-156966378D01*
X106281847Y-156831691D01*
X106921610Y-157471454D02*
X107056297Y-157606141D01*
X107089969Y-157707156D01*
X107089969Y-157774500D01*
X107056297Y-157942859D01*
X106955282Y-158111217D01*
X106685908Y-158380591D01*
X106584893Y-158414263D01*
X106517549Y-158414263D01*
X106416534Y-158380591D01*
X106281847Y-158245904D01*
X106248175Y-158144889D01*
X106248175Y-158077546D01*
X106281847Y-157976530D01*
X106450206Y-157808172D01*
X106551221Y-157774500D01*
X106618565Y-157774500D01*
X106719580Y-157808172D01*
X106854267Y-157942859D01*
X106887939Y-158043874D01*
X106887939Y-158111217D01*
X106854267Y-158212233D01*
%TO.C,Q7*%
X115742058Y-51953854D02*
X115775730Y-51852839D01*
X115775730Y-51718152D01*
X115775730Y-51516121D01*
X115809402Y-51415106D01*
X115876745Y-51347763D01*
X116011432Y-51549793D02*
X116045104Y-51448778D01*
X116045104Y-51314091D01*
X115944089Y-51145732D01*
X115708386Y-50910030D01*
X115540028Y-50809015D01*
X115405341Y-50809015D01*
X115304325Y-50842686D01*
X115169638Y-50977373D01*
X115135967Y-51078389D01*
X115135967Y-51213076D01*
X115236982Y-51381434D01*
X115472684Y-51617137D01*
X115641043Y-51718152D01*
X115775730Y-51718152D01*
X115876745Y-51684480D01*
X116011432Y-51549793D01*
X114765577Y-51381434D02*
X114294173Y-51852839D01*
X115304325Y-52256900D01*
%TO.C,U1*%
X113761904Y-81352380D02*
X113761904Y-82161904D01*
X113714285Y-82257142D01*
X113666666Y-82304761D01*
X113571428Y-82352380D01*
X113380952Y-82352380D01*
X113285714Y-82304761D01*
X113238095Y-82257142D01*
X113190476Y-82161904D01*
X113190476Y-81352380D01*
X112190476Y-82352380D02*
X112761904Y-82352380D01*
X112476190Y-82352380D02*
X112476190Y-81352380D01*
X112571428Y-81495238D01*
X112666666Y-81590476D01*
X112761904Y-81638095D01*
%TO.C,Q8*%
X110242058Y-57453854D02*
X110275730Y-57352839D01*
X110275730Y-57218152D01*
X110275730Y-57016121D01*
X110309402Y-56915106D01*
X110376745Y-56847763D01*
X110511432Y-57049793D02*
X110545104Y-56948778D01*
X110545104Y-56814091D01*
X110444089Y-56645732D01*
X110208386Y-56410030D01*
X110040028Y-56309015D01*
X109905341Y-56309015D01*
X109804325Y-56342686D01*
X109669638Y-56477373D01*
X109635967Y-56578389D01*
X109635967Y-56713076D01*
X109736982Y-56881434D01*
X109972684Y-57117137D01*
X110141043Y-57218152D01*
X110275730Y-57218152D01*
X110376745Y-57184480D01*
X110511432Y-57049793D01*
X109400264Y-57352839D02*
X109433936Y-57251824D01*
X109433936Y-57184480D01*
X109400264Y-57083465D01*
X109366593Y-57049793D01*
X109265577Y-57016121D01*
X109198234Y-57016121D01*
X109097219Y-57049793D01*
X108962532Y-57184480D01*
X108928860Y-57285495D01*
X108928860Y-57352839D01*
X108962532Y-57453854D01*
X108996203Y-57487526D01*
X109097219Y-57521198D01*
X109164562Y-57521198D01*
X109265577Y-57487526D01*
X109400264Y-57352839D01*
X109501280Y-57319167D01*
X109568623Y-57319167D01*
X109669638Y-57352839D01*
X109804325Y-57487526D01*
X109837997Y-57588541D01*
X109837997Y-57655885D01*
X109804325Y-57756900D01*
X109669638Y-57891587D01*
X109568623Y-57925259D01*
X109501280Y-57925259D01*
X109400264Y-57891587D01*
X109265577Y-57756900D01*
X109231906Y-57655885D01*
X109231906Y-57588541D01*
X109265577Y-57487526D01*
%TO.C,D7*%
X98526197Y-145876307D02*
X97819091Y-145169200D01*
X97650732Y-145337559D01*
X97583388Y-145472246D01*
X97583388Y-145606933D01*
X97617060Y-145707948D01*
X97718075Y-145876307D01*
X97819091Y-145977322D01*
X97987449Y-146078338D01*
X98088465Y-146112009D01*
X98223152Y-146112009D01*
X98357839Y-146044666D01*
X98526197Y-145876307D01*
X97179327Y-145808963D02*
X96707923Y-146280368D01*
X97718075Y-146684429D01*
%TO.C,R15*%
X107274450Y-126365312D02*
X107173435Y-125792893D01*
X107678511Y-125961251D02*
X106971404Y-125254145D01*
X106702030Y-125523519D01*
X106668358Y-125624534D01*
X106668358Y-125691877D01*
X106702030Y-125792893D01*
X106803045Y-125893908D01*
X106904061Y-125927580D01*
X106971404Y-125927580D01*
X107072419Y-125893908D01*
X107341793Y-125624534D01*
X106601015Y-127038748D02*
X107005076Y-126634687D01*
X106803045Y-126836717D02*
X106095938Y-126129610D01*
X106264297Y-126163282D01*
X106398984Y-126163282D01*
X106500000Y-126129610D01*
X105254145Y-126971404D02*
X105590862Y-126634687D01*
X105961251Y-126937732D01*
X105893908Y-126937732D01*
X105792893Y-126971404D01*
X105624534Y-127139763D01*
X105590862Y-127240778D01*
X105590862Y-127308122D01*
X105624534Y-127409137D01*
X105792893Y-127577496D01*
X105893908Y-127611167D01*
X105961251Y-127611167D01*
X106062267Y-127577496D01*
X106230625Y-127409137D01*
X106264297Y-127308122D01*
X106264297Y-127240778D01*
%TO.C,Y1*%
X103146446Y-109680118D02*
X103483164Y-109343400D01*
X102540355Y-109814805D02*
X103146446Y-109680118D01*
X103011759Y-110286209D01*
X104324957Y-110185194D02*
X103920896Y-109781133D01*
X104122927Y-109983164D02*
X103415820Y-110690270D01*
X103449492Y-110521912D01*
X103449492Y-110387225D01*
X103415820Y-110286209D01*
%TO.C,D11*%
X97461251Y-56321488D02*
X96754145Y-57028595D01*
X96922503Y-57196954D01*
X97057190Y-57264297D01*
X97191877Y-57264297D01*
X97292893Y-57230625D01*
X97461251Y-57129610D01*
X97562267Y-57028595D01*
X97663282Y-56860236D01*
X97696954Y-56759221D01*
X97696954Y-56624534D01*
X97629610Y-56489847D01*
X97461251Y-56321488D01*
X98538748Y-57398984D02*
X98134687Y-56994923D01*
X98336717Y-57196954D02*
X97629610Y-57904061D01*
X97663282Y-57735702D01*
X97663282Y-57601015D01*
X97629610Y-57500000D01*
X99212183Y-58072419D02*
X98808122Y-57668358D01*
X99010152Y-57870389D02*
X98303045Y-58577496D01*
X98336717Y-58409137D01*
X98336717Y-58274450D01*
X98303045Y-58173435D01*
%TO.C,C20*%
X108142857Y-64927142D02*
X108190476Y-64974761D01*
X108333333Y-65022380D01*
X108428571Y-65022380D01*
X108571428Y-64974761D01*
X108666666Y-64879523D01*
X108714285Y-64784285D01*
X108761904Y-64593809D01*
X108761904Y-64450952D01*
X108714285Y-64260476D01*
X108666666Y-64165238D01*
X108571428Y-64070000D01*
X108428571Y-64022380D01*
X108333333Y-64022380D01*
X108190476Y-64070000D01*
X108142857Y-64117619D01*
X107761904Y-64117619D02*
X107714285Y-64070000D01*
X107619047Y-64022380D01*
X107380952Y-64022380D01*
X107285714Y-64070000D01*
X107238095Y-64117619D01*
X107190476Y-64212857D01*
X107190476Y-64308095D01*
X107238095Y-64450952D01*
X107809523Y-65022380D01*
X107190476Y-65022380D01*
X106571428Y-64022380D02*
X106476190Y-64022380D01*
X106380952Y-64070000D01*
X106333333Y-64117619D01*
X106285714Y-64212857D01*
X106238095Y-64403333D01*
X106238095Y-64641428D01*
X106285714Y-64831904D01*
X106333333Y-64927142D01*
X106380952Y-64974761D01*
X106476190Y-65022380D01*
X106571428Y-65022380D01*
X106666666Y-64974761D01*
X106714285Y-64927142D01*
X106761904Y-64831904D01*
X106809523Y-64641428D01*
X106809523Y-64403333D01*
X106761904Y-64212857D01*
X106714285Y-64117619D01*
X106666666Y-64070000D01*
X106571428Y-64022380D01*
%TO.C,R12*%
X122452380Y-123857142D02*
X121976190Y-123523809D01*
X122452380Y-123285714D02*
X121452380Y-123285714D01*
X121452380Y-123666666D01*
X121500000Y-123761904D01*
X121547619Y-123809523D01*
X121642857Y-123857142D01*
X121785714Y-123857142D01*
X121880952Y-123809523D01*
X121928571Y-123761904D01*
X121976190Y-123666666D01*
X121976190Y-123285714D01*
X122452380Y-124809523D02*
X122452380Y-124238095D01*
X122452380Y-124523809D02*
X121452380Y-124523809D01*
X121595238Y-124428571D01*
X121690476Y-124333333D01*
X121738095Y-124238095D01*
X121547619Y-125190476D02*
X121500000Y-125238095D01*
X121452380Y-125333333D01*
X121452380Y-125571428D01*
X121500000Y-125666666D01*
X121547619Y-125714285D01*
X121642857Y-125761904D01*
X121738095Y-125761904D01*
X121880952Y-125714285D01*
X122452380Y-125142857D01*
X122452380Y-125761904D01*
%TO.C,C44*%
X120207106Y-59797969D02*
X120274450Y-59797969D01*
X120409137Y-59730625D01*
X120476480Y-59663282D01*
X120543824Y-59528595D01*
X120543824Y-59393908D01*
X120510152Y-59292893D01*
X120409137Y-59124534D01*
X120308122Y-59023519D01*
X120139763Y-58922503D01*
X120038748Y-58888832D01*
X119904061Y-58888832D01*
X119769374Y-58956175D01*
X119702030Y-59023519D01*
X119634687Y-59158206D01*
X119634687Y-59225549D01*
X119196954Y-60000000D02*
X119668358Y-60471404D01*
X119095938Y-59562267D02*
X119769374Y-59898984D01*
X119331641Y-60336717D01*
X118523519Y-60673435D02*
X118994923Y-61144839D01*
X118422503Y-60235702D02*
X119095938Y-60572419D01*
X118658206Y-61010152D01*
%TO.C,R16*%
X113452380Y-71857142D02*
X112976190Y-71523809D01*
X113452380Y-71285714D02*
X112452380Y-71285714D01*
X112452380Y-71666666D01*
X112500000Y-71761904D01*
X112547619Y-71809523D01*
X112642857Y-71857142D01*
X112785714Y-71857142D01*
X112880952Y-71809523D01*
X112928571Y-71761904D01*
X112976190Y-71666666D01*
X112976190Y-71285714D01*
X113452380Y-72809523D02*
X113452380Y-72238095D01*
X113452380Y-72523809D02*
X112452380Y-72523809D01*
X112595238Y-72428571D01*
X112690476Y-72333333D01*
X112738095Y-72238095D01*
X112452380Y-73666666D02*
X112452380Y-73476190D01*
X112500000Y-73380952D01*
X112547619Y-73333333D01*
X112690476Y-73238095D01*
X112880952Y-73190476D01*
X113261904Y-73190476D01*
X113357142Y-73238095D01*
X113404761Y-73285714D01*
X113452380Y-73380952D01*
X113452380Y-73571428D01*
X113404761Y-73666666D01*
X113357142Y-73714285D01*
X113261904Y-73761904D01*
X113023809Y-73761904D01*
X112928571Y-73714285D01*
X112880952Y-73666666D01*
X112833333Y-73571428D01*
X112833333Y-73380952D01*
X112880952Y-73285714D01*
X112928571Y-73238095D01*
X113023809Y-73190476D01*
%TO.C,U4*%
X117867133Y-103465017D02*
X118439553Y-104037437D01*
X118473225Y-104138452D01*
X118473225Y-104205796D01*
X118439553Y-104306811D01*
X118304866Y-104441498D01*
X118203851Y-104475170D01*
X118136507Y-104475170D01*
X118035492Y-104441498D01*
X117463072Y-103869078D01*
X117059011Y-104744544D02*
X117530416Y-105215948D01*
X116957996Y-104306811D02*
X117631431Y-104643529D01*
X117193698Y-105081261D01*
%TO.C,D16*%
X131714285Y-102452380D02*
X131714285Y-101452380D01*
X131476190Y-101452380D01*
X131333333Y-101500000D01*
X131238095Y-101595238D01*
X131190476Y-101690476D01*
X131142857Y-101880952D01*
X131142857Y-102023809D01*
X131190476Y-102214285D01*
X131238095Y-102309523D01*
X131333333Y-102404761D01*
X131476190Y-102452380D01*
X131714285Y-102452380D01*
X130190476Y-102452380D02*
X130761904Y-102452380D01*
X130476190Y-102452380D02*
X130476190Y-101452380D01*
X130571428Y-101595238D01*
X130666666Y-101690476D01*
X130761904Y-101738095D01*
X129333333Y-101452380D02*
X129523809Y-101452380D01*
X129619047Y-101500000D01*
X129666666Y-101547619D01*
X129761904Y-101690476D01*
X129809523Y-101880952D01*
X129809523Y-102261904D01*
X129761904Y-102357142D01*
X129714285Y-102404761D01*
X129619047Y-102452380D01*
X129428571Y-102452380D01*
X129333333Y-102404761D01*
X129285714Y-102357142D01*
X129238095Y-102261904D01*
X129238095Y-102023809D01*
X129285714Y-101928571D01*
X129333333Y-101880952D01*
X129428571Y-101833333D01*
X129619047Y-101833333D01*
X129714285Y-101880952D01*
X129761904Y-101928571D01*
X129809523Y-102023809D01*
%TO.C,R11*%
X115452380Y-90857142D02*
X114976190Y-90523809D01*
X115452380Y-90285714D02*
X114452380Y-90285714D01*
X114452380Y-90666666D01*
X114500000Y-90761904D01*
X114547619Y-90809523D01*
X114642857Y-90857142D01*
X114785714Y-90857142D01*
X114880952Y-90809523D01*
X114928571Y-90761904D01*
X114976190Y-90666666D01*
X114976190Y-90285714D01*
X115452380Y-91809523D02*
X115452380Y-91238095D01*
X115452380Y-91523809D02*
X114452380Y-91523809D01*
X114595238Y-91428571D01*
X114690476Y-91333333D01*
X114738095Y-91238095D01*
X115452380Y-92761904D02*
X115452380Y-92190476D01*
X115452380Y-92476190D02*
X114452380Y-92476190D01*
X114595238Y-92380952D01*
X114690476Y-92285714D01*
X114738095Y-92190476D01*
%TO.C,C13*%
X91786806Y-64304056D02*
X91786806Y-64236712D01*
X91719462Y-64102025D01*
X91652119Y-64034682D01*
X91517432Y-63967338D01*
X91382745Y-63967338D01*
X91281730Y-64001010D01*
X91113371Y-64102025D01*
X91012356Y-64203040D01*
X90911340Y-64371399D01*
X90877669Y-64472414D01*
X90877669Y-64607101D01*
X90945012Y-64741788D01*
X91012356Y-64809132D01*
X91147043Y-64876475D01*
X91214386Y-64876475D01*
X92527585Y-64910147D02*
X92123524Y-64506086D01*
X92325554Y-64708117D02*
X91618447Y-65415224D01*
X91652119Y-65246865D01*
X91652119Y-65112178D01*
X91618447Y-65011163D01*
X92056180Y-65852956D02*
X92493913Y-66290689D01*
X92527585Y-65785613D01*
X92628600Y-65886628D01*
X92729615Y-65920300D01*
X92796959Y-65920300D01*
X92897974Y-65886628D01*
X93066333Y-65718269D01*
X93100004Y-65617254D01*
X93100004Y-65549911D01*
X93066333Y-65448895D01*
X92864302Y-65246865D01*
X92763287Y-65213193D01*
X92695943Y-65213193D01*
%TO.C,R17*%
X116952380Y-71857142D02*
X116476190Y-71523809D01*
X116952380Y-71285714D02*
X115952380Y-71285714D01*
X115952380Y-71666666D01*
X116000000Y-71761904D01*
X116047619Y-71809523D01*
X116142857Y-71857142D01*
X116285714Y-71857142D01*
X116380952Y-71809523D01*
X116428571Y-71761904D01*
X116476190Y-71666666D01*
X116476190Y-71285714D01*
X116952380Y-72809523D02*
X116952380Y-72238095D01*
X116952380Y-72523809D02*
X115952380Y-72523809D01*
X116095238Y-72428571D01*
X116190476Y-72333333D01*
X116238095Y-72238095D01*
X115952380Y-73142857D02*
X115952380Y-73809523D01*
X116952380Y-73380952D01*
%TO.C,Q1*%
X114685908Y-149025330D02*
X114584893Y-148991658D01*
X114450206Y-148991658D01*
X114248175Y-148991658D01*
X114147160Y-148957986D01*
X114079817Y-148890643D01*
X114281847Y-148755956D02*
X114180832Y-148722284D01*
X114046145Y-148722284D01*
X113877786Y-148823299D01*
X113642084Y-149059002D01*
X113541069Y-149227360D01*
X113541069Y-149362047D01*
X113574740Y-149463063D01*
X113709427Y-149597750D01*
X113810443Y-149631421D01*
X113945130Y-149631421D01*
X114113488Y-149530406D01*
X114349191Y-149294704D01*
X114450206Y-149126345D01*
X114450206Y-148991658D01*
X114416534Y-148890643D01*
X114281847Y-148755956D01*
X115258328Y-149732437D02*
X114854267Y-149328376D01*
X115056297Y-149530406D02*
X114349191Y-150237513D01*
X114382862Y-150069154D01*
X114382862Y-149934467D01*
X114349191Y-149833452D01*
%TO.C,R6*%
X108382380Y-83833333D02*
X107906190Y-83500000D01*
X108382380Y-83261904D02*
X107382380Y-83261904D01*
X107382380Y-83642857D01*
X107430000Y-83738095D01*
X107477619Y-83785714D01*
X107572857Y-83833333D01*
X107715714Y-83833333D01*
X107810952Y-83785714D01*
X107858571Y-83738095D01*
X107906190Y-83642857D01*
X107906190Y-83261904D01*
X107382380Y-84690476D02*
X107382380Y-84500000D01*
X107430000Y-84404761D01*
X107477619Y-84357142D01*
X107620476Y-84261904D01*
X107810952Y-84214285D01*
X108191904Y-84214285D01*
X108287142Y-84261904D01*
X108334761Y-84309523D01*
X108382380Y-84404761D01*
X108382380Y-84595238D01*
X108334761Y-84690476D01*
X108287142Y-84738095D01*
X108191904Y-84785714D01*
X107953809Y-84785714D01*
X107858571Y-84738095D01*
X107810952Y-84690476D01*
X107763333Y-84595238D01*
X107763333Y-84404761D01*
X107810952Y-84309523D01*
X107858571Y-84261904D01*
X107953809Y-84214285D01*
%TO.C,GD1*%
X95051313Y-139196072D02*
X94950298Y-139162400D01*
X94849282Y-139061385D01*
X94781939Y-138926698D01*
X94781939Y-138792011D01*
X94815611Y-138690995D01*
X94916626Y-138522637D01*
X95017641Y-138421621D01*
X95186000Y-138320606D01*
X95287015Y-138286934D01*
X95421702Y-138286934D01*
X95556389Y-138354278D01*
X95623733Y-138421621D01*
X95691076Y-138556308D01*
X95691076Y-138623652D01*
X95455374Y-138859354D01*
X95320687Y-138724667D01*
X96061465Y-138859354D02*
X95354359Y-139566461D01*
X95522717Y-139734820D01*
X95657404Y-139802163D01*
X95792091Y-139802163D01*
X95893107Y-139768491D01*
X96061465Y-139667476D01*
X96162481Y-139566461D01*
X96263496Y-139398102D01*
X96297168Y-139297087D01*
X96297168Y-139162400D01*
X96229824Y-139027713D01*
X96061465Y-138859354D01*
X97138961Y-139936850D02*
X96734900Y-139532789D01*
X96936931Y-139734820D02*
X96229824Y-140441926D01*
X96263496Y-140273568D01*
X96263496Y-140138881D01*
X96229824Y-140037865D01*
%TO.C,R8*%
X120882380Y-82833333D02*
X120406190Y-82500000D01*
X120882380Y-82261904D02*
X119882380Y-82261904D01*
X119882380Y-82642857D01*
X119930000Y-82738095D01*
X119977619Y-82785714D01*
X120072857Y-82833333D01*
X120215714Y-82833333D01*
X120310952Y-82785714D01*
X120358571Y-82738095D01*
X120406190Y-82642857D01*
X120406190Y-82261904D01*
X120310952Y-83404761D02*
X120263333Y-83309523D01*
X120215714Y-83261904D01*
X120120476Y-83214285D01*
X120072857Y-83214285D01*
X119977619Y-83261904D01*
X119930000Y-83309523D01*
X119882380Y-83404761D01*
X119882380Y-83595238D01*
X119930000Y-83690476D01*
X119977619Y-83738095D01*
X120072857Y-83785714D01*
X120120476Y-83785714D01*
X120215714Y-83738095D01*
X120263333Y-83690476D01*
X120310952Y-83595238D01*
X120310952Y-83404761D01*
X120358571Y-83309523D01*
X120406190Y-83261904D01*
X120501428Y-83214285D01*
X120691904Y-83214285D01*
X120787142Y-83261904D01*
X120834761Y-83309523D01*
X120882380Y-83404761D01*
X120882380Y-83595238D01*
X120834761Y-83690476D01*
X120787142Y-83738095D01*
X120691904Y-83785714D01*
X120501428Y-83785714D01*
X120406190Y-83738095D01*
X120358571Y-83690476D01*
X120310952Y-83595238D01*
%TO.C,Q3*%
X111794157Y-47996658D02*
X111827829Y-47895643D01*
X111827829Y-47760956D01*
X111827829Y-47558925D01*
X111861501Y-47457910D01*
X111928844Y-47390567D01*
X112063531Y-47592597D02*
X112097203Y-47491582D01*
X112097203Y-47356895D01*
X111996188Y-47188536D01*
X111760485Y-46952834D01*
X111592127Y-46851819D01*
X111457440Y-46851819D01*
X111356424Y-46885490D01*
X111221737Y-47020177D01*
X111188066Y-47121193D01*
X111188066Y-47255880D01*
X111289081Y-47424238D01*
X111524783Y-47659941D01*
X111693142Y-47760956D01*
X111827829Y-47760956D01*
X111928844Y-47727284D01*
X112063531Y-47592597D01*
X110817676Y-47424238D02*
X110379944Y-47861971D01*
X110885020Y-47895643D01*
X110784005Y-47996658D01*
X110750333Y-48097673D01*
X110750333Y-48165017D01*
X110784005Y-48266032D01*
X110952363Y-48434391D01*
X111053379Y-48468063D01*
X111120722Y-48468063D01*
X111221737Y-48434391D01*
X111423768Y-48232360D01*
X111457440Y-48131345D01*
X111457440Y-48064002D01*
%TO.C,R29*%
X102642857Y-135882380D02*
X102976190Y-135406190D01*
X103214285Y-135882380D02*
X103214285Y-134882380D01*
X102833333Y-134882380D01*
X102738095Y-134930000D01*
X102690476Y-134977619D01*
X102642857Y-135072857D01*
X102642857Y-135215714D01*
X102690476Y-135310952D01*
X102738095Y-135358571D01*
X102833333Y-135406190D01*
X103214285Y-135406190D01*
X102261904Y-134977619D02*
X102214285Y-134930000D01*
X102119047Y-134882380D01*
X101880952Y-134882380D01*
X101785714Y-134930000D01*
X101738095Y-134977619D01*
X101690476Y-135072857D01*
X101690476Y-135168095D01*
X101738095Y-135310952D01*
X102309523Y-135882380D01*
X101690476Y-135882380D01*
X101214285Y-135882380D02*
X101023809Y-135882380D01*
X100928571Y-135834761D01*
X100880952Y-135787142D01*
X100785714Y-135644285D01*
X100738095Y-135453809D01*
X100738095Y-135072857D01*
X100785714Y-134977619D01*
X100833333Y-134930000D01*
X100928571Y-134882380D01*
X101119047Y-134882380D01*
X101214285Y-134930000D01*
X101261904Y-134977619D01*
X101309523Y-135072857D01*
X101309523Y-135310952D01*
X101261904Y-135406190D01*
X101214285Y-135453809D01*
X101119047Y-135501428D01*
X100928571Y-135501428D01*
X100833333Y-135453809D01*
X100785714Y-135406190D01*
X100738095Y-135310952D01*
%TO.C,D17*%
X126214285Y-102452380D02*
X126214285Y-101452380D01*
X125976190Y-101452380D01*
X125833333Y-101500000D01*
X125738095Y-101595238D01*
X125690476Y-101690476D01*
X125642857Y-101880952D01*
X125642857Y-102023809D01*
X125690476Y-102214285D01*
X125738095Y-102309523D01*
X125833333Y-102404761D01*
X125976190Y-102452380D01*
X126214285Y-102452380D01*
X124690476Y-102452380D02*
X125261904Y-102452380D01*
X124976190Y-102452380D02*
X124976190Y-101452380D01*
X125071428Y-101595238D01*
X125166666Y-101690476D01*
X125261904Y-101738095D01*
X124357142Y-101452380D02*
X123690476Y-101452380D01*
X124119047Y-102452380D01*
%TO.C,C19*%
X106283437Y-134282142D02*
X106331056Y-134329761D01*
X106473913Y-134377380D01*
X106569151Y-134377380D01*
X106712008Y-134329761D01*
X106807246Y-134234523D01*
X106854865Y-134139285D01*
X106902484Y-133948809D01*
X106902484Y-133805952D01*
X106854865Y-133615476D01*
X106807246Y-133520238D01*
X106712008Y-133425000D01*
X106569151Y-133377380D01*
X106473913Y-133377380D01*
X106331056Y-133425000D01*
X106283437Y-133472619D01*
X105331056Y-134377380D02*
X105902484Y-134377380D01*
X105616770Y-134377380D02*
X105616770Y-133377380D01*
X105712008Y-133520238D01*
X105807246Y-133615476D01*
X105902484Y-133663095D01*
X104854865Y-134377380D02*
X104664389Y-134377380D01*
X104569151Y-134329761D01*
X104521532Y-134282142D01*
X104426294Y-134139285D01*
X104378675Y-133948809D01*
X104378675Y-133567857D01*
X104426294Y-133472619D01*
X104473913Y-133425000D01*
X104569151Y-133377380D01*
X104759627Y-133377380D01*
X104854865Y-133425000D01*
X104902484Y-133472619D01*
X104950103Y-133567857D01*
X104950103Y-133805952D01*
X104902484Y-133901190D01*
X104854865Y-133948809D01*
X104759627Y-133996428D01*
X104569151Y-133996428D01*
X104473913Y-133948809D01*
X104426294Y-133901190D01*
X104378675Y-133805952D01*
%TO.C,R19*%
X102642857Y-132882380D02*
X102976190Y-132406190D01*
X103214285Y-132882380D02*
X103214285Y-131882380D01*
X102833333Y-131882380D01*
X102738095Y-131930000D01*
X102690476Y-131977619D01*
X102642857Y-132072857D01*
X102642857Y-132215714D01*
X102690476Y-132310952D01*
X102738095Y-132358571D01*
X102833333Y-132406190D01*
X103214285Y-132406190D01*
X101690476Y-132882380D02*
X102261904Y-132882380D01*
X101976190Y-132882380D02*
X101976190Y-131882380D01*
X102071428Y-132025238D01*
X102166666Y-132120476D01*
X102261904Y-132168095D01*
X101214285Y-132882380D02*
X101023809Y-132882380D01*
X100928571Y-132834761D01*
X100880952Y-132787142D01*
X100785714Y-132644285D01*
X100738095Y-132453809D01*
X100738095Y-132072857D01*
X100785714Y-131977619D01*
X100833333Y-131930000D01*
X100928571Y-131882380D01*
X101119047Y-131882380D01*
X101214285Y-131930000D01*
X101261904Y-131977619D01*
X101309523Y-132072857D01*
X101309523Y-132310952D01*
X101261904Y-132406190D01*
X101214285Y-132453809D01*
X101119047Y-132501428D01*
X100928571Y-132501428D01*
X100833333Y-132453809D01*
X100785714Y-132406190D01*
X100738095Y-132310952D01*
%TO.C,Q6*%
X105185908Y-147332921D02*
X105084893Y-147299249D01*
X104950206Y-147299249D01*
X104748175Y-147299249D01*
X104647160Y-147265577D01*
X104579817Y-147198234D01*
X104781847Y-147063547D02*
X104680832Y-147029875D01*
X104546145Y-147029875D01*
X104377786Y-147130890D01*
X104142084Y-147366593D01*
X104041069Y-147534951D01*
X104041069Y-147669638D01*
X104074740Y-147770654D01*
X104209427Y-147905341D01*
X104310443Y-147939012D01*
X104445130Y-147939012D01*
X104613488Y-147837997D01*
X104849191Y-147602295D01*
X104950206Y-147433936D01*
X104950206Y-147299249D01*
X104916534Y-147198234D01*
X104781847Y-147063547D01*
X104983878Y-148679791D02*
X104849191Y-148545104D01*
X104815519Y-148444089D01*
X104815519Y-148376745D01*
X104849191Y-148208386D01*
X104950206Y-148040028D01*
X105219580Y-147770654D01*
X105320595Y-147736982D01*
X105387939Y-147736982D01*
X105488954Y-147770654D01*
X105623641Y-147905341D01*
X105657313Y-148006356D01*
X105657313Y-148073699D01*
X105623641Y-148174715D01*
X105455282Y-148343073D01*
X105354267Y-148376745D01*
X105286923Y-148376745D01*
X105185908Y-148343073D01*
X105051221Y-148208386D01*
X105017549Y-148107371D01*
X105017549Y-148040028D01*
X105051221Y-147939012D01*
%TO.C,R9*%
X120952380Y-79833333D02*
X120476190Y-79500000D01*
X120952380Y-79261904D02*
X119952380Y-79261904D01*
X119952380Y-79642857D01*
X120000000Y-79738095D01*
X120047619Y-79785714D01*
X120142857Y-79833333D01*
X120285714Y-79833333D01*
X120380952Y-79785714D01*
X120428571Y-79738095D01*
X120476190Y-79642857D01*
X120476190Y-79261904D01*
X120952380Y-80309523D02*
X120952380Y-80500000D01*
X120904761Y-80595238D01*
X120857142Y-80642857D01*
X120714285Y-80738095D01*
X120523809Y-80785714D01*
X120142857Y-80785714D01*
X120047619Y-80738095D01*
X120000000Y-80690476D01*
X119952380Y-80595238D01*
X119952380Y-80404761D01*
X120000000Y-80309523D01*
X120047619Y-80261904D01*
X120142857Y-80214285D01*
X120380952Y-80214285D01*
X120476190Y-80261904D01*
X120523809Y-80309523D01*
X120571428Y-80404761D01*
X120571428Y-80595238D01*
X120523809Y-80690476D01*
X120476190Y-80738095D01*
X120380952Y-80785714D01*
%TO.C,R33*%
X113642857Y-78882380D02*
X113976190Y-78406190D01*
X114214285Y-78882380D02*
X114214285Y-77882380D01*
X113833333Y-77882380D01*
X113738095Y-77930000D01*
X113690476Y-77977619D01*
X113642857Y-78072857D01*
X113642857Y-78215714D01*
X113690476Y-78310952D01*
X113738095Y-78358571D01*
X113833333Y-78406190D01*
X114214285Y-78406190D01*
X113309523Y-77882380D02*
X112690476Y-77882380D01*
X113023809Y-78263333D01*
X112880952Y-78263333D01*
X112785714Y-78310952D01*
X112738095Y-78358571D01*
X112690476Y-78453809D01*
X112690476Y-78691904D01*
X112738095Y-78787142D01*
X112785714Y-78834761D01*
X112880952Y-78882380D01*
X113166666Y-78882380D01*
X113261904Y-78834761D01*
X113309523Y-78787142D01*
X112357142Y-77882380D02*
X111738095Y-77882380D01*
X112071428Y-78263333D01*
X111928571Y-78263333D01*
X111833333Y-78310952D01*
X111785714Y-78358571D01*
X111738095Y-78453809D01*
X111738095Y-78691904D01*
X111785714Y-78787142D01*
X111833333Y-78834761D01*
X111928571Y-78882380D01*
X112214285Y-78882380D01*
X112309523Y-78834761D01*
X112357142Y-78787142D01*
%TO.C,R1*%
X117666666Y-117952380D02*
X118000000Y-117476190D01*
X118238095Y-117952380D02*
X118238095Y-116952380D01*
X117857142Y-116952380D01*
X117761904Y-117000000D01*
X117714285Y-117047619D01*
X117666666Y-117142857D01*
X117666666Y-117285714D01*
X117714285Y-117380952D01*
X117761904Y-117428571D01*
X117857142Y-117476190D01*
X118238095Y-117476190D01*
X116714285Y-117952380D02*
X117285714Y-117952380D01*
X117000000Y-117952380D02*
X117000000Y-116952380D01*
X117095238Y-117095238D01*
X117190476Y-117190476D01*
X117285714Y-117238095D01*
%TO.C,R22*%
X94376475Y-57714386D02*
X93804056Y-57815401D01*
X93972414Y-57310325D02*
X93265308Y-58017432D01*
X93534682Y-58286806D01*
X93635697Y-58320478D01*
X93703040Y-58320478D01*
X93804056Y-58286806D01*
X93905071Y-58185791D01*
X93938743Y-58084775D01*
X93938743Y-58017432D01*
X93905071Y-57916417D01*
X93635697Y-57647043D01*
X94006086Y-58623524D02*
X94006086Y-58690867D01*
X94039758Y-58791882D01*
X94208117Y-58960241D01*
X94309132Y-58993913D01*
X94376475Y-58993913D01*
X94477491Y-58960241D01*
X94544834Y-58892898D01*
X94612178Y-58758211D01*
X94612178Y-57950088D01*
X95049911Y-58387821D01*
X94679521Y-59296959D02*
X94679521Y-59364302D01*
X94713193Y-59465317D01*
X94881552Y-59633676D01*
X94982567Y-59667348D01*
X95049911Y-59667348D01*
X95150926Y-59633676D01*
X95218269Y-59566333D01*
X95285613Y-59431646D01*
X95285613Y-58623524D01*
X95723346Y-59061256D01*
%TO.C,Q12*%
X114578776Y-61117137D02*
X114612447Y-61016121D01*
X114612447Y-60881434D01*
X114612447Y-60679404D01*
X114646119Y-60578389D01*
X114713463Y-60511045D01*
X114848150Y-60713076D02*
X114881821Y-60612060D01*
X114881821Y-60477373D01*
X114780806Y-60309015D01*
X114545104Y-60073312D01*
X114376745Y-59972297D01*
X114242058Y-59972297D01*
X114141043Y-60005969D01*
X114006356Y-60140656D01*
X113972684Y-60241671D01*
X113972684Y-60376358D01*
X114073699Y-60544717D01*
X114309402Y-60780419D01*
X114477760Y-60881434D01*
X114612447Y-60881434D01*
X114713463Y-60847763D01*
X114848150Y-60713076D01*
X113871669Y-61689556D02*
X114275730Y-61285495D01*
X114073699Y-61487526D02*
X113366593Y-60780419D01*
X113534951Y-60814091D01*
X113669638Y-60814091D01*
X113770654Y-60780419D01*
X112962532Y-61319167D02*
X112895188Y-61319167D01*
X112794173Y-61352839D01*
X112625814Y-61521198D01*
X112592142Y-61622213D01*
X112592142Y-61689556D01*
X112625814Y-61790572D01*
X112693158Y-61857915D01*
X112827845Y-61925259D01*
X113635967Y-61925259D01*
X113198234Y-62362991D01*
%TO.C,U6*%
X123261904Y-81952380D02*
X123261904Y-82761904D01*
X123214285Y-82857142D01*
X123166666Y-82904761D01*
X123071428Y-82952380D01*
X122880952Y-82952380D01*
X122785714Y-82904761D01*
X122738095Y-82857142D01*
X122690476Y-82761904D01*
X122690476Y-81952380D01*
X121785714Y-81952380D02*
X121976190Y-81952380D01*
X122071428Y-82000000D01*
X122119047Y-82047619D01*
X122214285Y-82190476D01*
X122261904Y-82380952D01*
X122261904Y-82761904D01*
X122214285Y-82857142D01*
X122166666Y-82904761D01*
X122071428Y-82952380D01*
X121880952Y-82952380D01*
X121785714Y-82904761D01*
X121738095Y-82857142D01*
X121690476Y-82761904D01*
X121690476Y-82523809D01*
X121738095Y-82428571D01*
X121785714Y-82380952D01*
X121880952Y-82333333D01*
X122071428Y-82333333D01*
X122166666Y-82380952D01*
X122214285Y-82428571D01*
X122261904Y-82523809D01*
%TO.C,Q11*%
X120049002Y-55646911D02*
X120082673Y-55545895D01*
X120082673Y-55411208D01*
X120082673Y-55209178D01*
X120116345Y-55108163D01*
X120183689Y-55040819D01*
X120318376Y-55242850D02*
X120352047Y-55141834D01*
X120352047Y-55007147D01*
X120251032Y-54838789D01*
X120015330Y-54603086D01*
X119846971Y-54502071D01*
X119712284Y-54502071D01*
X119611269Y-54535743D01*
X119476582Y-54670430D01*
X119442910Y-54771445D01*
X119442910Y-54906132D01*
X119543925Y-55074491D01*
X119779628Y-55310193D01*
X119947986Y-55411208D01*
X120082673Y-55411208D01*
X120183689Y-55377537D01*
X120318376Y-55242850D01*
X119341895Y-56219330D02*
X119745956Y-55815269D01*
X119543925Y-56017300D02*
X118836819Y-55310193D01*
X119005177Y-55343865D01*
X119139864Y-55343865D01*
X119240880Y-55310193D01*
X118668460Y-56892765D02*
X119072521Y-56488704D01*
X118870490Y-56690735D02*
X118163384Y-55983628D01*
X118331742Y-56017300D01*
X118466429Y-56017300D01*
X118567445Y-55983628D01*
%TO.C,R31*%
X96376475Y-55714386D02*
X95804056Y-55815401D01*
X95972414Y-55310325D02*
X95265308Y-56017432D01*
X95534682Y-56286806D01*
X95635697Y-56320478D01*
X95703040Y-56320478D01*
X95804056Y-56286806D01*
X95905071Y-56185791D01*
X95938743Y-56084775D01*
X95938743Y-56017432D01*
X95905071Y-55916417D01*
X95635697Y-55647043D01*
X95905071Y-56657195D02*
X96342804Y-57094928D01*
X96376475Y-56589852D01*
X96477491Y-56690867D01*
X96578506Y-56724539D01*
X96645850Y-56724539D01*
X96746865Y-56690867D01*
X96915224Y-56522508D01*
X96948895Y-56421493D01*
X96948895Y-56354149D01*
X96915224Y-56253134D01*
X96713193Y-56051104D01*
X96612178Y-56017432D01*
X96544834Y-56017432D01*
X97723346Y-57061256D02*
X97319285Y-56657195D01*
X97521315Y-56859226D02*
X96814208Y-57566333D01*
X96847880Y-57397974D01*
X96847880Y-57263287D01*
X96814208Y-57162272D01*
%TO.C,R23*%
X99854149Y-141736712D02*
X99281730Y-141837727D01*
X99450088Y-141332651D02*
X98742982Y-142039758D01*
X99012356Y-142309132D01*
X99113371Y-142342804D01*
X99180714Y-142342804D01*
X99281730Y-142309132D01*
X99382745Y-142208117D01*
X99416417Y-142107101D01*
X99416417Y-142039758D01*
X99382745Y-141938743D01*
X99113371Y-141669369D01*
X99483760Y-142645850D02*
X99483760Y-142713193D01*
X99517432Y-142814208D01*
X99685791Y-142982567D01*
X99786806Y-143016239D01*
X99854149Y-143016239D01*
X99955165Y-142982567D01*
X100022508Y-142915224D01*
X100089852Y-142780537D01*
X100089852Y-141972414D01*
X100527585Y-142410147D01*
X100056180Y-143352956D02*
X100493913Y-143790689D01*
X100527585Y-143285613D01*
X100628600Y-143386628D01*
X100729615Y-143420300D01*
X100796959Y-143420300D01*
X100897974Y-143386628D01*
X101066333Y-143218269D01*
X101100004Y-143117254D01*
X101100004Y-143049911D01*
X101066333Y-142948895D01*
X100864302Y-142746865D01*
X100763287Y-142713193D01*
X100695943Y-142713193D01*
%TO.C,C6*%
X110666666Y-110107142D02*
X110714285Y-110154761D01*
X110857142Y-110202380D01*
X110952380Y-110202380D01*
X111095238Y-110154761D01*
X111190476Y-110059523D01*
X111238095Y-109964285D01*
X111285714Y-109773809D01*
X111285714Y-109630952D01*
X111238095Y-109440476D01*
X111190476Y-109345238D01*
X111095238Y-109250000D01*
X110952380Y-109202380D01*
X110857142Y-109202380D01*
X110714285Y-109250000D01*
X110666666Y-109297619D01*
X109809523Y-109202380D02*
X110000000Y-109202380D01*
X110095238Y-109250000D01*
X110142857Y-109297619D01*
X110238095Y-109440476D01*
X110285714Y-109630952D01*
X110285714Y-110011904D01*
X110238095Y-110107142D01*
X110190476Y-110154761D01*
X110095238Y-110202380D01*
X109904761Y-110202380D01*
X109809523Y-110154761D01*
X109761904Y-110107142D01*
X109714285Y-110011904D01*
X109714285Y-109773809D01*
X109761904Y-109678571D01*
X109809523Y-109630952D01*
X109904761Y-109583333D01*
X110095238Y-109583333D01*
X110190476Y-109630952D01*
X110238095Y-109678571D01*
X110285714Y-109773809D01*
%TO.C,D18*%
X126214285Y-98452380D02*
X126214285Y-97452380D01*
X125976190Y-97452380D01*
X125833333Y-97500000D01*
X125738095Y-97595238D01*
X125690476Y-97690476D01*
X125642857Y-97880952D01*
X125642857Y-98023809D01*
X125690476Y-98214285D01*
X125738095Y-98309523D01*
X125833333Y-98404761D01*
X125976190Y-98452380D01*
X126214285Y-98452380D01*
X124690476Y-98452380D02*
X125261904Y-98452380D01*
X124976190Y-98452380D02*
X124976190Y-97452380D01*
X125071428Y-97595238D01*
X125166666Y-97690476D01*
X125261904Y-97738095D01*
X124119047Y-97880952D02*
X124214285Y-97833333D01*
X124261904Y-97785714D01*
X124309523Y-97690476D01*
X124309523Y-97642857D01*
X124261904Y-97547619D01*
X124214285Y-97500000D01*
X124119047Y-97452380D01*
X123928571Y-97452380D01*
X123833333Y-97500000D01*
X123785714Y-97547619D01*
X123738095Y-97642857D01*
X123738095Y-97690476D01*
X123785714Y-97785714D01*
X123833333Y-97833333D01*
X123928571Y-97880952D01*
X124119047Y-97880952D01*
X124214285Y-97928571D01*
X124261904Y-97976190D01*
X124309523Y-98071428D01*
X124309523Y-98261904D01*
X124261904Y-98357142D01*
X124214285Y-98404761D01*
X124119047Y-98452380D01*
X123928571Y-98452380D01*
X123833333Y-98404761D01*
X123785714Y-98357142D01*
X123738095Y-98261904D01*
X123738095Y-98071428D01*
X123785714Y-97976190D01*
X123833333Y-97928571D01*
X123928571Y-97880952D01*
%TO.C,C8*%
X103857142Y-93333333D02*
X103904761Y-93285714D01*
X103952380Y-93142857D01*
X103952380Y-93047619D01*
X103904761Y-92904761D01*
X103809523Y-92809523D01*
X103714285Y-92761904D01*
X103523809Y-92714285D01*
X103380952Y-92714285D01*
X103190476Y-92761904D01*
X103095238Y-92809523D01*
X103000000Y-92904761D01*
X102952380Y-93047619D01*
X102952380Y-93142857D01*
X103000000Y-93285714D01*
X103047619Y-93333333D01*
X103380952Y-93904761D02*
X103333333Y-93809523D01*
X103285714Y-93761904D01*
X103190476Y-93714285D01*
X103142857Y-93714285D01*
X103047619Y-93761904D01*
X103000000Y-93809523D01*
X102952380Y-93904761D01*
X102952380Y-94095238D01*
X103000000Y-94190476D01*
X103047619Y-94238095D01*
X103142857Y-94285714D01*
X103190476Y-94285714D01*
X103285714Y-94238095D01*
X103333333Y-94190476D01*
X103380952Y-94095238D01*
X103380952Y-93904761D01*
X103428571Y-93809523D01*
X103476190Y-93761904D01*
X103571428Y-93714285D01*
X103761904Y-93714285D01*
X103857142Y-93761904D01*
X103904761Y-93809523D01*
X103952380Y-93904761D01*
X103952380Y-94095238D01*
X103904761Y-94190476D01*
X103857142Y-94238095D01*
X103761904Y-94285714D01*
X103571428Y-94285714D01*
X103476190Y-94238095D01*
X103428571Y-94190476D01*
X103380952Y-94095238D01*
%TO.C,R27*%
X95376475Y-56714386D02*
X94804056Y-56815401D01*
X94972414Y-56310325D02*
X94265308Y-57017432D01*
X94534682Y-57286806D01*
X94635697Y-57320478D01*
X94703040Y-57320478D01*
X94804056Y-57286806D01*
X94905071Y-57185791D01*
X94938743Y-57084775D01*
X94938743Y-57017432D01*
X94905071Y-56916417D01*
X94635697Y-56647043D01*
X95006086Y-57623524D02*
X95006086Y-57690867D01*
X95039758Y-57791882D01*
X95208117Y-57960241D01*
X95309132Y-57993913D01*
X95376475Y-57993913D01*
X95477491Y-57960241D01*
X95544834Y-57892898D01*
X95612178Y-57758211D01*
X95612178Y-56950088D01*
X96049911Y-57387821D01*
X95578506Y-58330630D02*
X96049911Y-58802035D01*
X96453972Y-57791882D01*
%TO.C,D9*%
X105238095Y-67952380D02*
X105238095Y-66952380D01*
X105000000Y-66952380D01*
X104857142Y-67000000D01*
X104761904Y-67095238D01*
X104714285Y-67190476D01*
X104666666Y-67380952D01*
X104666666Y-67523809D01*
X104714285Y-67714285D01*
X104761904Y-67809523D01*
X104857142Y-67904761D01*
X105000000Y-67952380D01*
X105238095Y-67952380D01*
X104190476Y-67952380D02*
X104000000Y-67952380D01*
X103904761Y-67904761D01*
X103857142Y-67857142D01*
X103761904Y-67714285D01*
X103714285Y-67523809D01*
X103714285Y-67142857D01*
X103761904Y-67047619D01*
X103809523Y-67000000D01*
X103904761Y-66952380D01*
X104095238Y-66952380D01*
X104190476Y-67000000D01*
X104238095Y-67047619D01*
X104285714Y-67142857D01*
X104285714Y-67380952D01*
X104238095Y-67476190D01*
X104190476Y-67523809D01*
X104095238Y-67571428D01*
X103904761Y-67571428D01*
X103809523Y-67523809D01*
X103761904Y-67476190D01*
X103714285Y-67380952D01*
%TO.C,C46*%
X113642857Y-80697142D02*
X113690476Y-80744761D01*
X113833333Y-80792380D01*
X113928571Y-80792380D01*
X114071428Y-80744761D01*
X114166666Y-80649523D01*
X114214285Y-80554285D01*
X114261904Y-80363809D01*
X114261904Y-80220952D01*
X114214285Y-80030476D01*
X114166666Y-79935238D01*
X114071428Y-79840000D01*
X113928571Y-79792380D01*
X113833333Y-79792380D01*
X113690476Y-79840000D01*
X113642857Y-79887619D01*
X112785714Y-80125714D02*
X112785714Y-80792380D01*
X113023809Y-79744761D02*
X113261904Y-80459047D01*
X112642857Y-80459047D01*
X111833333Y-79792380D02*
X112023809Y-79792380D01*
X112119047Y-79840000D01*
X112166666Y-79887619D01*
X112261904Y-80030476D01*
X112309523Y-80220952D01*
X112309523Y-80601904D01*
X112261904Y-80697142D01*
X112214285Y-80744761D01*
X112119047Y-80792380D01*
X111928571Y-80792380D01*
X111833333Y-80744761D01*
X111785714Y-80697142D01*
X111738095Y-80601904D01*
X111738095Y-80363809D01*
X111785714Y-80268571D01*
X111833333Y-80220952D01*
X111928571Y-80173333D01*
X112119047Y-80173333D01*
X112214285Y-80220952D01*
X112261904Y-80268571D01*
X112309523Y-80363809D01*
%TO.C,R28*%
X96763287Y-140354149D02*
X96662272Y-139781730D01*
X97167348Y-139950088D02*
X96460241Y-139242982D01*
X96190867Y-139512356D01*
X96157195Y-139613371D01*
X96157195Y-139680714D01*
X96190867Y-139781730D01*
X96291882Y-139882745D01*
X96392898Y-139916417D01*
X96460241Y-139916417D01*
X96561256Y-139882745D01*
X96830630Y-139613371D01*
X95854149Y-139983760D02*
X95786806Y-139983760D01*
X95685791Y-140017432D01*
X95517432Y-140185791D01*
X95483760Y-140286806D01*
X95483760Y-140354149D01*
X95517432Y-140455165D01*
X95584775Y-140522508D01*
X95719462Y-140589852D01*
X96527585Y-140589852D01*
X96089852Y-141027585D01*
X95281730Y-141027585D02*
X95315401Y-140926569D01*
X95315401Y-140859226D01*
X95281730Y-140758211D01*
X95248058Y-140724539D01*
X95147043Y-140690867D01*
X95079699Y-140690867D01*
X94978684Y-140724539D01*
X94843997Y-140859226D01*
X94810325Y-140960241D01*
X94810325Y-141027585D01*
X94843997Y-141128600D01*
X94877669Y-141162272D01*
X94978684Y-141195943D01*
X95046027Y-141195943D01*
X95147043Y-141162272D01*
X95281730Y-141027585D01*
X95382745Y-140993913D01*
X95450088Y-140993913D01*
X95551104Y-141027585D01*
X95685791Y-141162272D01*
X95719462Y-141263287D01*
X95719462Y-141330630D01*
X95685791Y-141431646D01*
X95551104Y-141566333D01*
X95450088Y-141600004D01*
X95382745Y-141600004D01*
X95281730Y-141566333D01*
X95147043Y-141431646D01*
X95113371Y-141330630D01*
X95113371Y-141263287D01*
X95147043Y-141162272D01*
%TO.C,R14*%
X105365312Y-71725549D02*
X104792893Y-71826564D01*
X104961251Y-71321488D02*
X104254145Y-72028595D01*
X104523519Y-72297969D01*
X104624534Y-72331641D01*
X104691877Y-72331641D01*
X104792893Y-72297969D01*
X104893908Y-72196954D01*
X104927580Y-72095938D01*
X104927580Y-72028595D01*
X104893908Y-71927580D01*
X104624534Y-71658206D01*
X106038748Y-72398984D02*
X105634687Y-71994923D01*
X105836717Y-72196954D02*
X105129610Y-72904061D01*
X105163282Y-72735702D01*
X105163282Y-72601015D01*
X105129610Y-72500000D01*
X106173435Y-73476480D02*
X106644839Y-73005076D01*
X105735702Y-73577496D02*
X106072419Y-72904061D01*
X106510152Y-73341793D01*
%TO.C,R7*%
X116166666Y-110452380D02*
X116500000Y-109976190D01*
X116738095Y-110452380D02*
X116738095Y-109452380D01*
X116357142Y-109452380D01*
X116261904Y-109500000D01*
X116214285Y-109547619D01*
X116166666Y-109642857D01*
X116166666Y-109785714D01*
X116214285Y-109880952D01*
X116261904Y-109928571D01*
X116357142Y-109976190D01*
X116738095Y-109976190D01*
X115833333Y-109452380D02*
X115166666Y-109452380D01*
X115595238Y-110452380D01*
%TO.C,C18*%
X100297969Y-142292893D02*
X100297969Y-142225549D01*
X100230625Y-142090862D01*
X100163282Y-142023519D01*
X100028595Y-141956175D01*
X99893908Y-141956175D01*
X99792893Y-141989847D01*
X99624534Y-142090862D01*
X99523519Y-142191877D01*
X99422503Y-142360236D01*
X99388832Y-142461251D01*
X99388832Y-142595938D01*
X99456175Y-142730625D01*
X99523519Y-142797969D01*
X99658206Y-142865312D01*
X99725549Y-142865312D01*
X101038748Y-142898984D02*
X100634687Y-142494923D01*
X100836717Y-142696954D02*
X100129610Y-143404061D01*
X100163282Y-143235702D01*
X100163282Y-143101015D01*
X100129610Y-143000000D01*
X101038748Y-143707106D02*
X100937732Y-143673435D01*
X100870389Y-143673435D01*
X100769374Y-143707106D01*
X100735702Y-143740778D01*
X100702030Y-143841793D01*
X100702030Y-143909137D01*
X100735702Y-144010152D01*
X100870389Y-144144839D01*
X100971404Y-144178511D01*
X101038748Y-144178511D01*
X101139763Y-144144839D01*
X101173435Y-144111167D01*
X101207106Y-144010152D01*
X101207106Y-143942809D01*
X101173435Y-143841793D01*
X101038748Y-143707106D01*
X101005076Y-143606091D01*
X101005076Y-143538748D01*
X101038748Y-143437732D01*
X101173435Y-143303045D01*
X101274450Y-143269374D01*
X101341793Y-143269374D01*
X101442809Y-143303045D01*
X101577496Y-143437732D01*
X101611167Y-143538748D01*
X101611167Y-143606091D01*
X101577496Y-143707106D01*
X101442809Y-143841793D01*
X101341793Y-143875465D01*
X101274450Y-143875465D01*
X101173435Y-143841793D01*
%TO.C,C50*%
X138952381Y-76937142D02*
X139000000Y-76984761D01*
X139142857Y-77032380D01*
X139238095Y-77032380D01*
X139380952Y-76984761D01*
X139476190Y-76889523D01*
X139523809Y-76794285D01*
X139571428Y-76603809D01*
X139571428Y-76460952D01*
X139523809Y-76270476D01*
X139476190Y-76175238D01*
X139380952Y-76080000D01*
X139238095Y-76032380D01*
X139142857Y-76032380D01*
X139000000Y-76080000D01*
X138952381Y-76127619D01*
X138047619Y-76032380D02*
X138523809Y-76032380D01*
X138571428Y-76508571D01*
X138523809Y-76460952D01*
X138428571Y-76413333D01*
X138190476Y-76413333D01*
X138095238Y-76460952D01*
X138047619Y-76508571D01*
X138000000Y-76603809D01*
X138000000Y-76841904D01*
X138047619Y-76937142D01*
X138095238Y-76984761D01*
X138190476Y-77032380D01*
X138428571Y-77032380D01*
X138523809Y-76984761D01*
X138571428Y-76937142D01*
X137380952Y-76032380D02*
X137285714Y-76032380D01*
X137190476Y-76080000D01*
X137142857Y-76127619D01*
X137095238Y-76222857D01*
X137047619Y-76413333D01*
X137047619Y-76651428D01*
X137095238Y-76841904D01*
X137142857Y-76937142D01*
X137190476Y-76984761D01*
X137285714Y-77032380D01*
X137380952Y-77032380D01*
X137476190Y-76984761D01*
X137523809Y-76937142D01*
X137571428Y-76841904D01*
X137619047Y-76651428D01*
X137619047Y-76413333D01*
X137571428Y-76222857D01*
X137523809Y-76127619D01*
X137476190Y-76080000D01*
X137380952Y-76032380D01*
%TO.C,C14*%
X121142857Y-78857142D02*
X121190476Y-78904761D01*
X121333333Y-78952380D01*
X121428571Y-78952380D01*
X121571428Y-78904761D01*
X121666666Y-78809523D01*
X121714285Y-78714285D01*
X121761904Y-78523809D01*
X121761904Y-78380952D01*
X121714285Y-78190476D01*
X121666666Y-78095238D01*
X121571428Y-78000000D01*
X121428571Y-77952380D01*
X121333333Y-77952380D01*
X121190476Y-78000000D01*
X121142857Y-78047619D01*
X120190476Y-78952380D02*
X120761904Y-78952380D01*
X120476190Y-78952380D02*
X120476190Y-77952380D01*
X120571428Y-78095238D01*
X120666666Y-78190476D01*
X120761904Y-78238095D01*
X119333333Y-78285714D02*
X119333333Y-78952380D01*
X119571428Y-77904761D02*
X119809523Y-78619047D01*
X119190476Y-78619047D01*
%TO.C,R34*%
X138382381Y-74522380D02*
X138715714Y-74046190D01*
X138953809Y-74522380D02*
X138953809Y-73522380D01*
X138572857Y-73522380D01*
X138477619Y-73570000D01*
X138430000Y-73617619D01*
X138382381Y-73712857D01*
X138382381Y-73855714D01*
X138430000Y-73950952D01*
X138477619Y-73998571D01*
X138572857Y-74046190D01*
X138953809Y-74046190D01*
X138049047Y-73522380D02*
X137430000Y-73522380D01*
X137763333Y-73903333D01*
X137620476Y-73903333D01*
X137525238Y-73950952D01*
X137477619Y-73998571D01*
X137430000Y-74093809D01*
X137430000Y-74331904D01*
X137477619Y-74427142D01*
X137525238Y-74474761D01*
X137620476Y-74522380D01*
X137906190Y-74522380D01*
X138001428Y-74474761D01*
X138049047Y-74427142D01*
X136572857Y-73855714D02*
X136572857Y-74522380D01*
X136810952Y-73474761D02*
X137049047Y-74189047D01*
X136430000Y-74189047D01*
%TO.C,D19*%
X131714285Y-98452380D02*
X131714285Y-97452380D01*
X131476190Y-97452380D01*
X131333333Y-97500000D01*
X131238095Y-97595238D01*
X131190476Y-97690476D01*
X131142857Y-97880952D01*
X131142857Y-98023809D01*
X131190476Y-98214285D01*
X131238095Y-98309523D01*
X131333333Y-98404761D01*
X131476190Y-98452380D01*
X131714285Y-98452380D01*
X130190476Y-98452380D02*
X130761904Y-98452380D01*
X130476190Y-98452380D02*
X130476190Y-97452380D01*
X130571428Y-97595238D01*
X130666666Y-97690476D01*
X130761904Y-97738095D01*
X129714285Y-98452380D02*
X129523809Y-98452380D01*
X129428571Y-98404761D01*
X129380952Y-98357142D01*
X129285714Y-98214285D01*
X129238095Y-98023809D01*
X129238095Y-97642857D01*
X129285714Y-97547619D01*
X129333333Y-97500000D01*
X129428571Y-97452380D01*
X129619047Y-97452380D01*
X129714285Y-97500000D01*
X129761904Y-97547619D01*
X129809523Y-97642857D01*
X129809523Y-97880952D01*
X129761904Y-97976190D01*
X129714285Y-98023809D01*
X129619047Y-98071428D01*
X129428571Y-98071428D01*
X129333333Y-98023809D01*
X129285714Y-97976190D01*
X129238095Y-97880952D01*
%TO.C,C45*%
X121207106Y-60797969D02*
X121274450Y-60797969D01*
X121409137Y-60730625D01*
X121476480Y-60663282D01*
X121543824Y-60528595D01*
X121543824Y-60393908D01*
X121510152Y-60292893D01*
X121409137Y-60124534D01*
X121308122Y-60023519D01*
X121139763Y-59922503D01*
X121038748Y-59888832D01*
X120904061Y-59888832D01*
X120769374Y-59956175D01*
X120702030Y-60023519D01*
X120634687Y-60158206D01*
X120634687Y-60225549D01*
X120196954Y-61000000D02*
X120668358Y-61471404D01*
X120095938Y-60562267D02*
X120769374Y-60898984D01*
X120331641Y-61336717D01*
X119254145Y-61471404D02*
X119590862Y-61134687D01*
X119961251Y-61437732D01*
X119893908Y-61437732D01*
X119792893Y-61471404D01*
X119624534Y-61639763D01*
X119590862Y-61740778D01*
X119590862Y-61808122D01*
X119624534Y-61909137D01*
X119792893Y-62077496D01*
X119893908Y-62111167D01*
X119961251Y-62111167D01*
X120062267Y-62077496D01*
X120230625Y-61909137D01*
X120264297Y-61808122D01*
X120264297Y-61740778D01*
%TO.C,C17*%
X95752512Y-139343375D02*
X95819856Y-139343375D01*
X95954543Y-139276031D01*
X96021886Y-139208688D01*
X96089230Y-139074001D01*
X96089230Y-138939314D01*
X96055558Y-138838299D01*
X95954543Y-138669940D01*
X95853528Y-138568925D01*
X95685169Y-138467909D01*
X95584154Y-138434238D01*
X95449467Y-138434238D01*
X95314780Y-138501581D01*
X95247436Y-138568925D01*
X95180093Y-138703612D01*
X95180093Y-138770955D01*
X95146421Y-140084154D02*
X95550482Y-139680093D01*
X95348451Y-139882123D02*
X94641344Y-139175016D01*
X94809703Y-139208688D01*
X94944390Y-139208688D01*
X95045405Y-139175016D01*
X94203612Y-139612749D02*
X93732207Y-140084154D01*
X94742360Y-140488215D01*
%TO.C,R30*%
X104142857Y-65382380D02*
X104476190Y-64906190D01*
X104714285Y-65382380D02*
X104714285Y-64382380D01*
X104333333Y-64382380D01*
X104238095Y-64430000D01*
X104190476Y-64477619D01*
X104142857Y-64572857D01*
X104142857Y-64715714D01*
X104190476Y-64810952D01*
X104238095Y-64858571D01*
X104333333Y-64906190D01*
X104714285Y-64906190D01*
X103809523Y-64382380D02*
X103190476Y-64382380D01*
X103523809Y-64763333D01*
X103380952Y-64763333D01*
X103285714Y-64810952D01*
X103238095Y-64858571D01*
X103190476Y-64953809D01*
X103190476Y-65191904D01*
X103238095Y-65287142D01*
X103285714Y-65334761D01*
X103380952Y-65382380D01*
X103666666Y-65382380D01*
X103761904Y-65334761D01*
X103809523Y-65287142D01*
X102571428Y-64382380D02*
X102476190Y-64382380D01*
X102380952Y-64430000D01*
X102333333Y-64477619D01*
X102285714Y-64572857D01*
X102238095Y-64763333D01*
X102238095Y-65001428D01*
X102285714Y-65191904D01*
X102333333Y-65287142D01*
X102380952Y-65334761D01*
X102476190Y-65382380D01*
X102571428Y-65382380D01*
X102666666Y-65334761D01*
X102714285Y-65287142D01*
X102761904Y-65191904D01*
X102809523Y-65001428D01*
X102809523Y-64763333D01*
X102761904Y-64572857D01*
X102714285Y-64477619D01*
X102666666Y-64430000D01*
X102571428Y-64382380D01*
%TO.C,C41*%
X102707106Y-46797969D02*
X102774450Y-46797969D01*
X102909137Y-46730625D01*
X102976480Y-46663282D01*
X103043824Y-46528595D01*
X103043824Y-46393908D01*
X103010152Y-46292893D01*
X102909137Y-46124534D01*
X102808122Y-46023519D01*
X102639763Y-45922503D01*
X102538748Y-45888832D01*
X102404061Y-45888832D01*
X102269374Y-45956175D01*
X102202030Y-46023519D01*
X102134687Y-46158206D01*
X102134687Y-46225549D01*
X101696954Y-47000000D02*
X102168358Y-47471404D01*
X101595938Y-46562267D02*
X102269374Y-46898984D01*
X101831641Y-47336717D01*
X101427580Y-48212183D02*
X101831641Y-47808122D01*
X101629610Y-48010152D02*
X100922503Y-47303045D01*
X101090862Y-47336717D01*
X101225549Y-47336717D01*
X101326564Y-47303045D01*
%TO.C,C23*%
X116857142Y-123857142D02*
X116904761Y-123809523D01*
X116952380Y-123666666D01*
X116952380Y-123571428D01*
X116904761Y-123428571D01*
X116809523Y-123333333D01*
X116714285Y-123285714D01*
X116523809Y-123238095D01*
X116380952Y-123238095D01*
X116190476Y-123285714D01*
X116095238Y-123333333D01*
X116000000Y-123428571D01*
X115952380Y-123571428D01*
X115952380Y-123666666D01*
X116000000Y-123809523D01*
X116047619Y-123857142D01*
X116047619Y-124238095D02*
X116000000Y-124285714D01*
X115952380Y-124380952D01*
X115952380Y-124619047D01*
X116000000Y-124714285D01*
X116047619Y-124761904D01*
X116142857Y-124809523D01*
X116238095Y-124809523D01*
X116380952Y-124761904D01*
X116952380Y-124190476D01*
X116952380Y-124809523D01*
X115952380Y-125142857D02*
X115952380Y-125761904D01*
X116333333Y-125428571D01*
X116333333Y-125571428D01*
X116380952Y-125666666D01*
X116428571Y-125714285D01*
X116523809Y-125761904D01*
X116761904Y-125761904D01*
X116857142Y-125714285D01*
X116904761Y-125666666D01*
X116952380Y-125571428D01*
X116952380Y-125285714D01*
X116904761Y-125190476D01*
X116857142Y-125142857D01*
D11*
%TO.C,C7*%
X114107836Y-108140000D02*
X113892164Y-108140000D01*
X114107836Y-108860000D02*
X113892164Y-108860000D01*
%TO.C,FB1*%
X103022500Y-100262742D02*
X103022500Y-100737258D01*
X101977500Y-100262742D02*
X101977500Y-100737258D01*
%TO.C,R25*%
X102201697Y-61037230D02*
X102537230Y-60701697D01*
X101462770Y-60298303D02*
X101798303Y-59962770D01*
%TO.C,R32*%
X109477500Y-79237258D02*
X109477500Y-78762742D01*
X110522500Y-79237258D02*
X110522500Y-78762742D01*
%TO.C,R5*%
X108237258Y-74522500D02*
X107762742Y-74522500D01*
X108237258Y-73477500D02*
X107762742Y-73477500D01*
%TO.C,R10*%
X122737258Y-100977500D02*
X122262742Y-100977500D01*
X122737258Y-102022500D02*
X122262742Y-102022500D01*
%TO.C,C47*%
X113087836Y-75140000D02*
X112872164Y-75140000D01*
X113087836Y-75860000D02*
X112872164Y-75860000D01*
%TO.C,C22*%
X96539970Y-54261219D02*
X96738781Y-54460030D01*
X97261219Y-53539970D02*
X97460030Y-53738781D01*
%TO.C,R2*%
X121262742Y-116022500D02*
X121737258Y-116022500D01*
X121262742Y-114977500D02*
X121737258Y-114977500D01*
%TO.C,R13*%
X121477500Y-84237258D02*
X121477500Y-83762742D01*
X122522500Y-84237258D02*
X122522500Y-83762742D01*
%TO.C,C21*%
X102761219Y-57539970D02*
X102960030Y-57738781D01*
X102039970Y-58261219D02*
X102238781Y-58460030D01*
%TO.C,Q10*%
X103560104Y-146165992D02*
X103701525Y-146024570D01*
X100024570Y-149701525D02*
X100165992Y-149560104D01*
X106742085Y-149065129D02*
X106636019Y-149171195D01*
X103701525Y-146024570D02*
X106742085Y-149065129D01*
X103065129Y-152742085D02*
X100024570Y-149701525D01*
X103171195Y-152636019D02*
X103065129Y-152742085D01*
%TO.C,R24*%
X101762742Y-131977500D02*
X102237258Y-131977500D01*
X101762742Y-133022500D02*
X102237258Y-133022500D01*
%TO.C,C16*%
X112392164Y-89640000D02*
X112607836Y-89640000D01*
X112392164Y-90360000D02*
X112607836Y-90360000D01*
%TO.C,C15*%
X117113452Y-121607836D02*
X117113452Y-121392164D01*
X117833452Y-121607836D02*
X117833452Y-121392164D01*
%TO.C,R18*%
X102962770Y-139201697D02*
X103298303Y-139537230D01*
X103701697Y-138462770D02*
X104037230Y-138798303D01*
%TO.C,U3*%
X117940000Y-91000000D02*
X117940000Y-89050000D01*
X123060000Y-91000000D02*
X123060000Y-89050000D01*
X123060000Y-91000000D02*
X123060000Y-94450000D01*
X117940000Y-91000000D02*
X117940000Y-92950000D01*
%TO.C,D8*%
X107235000Y-134485000D02*
X105765000Y-134485000D01*
X107235000Y-132200000D02*
X107235000Y-134485000D01*
X105765000Y-134485000D02*
X105765000Y-132200000D01*
%TO.C,C43*%
X119261219Y-140539970D02*
X119460030Y-140738781D01*
X118539970Y-141261219D02*
X118738781Y-141460030D01*
%TO.C,C40*%
X98761219Y-150539970D02*
X98960030Y-150738781D01*
X98039970Y-151261219D02*
X98238781Y-151460030D01*
%TO.C,D10*%
X104469670Y-58930223D02*
X106085409Y-60545962D01*
X105045962Y-61585409D02*
X103430223Y-59969670D01*
X103430223Y-59969670D02*
X104469670Y-58930223D01*
%TO.C,R35*%
X133966782Y-74977500D02*
X133492266Y-74977500D01*
X133966782Y-76022500D02*
X133492266Y-76022500D01*
%TO.C,Q5*%
X116242085Y-150757538D02*
X116136019Y-150863604D01*
X109524570Y-151393934D02*
X109665992Y-151252513D01*
X113060104Y-147858401D02*
X113201525Y-147716979D01*
X113201525Y-147716979D02*
X116242085Y-150757538D01*
X112671195Y-154328428D02*
X112565129Y-154434494D01*
X112565129Y-154434494D02*
X109524570Y-151393934D01*
%TO.C,GD2*%
X100983991Y-63000000D02*
X100648115Y-62664124D01*
X95351885Y-62664124D02*
X95016009Y-63000000D01*
X98335876Y-65648115D02*
X98000000Y-65983991D01*
X100648115Y-63335876D02*
X100983991Y-63000000D01*
X95016009Y-63000000D02*
X95351885Y-63335876D01*
X98000000Y-60016009D02*
X98335876Y-60351885D01*
X97664124Y-60351885D02*
X98000000Y-60016009D01*
%TO.C,C9*%
X120607836Y-95860000D02*
X120392164Y-95860000D01*
X120607836Y-95140000D02*
X120392164Y-95140000D01*
%TO.C,D5*%
X110015000Y-115735000D02*
X110015000Y-114265000D01*
X110015000Y-114265000D02*
X112300000Y-114265000D01*
X112300000Y-115735000D02*
X110015000Y-115735000D01*
%TO.C,U5*%
X119773452Y-120840000D02*
X121173452Y-120840000D01*
X121173452Y-123160000D02*
X119273452Y-123160000D01*
%TO.C,C5*%
X108978307Y-92630810D02*
X109130810Y-92478307D01*
X108469190Y-92121693D02*
X108621693Y-91969190D01*
%TO.C,C11*%
X102140000Y-103107836D02*
X102140000Y-102892164D01*
X102860000Y-103107836D02*
X102860000Y-102892164D01*
%TO.C,C42*%
X118261219Y-141539970D02*
X118460030Y-141738781D01*
X117539970Y-142261219D02*
X117738781Y-142460030D01*
%TO.C,C12*%
X97140580Y-132010000D02*
X96859420Y-132010000D01*
X97140580Y-130990000D02*
X96859420Y-130990000D01*
%TO.C,D6*%
X95569777Y-139969670D02*
X93954038Y-141585409D01*
X92914591Y-140545962D02*
X94530330Y-138930223D01*
X94530330Y-138930223D02*
X95569777Y-139969670D01*
%TO.C,Q2*%
X111560104Y-138165992D02*
X111701525Y-138024570D01*
X108024570Y-141701525D02*
X108165992Y-141560104D01*
X114742085Y-141065129D02*
X114636019Y-141171195D01*
X111065129Y-144742085D02*
X108024570Y-141701525D01*
X111701525Y-138024570D02*
X114742085Y-141065129D01*
X111171195Y-144636019D02*
X111065129Y-144742085D01*
%TO.C,Q4*%
X106742085Y-50934871D02*
X103701525Y-53975430D01*
X103701525Y-53975430D02*
X103560104Y-53834008D01*
X100165992Y-50439896D02*
X100024570Y-50298475D01*
X106636019Y-50828805D02*
X106742085Y-50934871D01*
X103065129Y-47257915D02*
X103171195Y-47363981D01*
X100024570Y-50298475D02*
X103065129Y-47257915D01*
%TO.C,R4*%
X121262742Y-120022500D02*
X121737258Y-120022500D01*
X121262742Y-118977500D02*
X121737258Y-118977500D01*
%TO.C,R3*%
X121262742Y-112977500D02*
X121737258Y-112977500D01*
X121262742Y-114022500D02*
X121737258Y-114022500D01*
%TO.C,C24*%
X119990000Y-83859420D02*
X119990000Y-84140580D01*
X121010000Y-83859420D02*
X121010000Y-84140580D01*
%TO.C,R21*%
X98298303Y-58537230D02*
X97962770Y-58201697D01*
X99037230Y-57798303D02*
X98701697Y-57462770D01*
%TO.C,Q9*%
X105524570Y-155469669D02*
X105665992Y-155328248D01*
X112242085Y-154833273D02*
X112136019Y-154939339D01*
X109201525Y-151792714D02*
X112242085Y-154833273D01*
X109060104Y-151934136D02*
X109201525Y-151792714D01*
X108565129Y-158510229D02*
X105524570Y-155469669D01*
X108671195Y-158404163D02*
X108565129Y-158510229D01*
%TO.C,Q7*%
X113201525Y-52475430D02*
X113060104Y-52334008D01*
X116136019Y-49328805D02*
X116242085Y-49434871D01*
X109524570Y-48798475D02*
X112565129Y-45757915D01*
X109665992Y-48939896D02*
X109524570Y-48798475D01*
X112565129Y-45757915D02*
X112671195Y-45863981D01*
X116242085Y-49434871D02*
X113201525Y-52475430D01*
%TO.C,U1*%
X113000000Y-77940000D02*
X112200000Y-77940000D01*
X113000000Y-81060000D02*
X111200000Y-81060000D01*
X113000000Y-81060000D02*
X113800000Y-81060000D01*
X113000000Y-77940000D02*
X113800000Y-77940000D01*
%TO.C,Q8*%
X110636019Y-54828805D02*
X110742085Y-54934871D01*
X104165992Y-54439896D02*
X104024570Y-54298475D01*
X110742085Y-54934871D02*
X107701525Y-57975430D01*
X104024570Y-54298475D02*
X107065129Y-51257915D01*
X107065129Y-51257915D02*
X107171195Y-51363981D01*
X107701525Y-57975430D02*
X107560104Y-57834008D01*
%TO.C,D7*%
X98069777Y-144469670D02*
X96454038Y-146085409D01*
X95414591Y-145045962D02*
X97030330Y-143430223D01*
X97030330Y-143430223D02*
X98069777Y-144469670D01*
%TO.C,R15*%
X105298303Y-124962770D02*
X104962770Y-125298303D01*
X106037230Y-125701697D02*
X105701697Y-126037230D01*
%TO.C,Y1*%
X104292893Y-106661522D02*
X104575736Y-106378680D01*
X105424264Y-110621320D02*
X106838478Y-109207107D01*
X104151472Y-106520101D02*
X104434315Y-106237258D01*
X102878680Y-108075736D02*
X103585786Y-108782843D01*
X106838478Y-109207107D02*
X107121320Y-108924264D01*
X105282843Y-107085786D02*
X105565685Y-106802944D01*
X104292893Y-106661522D02*
X102878680Y-108075736D01*
X102737258Y-107934315D02*
X104151472Y-106520101D01*
X107121320Y-108924264D02*
X106555635Y-108358579D01*
X104858579Y-110055635D02*
X105424264Y-110621320D01*
X105282843Y-107085786D02*
X104575736Y-106378680D01*
%TO.C,D11*%
X98969670Y-54930223D02*
X100585409Y-56545962D01*
X99545962Y-57585409D02*
X97930223Y-55969670D01*
X97930223Y-55969670D02*
X98969670Y-54930223D01*
%TO.C,C20*%
X107640580Y-66510000D02*
X107359420Y-66510000D01*
X107640580Y-65490000D02*
X107359420Y-65490000D01*
%TO.C,R12*%
X120995952Y-124737258D02*
X120995952Y-124262742D01*
X119950952Y-124737258D02*
X119950952Y-124262742D01*
%TO.C,C44*%
X117761219Y-58460030D02*
X117960030Y-58261219D01*
X117039970Y-57738781D02*
X117238781Y-57539970D01*
%TO.C,R16*%
X112022500Y-72737258D02*
X112022500Y-72262742D01*
X110977500Y-72737258D02*
X110977500Y-72262742D01*
%TO.C,U4*%
X110828249Y-106554880D02*
X109880725Y-107502403D01*
X118726631Y-100000000D02*
X118054880Y-99328249D01*
X110828249Y-93445120D02*
X111500000Y-92773369D01*
X104945120Y-99328249D02*
X104273369Y-100000000D01*
X111500000Y-107226631D02*
X110828249Y-106554880D01*
X111500000Y-92773369D02*
X112171751Y-93445120D01*
X104273369Y-100000000D02*
X104945120Y-100671751D01*
X118054880Y-100671751D02*
X118726631Y-100000000D01*
X112171751Y-106554880D02*
X111500000Y-107226631D01*
%TO.C,D16*%
X132150000Y-109400000D02*
X132150000Y-104000000D01*
X132150000Y-109400000D02*
X128850000Y-109400000D01*
X128850000Y-109400000D02*
X128850000Y-104000000D01*
%TO.C,R11*%
X112737258Y-92022500D02*
X112262742Y-92022500D01*
X112737258Y-90977500D02*
X112262742Y-90977500D01*
%TO.C,C13*%
X92539970Y-64261219D02*
X92738781Y-64460030D01*
X93261219Y-63539970D02*
X93460030Y-63738781D01*
%TO.C,R17*%
X114477500Y-72737258D02*
X114477500Y-72262742D01*
X115522500Y-72737258D02*
X115522500Y-72262742D01*
%TO.C,Q1*%
X117201525Y-143716979D02*
X120242085Y-146757538D01*
X113524570Y-147393934D02*
X113665992Y-147252513D01*
X117060104Y-143858401D02*
X117201525Y-143716979D01*
X116565129Y-150434494D02*
X113524570Y-147393934D01*
X116671195Y-150328428D02*
X116565129Y-150434494D01*
X120242085Y-146757538D02*
X120136019Y-146863604D01*
%TO.C,R6*%
X105977500Y-84237258D02*
X105977500Y-83762742D01*
X107022500Y-84237258D02*
X107022500Y-83762742D01*
%TO.C,GD1*%
X98593414Y-134351885D02*
X98257538Y-134016009D01*
X101241529Y-137000000D02*
X100905653Y-137335876D01*
X97921662Y-139648115D02*
X98257538Y-139983991D01*
X98257538Y-134016009D02*
X97921662Y-134351885D01*
X100905653Y-136664124D02*
X101241529Y-137000000D01*
X95609423Y-137335876D02*
X95273547Y-137000000D01*
X98257538Y-139983991D02*
X98593414Y-139648115D01*
%TO.C,R8*%
X119522500Y-83237258D02*
X119522500Y-82762742D01*
X118477500Y-83237258D02*
X118477500Y-82762742D01*
%TO.C,Q3*%
X112188118Y-45371609D02*
X112294184Y-45477675D01*
X105576669Y-44841279D02*
X108617228Y-41800719D01*
X112294184Y-45477675D02*
X109253624Y-48518234D01*
X105718091Y-44982700D02*
X105576669Y-44841279D01*
X109253624Y-48518234D02*
X109112203Y-48376812D01*
X108617228Y-41800719D02*
X108723294Y-41906785D01*
%TO.C,R29*%
X101762742Y-133477500D02*
X102237258Y-133477500D01*
X101762742Y-134522500D02*
X102237258Y-134522500D01*
%TO.C,D17*%
X123350000Y-109400000D02*
X123350000Y-104000000D01*
X126650000Y-109400000D02*
X123350000Y-109400000D01*
X126650000Y-109400000D02*
X126650000Y-104000000D01*
%TO.C,C19*%
X105359420Y-134990000D02*
X105640580Y-134990000D01*
X105359420Y-136010000D02*
X105640580Y-136010000D01*
%TO.C,R19*%
X101762742Y-130477500D02*
X102237258Y-130477500D01*
X101762742Y-131522500D02*
X102237258Y-131522500D01*
%TO.C,Q6*%
X110742085Y-145065129D02*
X110636019Y-145171195D01*
X107065129Y-148742085D02*
X104024570Y-145701525D01*
X107560104Y-142165992D02*
X107701525Y-142024570D01*
X107701525Y-142024570D02*
X110742085Y-145065129D01*
X107171195Y-148636019D02*
X107065129Y-148742085D01*
X104024570Y-145701525D02*
X104165992Y-145560104D01*
%TO.C,R9*%
X119522500Y-80237258D02*
X119522500Y-79762742D01*
X118477500Y-80237258D02*
X118477500Y-79762742D01*
%TO.C,R33*%
X112762742Y-76477500D02*
X113237258Y-76477500D01*
X112762742Y-77522500D02*
X113237258Y-77522500D01*
%TO.C,R1*%
X121262742Y-118022500D02*
X121737258Y-118022500D01*
X121262742Y-116977500D02*
X121737258Y-116977500D01*
%TO.C,R22*%
X94037230Y-59298303D02*
X93701697Y-58962770D01*
X93298303Y-60037230D02*
X92962770Y-59701697D01*
%TO.C,Q12*%
X114636019Y-58828805D02*
X114742085Y-58934871D01*
X108024570Y-58298475D02*
X111065129Y-55257915D01*
X108165992Y-58439896D02*
X108024570Y-58298475D01*
X111701525Y-61975430D02*
X111560104Y-61834008D01*
X111065129Y-55257915D02*
X111171195Y-55363981D01*
X114742085Y-58934871D02*
X111701525Y-61975430D01*
%TO.C,U6*%
X123200000Y-81660000D02*
X121300000Y-81660000D01*
X121800000Y-79340000D02*
X123200000Y-79340000D01*
%TO.C,Q11*%
X113636218Y-52969670D02*
X113494796Y-52828249D01*
X113494796Y-52828249D02*
X116535355Y-49787689D01*
X116535355Y-49787689D02*
X116641421Y-49893755D01*
X117171751Y-56505204D02*
X117030330Y-56363782D01*
X120212311Y-53464645D02*
X117171751Y-56505204D01*
X120106245Y-53358579D02*
X120212311Y-53464645D01*
%TO.C,R31*%
X96037230Y-57298303D02*
X95701697Y-56962770D01*
X95298303Y-58037230D02*
X94962770Y-57701697D01*
%TO.C,R23*%
X100462770Y-141701697D02*
X100798303Y-142037230D01*
X101201697Y-140962770D02*
X101537230Y-141298303D01*
%TO.C,C6*%
X110607836Y-108860000D02*
X110392164Y-108860000D01*
X110607836Y-108140000D02*
X110392164Y-108140000D01*
%TO.C,D18*%
X126650000Y-97400000D02*
X126650000Y-92000000D01*
X123350000Y-97400000D02*
X123350000Y-92000000D01*
X126650000Y-97400000D02*
X123350000Y-97400000D01*
%TO.C,C8*%
X103860000Y-95392164D02*
X103860000Y-95607836D01*
X103140000Y-95392164D02*
X103140000Y-95607836D01*
%TO.C,R27*%
X94298303Y-59037230D02*
X93962770Y-58701697D01*
X95037230Y-58298303D02*
X94701697Y-57962770D01*
%TO.C,D9*%
X105985000Y-65265000D02*
X105985000Y-66735000D01*
X103700000Y-65265000D02*
X105985000Y-65265000D01*
X105985000Y-66735000D02*
X103700000Y-66735000D01*
%TO.C,C46*%
X113107836Y-81140000D02*
X112892164Y-81140000D01*
X113107836Y-81860000D02*
X112892164Y-81860000D01*
%TO.C,R28*%
X97537230Y-141701697D02*
X97201697Y-142037230D01*
X96798303Y-140962770D02*
X96462770Y-141298303D01*
%TO.C,R14*%
X104701697Y-72962770D02*
X105037230Y-73298303D01*
X103962770Y-73701697D02*
X104298303Y-74037230D01*
%TO.C,R7*%
X113262742Y-110522500D02*
X113737258Y-110522500D01*
X113262742Y-109477500D02*
X113737258Y-109477500D01*
%TO.C,C18*%
X99460030Y-143238781D02*
X99261219Y-143039970D01*
X98738781Y-143960030D02*
X98539970Y-143761219D01*
%TO.C,C50*%
X138417360Y-77380000D02*
X138201688Y-77380000D01*
X138417360Y-78100000D02*
X138201688Y-78100000D01*
%TO.C,C14*%
X120860000Y-80107836D02*
X120860000Y-79892164D01*
X120140000Y-80107836D02*
X120140000Y-79892164D01*
%TO.C,R34*%
X137976782Y-74977500D02*
X137502266Y-74977500D01*
X137976782Y-76022500D02*
X137502266Y-76022500D01*
%TO.C,D19*%
X132150000Y-97400000D02*
X128850000Y-97400000D01*
X128850000Y-97400000D02*
X128850000Y-92000000D01*
X132150000Y-97400000D02*
X132150000Y-92000000D01*
%TO.C,C45*%
X118039970Y-58738781D02*
X118238781Y-58539970D01*
X118761219Y-59460030D02*
X118960030Y-59261219D01*
%TO.C,C17*%
X96261219Y-140960030D02*
X96460030Y-140761219D01*
X95539970Y-140238781D02*
X95738781Y-140039970D01*
%TO.C,R30*%
X103262742Y-62977500D02*
X103737258Y-62977500D01*
X103262742Y-64022500D02*
X103737258Y-64022500D01*
%TO.C,C41*%
X98761219Y-49460030D02*
X98960030Y-49261219D01*
X98039970Y-48738781D02*
X98238781Y-48539970D01*
%TO.C,C23*%
X117463452Y-124359420D02*
X117463452Y-124640580D01*
X118483452Y-124359420D02*
X118483452Y-124640580D01*
%TD*%
M02*
