%TF.GenerationSoftware,KiCad,Pcbnew,(6.0.11)*%
%TF.CreationDate,2024-04-02T23:15:32+09:00*%
%TF.ProjectId,ORION_VV_driver_v4,4f52494f-4e5f-4565-965f-647269766572,rev?*%
%TF.SameCoordinates,Original*%
%TF.FileFunction,Legend,Top*%
%TF.FilePolarity,Positive*%
%FSLAX46Y46*%
G04 Gerber Fmt 4.6, Leading zero omitted, Abs format (unit mm)*
G04 Created by KiCad (PCBNEW (6.0.11)) date 2024-04-02 23:15:32*
%MOMM*%
%LPD*%
G01*
G04 APERTURE LIST*
%ADD10C,0.150000*%
%ADD11C,0.300000*%
%ADD12C,0.500000*%
%ADD13C,0.100000*%
%ADD14C,0.120000*%
%ADD15C,0.200000*%
G04 APERTURE END LIST*
D10*
X119000000Y-111000000D02*
X101000000Y-111000000D01*
X137000000Y-100000000D02*
G75*
G03*
X137000000Y-100000000I-83000000J0D01*
G01*
X119000000Y-88940000D02*
X101000000Y-88940000D01*
X120038095Y-119952380D02*
X120657142Y-119952380D01*
X120323809Y-120333333D01*
X120466666Y-120333333D01*
X120561904Y-120380952D01*
X120609523Y-120428571D01*
X120657142Y-120523809D01*
X120657142Y-120761904D01*
X120609523Y-120857142D01*
X120561904Y-120904761D01*
X120466666Y-120952380D01*
X120180952Y-120952380D01*
X120085714Y-120904761D01*
X120038095Y-120857142D01*
X120942857Y-119952380D02*
X121276190Y-120952380D01*
X121609523Y-119952380D01*
X116023809Y-124952380D02*
X116023809Y-123952380D01*
X116500000Y-124952380D02*
X116500000Y-123952380D01*
X116738095Y-123952380D01*
X116880952Y-124000000D01*
X116976190Y-124095238D01*
X117023809Y-124190476D01*
X117071428Y-124380952D01*
X117071428Y-124523809D01*
X117023809Y-124714285D01*
X116976190Y-124809523D01*
X116880952Y-124904761D01*
X116738095Y-124952380D01*
X116500000Y-124952380D01*
X118023809Y-124952380D02*
X117452380Y-124952380D01*
X117738095Y-124952380D02*
X117738095Y-123952380D01*
X117642857Y-124095238D01*
X117547619Y-124190476D01*
X117452380Y-124238095D01*
X119323809Y-125052380D02*
X119323809Y-124052380D01*
X119800000Y-125052380D02*
X119800000Y-124052380D01*
X120038095Y-124052380D01*
X120180952Y-124100000D01*
X120276190Y-124195238D01*
X120323809Y-124290476D01*
X120371428Y-124480952D01*
X120371428Y-124623809D01*
X120323809Y-124814285D01*
X120276190Y-124909523D01*
X120180952Y-125004761D01*
X120038095Y-125052380D01*
X119800000Y-125052380D01*
X120990476Y-124052380D02*
X121085714Y-124052380D01*
X121180952Y-124100000D01*
X121228571Y-124147619D01*
X121276190Y-124242857D01*
X121323809Y-124433333D01*
X121323809Y-124671428D01*
X121276190Y-124861904D01*
X121228571Y-124957142D01*
X121180952Y-125004761D01*
X121085714Y-125052380D01*
X120990476Y-125052380D01*
X120895238Y-125004761D01*
X120847619Y-124957142D01*
X120800000Y-124861904D01*
X120752380Y-124671428D01*
X120752380Y-124433333D01*
X120800000Y-124242857D01*
X120847619Y-124147619D01*
X120895238Y-124100000D01*
X120990476Y-124052380D01*
X110000000Y-87285714D02*
X109952380Y-87380952D01*
X109952380Y-87523809D01*
X110000000Y-87666666D01*
X110095238Y-87761904D01*
X110190476Y-87809523D01*
X110380952Y-87857142D01*
X110523809Y-87857142D01*
X110714285Y-87809523D01*
X110809523Y-87761904D01*
X110904761Y-87666666D01*
X110952380Y-87523809D01*
X110952380Y-87428571D01*
X110904761Y-87285714D01*
X110857142Y-87238095D01*
X110523809Y-87238095D01*
X110523809Y-87428571D01*
X109952380Y-85571428D02*
X109952380Y-86047619D01*
X110428571Y-86095238D01*
X110380952Y-86047619D01*
X110333333Y-85952380D01*
X110333333Y-85714285D01*
X110380952Y-85619047D01*
X110428571Y-85571428D01*
X110523809Y-85523809D01*
X110761904Y-85523809D01*
X110857142Y-85571428D01*
X110904761Y-85619047D01*
X110952380Y-85714285D01*
X110952380Y-85952380D01*
X110904761Y-86047619D01*
X110857142Y-86095238D01*
X110952380Y-84333333D02*
X109952380Y-84333333D01*
X110428571Y-84333333D02*
X110428571Y-83761904D01*
X110952380Y-83761904D02*
X109952380Y-83761904D01*
X110952380Y-82047619D02*
X110952380Y-82523809D01*
X109952380Y-82523809D01*
X125542857Y-118833333D02*
X125495238Y-118785714D01*
X125447619Y-118642857D01*
X125447619Y-118547619D01*
X125495238Y-118404761D01*
X125590476Y-118309523D01*
X125685714Y-118261904D01*
X125876190Y-118214285D01*
X126019047Y-118214285D01*
X126209523Y-118261904D01*
X126304761Y-118309523D01*
X126400000Y-118404761D01*
X126447619Y-118547619D01*
X126447619Y-118642857D01*
X126400000Y-118785714D01*
X126352380Y-118833333D01*
X125495238Y-119214285D02*
X125447619Y-119357142D01*
X125447619Y-119595238D01*
X125495238Y-119690476D01*
X125542857Y-119738095D01*
X125638095Y-119785714D01*
X125733333Y-119785714D01*
X125828571Y-119738095D01*
X125876190Y-119690476D01*
X125923809Y-119595238D01*
X125971428Y-119404761D01*
X126019047Y-119309523D01*
X126066666Y-119261904D01*
X126161904Y-119214285D01*
X126257142Y-119214285D01*
X126352380Y-119261904D01*
X126400000Y-119309523D01*
X126447619Y-119404761D01*
X126447619Y-119642857D01*
X126400000Y-119785714D01*
X108976190Y-124857142D02*
X108928571Y-124904761D01*
X108785714Y-124952380D01*
X108690476Y-124952380D01*
X108547619Y-124904761D01*
X108452380Y-124809523D01*
X108404761Y-124714285D01*
X108357142Y-124523809D01*
X108357142Y-124380952D01*
X108404761Y-124190476D01*
X108452380Y-124095238D01*
X108547619Y-124000000D01*
X108690476Y-123952380D01*
X108785714Y-123952380D01*
X108928571Y-124000000D01*
X108976190Y-124047619D01*
X109357142Y-124666666D02*
X109833333Y-124666666D01*
X109261904Y-124952380D02*
X109595238Y-123952380D01*
X109928571Y-124952380D01*
X110738095Y-124952380D02*
X110261904Y-124952380D01*
X110261904Y-123952380D01*
D11*
X99005076Y-128215397D02*
X100419289Y-129629610D01*
X98937732Y-129090862D01*
X99476480Y-130572419D01*
X98062267Y-129158206D01*
X96648053Y-130572419D02*
X97456175Y-129764297D01*
X97052114Y-130168358D02*
X98466328Y-131582572D01*
X98398984Y-131245854D01*
X98398984Y-130976480D01*
X98466328Y-130774450D01*
D10*
X126300000Y-111338095D02*
X126347619Y-111242857D01*
X126347619Y-111100000D01*
X126300000Y-110957142D01*
X126204761Y-110861904D01*
X126109523Y-110814285D01*
X125919047Y-110766666D01*
X125776190Y-110766666D01*
X125585714Y-110814285D01*
X125490476Y-110861904D01*
X125395238Y-110957142D01*
X125347619Y-111100000D01*
X125347619Y-111195238D01*
X125395238Y-111338095D01*
X125442857Y-111385714D01*
X125776190Y-111385714D01*
X125776190Y-111195238D01*
X125347619Y-111814285D02*
X126347619Y-111814285D01*
X125347619Y-112385714D01*
X126347619Y-112385714D01*
X125347619Y-112861904D02*
X126347619Y-112861904D01*
X126347619Y-113100000D01*
X126300000Y-113242857D01*
X126204761Y-113338095D01*
X126109523Y-113385714D01*
X125919047Y-113433333D01*
X125776190Y-113433333D01*
X125585714Y-113385714D01*
X125490476Y-113338095D01*
X125395238Y-113242857D01*
X125347619Y-113100000D01*
X125347619Y-112861904D01*
X113452380Y-84500000D02*
X113452380Y-84690476D01*
X113500000Y-84785714D01*
X113547619Y-84833333D01*
X113690476Y-84928571D01*
X113880952Y-84976190D01*
X114261904Y-84976190D01*
X114357142Y-84928571D01*
X114404761Y-84880952D01*
X114452380Y-84785714D01*
X114452380Y-84595238D01*
X114404761Y-84500000D01*
X114357142Y-84452380D01*
X114261904Y-84404761D01*
X114023809Y-84404761D01*
X113928571Y-84452380D01*
X113880952Y-84500000D01*
X113833333Y-84595238D01*
X113833333Y-84785714D01*
X113880952Y-84880952D01*
X113928571Y-84928571D01*
X114023809Y-84976190D01*
X114357142Y-83976190D02*
X114404761Y-83928571D01*
X114452380Y-83976190D01*
X114404761Y-84023809D01*
X114357142Y-83976190D01*
X114452380Y-83976190D01*
X113880952Y-83357142D02*
X113833333Y-83452380D01*
X113785714Y-83500000D01*
X113690476Y-83547619D01*
X113642857Y-83547619D01*
X113547619Y-83500000D01*
X113500000Y-83452380D01*
X113452380Y-83357142D01*
X113452380Y-83166666D01*
X113500000Y-83071428D01*
X113547619Y-83023809D01*
X113642857Y-82976190D01*
X113690476Y-82976190D01*
X113785714Y-83023809D01*
X113833333Y-83071428D01*
X113880952Y-83166666D01*
X113880952Y-83357142D01*
X113928571Y-83452380D01*
X113976190Y-83500000D01*
X114071428Y-83547619D01*
X114261904Y-83547619D01*
X114357142Y-83500000D01*
X114404761Y-83452380D01*
X114452380Y-83357142D01*
X114452380Y-83166666D01*
X114404761Y-83071428D01*
X114357142Y-83023809D01*
X114261904Y-82976190D01*
X114071428Y-82976190D01*
X113976190Y-83023809D01*
X113928571Y-83071428D01*
X113880952Y-83166666D01*
X113785714Y-82119047D02*
X114452380Y-82119047D01*
X113785714Y-82547619D02*
X114309523Y-82547619D01*
X114404761Y-82500000D01*
X114452380Y-82404761D01*
X114452380Y-82261904D01*
X114404761Y-82166666D01*
X114357142Y-82119047D01*
X114452380Y-81642857D02*
X113452380Y-81642857D01*
X113928571Y-81642857D02*
X113928571Y-81071428D01*
X114452380Y-81071428D02*
X113452380Y-81071428D01*
X119166666Y-131904761D02*
X119309523Y-131952380D01*
X119547619Y-131952380D01*
X119642857Y-131904761D01*
X119690476Y-131857142D01*
X119738095Y-131761904D01*
X119738095Y-131666666D01*
X119690476Y-131571428D01*
X119642857Y-131523809D01*
X119547619Y-131476190D01*
X119357142Y-131428571D01*
X119261904Y-131380952D01*
X119214285Y-131333333D01*
X119166666Y-131238095D01*
X119166666Y-131142857D01*
X119214285Y-131047619D01*
X119261904Y-131000000D01*
X119357142Y-130952380D01*
X119595238Y-130952380D01*
X119738095Y-131000000D01*
X120071428Y-130952380D02*
X120309523Y-131952380D01*
X120500000Y-131238095D01*
X120690476Y-131952380D01*
X120928571Y-130952380D01*
X121500000Y-130952380D02*
X121595238Y-130952380D01*
X121690476Y-131000000D01*
X121738095Y-131047619D01*
X121785714Y-131142857D01*
X121833333Y-131333333D01*
X121833333Y-131571428D01*
X121785714Y-131761904D01*
X121738095Y-131857142D01*
X121690476Y-131904761D01*
X121595238Y-131952380D01*
X121500000Y-131952380D01*
X121404761Y-131904761D01*
X121357142Y-131857142D01*
X121309523Y-131761904D01*
X121261904Y-131571428D01*
X121261904Y-131333333D01*
X121309523Y-131142857D01*
X121357142Y-131047619D01*
X121404761Y-131000000D01*
X121500000Y-130952380D01*
X115666666Y-131904761D02*
X115809523Y-131952380D01*
X116047619Y-131952380D01*
X116142857Y-131904761D01*
X116190476Y-131857142D01*
X116238095Y-131761904D01*
X116238095Y-131666666D01*
X116190476Y-131571428D01*
X116142857Y-131523809D01*
X116047619Y-131476190D01*
X115857142Y-131428571D01*
X115761904Y-131380952D01*
X115714285Y-131333333D01*
X115666666Y-131238095D01*
X115666666Y-131142857D01*
X115714285Y-131047619D01*
X115761904Y-131000000D01*
X115857142Y-130952380D01*
X116095238Y-130952380D01*
X116238095Y-131000000D01*
X116571428Y-130952380D02*
X116809523Y-131952380D01*
X117000000Y-131238095D01*
X117190476Y-131952380D01*
X117428571Y-130952380D01*
X118333333Y-131952380D02*
X117761904Y-131952380D01*
X118047619Y-131952380D02*
X118047619Y-130952380D01*
X117952380Y-131095238D01*
X117857142Y-131190476D01*
X117761904Y-131238095D01*
X123047619Y-113285714D02*
X123000000Y-113238095D01*
X122952380Y-113142857D01*
X122952380Y-112904761D01*
X123000000Y-112809523D01*
X123047619Y-112761904D01*
X123142857Y-112714285D01*
X123238095Y-112714285D01*
X123380952Y-112761904D01*
X123952380Y-113333333D01*
X123952380Y-112714285D01*
X113809523Y-113952380D02*
X113476190Y-113476190D01*
X113238095Y-113952380D02*
X113238095Y-112952380D01*
X113619047Y-112952380D01*
X113714285Y-113000000D01*
X113761904Y-113047619D01*
X113809523Y-113142857D01*
X113809523Y-113285714D01*
X113761904Y-113380952D01*
X113714285Y-113428571D01*
X113619047Y-113476190D01*
X113238095Y-113476190D01*
X125642857Y-81933333D02*
X125595238Y-81885714D01*
X125547619Y-81742857D01*
X125547619Y-81647619D01*
X125595238Y-81504761D01*
X125690476Y-81409523D01*
X125785714Y-81361904D01*
X125976190Y-81314285D01*
X126119047Y-81314285D01*
X126309523Y-81361904D01*
X126404761Y-81409523D01*
X126500000Y-81504761D01*
X126547619Y-81647619D01*
X126547619Y-81742857D01*
X126500000Y-81885714D01*
X126452380Y-81933333D01*
X125595238Y-82314285D02*
X125547619Y-82457142D01*
X125547619Y-82695238D01*
X125595238Y-82790476D01*
X125642857Y-82838095D01*
X125738095Y-82885714D01*
X125833333Y-82885714D01*
X125928571Y-82838095D01*
X125976190Y-82790476D01*
X126023809Y-82695238D01*
X126071428Y-82504761D01*
X126119047Y-82409523D01*
X126166666Y-82361904D01*
X126261904Y-82314285D01*
X126357142Y-82314285D01*
X126452380Y-82361904D01*
X126500000Y-82409523D01*
X126547619Y-82504761D01*
X126547619Y-82742857D01*
X126500000Y-82885714D01*
X113071428Y-119952380D02*
X113309523Y-120952380D01*
X113500000Y-120238095D01*
X113690476Y-120952380D01*
X113928571Y-119952380D01*
D12*
X99394163Y-51929187D02*
X96565736Y-50514973D01*
X97979950Y-53343400D01*
X95656599Y-54252538D02*
X94242385Y-52838324D01*
X96969797Y-54555583D02*
X95959644Y-52535278D01*
X94646446Y-53848477D01*
X93333248Y-54151522D02*
X93131217Y-54151522D01*
X93131217Y-53949492D01*
X93333248Y-53949492D01*
X93333248Y-54151522D01*
X93131217Y-53949492D01*
X94444416Y-56878934D02*
X93131217Y-58192133D01*
X93030202Y-56676904D01*
X92727156Y-56979950D01*
X92424111Y-57080965D01*
X92222080Y-57080965D01*
X91919034Y-56979950D01*
X91413958Y-56474873D01*
X91312943Y-56171827D01*
X91312943Y-55969797D01*
X91413958Y-55666751D01*
X92020049Y-55060660D01*
X92323095Y-54959644D01*
X92525126Y-54959644D01*
D10*
X120285714Y-112928571D02*
X120619047Y-112928571D01*
X120761904Y-113452380D02*
X120285714Y-113452380D01*
X120285714Y-112452380D01*
X120761904Y-112452380D01*
X121761904Y-113452380D02*
X121428571Y-112976190D01*
X121190476Y-113452380D02*
X121190476Y-112452380D01*
X121571428Y-112452380D01*
X121666666Y-112500000D01*
X121714285Y-112547619D01*
X121761904Y-112642857D01*
X121761904Y-112785714D01*
X121714285Y-112880952D01*
X121666666Y-112928571D01*
X121571428Y-112976190D01*
X121190476Y-112976190D01*
X122761904Y-113452380D02*
X122428571Y-112976190D01*
X122190476Y-113452380D02*
X122190476Y-112452380D01*
X122571428Y-112452380D01*
X122666666Y-112500000D01*
X122714285Y-112547619D01*
X122761904Y-112642857D01*
X122761904Y-112785714D01*
X122714285Y-112880952D01*
X122666666Y-112928571D01*
X122571428Y-112976190D01*
X122190476Y-112976190D01*
D11*
X108878679Y-47329779D02*
X107733840Y-48474618D01*
X107666496Y-48676649D01*
X107666496Y-48811336D01*
X107733840Y-49013366D01*
X108003214Y-49282740D01*
X108205244Y-49350084D01*
X108339931Y-49350084D01*
X108541962Y-49282740D01*
X109686801Y-48137901D01*
X111235702Y-49686801D02*
X110292893Y-51572419D01*
X112178511Y-50629610D01*
X113592724Y-52043824D02*
X112515228Y-53794755D01*
X113794755Y-53053976D01*
X113053976Y-54333503D01*
X114804907Y-53256007D01*
D12*
X92929187Y-141105836D02*
X91514973Y-143934263D01*
X94343400Y-142520049D01*
X95252538Y-144843400D02*
X93838324Y-146257614D01*
X95555583Y-143530202D02*
X93535278Y-144540355D01*
X94848477Y-145853553D01*
X95151522Y-147166751D02*
X95151522Y-147368782D01*
X94949492Y-147368782D01*
X94949492Y-147166751D01*
X95151522Y-147166751D01*
X94949492Y-147368782D01*
X97878934Y-146055583D02*
X99192133Y-147368782D01*
X97676904Y-147469797D01*
X97979950Y-147772843D01*
X98080965Y-148075888D01*
X98080965Y-148277919D01*
X97979950Y-148580965D01*
X97474873Y-149086041D01*
X97171827Y-149187056D01*
X96969797Y-149187056D01*
X96666751Y-149086041D01*
X96060660Y-148479950D01*
X95959644Y-148176904D01*
X95959644Y-147974873D01*
D10*
X110000000Y-117285714D02*
X109952380Y-117380952D01*
X109952380Y-117523809D01*
X110000000Y-117666666D01*
X110095238Y-117761904D01*
X110190476Y-117809523D01*
X110380952Y-117857142D01*
X110523809Y-117857142D01*
X110714285Y-117809523D01*
X110809523Y-117761904D01*
X110904761Y-117666666D01*
X110952380Y-117523809D01*
X110952380Y-117428571D01*
X110904761Y-117285714D01*
X110857142Y-117238095D01*
X110523809Y-117238095D01*
X110523809Y-117428571D01*
X109952380Y-115571428D02*
X109952380Y-116047619D01*
X110428571Y-116095238D01*
X110380952Y-116047619D01*
X110333333Y-115952380D01*
X110333333Y-115714285D01*
X110380952Y-115619047D01*
X110428571Y-115571428D01*
X110523809Y-115523809D01*
X110761904Y-115523809D01*
X110857142Y-115571428D01*
X110904761Y-115619047D01*
X110952380Y-115714285D01*
X110952380Y-115952380D01*
X110904761Y-116047619D01*
X110857142Y-116095238D01*
X110952380Y-114333333D02*
X109952380Y-114333333D01*
X110428571Y-114333333D02*
X110428571Y-113761904D01*
X110952380Y-113761904D02*
X109952380Y-113761904D01*
X110952380Y-112047619D02*
X110952380Y-112523809D01*
X109952380Y-112523809D01*
X105142857Y-84357142D02*
X105095238Y-84309523D01*
X105047619Y-84166666D01*
X105047619Y-84071428D01*
X105095238Y-83928571D01*
X105190476Y-83833333D01*
X105285714Y-83785714D01*
X105476190Y-83738095D01*
X105619047Y-83738095D01*
X105809523Y-83785714D01*
X105904761Y-83833333D01*
X106000000Y-83928571D01*
X106047619Y-84071428D01*
X106047619Y-84166666D01*
X106000000Y-84309523D01*
X105952380Y-84357142D01*
X105333333Y-84738095D02*
X105333333Y-85214285D01*
X105047619Y-84642857D02*
X106047619Y-84976190D01*
X105047619Y-85309523D01*
X105047619Y-85642857D02*
X106047619Y-85642857D01*
X105047619Y-86214285D01*
X106047619Y-86214285D01*
X105952380Y-74047619D02*
X105476190Y-74380952D01*
X105952380Y-74619047D02*
X104952380Y-74619047D01*
X104952380Y-74238095D01*
X105000000Y-74142857D01*
X105047619Y-74095238D01*
X105142857Y-74047619D01*
X105285714Y-74047619D01*
X105380952Y-74095238D01*
X105428571Y-74142857D01*
X105476190Y-74238095D01*
X105476190Y-74619047D01*
X105904761Y-73666666D02*
X105952380Y-73523809D01*
X105952380Y-73285714D01*
X105904761Y-73190476D01*
X105857142Y-73142857D01*
X105761904Y-73095238D01*
X105666666Y-73095238D01*
X105571428Y-73142857D01*
X105523809Y-73190476D01*
X105476190Y-73285714D01*
X105428571Y-73476190D01*
X105380952Y-73571428D01*
X105333333Y-73619047D01*
X105238095Y-73666666D01*
X105142857Y-73666666D01*
X105047619Y-73619047D01*
X105000000Y-73571428D01*
X104952380Y-73476190D01*
X104952380Y-73238095D01*
X105000000Y-73095238D01*
X104952380Y-72809523D02*
X104952380Y-72238095D01*
X105952380Y-72523809D02*
X104952380Y-72523809D01*
X113571428Y-117928571D02*
X113714285Y-117976190D01*
X113761904Y-118023809D01*
X113809523Y-118119047D01*
X113809523Y-118261904D01*
X113761904Y-118357142D01*
X113714285Y-118404761D01*
X113619047Y-118452380D01*
X113238095Y-118452380D01*
X113238095Y-117452380D01*
X113571428Y-117452380D01*
X113666666Y-117500000D01*
X113714285Y-117547619D01*
X113761904Y-117642857D01*
X113761904Y-117738095D01*
X113714285Y-117833333D01*
X113666666Y-117880952D01*
X113571428Y-117928571D01*
X113238095Y-117928571D01*
X105142857Y-114357142D02*
X105095238Y-114309523D01*
X105047619Y-114166666D01*
X105047619Y-114071428D01*
X105095238Y-113928571D01*
X105190476Y-113833333D01*
X105285714Y-113785714D01*
X105476190Y-113738095D01*
X105619047Y-113738095D01*
X105809523Y-113785714D01*
X105904761Y-113833333D01*
X106000000Y-113928571D01*
X106047619Y-114071428D01*
X106047619Y-114166666D01*
X106000000Y-114309523D01*
X105952380Y-114357142D01*
X105333333Y-114738095D02*
X105333333Y-115214285D01*
X105047619Y-114642857D02*
X106047619Y-114976190D01*
X105047619Y-115309523D01*
X105047619Y-115642857D02*
X106047619Y-115642857D01*
X105047619Y-116214285D01*
X106047619Y-116214285D01*
X113761904Y-115000000D02*
X113666666Y-114952380D01*
X113523809Y-114952380D01*
X113380952Y-115000000D01*
X113285714Y-115095238D01*
X113238095Y-115190476D01*
X113190476Y-115380952D01*
X113190476Y-115523809D01*
X113238095Y-115714285D01*
X113285714Y-115809523D01*
X113380952Y-115904761D01*
X113523809Y-115952380D01*
X113619047Y-115952380D01*
X113761904Y-115904761D01*
X113809523Y-115857142D01*
X113809523Y-115523809D01*
X113619047Y-115523809D01*
X110380952Y-68952380D02*
X110571428Y-68952380D01*
X110666666Y-68904761D01*
X110714285Y-68857142D01*
X110809523Y-68714285D01*
X110857142Y-68523809D01*
X110857142Y-68142857D01*
X110809523Y-68047619D01*
X110761904Y-68000000D01*
X110666666Y-67952380D01*
X110476190Y-67952380D01*
X110380952Y-68000000D01*
X110333333Y-68047619D01*
X110285714Y-68142857D01*
X110285714Y-68380952D01*
X110333333Y-68476190D01*
X110380952Y-68523809D01*
X110476190Y-68571428D01*
X110666666Y-68571428D01*
X110761904Y-68523809D01*
X110809523Y-68476190D01*
X110857142Y-68380952D01*
X111142857Y-67952380D02*
X111476190Y-68952380D01*
X111809523Y-67952380D01*
X108666666Y-131904761D02*
X108809523Y-131952380D01*
X109047619Y-131952380D01*
X109142857Y-131904761D01*
X109190476Y-131857142D01*
X109238095Y-131761904D01*
X109238095Y-131666666D01*
X109190476Y-131571428D01*
X109142857Y-131523809D01*
X109047619Y-131476190D01*
X108857142Y-131428571D01*
X108761904Y-131380952D01*
X108714285Y-131333333D01*
X108666666Y-131238095D01*
X108666666Y-131142857D01*
X108714285Y-131047619D01*
X108761904Y-131000000D01*
X108857142Y-130952380D01*
X109095238Y-130952380D01*
X109238095Y-131000000D01*
X109571428Y-130952380D02*
X109809523Y-131952380D01*
X110000000Y-131238095D01*
X110190476Y-131952380D01*
X110428571Y-130952380D01*
X110714285Y-130952380D02*
X111333333Y-130952380D01*
X111000000Y-131333333D01*
X111142857Y-131333333D01*
X111238095Y-131380952D01*
X111285714Y-131428571D01*
X111333333Y-131523809D01*
X111333333Y-131761904D01*
X111285714Y-131857142D01*
X111238095Y-131904761D01*
X111142857Y-131952380D01*
X110857142Y-131952380D01*
X110761904Y-131904761D01*
X110714285Y-131857142D01*
X100390476Y-131561904D02*
X100390476Y-132209523D01*
X100428571Y-132285714D01*
X100466666Y-132323809D01*
X100542857Y-132361904D01*
X100695238Y-132361904D01*
X100771428Y-132323809D01*
X100809523Y-132285714D01*
X100847619Y-132209523D01*
X100847619Y-131561904D01*
X101609523Y-132361904D02*
X101228571Y-132361904D01*
X101228571Y-131561904D01*
X102371428Y-131561904D02*
X102638095Y-132361904D01*
X102904761Y-131561904D01*
X103552380Y-132361904D02*
X103171428Y-132361904D01*
X103171428Y-131561904D01*
X104352380Y-131561904D02*
X104542857Y-132361904D01*
X104695238Y-131790476D01*
X104847619Y-132361904D01*
X105038095Y-131561904D01*
X105723809Y-132361904D02*
X105342857Y-132361904D01*
X105342857Y-131561904D01*
D11*
X114670220Y-147378679D02*
X113525381Y-146233840D01*
X113323350Y-146166496D01*
X113188663Y-146166496D01*
X112986633Y-146233840D01*
X112717259Y-146503214D01*
X112649915Y-146705244D01*
X112649915Y-146839931D01*
X112717259Y-147041962D01*
X113862098Y-148186801D01*
X112313198Y-149735702D02*
X110427580Y-148792893D01*
X111370389Y-150678511D01*
X109956175Y-152092724D02*
X108205244Y-151015228D01*
X108946023Y-152294755D01*
X107666496Y-151553976D01*
X108743992Y-153304907D01*
D10*
X136071428Y-98880952D02*
X136023809Y-99023809D01*
X135976190Y-99071428D01*
X135880952Y-99119047D01*
X135738095Y-99119047D01*
X135642857Y-99071428D01*
X135595238Y-99023809D01*
X135547619Y-98928571D01*
X135547619Y-98547619D01*
X136547619Y-98547619D01*
X136547619Y-98880952D01*
X136500000Y-98976190D01*
X136452380Y-99023809D01*
X136357142Y-99071428D01*
X136261904Y-99071428D01*
X136166666Y-99023809D01*
X136119047Y-98976190D01*
X136071428Y-98880952D01*
X136071428Y-98547619D01*
X135833333Y-99500000D02*
X135833333Y-99976190D01*
X135547619Y-99404761D02*
X136547619Y-99738095D01*
X135547619Y-100071428D01*
X136547619Y-100261904D02*
X136547619Y-100833333D01*
X135547619Y-100547619D02*
X136547619Y-100547619D01*
X136547619Y-101023809D02*
X136547619Y-101595238D01*
X135547619Y-101309523D02*
X136547619Y-101309523D01*
X112166666Y-131904761D02*
X112309523Y-131952380D01*
X112547619Y-131952380D01*
X112642857Y-131904761D01*
X112690476Y-131857142D01*
X112738095Y-131761904D01*
X112738095Y-131666666D01*
X112690476Y-131571428D01*
X112642857Y-131523809D01*
X112547619Y-131476190D01*
X112357142Y-131428571D01*
X112261904Y-131380952D01*
X112214285Y-131333333D01*
X112166666Y-131238095D01*
X112166666Y-131142857D01*
X112214285Y-131047619D01*
X112261904Y-131000000D01*
X112357142Y-130952380D01*
X112595238Y-130952380D01*
X112738095Y-131000000D01*
X113071428Y-130952380D02*
X113309523Y-131952380D01*
X113500000Y-131238095D01*
X113690476Y-131952380D01*
X113928571Y-130952380D01*
X114261904Y-131047619D02*
X114309523Y-131000000D01*
X114404761Y-130952380D01*
X114642857Y-130952380D01*
X114738095Y-131000000D01*
X114785714Y-131047619D01*
X114833333Y-131142857D01*
X114833333Y-131238095D01*
X114785714Y-131380952D01*
X114214285Y-131952380D01*
X114833333Y-131952380D01*
X105109523Y-68438095D02*
X105109523Y-67790476D01*
X105071428Y-67714285D01*
X105033333Y-67676190D01*
X104957142Y-67638095D01*
X104804761Y-67638095D01*
X104728571Y-67676190D01*
X104690476Y-67714285D01*
X104652380Y-67790476D01*
X104652380Y-68438095D01*
X103890476Y-67638095D02*
X104271428Y-67638095D01*
X104271428Y-68438095D01*
X103128571Y-68438095D02*
X102861904Y-67638095D01*
X102595238Y-68438095D01*
X101947619Y-67638095D02*
X102328571Y-67638095D01*
X102328571Y-68438095D01*
X101147619Y-68438095D02*
X100957142Y-67638095D01*
X100804761Y-68209523D01*
X100652380Y-67638095D01*
X100461904Y-68438095D01*
X99776190Y-67638095D02*
X100157142Y-67638095D01*
X100157142Y-68438095D01*
X120152380Y-118047619D02*
X120152380Y-117952380D01*
X120200000Y-117857142D01*
X120247619Y-117809523D01*
X120342857Y-117761904D01*
X120533333Y-117714285D01*
X120771428Y-117714285D01*
X120961904Y-117761904D01*
X121057142Y-117809523D01*
X121104761Y-117857142D01*
X121152380Y-117952380D01*
X121152380Y-118047619D01*
X121104761Y-118142857D01*
X121057142Y-118190476D01*
X120961904Y-118238095D01*
X120771428Y-118285714D01*
X120533333Y-118285714D01*
X120342857Y-118238095D01*
X120247619Y-118190476D01*
X120200000Y-118142857D01*
X120152380Y-118047619D01*
D11*
X96715397Y-69994923D02*
X98129610Y-68580710D01*
X97590862Y-70062267D01*
X99072419Y-69523519D01*
X97658206Y-70937732D01*
X100015228Y-70466328D02*
X100149915Y-70601015D01*
X100217259Y-70803045D01*
X100217259Y-70937732D01*
X100149915Y-71139763D01*
X99947885Y-71476480D01*
X99611167Y-71813198D01*
X99274450Y-72015228D01*
X99072419Y-72082572D01*
X98937732Y-72082572D01*
X98735702Y-72015228D01*
X98601015Y-71880541D01*
X98533671Y-71678511D01*
X98533671Y-71543824D01*
X98601015Y-71341793D01*
X98803045Y-71005076D01*
X99139763Y-70668358D01*
X99476480Y-70466328D01*
X99678511Y-70398984D01*
X99813198Y-70398984D01*
X100015228Y-70466328D01*
D10*
X126400000Y-84838095D02*
X126447619Y-84742857D01*
X126447619Y-84600000D01*
X126400000Y-84457142D01*
X126304761Y-84361904D01*
X126209523Y-84314285D01*
X126019047Y-84266666D01*
X125876190Y-84266666D01*
X125685714Y-84314285D01*
X125590476Y-84361904D01*
X125495238Y-84457142D01*
X125447619Y-84600000D01*
X125447619Y-84695238D01*
X125495238Y-84838095D01*
X125542857Y-84885714D01*
X125876190Y-84885714D01*
X125876190Y-84695238D01*
X125447619Y-85314285D02*
X126447619Y-85314285D01*
X125447619Y-85885714D01*
X126447619Y-85885714D01*
X125447619Y-86361904D02*
X126447619Y-86361904D01*
X126447619Y-86600000D01*
X126400000Y-86742857D01*
X126304761Y-86838095D01*
X126209523Y-86885714D01*
X126019047Y-86933333D01*
X125876190Y-86933333D01*
X125685714Y-86885714D01*
X125590476Y-86838095D01*
X125495238Y-86742857D01*
X125447619Y-86600000D01*
X125447619Y-86361904D01*
D13*
X99617698Y-76129508D02*
X100183383Y-75563823D01*
X99897173Y-76085735D01*
X100419085Y-75799525D01*
X99853400Y-76365210D01*
X100654788Y-76035227D02*
X100722131Y-76102571D01*
X100728865Y-76163180D01*
X100708662Y-76250727D01*
X100617749Y-76375312D01*
X100429187Y-76563874D01*
X100304601Y-76654788D01*
X100217055Y-76674991D01*
X100156446Y-76668256D01*
X100089102Y-76600913D01*
X100082368Y-76540304D01*
X100102571Y-76452757D01*
X100193485Y-76328172D01*
X100382046Y-76139610D01*
X100506632Y-76048696D01*
X100594178Y-76028493D01*
X100654788Y-76035227D01*
X100661522Y-77173332D02*
X101227207Y-76607647D01*
X100940997Y-77129559D01*
X101462910Y-76843349D01*
X100897224Y-77409035D01*
X101065583Y-77577394D02*
X101631268Y-77011708D01*
X101759221Y-78163282D02*
X101715448Y-78173384D01*
X101638003Y-78149813D01*
X101604331Y-78116142D01*
X101580761Y-78038697D01*
X101600964Y-77951150D01*
X101638003Y-77880439D01*
X101728916Y-77755854D01*
X101809729Y-77675042D01*
X101934314Y-77584128D01*
X102005025Y-77547089D01*
X102092571Y-77526886D01*
X102170016Y-77550456D01*
X102203688Y-77584128D01*
X102227258Y-77661573D01*
X102217157Y-77705346D01*
X101856869Y-78368680D02*
X102422554Y-77802994D01*
X102058900Y-78570710D02*
X102230625Y-78095938D01*
X102624585Y-78005025D02*
X102099306Y-78126243D01*
X102489898Y-78947834D02*
X102513468Y-79025279D01*
X102597648Y-79109458D01*
X102658257Y-79116193D01*
X102702030Y-79106091D01*
X102772741Y-79069052D01*
X102826615Y-79015177D01*
X102863654Y-78944467D01*
X102873756Y-78900693D01*
X102867022Y-78840084D01*
X102826615Y-78745803D01*
X102819881Y-78685194D01*
X102829983Y-78641421D01*
X102867022Y-78570710D01*
X102920896Y-78516835D01*
X102991607Y-78479796D01*
X103035380Y-78469695D01*
X103095990Y-78476429D01*
X103180169Y-78560609D01*
X103203739Y-78638054D01*
X102826615Y-79284551D02*
X102850186Y-79361996D01*
X102934365Y-79446176D01*
X102994974Y-79452910D01*
X103038748Y-79442809D01*
X103109458Y-79405770D01*
X103163333Y-79351895D01*
X103200372Y-79281184D01*
X103210473Y-79237411D01*
X103203739Y-79176802D01*
X103163333Y-79082521D01*
X103156599Y-79021912D01*
X103166700Y-78978138D01*
X103203739Y-78907428D01*
X103257614Y-78853553D01*
X103328325Y-78816514D01*
X103372098Y-78806412D01*
X103432707Y-78813147D01*
X103516886Y-78897326D01*
X103540457Y-78974771D01*
X103954619Y-79335059D02*
X104173486Y-79553925D01*
X103840135Y-79651573D01*
X103890643Y-79702081D01*
X103897377Y-79762690D01*
X103887276Y-79806463D01*
X103850237Y-79877174D01*
X103715550Y-80011861D01*
X103644839Y-80048900D01*
X103601066Y-80059002D01*
X103540457Y-80052267D01*
X103439441Y-79951252D01*
X103432707Y-79890643D01*
X103442809Y-79846870D01*
X104274501Y-79654941D02*
X103826667Y-80338477D01*
X104510203Y-79890643D01*
X105055685Y-80490000D02*
X105048951Y-80429391D01*
X104998443Y-80378883D01*
X104920998Y-80355313D01*
X104833452Y-80375516D01*
X104762741Y-80412555D01*
X104638156Y-80503469D01*
X104557344Y-80584281D01*
X104466430Y-80708866D01*
X104429391Y-80779577D01*
X104409188Y-80867124D01*
X104432758Y-80944569D01*
X104466430Y-80978240D01*
X104543875Y-81001811D01*
X104587648Y-80991709D01*
X104776210Y-80803147D01*
X104708866Y-80735804D01*
X104685296Y-81197107D02*
X105250982Y-80631421D01*
X105335161Y-80715601D01*
X105358731Y-80793046D01*
X105338528Y-80880592D01*
X105301489Y-80951303D01*
X105210575Y-81075888D01*
X105129763Y-81156701D01*
X105005178Y-81247614D01*
X104934467Y-81284653D01*
X104846921Y-81304856D01*
X104769476Y-81281286D01*
X104685296Y-81197107D01*
D10*
X121152380Y-115214285D02*
X121152380Y-115785714D01*
X121152380Y-115500000D02*
X120152380Y-115500000D01*
X120295238Y-115595238D01*
X120390476Y-115690476D01*
X120438095Y-115785714D01*
D13*
X106941380Y-123117698D02*
X107507065Y-123683383D01*
X106985153Y-123397173D01*
X107271363Y-123919085D01*
X106705678Y-123353400D01*
X107035661Y-124154788D02*
X106968317Y-124222131D01*
X106907708Y-124228865D01*
X106820161Y-124208662D01*
X106695576Y-124117749D01*
X106507014Y-123929187D01*
X106416100Y-123804601D01*
X106395897Y-123717055D01*
X106402632Y-123656446D01*
X106469975Y-123589102D01*
X106530584Y-123582368D01*
X106618131Y-123602571D01*
X106742716Y-123693485D01*
X106931278Y-123882046D01*
X107022192Y-124006632D01*
X107042395Y-124094178D01*
X107035661Y-124154788D01*
X105897556Y-124161522D02*
X106463241Y-124727207D01*
X105941329Y-124440997D01*
X106227539Y-124962910D01*
X105661853Y-124397224D01*
X105493494Y-124565583D02*
X106059180Y-125131268D01*
X104907606Y-125259221D02*
X104897504Y-125215448D01*
X104921075Y-125138003D01*
X104954746Y-125104331D01*
X105032191Y-125080761D01*
X105119738Y-125100964D01*
X105190449Y-125138003D01*
X105315034Y-125228916D01*
X105395846Y-125309729D01*
X105486760Y-125434314D01*
X105523799Y-125505025D01*
X105544002Y-125592571D01*
X105520432Y-125670016D01*
X105486760Y-125703688D01*
X105409315Y-125727258D01*
X105365542Y-125717157D01*
X104702208Y-125356869D02*
X105267894Y-125922554D01*
X104500178Y-125558900D02*
X104974950Y-125730625D01*
X105065863Y-126124585D02*
X104944645Y-125599306D01*
X104123054Y-125989898D02*
X104045609Y-126013468D01*
X103961430Y-126097648D01*
X103954695Y-126158257D01*
X103964797Y-126202030D01*
X104001836Y-126272741D01*
X104055711Y-126326615D01*
X104126421Y-126363654D01*
X104170195Y-126373756D01*
X104230804Y-126367022D01*
X104325085Y-126326615D01*
X104385694Y-126319881D01*
X104429467Y-126329983D01*
X104500178Y-126367022D01*
X104554053Y-126420896D01*
X104591092Y-126491607D01*
X104601193Y-126535380D01*
X104594459Y-126595990D01*
X104510279Y-126680169D01*
X104432834Y-126703739D01*
X103786337Y-126326615D02*
X103708892Y-126350186D01*
X103624712Y-126434365D01*
X103617978Y-126494974D01*
X103628079Y-126538748D01*
X103665118Y-126609458D01*
X103718993Y-126663333D01*
X103789704Y-126700372D01*
X103833477Y-126710473D01*
X103894086Y-126703739D01*
X103988367Y-126663333D01*
X104048976Y-126656599D01*
X104092750Y-126666700D01*
X104163460Y-126703739D01*
X104217335Y-126757614D01*
X104254374Y-126828325D01*
X104264476Y-126872098D01*
X104257741Y-126932707D01*
X104173562Y-127016886D01*
X104096117Y-127040457D01*
X103735829Y-127454619D02*
X103516963Y-127673486D01*
X103419315Y-127340135D01*
X103368807Y-127390643D01*
X103308198Y-127397377D01*
X103264425Y-127387276D01*
X103193714Y-127350237D01*
X103059027Y-127215550D01*
X103021988Y-127144839D01*
X103011886Y-127101066D01*
X103018621Y-127040457D01*
X103119636Y-126939441D01*
X103180245Y-126932707D01*
X103224018Y-126942809D01*
X103415947Y-127774501D02*
X102732411Y-127326667D01*
X103180245Y-128010203D01*
X102580888Y-128555685D02*
X102641497Y-128548951D01*
X102692005Y-128498443D01*
X102715575Y-128420998D01*
X102695372Y-128333452D01*
X102658333Y-128262741D01*
X102567419Y-128138156D01*
X102486607Y-128057344D01*
X102362022Y-127966430D01*
X102291311Y-127929391D01*
X102203764Y-127909188D01*
X102126319Y-127932758D01*
X102092648Y-127966430D01*
X102069077Y-128043875D01*
X102079179Y-128087648D01*
X102267741Y-128276210D01*
X102335084Y-128208866D01*
X101873781Y-128185296D02*
X102439467Y-128750982D01*
X102355287Y-128835161D01*
X102277842Y-128858731D01*
X102190296Y-128838528D01*
X102119585Y-128801489D01*
X101995000Y-128710575D01*
X101914187Y-128629763D01*
X101823274Y-128505178D01*
X101786235Y-128434467D01*
X101766032Y-128346921D01*
X101789602Y-128269476D01*
X101873781Y-128185296D01*
D10*
X114261904Y-68428571D02*
X114404761Y-68476190D01*
X114452380Y-68523809D01*
X114500000Y-68619047D01*
X114500000Y-68761904D01*
X114452380Y-68857142D01*
X114404761Y-68904761D01*
X114309523Y-68952380D01*
X113928571Y-68952380D01*
X113928571Y-67952380D01*
X114261904Y-67952380D01*
X114357142Y-68000000D01*
X114404761Y-68047619D01*
X114452380Y-68142857D01*
X114452380Y-68238095D01*
X114404761Y-68333333D01*
X114357142Y-68380952D01*
X114261904Y-68428571D01*
X113928571Y-68428571D01*
X114880952Y-68666666D02*
X115357142Y-68666666D01*
X114785714Y-68952380D02*
X115119047Y-67952380D01*
X115452380Y-68952380D01*
X115642857Y-67952380D02*
X116214285Y-67952380D01*
X115928571Y-68952380D02*
X115928571Y-67952380D01*
%TO.C,J2*%
X107666666Y-88952380D02*
X107666666Y-89666666D01*
X107619047Y-89809523D01*
X107523809Y-89904761D01*
X107380952Y-89952380D01*
X107285714Y-89952380D01*
X108095238Y-89047619D02*
X108142857Y-89000000D01*
X108238095Y-88952380D01*
X108476190Y-88952380D01*
X108571428Y-89000000D01*
X108619047Y-89047619D01*
X108666666Y-89142857D01*
X108666666Y-89238095D01*
X108619047Y-89380952D01*
X108047619Y-89952380D01*
X108666666Y-89952380D01*
%TO.C,J10*%
X102452380Y-135309523D02*
X103166666Y-135309523D01*
X103309523Y-135357142D01*
X103404761Y-135452380D01*
X103452380Y-135595238D01*
X103452380Y-135690476D01*
X103452380Y-134309523D02*
X103452380Y-134880952D01*
X103452380Y-134595238D02*
X102452380Y-134595238D01*
X102595238Y-134690476D01*
X102690476Y-134785714D01*
X102738095Y-134880952D01*
X102452380Y-133690476D02*
X102452380Y-133595238D01*
X102500000Y-133500000D01*
X102547619Y-133452380D01*
X102642857Y-133404761D01*
X102833333Y-133357142D01*
X103071428Y-133357142D01*
X103261904Y-133404761D01*
X103357142Y-133452380D01*
X103404761Y-133500000D01*
X103452380Y-133595238D01*
X103452380Y-133690476D01*
X103404761Y-133785714D01*
X103357142Y-133833333D01*
X103261904Y-133880952D01*
X103071428Y-133928571D01*
X102833333Y-133928571D01*
X102642857Y-133880952D01*
X102547619Y-133833333D01*
X102500000Y-133785714D01*
X102452380Y-133690476D01*
%TO.C,J8*%
X100166666Y-65452380D02*
X100166666Y-66166666D01*
X100119047Y-66309523D01*
X100023809Y-66404761D01*
X99880952Y-66452380D01*
X99785714Y-66452380D01*
X100785714Y-65880952D02*
X100690476Y-65833333D01*
X100642857Y-65785714D01*
X100595238Y-65690476D01*
X100595238Y-65642857D01*
X100642857Y-65547619D01*
X100690476Y-65500000D01*
X100785714Y-65452380D01*
X100976190Y-65452380D01*
X101071428Y-65500000D01*
X101119047Y-65547619D01*
X101166666Y-65642857D01*
X101166666Y-65690476D01*
X101119047Y-65785714D01*
X101071428Y-65833333D01*
X100976190Y-65880952D01*
X100785714Y-65880952D01*
X100690476Y-65928571D01*
X100642857Y-65976190D01*
X100595238Y-66071428D01*
X100595238Y-66261904D01*
X100642857Y-66357142D01*
X100690476Y-66404761D01*
X100785714Y-66452380D01*
X100976190Y-66452380D01*
X101071428Y-66404761D01*
X101119047Y-66357142D01*
X101166666Y-66261904D01*
X101166666Y-66071428D01*
X101119047Y-65976190D01*
X101071428Y-65928571D01*
X100976190Y-65880952D01*
%TO.C,U2*%
X116152380Y-75461904D02*
X116961904Y-75461904D01*
X117057142Y-75414285D01*
X117104761Y-75366666D01*
X117152380Y-75271428D01*
X117152380Y-75080952D01*
X117104761Y-74985714D01*
X117057142Y-74938095D01*
X116961904Y-74890476D01*
X116152380Y-74890476D01*
X116247619Y-74461904D02*
X116200000Y-74414285D01*
X116152380Y-74319047D01*
X116152380Y-74080952D01*
X116200000Y-73985714D01*
X116247619Y-73938095D01*
X116342857Y-73890476D01*
X116438095Y-73890476D01*
X116580952Y-73938095D01*
X117152380Y-74509523D01*
X117152380Y-73890476D01*
%TO.C,D2*%
X117816904Y-114452380D02*
X117816904Y-113452380D01*
X118055000Y-113452380D01*
X118197857Y-113500000D01*
X118293095Y-113595238D01*
X118340714Y-113690476D01*
X118388333Y-113880952D01*
X118388333Y-114023809D01*
X118340714Y-114214285D01*
X118293095Y-114309523D01*
X118197857Y-114404761D01*
X118055000Y-114452380D01*
X117816904Y-114452380D01*
X118769285Y-113547619D02*
X118816904Y-113500000D01*
X118912142Y-113452380D01*
X119150238Y-113452380D01*
X119245476Y-113500000D01*
X119293095Y-113547619D01*
X119340714Y-113642857D01*
X119340714Y-113738095D01*
X119293095Y-113880952D01*
X118721666Y-114452380D01*
X119340714Y-114452380D01*
%TO.C,J16*%
X123290476Y-121452380D02*
X123290476Y-122166666D01*
X123242857Y-122309523D01*
X123147619Y-122404761D01*
X123004761Y-122452380D01*
X122909523Y-122452380D01*
X124290476Y-122452380D02*
X123719047Y-122452380D01*
X124004761Y-122452380D02*
X124004761Y-121452380D01*
X123909523Y-121595238D01*
X123814285Y-121690476D01*
X123719047Y-121738095D01*
X125147619Y-121452380D02*
X124957142Y-121452380D01*
X124861904Y-121500000D01*
X124814285Y-121547619D01*
X124719047Y-121690476D01*
X124671428Y-121880952D01*
X124671428Y-122261904D01*
X124719047Y-122357142D01*
X124766666Y-122404761D01*
X124861904Y-122452380D01*
X125052380Y-122452380D01*
X125147619Y-122404761D01*
X125195238Y-122357142D01*
X125242857Y-122261904D01*
X125242857Y-122023809D01*
X125195238Y-121928571D01*
X125147619Y-121880952D01*
X125052380Y-121833333D01*
X124861904Y-121833333D01*
X124766666Y-121880952D01*
X124719047Y-121928571D01*
X124671428Y-122023809D01*
%TO.C,SW4*%
X111404761Y-129333333D02*
X111452380Y-129190476D01*
X111452380Y-128952380D01*
X111404761Y-128857142D01*
X111357142Y-128809523D01*
X111261904Y-128761904D01*
X111166666Y-128761904D01*
X111071428Y-128809523D01*
X111023809Y-128857142D01*
X110976190Y-128952380D01*
X110928571Y-129142857D01*
X110880952Y-129238095D01*
X110833333Y-129285714D01*
X110738095Y-129333333D01*
X110642857Y-129333333D01*
X110547619Y-129285714D01*
X110500000Y-129238095D01*
X110452380Y-129142857D01*
X110452380Y-128904761D01*
X110500000Y-128761904D01*
X110452380Y-128428571D02*
X111452380Y-128190476D01*
X110738095Y-128000000D01*
X111452380Y-127809523D01*
X110452380Y-127571428D01*
X110785714Y-126761904D02*
X111452380Y-126761904D01*
X110404761Y-127000000D02*
X111119047Y-127238095D01*
X111119047Y-126619047D01*
%TO.C,C37*%
X120357142Y-70857142D02*
X120309523Y-70904761D01*
X120166666Y-70952380D01*
X120071428Y-70952380D01*
X119928571Y-70904761D01*
X119833333Y-70809523D01*
X119785714Y-70714285D01*
X119738095Y-70523809D01*
X119738095Y-70380952D01*
X119785714Y-70190476D01*
X119833333Y-70095238D01*
X119928571Y-70000000D01*
X120071428Y-69952380D01*
X120166666Y-69952380D01*
X120309523Y-70000000D01*
X120357142Y-70047619D01*
X120690476Y-69952380D02*
X121309523Y-69952380D01*
X120976190Y-70333333D01*
X121119047Y-70333333D01*
X121214285Y-70380952D01*
X121261904Y-70428571D01*
X121309523Y-70523809D01*
X121309523Y-70761904D01*
X121261904Y-70857142D01*
X121214285Y-70904761D01*
X121119047Y-70952380D01*
X120833333Y-70952380D01*
X120738095Y-70904761D01*
X120690476Y-70857142D01*
X121642857Y-69952380D02*
X122309523Y-69952380D01*
X121880952Y-70952380D01*
%TO.C,C49*%
X112357142Y-77357142D02*
X112309523Y-77404761D01*
X112166666Y-77452380D01*
X112071428Y-77452380D01*
X111928571Y-77404761D01*
X111833333Y-77309523D01*
X111785714Y-77214285D01*
X111738095Y-77023809D01*
X111738095Y-76880952D01*
X111785714Y-76690476D01*
X111833333Y-76595238D01*
X111928571Y-76500000D01*
X112071428Y-76452380D01*
X112166666Y-76452380D01*
X112309523Y-76500000D01*
X112357142Y-76547619D01*
X113214285Y-76785714D02*
X113214285Y-77452380D01*
X112976190Y-76404761D02*
X112738095Y-77119047D01*
X113357142Y-77119047D01*
X113785714Y-77452380D02*
X113976190Y-77452380D01*
X114071428Y-77404761D01*
X114119047Y-77357142D01*
X114214285Y-77214285D01*
X114261904Y-77023809D01*
X114261904Y-76642857D01*
X114214285Y-76547619D01*
X114166666Y-76500000D01*
X114071428Y-76452380D01*
X113880952Y-76452380D01*
X113785714Y-76500000D01*
X113738095Y-76547619D01*
X113690476Y-76642857D01*
X113690476Y-76880952D01*
X113738095Y-76976190D01*
X113785714Y-77023809D01*
X113880952Y-77071428D01*
X114071428Y-77071428D01*
X114166666Y-77023809D01*
X114214285Y-76976190D01*
X114261904Y-76880952D01*
%TO.C,C48*%
X117357142Y-77357142D02*
X117309523Y-77404761D01*
X117166666Y-77452380D01*
X117071428Y-77452380D01*
X116928571Y-77404761D01*
X116833333Y-77309523D01*
X116785714Y-77214285D01*
X116738095Y-77023809D01*
X116738095Y-76880952D01*
X116785714Y-76690476D01*
X116833333Y-76595238D01*
X116928571Y-76500000D01*
X117071428Y-76452380D01*
X117166666Y-76452380D01*
X117309523Y-76500000D01*
X117357142Y-76547619D01*
X118214285Y-76785714D02*
X118214285Y-77452380D01*
X117976190Y-76404761D02*
X117738095Y-77119047D01*
X118357142Y-77119047D01*
X118880952Y-76880952D02*
X118785714Y-76833333D01*
X118738095Y-76785714D01*
X118690476Y-76690476D01*
X118690476Y-76642857D01*
X118738095Y-76547619D01*
X118785714Y-76500000D01*
X118880952Y-76452380D01*
X119071428Y-76452380D01*
X119166666Y-76500000D01*
X119214285Y-76547619D01*
X119261904Y-76642857D01*
X119261904Y-76690476D01*
X119214285Y-76785714D01*
X119166666Y-76833333D01*
X119071428Y-76880952D01*
X118880952Y-76880952D01*
X118785714Y-76928571D01*
X118738095Y-76976190D01*
X118690476Y-77071428D01*
X118690476Y-77261904D01*
X118738095Y-77357142D01*
X118785714Y-77404761D01*
X118880952Y-77452380D01*
X119071428Y-77452380D01*
X119166666Y-77404761D01*
X119214285Y-77357142D01*
X119261904Y-77261904D01*
X119261904Y-77071428D01*
X119214285Y-76976190D01*
X119166666Y-76928571D01*
X119071428Y-76880952D01*
%TO.C,J7*%
X102166666Y-65452380D02*
X102166666Y-66166666D01*
X102119047Y-66309523D01*
X102023809Y-66404761D01*
X101880952Y-66452380D01*
X101785714Y-66452380D01*
X102547619Y-65452380D02*
X103214285Y-65452380D01*
X102785714Y-66452380D01*
%TO.C,R26*%
X130452380Y-82142857D02*
X129976190Y-82476190D01*
X130452380Y-82714285D02*
X129452380Y-82714285D01*
X129452380Y-82333333D01*
X129500000Y-82238095D01*
X129547619Y-82190476D01*
X129642857Y-82142857D01*
X129785714Y-82142857D01*
X129880952Y-82190476D01*
X129928571Y-82238095D01*
X129976190Y-82333333D01*
X129976190Y-82714285D01*
X129547619Y-81761904D02*
X129500000Y-81714285D01*
X129452380Y-81619047D01*
X129452380Y-81380952D01*
X129500000Y-81285714D01*
X129547619Y-81238095D01*
X129642857Y-81190476D01*
X129738095Y-81190476D01*
X129880952Y-81238095D01*
X130452380Y-81809523D01*
X130452380Y-81190476D01*
X129452380Y-80333333D02*
X129452380Y-80523809D01*
X129500000Y-80619047D01*
X129547619Y-80666666D01*
X129690476Y-80761904D01*
X129880952Y-80809523D01*
X130261904Y-80809523D01*
X130357142Y-80761904D01*
X130404761Y-80714285D01*
X130452380Y-80619047D01*
X130452380Y-80428571D01*
X130404761Y-80333333D01*
X130357142Y-80285714D01*
X130261904Y-80238095D01*
X130023809Y-80238095D01*
X129928571Y-80285714D01*
X129880952Y-80333333D01*
X129833333Y-80428571D01*
X129833333Y-80619047D01*
X129880952Y-80714285D01*
X129928571Y-80761904D01*
X130023809Y-80809523D01*
%TO.C,C26*%
X121707106Y-133202030D02*
X121774450Y-133202030D01*
X121909137Y-133269374D01*
X121976480Y-133336717D01*
X122043824Y-133471404D01*
X122043824Y-133606091D01*
X122010152Y-133707106D01*
X121909137Y-133875465D01*
X121808122Y-133976480D01*
X121639763Y-134077496D01*
X121538748Y-134111167D01*
X121404061Y-134111167D01*
X121269374Y-134043824D01*
X121202030Y-133976480D01*
X121134687Y-133841793D01*
X121134687Y-133774450D01*
X120865312Y-133505076D02*
X120797969Y-133505076D01*
X120696954Y-133471404D01*
X120528595Y-133303045D01*
X120494923Y-133202030D01*
X120494923Y-133134687D01*
X120528595Y-133033671D01*
X120595938Y-132966328D01*
X120730625Y-132898984D01*
X121538748Y-132898984D01*
X121101015Y-132461251D01*
X119787816Y-132562267D02*
X119922503Y-132696954D01*
X120023519Y-132730625D01*
X120090862Y-132730625D01*
X120259221Y-132696954D01*
X120427580Y-132595938D01*
X120696954Y-132326564D01*
X120730625Y-132225549D01*
X120730625Y-132158206D01*
X120696954Y-132057190D01*
X120562267Y-131922503D01*
X120461251Y-131888832D01*
X120393908Y-131888832D01*
X120292893Y-131922503D01*
X120124534Y-132090862D01*
X120090862Y-132191877D01*
X120090862Y-132259221D01*
X120124534Y-132360236D01*
X120259221Y-132494923D01*
X120360236Y-132528595D01*
X120427580Y-132528595D01*
X120528595Y-132494923D01*
%TO.C,SW5*%
X107904761Y-129333333D02*
X107952380Y-129190476D01*
X107952380Y-128952380D01*
X107904761Y-128857142D01*
X107857142Y-128809523D01*
X107761904Y-128761904D01*
X107666666Y-128761904D01*
X107571428Y-128809523D01*
X107523809Y-128857142D01*
X107476190Y-128952380D01*
X107428571Y-129142857D01*
X107380952Y-129238095D01*
X107333333Y-129285714D01*
X107238095Y-129333333D01*
X107142857Y-129333333D01*
X107047619Y-129285714D01*
X107000000Y-129238095D01*
X106952380Y-129142857D01*
X106952380Y-128904761D01*
X107000000Y-128761904D01*
X106952380Y-128428571D02*
X107952380Y-128190476D01*
X107238095Y-128000000D01*
X107952380Y-127809523D01*
X106952380Y-127571428D01*
X106952380Y-126714285D02*
X106952380Y-127190476D01*
X107428571Y-127238095D01*
X107380952Y-127190476D01*
X107333333Y-127095238D01*
X107333333Y-126857142D01*
X107380952Y-126761904D01*
X107428571Y-126714285D01*
X107523809Y-126666666D01*
X107761904Y-126666666D01*
X107857142Y-126714285D01*
X107904761Y-126761904D01*
X107952380Y-126857142D01*
X107952380Y-127095238D01*
X107904761Y-127190476D01*
X107857142Y-127238095D01*
%TO.C,J19*%
X123290476Y-114052380D02*
X123290476Y-114766666D01*
X123242857Y-114909523D01*
X123147619Y-115004761D01*
X123004761Y-115052380D01*
X122909523Y-115052380D01*
X124290476Y-115052380D02*
X123719047Y-115052380D01*
X124004761Y-115052380D02*
X124004761Y-114052380D01*
X123909523Y-114195238D01*
X123814285Y-114290476D01*
X123719047Y-114338095D01*
X124766666Y-115052380D02*
X124957142Y-115052380D01*
X125052380Y-115004761D01*
X125100000Y-114957142D01*
X125195238Y-114814285D01*
X125242857Y-114623809D01*
X125242857Y-114242857D01*
X125195238Y-114147619D01*
X125147619Y-114100000D01*
X125052380Y-114052380D01*
X124861904Y-114052380D01*
X124766666Y-114100000D01*
X124719047Y-114147619D01*
X124671428Y-114242857D01*
X124671428Y-114480952D01*
X124719047Y-114576190D01*
X124766666Y-114623809D01*
X124861904Y-114671428D01*
X125052380Y-114671428D01*
X125147619Y-114623809D01*
X125195238Y-114576190D01*
X125242857Y-114480952D01*
%TO.C,D14*%
X107285714Y-70952380D02*
X107285714Y-69952380D01*
X107523809Y-69952380D01*
X107666666Y-70000000D01*
X107761904Y-70095238D01*
X107809523Y-70190476D01*
X107857142Y-70380952D01*
X107857142Y-70523809D01*
X107809523Y-70714285D01*
X107761904Y-70809523D01*
X107666666Y-70904761D01*
X107523809Y-70952380D01*
X107285714Y-70952380D01*
X108809523Y-70952380D02*
X108238095Y-70952380D01*
X108523809Y-70952380D02*
X108523809Y-69952380D01*
X108428571Y-70095238D01*
X108333333Y-70190476D01*
X108238095Y-70238095D01*
X109666666Y-70285714D02*
X109666666Y-70952380D01*
X109428571Y-69904761D02*
X109190476Y-70619047D01*
X109809523Y-70619047D01*
%TO.C,J12*%
X103164915Y-59338503D02*
X103669991Y-58833427D01*
X103804678Y-58766084D01*
X103939365Y-58766084D01*
X104074052Y-58833427D01*
X104141396Y-58900771D01*
X103164915Y-57924290D02*
X103568976Y-58328351D01*
X103366946Y-58126320D02*
X102659839Y-58833427D01*
X102828198Y-58799755D01*
X102962885Y-58799755D01*
X103063900Y-58833427D01*
X102255778Y-58294679D02*
X102188434Y-58294679D01*
X102087419Y-58261007D01*
X101919060Y-58092649D01*
X101885389Y-57991633D01*
X101885389Y-57924290D01*
X101919060Y-57823275D01*
X101986404Y-57755931D01*
X102121091Y-57688588D01*
X102929213Y-57688588D01*
X102491480Y-57250855D01*
X107926101Y-58718943D02*
X107993445Y-58718943D01*
X108128132Y-58786286D01*
X108195475Y-58853630D01*
X108262819Y-58988317D01*
X108262819Y-59123004D01*
X108229147Y-59224019D01*
X108128132Y-59392378D01*
X108027116Y-59493393D01*
X107858758Y-59594408D01*
X107757742Y-59628080D01*
X107623055Y-59628080D01*
X107488368Y-59560737D01*
X107421025Y-59493393D01*
X107353681Y-59358706D01*
X107353681Y-59291363D01*
X107589384Y-58247538D02*
X107623055Y-58348554D01*
X107623055Y-58415897D01*
X107589384Y-58516912D01*
X107387353Y-58718943D01*
X107286338Y-58752615D01*
X107218994Y-58752615D01*
X107117979Y-58718943D01*
X107016964Y-58617928D01*
X106983292Y-58516912D01*
X106983292Y-58449569D01*
X107016964Y-58348554D01*
X107218994Y-58146523D01*
X107320010Y-58112851D01*
X107387353Y-58112851D01*
X107488368Y-58146523D01*
X107589384Y-58247538D01*
X106579231Y-58180195D02*
X107050636Y-57708790D01*
X106646575Y-58112851D02*
X106579231Y-58112851D01*
X106478216Y-58079180D01*
X106377201Y-57978164D01*
X106343529Y-57877149D01*
X106377201Y-57776134D01*
X106747590Y-57405745D01*
X105939468Y-57540432D02*
X106410872Y-57069027D01*
X106006811Y-57473088D02*
X105939468Y-57473088D01*
X105838453Y-57439416D01*
X105737437Y-57338401D01*
X105703766Y-57237386D01*
X105737437Y-57136371D01*
X106107827Y-56765981D01*
X106006811Y-56530279D02*
X105468063Y-55991531D01*
X104390567Y-56462936D02*
X104323224Y-56395592D01*
X104289552Y-56294577D01*
X104289552Y-56227233D01*
X104323224Y-56126218D01*
X104424239Y-55957859D01*
X104592598Y-55789500D01*
X104760956Y-55688485D01*
X104861972Y-55654813D01*
X104929315Y-55654813D01*
X105030331Y-55688485D01*
X105097674Y-55755829D01*
X105131346Y-55856844D01*
X105131346Y-55924187D01*
X105097674Y-56025203D01*
X104996659Y-56193561D01*
X104828300Y-56361920D01*
X104659941Y-56462936D01*
X104558926Y-56496607D01*
X104491582Y-56496607D01*
X104390567Y-56462936D01*
X104188537Y-54846691D02*
X104592598Y-55250752D01*
X104390567Y-55048722D02*
X103683460Y-55755829D01*
X103851819Y-55722157D01*
X103986506Y-55722157D01*
X104087521Y-55755829D01*
X103952834Y-54610989D02*
X103111041Y-54712004D01*
X103481430Y-55082394D02*
X103582445Y-54240600D01*
X102471277Y-54543646D02*
X102403934Y-54476302D01*
X102370262Y-54375287D01*
X102370262Y-54307943D01*
X102403934Y-54206928D01*
X102504949Y-54038569D01*
X102673308Y-53870211D01*
X102841667Y-53769195D01*
X102942682Y-53735524D01*
X103010025Y-53735524D01*
X103111041Y-53769195D01*
X103178384Y-53836539D01*
X103212056Y-53937554D01*
X103212056Y-54004898D01*
X103178384Y-54105913D01*
X103077369Y-54274272D01*
X102909010Y-54442630D01*
X102740651Y-54543646D01*
X102639636Y-54577317D01*
X102572293Y-54577317D01*
X102471277Y-54543646D01*
X101595812Y-53668180D02*
X101932529Y-54004898D01*
X102302919Y-53701852D01*
X102235575Y-53701852D01*
X102134560Y-53668180D01*
X101966201Y-53499821D01*
X101932529Y-53398806D01*
X101932529Y-53331463D01*
X101966201Y-53230447D01*
X102134560Y-53062089D01*
X102235575Y-53028417D01*
X102302919Y-53028417D01*
X102403934Y-53062089D01*
X102572293Y-53230447D01*
X102605964Y-53331463D01*
X102605964Y-53398806D01*
X104572394Y-54099179D02*
X104740753Y-53930820D01*
X104841768Y-54166522D02*
X104740753Y-53930820D01*
X104505051Y-53829805D01*
X104976455Y-53897148D02*
X104740753Y-53930820D01*
X104774425Y-53695118D01*
%TO.C,D1*%
X117761904Y-116952380D02*
X117761904Y-115952380D01*
X118000000Y-115952380D01*
X118142857Y-116000000D01*
X118238095Y-116095238D01*
X118285714Y-116190476D01*
X118333333Y-116380952D01*
X118333333Y-116523809D01*
X118285714Y-116714285D01*
X118238095Y-116809523D01*
X118142857Y-116904761D01*
X118000000Y-116952380D01*
X117761904Y-116952380D01*
X119285714Y-116952380D02*
X118714285Y-116952380D01*
X119000000Y-116952380D02*
X119000000Y-115952380D01*
X118904761Y-116095238D01*
X118809523Y-116190476D01*
X118714285Y-116238095D01*
%TO.C,C36*%
X120357142Y-68357142D02*
X120309523Y-68404761D01*
X120166666Y-68452380D01*
X120071428Y-68452380D01*
X119928571Y-68404761D01*
X119833333Y-68309523D01*
X119785714Y-68214285D01*
X119738095Y-68023809D01*
X119738095Y-67880952D01*
X119785714Y-67690476D01*
X119833333Y-67595238D01*
X119928571Y-67500000D01*
X120071428Y-67452380D01*
X120166666Y-67452380D01*
X120309523Y-67500000D01*
X120357142Y-67547619D01*
X120690476Y-67452380D02*
X121309523Y-67452380D01*
X120976190Y-67833333D01*
X121119047Y-67833333D01*
X121214285Y-67880952D01*
X121261904Y-67928571D01*
X121309523Y-68023809D01*
X121309523Y-68261904D01*
X121261904Y-68357142D01*
X121214285Y-68404761D01*
X121119047Y-68452380D01*
X120833333Y-68452380D01*
X120738095Y-68404761D01*
X120690476Y-68357142D01*
X122166666Y-67452380D02*
X121976190Y-67452380D01*
X121880952Y-67500000D01*
X121833333Y-67547619D01*
X121738095Y-67690476D01*
X121690476Y-67880952D01*
X121690476Y-68261904D01*
X121738095Y-68357142D01*
X121785714Y-68404761D01*
X121880952Y-68452380D01*
X122071428Y-68452380D01*
X122166666Y-68404761D01*
X122214285Y-68357142D01*
X122261904Y-68261904D01*
X122261904Y-68023809D01*
X122214285Y-67928571D01*
X122166666Y-67880952D01*
X122071428Y-67833333D01*
X121880952Y-67833333D01*
X121785714Y-67880952D01*
X121738095Y-67928571D01*
X121690476Y-68023809D01*
%TO.C,J11*%
X119627380Y-94809523D02*
X120341666Y-94809523D01*
X120484523Y-94857142D01*
X120579761Y-94952380D01*
X120627380Y-95095238D01*
X120627380Y-95190476D01*
X120627380Y-93809523D02*
X120627380Y-94380952D01*
X120627380Y-94095238D02*
X119627380Y-94095238D01*
X119770238Y-94190476D01*
X119865476Y-94285714D01*
X119913095Y-94380952D01*
X120627380Y-92857142D02*
X120627380Y-93428571D01*
X120627380Y-93142857D02*
X119627380Y-93142857D01*
X119770238Y-93238095D01*
X119865476Y-93333333D01*
X119913095Y-93428571D01*
X134782142Y-100071428D02*
X134782142Y-98928571D01*
X135353571Y-99500000D02*
X134210714Y-99500000D01*
%TO.C,J6*%
X102348477Y-71602469D02*
X102853553Y-71097393D01*
X102988240Y-71030049D01*
X103122927Y-71030049D01*
X103257614Y-71097393D01*
X103324957Y-71164736D01*
X101708713Y-70962706D02*
X101843400Y-71097393D01*
X101944416Y-71131064D01*
X102011759Y-71131064D01*
X102180118Y-71097393D01*
X102348477Y-70996377D01*
X102617851Y-70727003D01*
X102651522Y-70625988D01*
X102651522Y-70558645D01*
X102617851Y-70457629D01*
X102483164Y-70322942D01*
X102382148Y-70289271D01*
X102314805Y-70289271D01*
X102213790Y-70322942D01*
X102045431Y-70491301D01*
X102011759Y-70592316D01*
X102011759Y-70659660D01*
X102045431Y-70760675D01*
X102180118Y-70895362D01*
X102281133Y-70929034D01*
X102348477Y-70929034D01*
X102449492Y-70895362D01*
%TO.C,C3*%
X115370389Y-138365312D02*
X115437732Y-138365312D01*
X115572419Y-138432656D01*
X115639763Y-138500000D01*
X115707106Y-138634687D01*
X115707106Y-138769374D01*
X115673435Y-138870389D01*
X115572419Y-139038748D01*
X115471404Y-139139763D01*
X115303045Y-139240778D01*
X115202030Y-139274450D01*
X115067343Y-139274450D01*
X114932656Y-139207106D01*
X114865312Y-139139763D01*
X114797969Y-139005076D01*
X114797969Y-138937732D01*
X114494923Y-138769374D02*
X114057190Y-138331641D01*
X114562267Y-138297969D01*
X114461251Y-138196954D01*
X114427580Y-138095938D01*
X114427580Y-138028595D01*
X114461251Y-137927580D01*
X114629610Y-137759221D01*
X114730625Y-137725549D01*
X114797969Y-137725549D01*
X114898984Y-137759221D01*
X115101015Y-137961251D01*
X115134687Y-138062267D01*
X115134687Y-138129610D01*
%TO.C,C25*%
X119797969Y-66707106D02*
X119797969Y-66774450D01*
X119730625Y-66909137D01*
X119663282Y-66976480D01*
X119528595Y-67043824D01*
X119393908Y-67043824D01*
X119292893Y-67010152D01*
X119124534Y-66909137D01*
X119023519Y-66808122D01*
X118922503Y-66639763D01*
X118888832Y-66538748D01*
X118888832Y-66404061D01*
X118956175Y-66269374D01*
X119023519Y-66202030D01*
X119158206Y-66134687D01*
X119225549Y-66134687D01*
X119494923Y-65865312D02*
X119494923Y-65797969D01*
X119528595Y-65696954D01*
X119696954Y-65528595D01*
X119797969Y-65494923D01*
X119865312Y-65494923D01*
X119966328Y-65528595D01*
X120033671Y-65595938D01*
X120101015Y-65730625D01*
X120101015Y-66538748D01*
X120538748Y-66101015D01*
X120471404Y-64754145D02*
X120134687Y-65090862D01*
X120437732Y-65461251D01*
X120437732Y-65393908D01*
X120471404Y-65292893D01*
X120639763Y-65124534D01*
X120740778Y-65090862D01*
X120808122Y-65090862D01*
X120909137Y-65124534D01*
X121077496Y-65292893D01*
X121111167Y-65393908D01*
X121111167Y-65461251D01*
X121077496Y-65562267D01*
X120909137Y-65730625D01*
X120808122Y-65764297D01*
X120740778Y-65764297D01*
%TO.C,SW3*%
X114904761Y-129333333D02*
X114952380Y-129190476D01*
X114952380Y-128952380D01*
X114904761Y-128857142D01*
X114857142Y-128809523D01*
X114761904Y-128761904D01*
X114666666Y-128761904D01*
X114571428Y-128809523D01*
X114523809Y-128857142D01*
X114476190Y-128952380D01*
X114428571Y-129142857D01*
X114380952Y-129238095D01*
X114333333Y-129285714D01*
X114238095Y-129333333D01*
X114142857Y-129333333D01*
X114047619Y-129285714D01*
X114000000Y-129238095D01*
X113952380Y-129142857D01*
X113952380Y-128904761D01*
X114000000Y-128761904D01*
X113952380Y-128428571D02*
X114952380Y-128190476D01*
X114238095Y-128000000D01*
X114952380Y-127809523D01*
X113952380Y-127571428D01*
X113952380Y-127285714D02*
X113952380Y-126666666D01*
X114333333Y-127000000D01*
X114333333Y-126857142D01*
X114380952Y-126761904D01*
X114428571Y-126714285D01*
X114523809Y-126666666D01*
X114761904Y-126666666D01*
X114857142Y-126714285D01*
X114904761Y-126761904D01*
X114952380Y-126857142D01*
X114952380Y-127142857D01*
X114904761Y-127238095D01*
X114857142Y-127285714D01*
%TO.C,C4*%
X120857142Y-74166666D02*
X120904761Y-74214285D01*
X120952380Y-74357142D01*
X120952380Y-74452380D01*
X120904761Y-74595238D01*
X120809523Y-74690476D01*
X120714285Y-74738095D01*
X120523809Y-74785714D01*
X120380952Y-74785714D01*
X120190476Y-74738095D01*
X120095238Y-74690476D01*
X120000000Y-74595238D01*
X119952380Y-74452380D01*
X119952380Y-74357142D01*
X120000000Y-74214285D01*
X120047619Y-74166666D01*
X120285714Y-73309523D02*
X120952380Y-73309523D01*
X119904761Y-73547619D02*
X120619047Y-73785714D01*
X120619047Y-73166666D01*
%TO.C,L1*%
X113833333Y-86902380D02*
X113357142Y-86902380D01*
X113357142Y-85902380D01*
X114690476Y-86902380D02*
X114119047Y-86902380D01*
X114404761Y-86902380D02*
X114404761Y-85902380D01*
X114309523Y-86045238D01*
X114214285Y-86140476D01*
X114119047Y-86188095D01*
%TO.C,D20*%
X118452380Y-83714285D02*
X117452380Y-83714285D01*
X117452380Y-83476190D01*
X117500000Y-83333333D01*
X117595238Y-83238095D01*
X117690476Y-83190476D01*
X117880952Y-83142857D01*
X118023809Y-83142857D01*
X118214285Y-83190476D01*
X118309523Y-83238095D01*
X118404761Y-83333333D01*
X118452380Y-83476190D01*
X118452380Y-83714285D01*
X117547619Y-82761904D02*
X117500000Y-82714285D01*
X117452380Y-82619047D01*
X117452380Y-82380952D01*
X117500000Y-82285714D01*
X117547619Y-82238095D01*
X117642857Y-82190476D01*
X117738095Y-82190476D01*
X117880952Y-82238095D01*
X118452380Y-82809523D01*
X118452380Y-82190476D01*
X117452380Y-81571428D02*
X117452380Y-81476190D01*
X117500000Y-81380952D01*
X117547619Y-81333333D01*
X117642857Y-81285714D01*
X117833333Y-81238095D01*
X118071428Y-81238095D01*
X118261904Y-81285714D01*
X118357142Y-81333333D01*
X118404761Y-81380952D01*
X118452380Y-81476190D01*
X118452380Y-81571428D01*
X118404761Y-81666666D01*
X118357142Y-81714285D01*
X118261904Y-81761904D01*
X118071428Y-81809523D01*
X117833333Y-81809523D01*
X117642857Y-81761904D01*
X117547619Y-81714285D01*
X117500000Y-81666666D01*
X117452380Y-81571428D01*
%TO.C,D4*%
X117816904Y-119452380D02*
X117816904Y-118452380D01*
X118055000Y-118452380D01*
X118197857Y-118500000D01*
X118293095Y-118595238D01*
X118340714Y-118690476D01*
X118388333Y-118880952D01*
X118388333Y-119023809D01*
X118340714Y-119214285D01*
X118293095Y-119309523D01*
X118197857Y-119404761D01*
X118055000Y-119452380D01*
X117816904Y-119452380D01*
X119245476Y-118785714D02*
X119245476Y-119452380D01*
X119007380Y-118404761D02*
X118769285Y-119119047D01*
X119388333Y-119119047D01*
%TO.C,SW1*%
X110654761Y-74833333D02*
X110702380Y-74690476D01*
X110702380Y-74452380D01*
X110654761Y-74357142D01*
X110607142Y-74309523D01*
X110511904Y-74261904D01*
X110416666Y-74261904D01*
X110321428Y-74309523D01*
X110273809Y-74357142D01*
X110226190Y-74452380D01*
X110178571Y-74642857D01*
X110130952Y-74738095D01*
X110083333Y-74785714D01*
X109988095Y-74833333D01*
X109892857Y-74833333D01*
X109797619Y-74785714D01*
X109750000Y-74738095D01*
X109702380Y-74642857D01*
X109702380Y-74404761D01*
X109750000Y-74261904D01*
X109702380Y-73928571D02*
X110702380Y-73690476D01*
X109988095Y-73500000D01*
X110702380Y-73309523D01*
X109702380Y-73071428D01*
X110702380Y-72166666D02*
X110702380Y-72738095D01*
X110702380Y-72452380D02*
X109702380Y-72452380D01*
X109845238Y-72547619D01*
X109940476Y-72642857D01*
X109988095Y-72738095D01*
%TO.C,C34*%
X127357142Y-73642857D02*
X127404761Y-73690476D01*
X127452380Y-73833333D01*
X127452380Y-73928571D01*
X127404761Y-74071428D01*
X127309523Y-74166666D01*
X127214285Y-74214285D01*
X127023809Y-74261904D01*
X126880952Y-74261904D01*
X126690476Y-74214285D01*
X126595238Y-74166666D01*
X126500000Y-74071428D01*
X126452380Y-73928571D01*
X126452380Y-73833333D01*
X126500000Y-73690476D01*
X126547619Y-73642857D01*
X126452380Y-73309523D02*
X126452380Y-72690476D01*
X126833333Y-73023809D01*
X126833333Y-72880952D01*
X126880952Y-72785714D01*
X126928571Y-72738095D01*
X127023809Y-72690476D01*
X127261904Y-72690476D01*
X127357142Y-72738095D01*
X127404761Y-72785714D01*
X127452380Y-72880952D01*
X127452380Y-73166666D01*
X127404761Y-73261904D01*
X127357142Y-73309523D01*
X126785714Y-71833333D02*
X127452380Y-71833333D01*
X126404761Y-72071428D02*
X127119047Y-72309523D01*
X127119047Y-71690476D01*
%TO.C,R20*%
X129952380Y-119142857D02*
X129476190Y-119476190D01*
X129952380Y-119714285D02*
X128952380Y-119714285D01*
X128952380Y-119333333D01*
X129000000Y-119238095D01*
X129047619Y-119190476D01*
X129142857Y-119142857D01*
X129285714Y-119142857D01*
X129380952Y-119190476D01*
X129428571Y-119238095D01*
X129476190Y-119333333D01*
X129476190Y-119714285D01*
X129047619Y-118761904D02*
X129000000Y-118714285D01*
X128952380Y-118619047D01*
X128952380Y-118380952D01*
X129000000Y-118285714D01*
X129047619Y-118238095D01*
X129142857Y-118190476D01*
X129238095Y-118190476D01*
X129380952Y-118238095D01*
X129952380Y-118809523D01*
X129952380Y-118190476D01*
X128952380Y-117571428D02*
X128952380Y-117476190D01*
X129000000Y-117380952D01*
X129047619Y-117333333D01*
X129142857Y-117285714D01*
X129333333Y-117238095D01*
X129571428Y-117238095D01*
X129761904Y-117285714D01*
X129857142Y-117333333D01*
X129904761Y-117380952D01*
X129952380Y-117476190D01*
X129952380Y-117571428D01*
X129904761Y-117666666D01*
X129857142Y-117714285D01*
X129761904Y-117761904D01*
X129571428Y-117809523D01*
X129333333Y-117809523D01*
X129142857Y-117761904D01*
X129047619Y-117714285D01*
X129000000Y-117666666D01*
X128952380Y-117571428D01*
%TO.C,J1*%
X104166666Y-65452380D02*
X104166666Y-66166666D01*
X104119047Y-66309523D01*
X104023809Y-66404761D01*
X103880952Y-66452380D01*
X103785714Y-66452380D01*
X105166666Y-66452380D02*
X104595238Y-66452380D01*
X104880952Y-66452380D02*
X104880952Y-65452380D01*
X104785714Y-65595238D01*
X104690476Y-65690476D01*
X104595238Y-65738095D01*
%TO.C,C33*%
X124857142Y-133857142D02*
X124809523Y-133904761D01*
X124666666Y-133952380D01*
X124571428Y-133952380D01*
X124428571Y-133904761D01*
X124333333Y-133809523D01*
X124285714Y-133714285D01*
X124238095Y-133523809D01*
X124238095Y-133380952D01*
X124285714Y-133190476D01*
X124333333Y-133095238D01*
X124428571Y-133000000D01*
X124571428Y-132952380D01*
X124666666Y-132952380D01*
X124809523Y-133000000D01*
X124857142Y-133047619D01*
X125190476Y-132952380D02*
X125809523Y-132952380D01*
X125476190Y-133333333D01*
X125619047Y-133333333D01*
X125714285Y-133380952D01*
X125761904Y-133428571D01*
X125809523Y-133523809D01*
X125809523Y-133761904D01*
X125761904Y-133857142D01*
X125714285Y-133904761D01*
X125619047Y-133952380D01*
X125333333Y-133952380D01*
X125238095Y-133904761D01*
X125190476Y-133857142D01*
X126142857Y-132952380D02*
X126761904Y-132952380D01*
X126428571Y-133333333D01*
X126571428Y-133333333D01*
X126666666Y-133380952D01*
X126714285Y-133428571D01*
X126761904Y-133523809D01*
X126761904Y-133761904D01*
X126714285Y-133857142D01*
X126666666Y-133904761D01*
X126571428Y-133952380D01*
X126285714Y-133952380D01*
X126190476Y-133904761D01*
X126142857Y-133857142D01*
%TO.C,C32*%
X127357142Y-76642857D02*
X127404761Y-76690476D01*
X127452380Y-76833333D01*
X127452380Y-76928571D01*
X127404761Y-77071428D01*
X127309523Y-77166666D01*
X127214285Y-77214285D01*
X127023809Y-77261904D01*
X126880952Y-77261904D01*
X126690476Y-77214285D01*
X126595238Y-77166666D01*
X126500000Y-77071428D01*
X126452380Y-76928571D01*
X126452380Y-76833333D01*
X126500000Y-76690476D01*
X126547619Y-76642857D01*
X126452380Y-76309523D02*
X126452380Y-75690476D01*
X126833333Y-76023809D01*
X126833333Y-75880952D01*
X126880952Y-75785714D01*
X126928571Y-75738095D01*
X127023809Y-75690476D01*
X127261904Y-75690476D01*
X127357142Y-75738095D01*
X127404761Y-75785714D01*
X127452380Y-75880952D01*
X127452380Y-76166666D01*
X127404761Y-76261904D01*
X127357142Y-76309523D01*
X126547619Y-75309523D02*
X126500000Y-75261904D01*
X126452380Y-75166666D01*
X126452380Y-74928571D01*
X126500000Y-74833333D01*
X126547619Y-74785714D01*
X126642857Y-74738095D01*
X126738095Y-74738095D01*
X126880952Y-74785714D01*
X127452380Y-75357142D01*
X127452380Y-74738095D01*
%TO.C,C2*%
X111333333Y-74357142D02*
X111285714Y-74404761D01*
X111142857Y-74452380D01*
X111047619Y-74452380D01*
X110904761Y-74404761D01*
X110809523Y-74309523D01*
X110761904Y-74214285D01*
X110714285Y-74023809D01*
X110714285Y-73880952D01*
X110761904Y-73690476D01*
X110809523Y-73595238D01*
X110904761Y-73500000D01*
X111047619Y-73452380D01*
X111142857Y-73452380D01*
X111285714Y-73500000D01*
X111333333Y-73547619D01*
X111714285Y-73547619D02*
X111761904Y-73500000D01*
X111857142Y-73452380D01*
X112095238Y-73452380D01*
X112190476Y-73500000D01*
X112238095Y-73547619D01*
X112285714Y-73642857D01*
X112285714Y-73738095D01*
X112238095Y-73880952D01*
X111666666Y-74452380D01*
X112285714Y-74452380D01*
%TO.C,J3*%
X107166666Y-109952380D02*
X107166666Y-110666666D01*
X107119047Y-110809523D01*
X107023809Y-110904761D01*
X106880952Y-110952380D01*
X106785714Y-110952380D01*
X107547619Y-109952380D02*
X108166666Y-109952380D01*
X107833333Y-110333333D01*
X107976190Y-110333333D01*
X108071428Y-110380952D01*
X108119047Y-110428571D01*
X108166666Y-110523809D01*
X108166666Y-110761904D01*
X108119047Y-110857142D01*
X108071428Y-110904761D01*
X107976190Y-110952380D01*
X107690476Y-110952380D01*
X107595238Y-110904761D01*
X107547619Y-110857142D01*
%TO.C,C38*%
X100218269Y-150190867D02*
X100285613Y-150190867D01*
X100420300Y-150258211D01*
X100487643Y-150325554D01*
X100554987Y-150460241D01*
X100554987Y-150594928D01*
X100521315Y-150695943D01*
X100420300Y-150864302D01*
X100319285Y-150965317D01*
X100150926Y-151066333D01*
X100049911Y-151100004D01*
X99915224Y-151100004D01*
X99780537Y-151032661D01*
X99713193Y-150965317D01*
X99645850Y-150830630D01*
X99645850Y-150763287D01*
X99342804Y-150594928D02*
X98905071Y-150157195D01*
X99410147Y-150123524D01*
X99309132Y-150022508D01*
X99275460Y-149921493D01*
X99275460Y-149854149D01*
X99309132Y-149753134D01*
X99477491Y-149584775D01*
X99578506Y-149551104D01*
X99645850Y-149551104D01*
X99746865Y-149584775D01*
X99948895Y-149786806D01*
X99982567Y-149887821D01*
X99982567Y-149955165D01*
X98804056Y-149450088D02*
X98837727Y-149551104D01*
X98837727Y-149618447D01*
X98804056Y-149719462D01*
X98770384Y-149753134D01*
X98669369Y-149786806D01*
X98602025Y-149786806D01*
X98501010Y-149753134D01*
X98366323Y-149618447D01*
X98332651Y-149517432D01*
X98332651Y-149450088D01*
X98366323Y-149349073D01*
X98399995Y-149315401D01*
X98501010Y-149281730D01*
X98568353Y-149281730D01*
X98669369Y-149315401D01*
X98804056Y-149450088D01*
X98905071Y-149483760D01*
X98972414Y-149483760D01*
X99073430Y-149450088D01*
X99208117Y-149315401D01*
X99241788Y-149214386D01*
X99241788Y-149147043D01*
X99208117Y-149046027D01*
X99073430Y-148911340D01*
X98972414Y-148877669D01*
X98905071Y-148877669D01*
X98804056Y-148911340D01*
X98669369Y-149046027D01*
X98635697Y-149147043D01*
X98635697Y-149214386D01*
X98669369Y-149315401D01*
%TO.C,C10*%
X127357142Y-125142857D02*
X127404761Y-125190476D01*
X127452380Y-125333333D01*
X127452380Y-125428571D01*
X127404761Y-125571428D01*
X127309523Y-125666666D01*
X127214285Y-125714285D01*
X127023809Y-125761904D01*
X126880952Y-125761904D01*
X126690476Y-125714285D01*
X126595238Y-125666666D01*
X126500000Y-125571428D01*
X126452380Y-125428571D01*
X126452380Y-125333333D01*
X126500000Y-125190476D01*
X126547619Y-125142857D01*
X127452380Y-124190476D02*
X127452380Y-124761904D01*
X127452380Y-124476190D02*
X126452380Y-124476190D01*
X126595238Y-124571428D01*
X126690476Y-124666666D01*
X126738095Y-124761904D01*
X126452380Y-123571428D02*
X126452380Y-123476190D01*
X126500000Y-123380952D01*
X126547619Y-123333333D01*
X126642857Y-123285714D01*
X126833333Y-123238095D01*
X127071428Y-123238095D01*
X127261904Y-123285714D01*
X127357142Y-123333333D01*
X127404761Y-123380952D01*
X127452380Y-123476190D01*
X127452380Y-123571428D01*
X127404761Y-123666666D01*
X127357142Y-123714285D01*
X127261904Y-123761904D01*
X127071428Y-123809523D01*
X126833333Y-123809523D01*
X126642857Y-123761904D01*
X126547619Y-123714285D01*
X126500000Y-123666666D01*
X126452380Y-123571428D01*
%TO.C,J15*%
X118602380Y-106809523D02*
X119316666Y-106809523D01*
X119459523Y-106857142D01*
X119554761Y-106952380D01*
X119602380Y-107095238D01*
X119602380Y-107190476D01*
X119602380Y-105809523D02*
X119602380Y-106380952D01*
X119602380Y-106095238D02*
X118602380Y-106095238D01*
X118745238Y-106190476D01*
X118840476Y-106285714D01*
X118888095Y-106380952D01*
X118602380Y-104904761D02*
X118602380Y-105380952D01*
X119078571Y-105428571D01*
X119030952Y-105380952D01*
X118983333Y-105285714D01*
X118983333Y-105047619D01*
X119030952Y-104952380D01*
X119078571Y-104904761D01*
X119173809Y-104857142D01*
X119411904Y-104857142D01*
X119507142Y-104904761D01*
X119554761Y-104952380D01*
X119602380Y-105047619D01*
X119602380Y-105285714D01*
X119554761Y-105380952D01*
X119507142Y-105428571D01*
X133107142Y-112071428D02*
X133107142Y-110928571D01*
X134757142Y-101071428D02*
X134757142Y-99928571D01*
X135328571Y-100500000D02*
X134185714Y-100500000D01*
%TO.C,J17*%
X123290476Y-87552380D02*
X123290476Y-88266666D01*
X123242857Y-88409523D01*
X123147619Y-88504761D01*
X123004761Y-88552380D01*
X122909523Y-88552380D01*
X124290476Y-88552380D02*
X123719047Y-88552380D01*
X124004761Y-88552380D02*
X124004761Y-87552380D01*
X123909523Y-87695238D01*
X123814285Y-87790476D01*
X123719047Y-87838095D01*
X124623809Y-87552380D02*
X125290476Y-87552380D01*
X124861904Y-88552380D01*
%TO.C,J5*%
X103877072Y-118848477D02*
X104382148Y-119353553D01*
X104449492Y-119488240D01*
X104449492Y-119622927D01*
X104382148Y-119757614D01*
X104314805Y-119824957D01*
X104550507Y-118175042D02*
X104213790Y-118511759D01*
X104516835Y-118882148D01*
X104516835Y-118814805D01*
X104550507Y-118713790D01*
X104718866Y-118545431D01*
X104819881Y-118511759D01*
X104887225Y-118511759D01*
X104988240Y-118545431D01*
X105156599Y-118713790D01*
X105190270Y-118814805D01*
X105190270Y-118882148D01*
X105156599Y-118983164D01*
X104988240Y-119151522D01*
X104887225Y-119185194D01*
X104819881Y-119185194D01*
%TO.C,D3*%
X117761904Y-111952380D02*
X117761904Y-110952380D01*
X118000000Y-110952380D01*
X118142857Y-111000000D01*
X118238095Y-111095238D01*
X118285714Y-111190476D01*
X118333333Y-111380952D01*
X118333333Y-111523809D01*
X118285714Y-111714285D01*
X118238095Y-111809523D01*
X118142857Y-111904761D01*
X118000000Y-111952380D01*
X117761904Y-111952380D01*
X118666666Y-110952380D02*
X119285714Y-110952380D01*
X118952380Y-111333333D01*
X119095238Y-111333333D01*
X119190476Y-111380952D01*
X119238095Y-111428571D01*
X119285714Y-111523809D01*
X119285714Y-111761904D01*
X119238095Y-111857142D01*
X119190476Y-111904761D01*
X119095238Y-111952380D01*
X118809523Y-111952380D01*
X118714285Y-111904761D01*
X118666666Y-111857142D01*
%TO.C,J9*%
X100452380Y-134833333D02*
X101166666Y-134833333D01*
X101309523Y-134880952D01*
X101404761Y-134976190D01*
X101452380Y-135119047D01*
X101452380Y-135214285D01*
X101452380Y-134309523D02*
X101452380Y-134119047D01*
X101404761Y-134023809D01*
X101357142Y-133976190D01*
X101214285Y-133880952D01*
X101023809Y-133833333D01*
X100642857Y-133833333D01*
X100547619Y-133880952D01*
X100500000Y-133928571D01*
X100452380Y-134023809D01*
X100452380Y-134214285D01*
X100500000Y-134309523D01*
X100547619Y-134357142D01*
X100642857Y-134404761D01*
X100880952Y-134404761D01*
X100976190Y-134357142D01*
X101023809Y-134309523D01*
X101071428Y-134214285D01*
X101071428Y-134023809D01*
X101023809Y-133928571D01*
X100976190Y-133880952D01*
X100880952Y-133833333D01*
%TO.C,C39*%
X99297969Y-50707106D02*
X99297969Y-50774450D01*
X99230625Y-50909137D01*
X99163282Y-50976480D01*
X99028595Y-51043824D01*
X98893908Y-51043824D01*
X98792893Y-51010152D01*
X98624534Y-50909137D01*
X98523519Y-50808122D01*
X98422503Y-50639763D01*
X98388832Y-50538748D01*
X98388832Y-50404061D01*
X98456175Y-50269374D01*
X98523519Y-50202030D01*
X98658206Y-50134687D01*
X98725549Y-50134687D01*
X98893908Y-49831641D02*
X99331641Y-49393908D01*
X99365312Y-49898984D01*
X99466328Y-49797969D01*
X99567343Y-49764297D01*
X99634687Y-49764297D01*
X99735702Y-49797969D01*
X99904061Y-49966328D01*
X99937732Y-50067343D01*
X99937732Y-50134687D01*
X99904061Y-50235702D01*
X99702030Y-50437732D01*
X99601015Y-50471404D01*
X99533671Y-50471404D01*
X100375465Y-49764297D02*
X100510152Y-49629610D01*
X100543824Y-49528595D01*
X100543824Y-49461251D01*
X100510152Y-49292893D01*
X100409137Y-49124534D01*
X100139763Y-48855160D01*
X100038748Y-48821488D01*
X99971404Y-48821488D01*
X99870389Y-48855160D01*
X99735702Y-48989847D01*
X99702030Y-49090862D01*
X99702030Y-49158206D01*
X99735702Y-49259221D01*
X99904061Y-49427580D01*
X100005076Y-49461251D01*
X100072419Y-49461251D01*
X100173435Y-49427580D01*
X100308122Y-49292893D01*
X100341793Y-49191877D01*
X100341793Y-49124534D01*
X100308122Y-49023519D01*
%TO.C,J14*%
X104452380Y-135309523D02*
X105166666Y-135309523D01*
X105309523Y-135357142D01*
X105404761Y-135452380D01*
X105452380Y-135595238D01*
X105452380Y-135690476D01*
X105452380Y-134309523D02*
X105452380Y-134880952D01*
X105452380Y-134595238D02*
X104452380Y-134595238D01*
X104595238Y-134690476D01*
X104690476Y-134785714D01*
X104738095Y-134880952D01*
X104785714Y-133452380D02*
X105452380Y-133452380D01*
X104404761Y-133690476D02*
X105119047Y-133928571D01*
X105119047Y-133309523D01*
%TO.C,D15*%
X116785714Y-70952380D02*
X116785714Y-69952380D01*
X117023809Y-69952380D01*
X117166666Y-70000000D01*
X117261904Y-70095238D01*
X117309523Y-70190476D01*
X117357142Y-70380952D01*
X117357142Y-70523809D01*
X117309523Y-70714285D01*
X117261904Y-70809523D01*
X117166666Y-70904761D01*
X117023809Y-70952380D01*
X116785714Y-70952380D01*
X118309523Y-70952380D02*
X117738095Y-70952380D01*
X118023809Y-70952380D02*
X118023809Y-69952380D01*
X117928571Y-70095238D01*
X117833333Y-70190476D01*
X117738095Y-70238095D01*
X119214285Y-69952380D02*
X118738095Y-69952380D01*
X118690476Y-70428571D01*
X118738095Y-70380952D01*
X118833333Y-70333333D01*
X119071428Y-70333333D01*
X119166666Y-70380952D01*
X119214285Y-70428571D01*
X119261904Y-70523809D01*
X119261904Y-70761904D01*
X119214285Y-70857142D01*
X119166666Y-70904761D01*
X119071428Y-70952380D01*
X118833333Y-70952380D01*
X118738095Y-70904761D01*
X118690476Y-70857142D01*
%TO.C,J4*%
X112952380Y-113833333D02*
X113666666Y-113833333D01*
X113809523Y-113880952D01*
X113904761Y-113976190D01*
X113952380Y-114119047D01*
X113952380Y-114214285D01*
X113285714Y-112928571D02*
X113952380Y-112928571D01*
X112904761Y-113166666D02*
X113619047Y-113404761D01*
X113619047Y-112785714D01*
%TO.C,C31*%
X127357142Y-130142857D02*
X127404761Y-130190476D01*
X127452380Y-130333333D01*
X127452380Y-130428571D01*
X127404761Y-130571428D01*
X127309523Y-130666666D01*
X127214285Y-130714285D01*
X127023809Y-130761904D01*
X126880952Y-130761904D01*
X126690476Y-130714285D01*
X126595238Y-130666666D01*
X126500000Y-130571428D01*
X126452380Y-130428571D01*
X126452380Y-130333333D01*
X126500000Y-130190476D01*
X126547619Y-130142857D01*
X126452380Y-129809523D02*
X126452380Y-129190476D01*
X126833333Y-129523809D01*
X126833333Y-129380952D01*
X126880952Y-129285714D01*
X126928571Y-129238095D01*
X127023809Y-129190476D01*
X127261904Y-129190476D01*
X127357142Y-129238095D01*
X127404761Y-129285714D01*
X127452380Y-129380952D01*
X127452380Y-129666666D01*
X127404761Y-129761904D01*
X127357142Y-129809523D01*
X127452380Y-128238095D02*
X127452380Y-128809523D01*
X127452380Y-128523809D02*
X126452380Y-128523809D01*
X126595238Y-128619047D01*
X126690476Y-128714285D01*
X126738095Y-128809523D01*
%TO.C,C30*%
X116797969Y-63707106D02*
X116797969Y-63774450D01*
X116730625Y-63909137D01*
X116663282Y-63976480D01*
X116528595Y-64043824D01*
X116393908Y-64043824D01*
X116292893Y-64010152D01*
X116124534Y-63909137D01*
X116023519Y-63808122D01*
X115922503Y-63639763D01*
X115888832Y-63538748D01*
X115888832Y-63404061D01*
X115956175Y-63269374D01*
X116023519Y-63202030D01*
X116158206Y-63134687D01*
X116225549Y-63134687D01*
X116393908Y-62831641D02*
X116831641Y-62393908D01*
X116865312Y-62898984D01*
X116966328Y-62797969D01*
X117067343Y-62764297D01*
X117134687Y-62764297D01*
X117235702Y-62797969D01*
X117404061Y-62966328D01*
X117437732Y-63067343D01*
X117437732Y-63134687D01*
X117404061Y-63235702D01*
X117202030Y-63437732D01*
X117101015Y-63471404D01*
X117033671Y-63471404D01*
X117269374Y-61956175D02*
X117336717Y-61888832D01*
X117437732Y-61855160D01*
X117505076Y-61855160D01*
X117606091Y-61888832D01*
X117774450Y-61989847D01*
X117942809Y-62158206D01*
X118043824Y-62326564D01*
X118077496Y-62427580D01*
X118077496Y-62494923D01*
X118043824Y-62595938D01*
X117976480Y-62663282D01*
X117875465Y-62696954D01*
X117808122Y-62696954D01*
X117707106Y-62663282D01*
X117538748Y-62562267D01*
X117370389Y-62393908D01*
X117269374Y-62225549D01*
X117235702Y-62124534D01*
X117235702Y-62057190D01*
X117269374Y-61956175D01*
%TO.C,C35*%
X127357142Y-127642857D02*
X127404761Y-127690476D01*
X127452380Y-127833333D01*
X127452380Y-127928571D01*
X127404761Y-128071428D01*
X127309523Y-128166666D01*
X127214285Y-128214285D01*
X127023809Y-128261904D01*
X126880952Y-128261904D01*
X126690476Y-128214285D01*
X126595238Y-128166666D01*
X126500000Y-128071428D01*
X126452380Y-127928571D01*
X126452380Y-127833333D01*
X126500000Y-127690476D01*
X126547619Y-127642857D01*
X126452380Y-127309523D02*
X126452380Y-126690476D01*
X126833333Y-127023809D01*
X126833333Y-126880952D01*
X126880952Y-126785714D01*
X126928571Y-126738095D01*
X127023809Y-126690476D01*
X127261904Y-126690476D01*
X127357142Y-126738095D01*
X127404761Y-126785714D01*
X127452380Y-126880952D01*
X127452380Y-127166666D01*
X127404761Y-127261904D01*
X127357142Y-127309523D01*
X126452380Y-125785714D02*
X126452380Y-126261904D01*
X126928571Y-126309523D01*
X126880952Y-126261904D01*
X126833333Y-126166666D01*
X126833333Y-125928571D01*
X126880952Y-125833333D01*
X126928571Y-125785714D01*
X127023809Y-125738095D01*
X127261904Y-125738095D01*
X127357142Y-125785714D01*
X127404761Y-125833333D01*
X127452380Y-125928571D01*
X127452380Y-126166666D01*
X127404761Y-126261904D01*
X127357142Y-126309523D01*
%TO.C,C1*%
X117370389Y-136365312D02*
X117437732Y-136365312D01*
X117572419Y-136432656D01*
X117639763Y-136500000D01*
X117707106Y-136634687D01*
X117707106Y-136769374D01*
X117673435Y-136870389D01*
X117572419Y-137038748D01*
X117471404Y-137139763D01*
X117303045Y-137240778D01*
X117202030Y-137274450D01*
X117067343Y-137274450D01*
X116932656Y-137207106D01*
X116865312Y-137139763D01*
X116797969Y-137005076D01*
X116797969Y-136937732D01*
X116764297Y-135624534D02*
X117168358Y-136028595D01*
X116966328Y-135826564D02*
X116259221Y-136533671D01*
X116427580Y-136500000D01*
X116562267Y-136500000D01*
X116663282Y-136533671D01*
%TO.C,C28*%
X119707106Y-134702030D02*
X119774450Y-134702030D01*
X119909137Y-134769374D01*
X119976480Y-134836717D01*
X120043824Y-134971404D01*
X120043824Y-135106091D01*
X120010152Y-135207106D01*
X119909137Y-135375465D01*
X119808122Y-135476480D01*
X119639763Y-135577496D01*
X119538748Y-135611167D01*
X119404061Y-135611167D01*
X119269374Y-135543824D01*
X119202030Y-135476480D01*
X119134687Y-135341793D01*
X119134687Y-135274450D01*
X118865312Y-135005076D02*
X118797969Y-135005076D01*
X118696954Y-134971404D01*
X118528595Y-134803045D01*
X118494923Y-134702030D01*
X118494923Y-134634687D01*
X118528595Y-134533671D01*
X118595938Y-134466328D01*
X118730625Y-134398984D01*
X119538748Y-134398984D01*
X119101015Y-133961251D01*
X118292893Y-133961251D02*
X118326564Y-134062267D01*
X118326564Y-134129610D01*
X118292893Y-134230625D01*
X118259221Y-134264297D01*
X118158206Y-134297969D01*
X118090862Y-134297969D01*
X117989847Y-134264297D01*
X117855160Y-134129610D01*
X117821488Y-134028595D01*
X117821488Y-133961251D01*
X117855160Y-133860236D01*
X117888832Y-133826564D01*
X117989847Y-133792893D01*
X118057190Y-133792893D01*
X118158206Y-133826564D01*
X118292893Y-133961251D01*
X118393908Y-133994923D01*
X118461251Y-133994923D01*
X118562267Y-133961251D01*
X118696954Y-133826564D01*
X118730625Y-133725549D01*
X118730625Y-133658206D01*
X118696954Y-133557190D01*
X118562267Y-133422503D01*
X118461251Y-133388832D01*
X118393908Y-133388832D01*
X118292893Y-133422503D01*
X118158206Y-133557190D01*
X118124534Y-133658206D01*
X118124534Y-133725549D01*
X118158206Y-133826564D01*
%TO.C,C27*%
X118797969Y-65707106D02*
X118797969Y-65774450D01*
X118730625Y-65909137D01*
X118663282Y-65976480D01*
X118528595Y-66043824D01*
X118393908Y-66043824D01*
X118292893Y-66010152D01*
X118124534Y-65909137D01*
X118023519Y-65808122D01*
X117922503Y-65639763D01*
X117888832Y-65538748D01*
X117888832Y-65404061D01*
X117956175Y-65269374D01*
X118023519Y-65202030D01*
X118158206Y-65134687D01*
X118225549Y-65134687D01*
X118494923Y-64865312D02*
X118494923Y-64797969D01*
X118528595Y-64696954D01*
X118696954Y-64528595D01*
X118797969Y-64494923D01*
X118865312Y-64494923D01*
X118966328Y-64528595D01*
X119033671Y-64595938D01*
X119101015Y-64730625D01*
X119101015Y-65538748D01*
X119538748Y-65101015D01*
X119067343Y-64158206D02*
X119538748Y-63686801D01*
X119942809Y-64696954D01*
%TO.C,J18*%
X123290476Y-84052380D02*
X123290476Y-84766666D01*
X123242857Y-84909523D01*
X123147619Y-85004761D01*
X123004761Y-85052380D01*
X122909523Y-85052380D01*
X124290476Y-85052380D02*
X123719047Y-85052380D01*
X124004761Y-85052380D02*
X124004761Y-84052380D01*
X123909523Y-84195238D01*
X123814285Y-84290476D01*
X123719047Y-84338095D01*
X124861904Y-84480952D02*
X124766666Y-84433333D01*
X124719047Y-84385714D01*
X124671428Y-84290476D01*
X124671428Y-84242857D01*
X124719047Y-84147619D01*
X124766666Y-84100000D01*
X124861904Y-84052380D01*
X125052380Y-84052380D01*
X125147619Y-84100000D01*
X125195238Y-84147619D01*
X125242857Y-84242857D01*
X125242857Y-84290476D01*
X125195238Y-84385714D01*
X125147619Y-84433333D01*
X125052380Y-84480952D01*
X124861904Y-84480952D01*
X124766666Y-84528571D01*
X124719047Y-84576190D01*
X124671428Y-84671428D01*
X124671428Y-84861904D01*
X124719047Y-84957142D01*
X124766666Y-85004761D01*
X124861904Y-85052380D01*
X125052380Y-85052380D01*
X125147619Y-85004761D01*
X125195238Y-84957142D01*
X125242857Y-84861904D01*
X125242857Y-84671428D01*
X125195238Y-84576190D01*
X125147619Y-84528571D01*
X125052380Y-84480952D01*
%TO.C,C29*%
X114797969Y-61707106D02*
X114797969Y-61774450D01*
X114730625Y-61909137D01*
X114663282Y-61976480D01*
X114528595Y-62043824D01*
X114393908Y-62043824D01*
X114292893Y-62010152D01*
X114124534Y-61909137D01*
X114023519Y-61808122D01*
X113922503Y-61639763D01*
X113888832Y-61538748D01*
X113888832Y-61404061D01*
X113956175Y-61269374D01*
X114023519Y-61202030D01*
X114158206Y-61134687D01*
X114225549Y-61134687D01*
X114494923Y-60865312D02*
X114494923Y-60797969D01*
X114528595Y-60696954D01*
X114696954Y-60528595D01*
X114797969Y-60494923D01*
X114865312Y-60494923D01*
X114966328Y-60528595D01*
X115033671Y-60595938D01*
X115101015Y-60730625D01*
X115101015Y-61538748D01*
X115538748Y-61101015D01*
X115875465Y-60764297D02*
X116010152Y-60629610D01*
X116043824Y-60528595D01*
X116043824Y-60461251D01*
X116010152Y-60292893D01*
X115909137Y-60124534D01*
X115639763Y-59855160D01*
X115538748Y-59821488D01*
X115471404Y-59821488D01*
X115370389Y-59855160D01*
X115235702Y-59989847D01*
X115202030Y-60090862D01*
X115202030Y-60158206D01*
X115235702Y-60259221D01*
X115404061Y-60427580D01*
X115505076Y-60461251D01*
X115572419Y-60461251D01*
X115673435Y-60427580D01*
X115808122Y-60292893D01*
X115841793Y-60191877D01*
X115841793Y-60124534D01*
X115808122Y-60023519D01*
%TO.C,J13*%
X102237054Y-141568899D02*
X102742130Y-142073975D01*
X102809473Y-142208662D01*
X102809473Y-142343349D01*
X102742130Y-142478036D01*
X102674786Y-142545380D01*
X103651267Y-141568899D02*
X103247206Y-141972960D01*
X103449237Y-141770930D02*
X102742130Y-141063823D01*
X102775802Y-141232182D01*
X102775802Y-141366869D01*
X102742130Y-141467884D01*
X103179863Y-140626090D02*
X103617595Y-140188357D01*
X103651267Y-140693434D01*
X103752282Y-140592418D01*
X103853298Y-140558747D01*
X103920641Y-140558747D01*
X104021656Y-140592418D01*
X104190015Y-140760777D01*
X104223687Y-140861792D01*
X104223687Y-140929136D01*
X104190015Y-141030151D01*
X103987985Y-141232182D01*
X103886969Y-141265853D01*
X103819626Y-141265853D01*
X102856614Y-146330085D02*
X102856614Y-146397429D01*
X102789271Y-146532116D01*
X102721927Y-146599459D01*
X102587240Y-146666803D01*
X102452553Y-146666803D01*
X102351538Y-146633131D01*
X102183179Y-146532116D01*
X102082164Y-146431100D01*
X101981149Y-146262742D01*
X101947477Y-146161726D01*
X101947477Y-146027039D01*
X102014820Y-145892352D01*
X102082164Y-145825009D01*
X102216851Y-145757665D01*
X102284194Y-145757665D01*
X103328019Y-145993368D02*
X103227003Y-146027039D01*
X103159660Y-146027039D01*
X103058645Y-145993368D01*
X102856614Y-145791337D01*
X102822942Y-145690322D01*
X102822942Y-145622978D01*
X102856614Y-145521963D01*
X102957629Y-145420948D01*
X103058645Y-145387276D01*
X103125988Y-145387276D01*
X103227003Y-145420948D01*
X103429034Y-145622978D01*
X103462706Y-145723994D01*
X103462706Y-145791337D01*
X103429034Y-145892352D01*
X103328019Y-145993368D01*
X103395362Y-144983215D02*
X103866767Y-145454620D01*
X103462706Y-145050559D02*
X103462706Y-144983215D01*
X103496377Y-144882200D01*
X103597393Y-144781185D01*
X103698408Y-144747513D01*
X103799423Y-144781185D01*
X104169812Y-145151574D01*
X104035125Y-144343452D02*
X104506530Y-144814856D01*
X104102469Y-144410795D02*
X104102469Y-144343452D01*
X104136141Y-144242437D01*
X104237156Y-144141421D01*
X104338171Y-144107750D01*
X104439186Y-144141421D01*
X104809576Y-144511811D01*
X105045278Y-144410795D02*
X105584026Y-143872047D01*
X105112621Y-142794551D02*
X105179965Y-142727208D01*
X105280980Y-142693536D01*
X105348324Y-142693536D01*
X105449339Y-142727208D01*
X105617698Y-142828223D01*
X105786057Y-142996582D01*
X105887072Y-143164940D01*
X105920744Y-143265956D01*
X105920744Y-143333299D01*
X105887072Y-143434315D01*
X105819728Y-143501658D01*
X105718713Y-143535330D01*
X105651370Y-143535330D01*
X105550354Y-143501658D01*
X105381996Y-143400643D01*
X105213637Y-143232284D01*
X105112621Y-143063925D01*
X105078950Y-142962910D01*
X105078950Y-142895566D01*
X105112621Y-142794551D01*
X106728866Y-142592521D02*
X106324805Y-142996582D01*
X106526835Y-142794551D02*
X105819728Y-142087444D01*
X105853400Y-142255803D01*
X105853400Y-142390490D01*
X105819728Y-142491505D01*
X106964568Y-142356818D02*
X106863553Y-141515025D01*
X106493163Y-141885414D02*
X107334957Y-141986429D01*
X107031911Y-140875261D02*
X107099255Y-140807918D01*
X107200270Y-140774246D01*
X107267614Y-140774246D01*
X107368629Y-140807918D01*
X107536988Y-140908933D01*
X107705346Y-141077292D01*
X107806362Y-141245651D01*
X107840033Y-141346666D01*
X107840033Y-141414009D01*
X107806362Y-141515025D01*
X107739018Y-141582368D01*
X107638003Y-141616040D01*
X107570659Y-141616040D01*
X107469644Y-141582368D01*
X107301285Y-141481353D01*
X107132927Y-141312994D01*
X107031911Y-141144635D01*
X106998240Y-141043620D01*
X106998240Y-140976277D01*
X107031911Y-140875261D01*
X107907377Y-139999796D02*
X107570659Y-140336513D01*
X107873705Y-140706903D01*
X107873705Y-140639559D01*
X107907377Y-140538544D01*
X108075736Y-140370185D01*
X108176751Y-140336513D01*
X108244094Y-140336513D01*
X108345110Y-140370185D01*
X108513468Y-140538544D01*
X108547140Y-140639559D01*
X108547140Y-140706903D01*
X108513468Y-140807918D01*
X108345110Y-140976277D01*
X108244094Y-141009948D01*
X108176751Y-141009948D01*
X107476378Y-142976378D02*
X107644737Y-143144737D01*
X107409035Y-143245752D02*
X107644737Y-143144737D01*
X107745752Y-142909035D01*
X107678409Y-143380439D02*
X107644737Y-143144737D01*
X107880439Y-143178409D01*
%TO.C,SW2*%
X118404761Y-129333333D02*
X118452380Y-129190476D01*
X118452380Y-128952380D01*
X118404761Y-128857142D01*
X118357142Y-128809523D01*
X118261904Y-128761904D01*
X118166666Y-128761904D01*
X118071428Y-128809523D01*
X118023809Y-128857142D01*
X117976190Y-128952380D01*
X117928571Y-129142857D01*
X117880952Y-129238095D01*
X117833333Y-129285714D01*
X117738095Y-129333333D01*
X117642857Y-129333333D01*
X117547619Y-129285714D01*
X117500000Y-129238095D01*
X117452380Y-129142857D01*
X117452380Y-128904761D01*
X117500000Y-128761904D01*
X117452380Y-128428571D02*
X118452380Y-128190476D01*
X117738095Y-128000000D01*
X118452380Y-127809523D01*
X117452380Y-127571428D01*
X117547619Y-127238095D02*
X117500000Y-127190476D01*
X117452380Y-127095238D01*
X117452380Y-126857142D01*
X117500000Y-126761904D01*
X117547619Y-126714285D01*
X117642857Y-126666666D01*
X117738095Y-126666666D01*
X117880952Y-126714285D01*
X118452380Y-127285714D01*
X118452380Y-126666666D01*
D14*
%TO.C,J2*%
X107750000Y-81575000D02*
X107750000Y-81875000D01*
X106650000Y-88125000D02*
X106650000Y-87825000D01*
X106650000Y-81875000D02*
X106650000Y-82175000D01*
X108500000Y-88125000D02*
X109500000Y-88125000D01*
X107750000Y-81875000D02*
X106650000Y-81875000D01*
X106650000Y-82175000D02*
X106200000Y-82175000D01*
X106650000Y-86625000D02*
X106350000Y-86625000D01*
X109500000Y-88125000D02*
X109500000Y-81875000D01*
X106650000Y-84125000D02*
X106350000Y-84125000D01*
X107750000Y-88125000D02*
X106650000Y-88125000D01*
X110110000Y-88735000D02*
X110110000Y-86825000D01*
X106350000Y-84125000D02*
X106350000Y-83375000D01*
X108200000Y-88735000D02*
X110110000Y-88735000D01*
X108500000Y-88425000D02*
X108500000Y-88125000D01*
X106650000Y-87825000D02*
X106650000Y-86625000D01*
X109800000Y-81575000D02*
X106200000Y-81575000D01*
X106650000Y-85875000D02*
X106650000Y-84125000D01*
X106200000Y-88425000D02*
X109800000Y-88425000D01*
X106350000Y-86625000D02*
X106350000Y-85875000D01*
X109500000Y-81875000D02*
X108500000Y-81875000D01*
X106350000Y-85875000D02*
X106650000Y-85875000D01*
X106350000Y-83375000D02*
X106650000Y-83375000D01*
X106650000Y-83375000D02*
X106650000Y-82175000D01*
X108500000Y-81875000D02*
X108500000Y-81575000D01*
X107750000Y-88425000D02*
X107750000Y-88125000D01*
X106650000Y-87825000D02*
X106200000Y-87825000D01*
X109800000Y-88425000D02*
X109800000Y-81575000D01*
X106200000Y-81575000D02*
X106200000Y-88425000D01*
%TO.C,J10*%
X103700000Y-130500000D02*
G75*
G03*
X103700000Y-130500000I-700000J0D01*
G01*
%TO.C,J8*%
X101200000Y-69500000D02*
G75*
G03*
X101200000Y-69500000I-700000J0D01*
G01*
%TO.C,U2*%
X117130000Y-72300000D02*
X117130000Y-73440000D01*
X117360000Y-73440000D02*
X117360000Y-76160000D01*
X113950000Y-76160000D02*
X112640000Y-76160000D01*
X112640000Y-73440000D02*
X112870000Y-73440000D01*
X117360000Y-73440000D02*
X117130000Y-73440000D01*
X117360000Y-76160000D02*
X116050000Y-76160000D01*
X112640000Y-76160000D02*
X112640000Y-73440000D01*
%TO.C,D2*%
X119697500Y-114765000D02*
X117412500Y-114765000D01*
X117412500Y-116235000D02*
X119697500Y-116235000D01*
X119697500Y-116235000D02*
X119697500Y-114765000D01*
%TO.C,J16*%
X125100000Y-119500000D02*
G75*
G03*
X125100000Y-119500000I-1700000J0D01*
G01*
%TO.C,SW4*%
X111980000Y-130070000D02*
X111680000Y-130070000D01*
X114520000Y-125930000D02*
X114820000Y-125930000D01*
X111680000Y-125930000D02*
X111980000Y-125930000D01*
X111680000Y-130070000D02*
X111680000Y-125930000D01*
X114820000Y-130070000D02*
X114520000Y-130070000D01*
X114820000Y-125930000D02*
X114820000Y-130070000D01*
%TO.C,C37*%
X125211252Y-69590000D02*
X123788748Y-69590000D01*
X125211252Y-71410000D02*
X123788748Y-71410000D01*
%TO.C,C49*%
X113711252Y-79410000D02*
X112288748Y-79410000D01*
X113711252Y-77590000D02*
X112288748Y-77590000D01*
%TO.C,C48*%
X117288748Y-79410000D02*
X118711252Y-79410000D01*
X117288748Y-77590000D02*
X118711252Y-77590000D01*
%TO.C,J7*%
X103200000Y-69500000D02*
G75*
G03*
X103200000Y-69500000I-700000J0D01*
G01*
%TO.C,R26*%
X128985000Y-79272742D02*
X128985000Y-78852258D01*
X125015000Y-79272742D02*
X125015000Y-78852258D01*
%TO.C,C26*%
X125146398Y-135359464D02*
X124140536Y-134353602D01*
X123859464Y-136646398D02*
X122853602Y-135640536D01*
%TO.C,SW5*%
X108180000Y-125930000D02*
X108480000Y-125930000D01*
X111020000Y-125930000D02*
X111320000Y-125930000D01*
X111320000Y-130070000D02*
X111020000Y-130070000D01*
X111320000Y-125930000D02*
X111320000Y-130070000D01*
X108480000Y-130070000D02*
X108180000Y-130070000D01*
X108180000Y-130070000D02*
X108180000Y-125930000D01*
%TO.C,J19*%
X125100000Y-112100000D02*
G75*
G03*
X125100000Y-112100000I-1700000J0D01*
G01*
%TO.C,D14*%
X110015000Y-71235000D02*
X112300000Y-71235000D01*
X112300000Y-69765000D02*
X110015000Y-69765000D01*
X110015000Y-69765000D02*
X110015000Y-71235000D01*
%TO.C,J12*%
X103510059Y-50388560D02*
X100236183Y-53662436D01*
X108109752Y-54988254D02*
X107925962Y-54804463D01*
X107837565Y-61263818D02*
X111111441Y-57989942D01*
X101503290Y-49880857D02*
X102401315Y-48982832D01*
X103029933Y-50509475D02*
X101503290Y-49880857D01*
X111111441Y-57989942D02*
X109340175Y-56218676D01*
X102401315Y-48982832D02*
X103029933Y-50509475D01*
X105281325Y-52159826D02*
X103510059Y-50388560D01*
X106695539Y-53574041D02*
X106511748Y-53390249D01*
X98920234Y-57041733D02*
X104458268Y-62579768D01*
%TO.C,D1*%
X119697500Y-117265000D02*
X117412500Y-117265000D01*
X119697500Y-118735000D02*
X119697500Y-117265000D01*
X117412500Y-118735000D02*
X119697500Y-118735000D01*
%TO.C,C36*%
X125211252Y-67090000D02*
X123788748Y-67090000D01*
X125211252Y-68910000D02*
X123788748Y-68910000D01*
%TO.C,J11*%
X125785000Y-99060000D02*
X130685000Y-99060000D01*
X121465000Y-99060000D02*
X123565000Y-99060000D01*
X123565000Y-99650000D02*
X123565000Y-99060000D01*
X125785000Y-99650000D02*
X125785000Y-99060000D01*
X121465000Y-99060000D02*
X121465000Y-88940000D01*
X123565000Y-88940000D02*
X123565000Y-88350000D01*
X125785000Y-88940000D02*
X125785000Y-88350000D01*
X130685000Y-99060000D02*
X130685000Y-88940000D01*
X125785000Y-88940000D02*
X130685000Y-88940000D01*
X121465000Y-88940000D02*
X123565000Y-88940000D01*
X123565000Y-99650000D02*
G75*
G03*
X125785000Y-99650000I1110000J0D01*
G01*
X125785000Y-88350000D02*
G75*
G03*
X123565000Y-88350000I-1110000J0D01*
G01*
%TO.C,J6*%
X105868808Y-80277996D02*
X105550610Y-80596194D01*
X99858400Y-74691852D02*
X100070532Y-74479720D01*
X99787690Y-72641243D02*
X99009872Y-73419060D01*
X99222004Y-73631192D02*
X98903806Y-73949390D01*
X104489950Y-78899138D02*
X100600862Y-75010050D01*
X101025126Y-71403806D02*
X100318020Y-72110913D01*
X107601220Y-79394113D02*
X107389087Y-79181980D01*
X100318020Y-72110913D02*
X100105888Y-71898781D01*
X105974874Y-81020458D02*
X108520458Y-78474874D01*
X107070889Y-79924443D02*
X106858757Y-79712311D01*
X108958865Y-78474874D02*
X107608291Y-77124300D01*
X106080940Y-80490128D02*
X105868808Y-80277996D01*
X105020280Y-79429468D02*
X104808148Y-79641600D01*
X100388730Y-75222183D02*
X99858400Y-74691852D01*
X108520458Y-78474874D02*
X101025126Y-70979542D01*
X101025126Y-70979542D02*
X98479542Y-73525126D01*
X100600862Y-75010050D02*
X100388730Y-75222183D01*
X99009872Y-73419060D02*
X99222004Y-73631192D01*
X108096194Y-78474874D02*
X101025126Y-71403806D01*
X99575558Y-72429111D02*
X99787690Y-72641243D01*
X104808148Y-79641600D02*
X104277818Y-79111270D01*
X106858757Y-79712311D02*
X106080940Y-80490128D01*
X98479542Y-73525126D02*
X105974874Y-81020458D01*
X107608291Y-79825448D02*
X108958865Y-78474874D01*
X107389087Y-79181980D02*
X108096194Y-78474874D01*
X100070532Y-74479720D02*
X99222004Y-73631192D01*
X104277818Y-79111270D02*
X104489950Y-78899138D01*
X105868808Y-80277996D02*
X105020280Y-79429468D01*
%TO.C,C3*%
X119189381Y-141402447D02*
X118183519Y-140396585D01*
X117902447Y-142689381D02*
X116896585Y-141683519D01*
%TO.C,C25*%
X124646398Y-64640536D02*
X123640536Y-65646398D01*
X123359464Y-63353602D02*
X122353602Y-64359464D01*
%TO.C,SW3*%
X118020000Y-125930000D02*
X118320000Y-125930000D01*
X118320000Y-125930000D02*
X118320000Y-130070000D01*
X115180000Y-125930000D02*
X115480000Y-125930000D01*
X118320000Y-130070000D02*
X118020000Y-130070000D01*
X115480000Y-130070000D02*
X115180000Y-130070000D01*
X115180000Y-130070000D02*
X115180000Y-125930000D01*
%TO.C,C4*%
X119410000Y-74711252D02*
X119410000Y-73288748D01*
X117590000Y-74711252D02*
X117590000Y-73288748D01*
%TO.C,L1*%
X116550000Y-80450000D02*
X111450000Y-80450000D01*
X116550000Y-85550000D02*
X111450000Y-85550000D01*
%TO.C,D20*%
X121000000Y-84700000D02*
X119000000Y-84700000D01*
X119000000Y-81500000D02*
X119000000Y-84700000D01*
X121000000Y-84700000D02*
X121000000Y-81500000D01*
%TO.C,D4*%
X119697500Y-119765000D02*
X117412500Y-119765000D01*
X117412500Y-121235000D02*
X119697500Y-121235000D01*
X119697500Y-121235000D02*
X119697500Y-119765000D01*
%TO.C,SW1*%
X109570000Y-71430000D02*
X109570000Y-75570000D01*
X106730000Y-75570000D02*
X106430000Y-75570000D01*
X106430000Y-71430000D02*
X106730000Y-71430000D01*
X109570000Y-75570000D02*
X109270000Y-75570000D01*
X109270000Y-71430000D02*
X109570000Y-71430000D01*
X106430000Y-75570000D02*
X106430000Y-71430000D01*
%TO.C,C34*%
X125211252Y-72590000D02*
X123788748Y-72590000D01*
X125211252Y-74410000D02*
X123788748Y-74410000D01*
%TO.C,R20*%
X128985000Y-121289758D02*
X128985000Y-121710242D01*
X125015000Y-121289758D02*
X125015000Y-121710242D01*
%TO.C,J1*%
X105200000Y-69500000D02*
G75*
G03*
X105200000Y-69500000I-700000J0D01*
G01*
%TO.C,C33*%
X125211252Y-132910000D02*
X123788748Y-132910000D01*
X125211252Y-131090000D02*
X123788748Y-131090000D01*
%TO.C,C32*%
X125211252Y-76910000D02*
X123788748Y-76910000D01*
X125211252Y-75090000D02*
X123788748Y-75090000D01*
%TO.C,C2*%
X112410000Y-74711252D02*
X112410000Y-73288748D01*
X110590000Y-74711252D02*
X110590000Y-73288748D01*
%TO.C,J3*%
X109350000Y-116500000D02*
X109350000Y-117700000D01*
X109350000Y-112050000D02*
X109800000Y-112050000D01*
X109650000Y-113250000D02*
X109650000Y-114000000D01*
X109350000Y-118000000D02*
X109350000Y-117700000D01*
X108250000Y-111450000D02*
X108250000Y-111750000D01*
X107500000Y-111750000D02*
X106500000Y-111750000D01*
X108250000Y-111750000D02*
X109350000Y-111750000D01*
X109350000Y-113250000D02*
X109650000Y-113250000D01*
X108250000Y-118000000D02*
X109350000Y-118000000D01*
X109650000Y-115750000D02*
X109650000Y-116500000D01*
X109350000Y-111750000D02*
X109350000Y-112050000D01*
X107800000Y-111140000D02*
X105890000Y-111140000D01*
X108250000Y-118300000D02*
X108250000Y-118000000D01*
X106500000Y-118000000D02*
X107500000Y-118000000D01*
X109350000Y-114000000D02*
X109350000Y-115750000D01*
X109650000Y-116500000D02*
X109350000Y-116500000D01*
X107500000Y-111450000D02*
X107500000Y-111750000D01*
X106500000Y-111750000D02*
X106500000Y-118000000D01*
X109800000Y-111450000D02*
X106200000Y-111450000D01*
X106200000Y-111450000D02*
X106200000Y-118300000D01*
X109800000Y-118300000D02*
X109800000Y-111450000D01*
X109650000Y-114000000D02*
X109350000Y-114000000D01*
X107500000Y-118000000D02*
X107500000Y-118300000D01*
X106200000Y-118300000D02*
X109800000Y-118300000D01*
X105890000Y-111140000D02*
X105890000Y-113050000D01*
X109350000Y-117700000D02*
X109800000Y-117700000D01*
X109350000Y-112050000D02*
X109350000Y-113250000D01*
X109350000Y-115750000D02*
X109650000Y-115750000D01*
%TO.C,C38*%
X98761219Y-150539970D02*
X98960030Y-150738781D01*
X98039970Y-151261219D02*
X98238781Y-151460030D01*
%TO.C,C10*%
X125211252Y-123590000D02*
X123788748Y-123590000D01*
X125211252Y-125410000D02*
X123788748Y-125410000D01*
%TO.C,J15*%
X126490000Y-111060000D02*
X128540000Y-111060000D01*
X126490000Y-111060000D02*
X126490000Y-110530000D01*
X130760000Y-111760000D02*
X130760000Y-100240000D01*
X126490000Y-100940000D02*
X128540000Y-100940000D01*
X120490000Y-110530000D02*
X126490000Y-110530000D01*
X120490000Y-110530000D02*
X120490000Y-101500000D01*
X120490000Y-101470000D02*
X126490000Y-101470000D01*
X126490000Y-101470000D02*
X126490000Y-100940000D01*
X128540000Y-111760000D02*
X128540000Y-111060000D01*
X128540000Y-100940000D02*
X128540000Y-100240000D01*
X128540000Y-111650000D02*
G75*
G03*
X130746635Y-111821729I1110000J1D01*
G01*
X130760000Y-100350000D02*
G75*
G03*
X128540000Y-100350000I-1110000J0D01*
G01*
%TO.C,J17*%
X125100000Y-85600000D02*
G75*
G03*
X125100000Y-85600000I-1700000J0D01*
G01*
%TO.C,J5*%
X99373654Y-127565685D02*
X99585786Y-127353553D01*
X104818377Y-120565328D02*
X105666905Y-119716800D01*
X98807969Y-126575736D02*
X99020101Y-126363604D01*
X100186827Y-124772614D02*
X100398959Y-124984746D01*
X99585786Y-127353553D02*
X98807969Y-126575736D01*
X106868986Y-120070354D02*
X106656854Y-120282486D01*
X105879037Y-119504668D02*
X105666905Y-119716800D01*
X100823223Y-129453661D02*
X102173797Y-128103087D01*
X99472649Y-128103087D02*
X100823223Y-129453661D01*
X100823223Y-129015254D02*
X108318555Y-121519922D01*
X107187184Y-120812816D02*
X107399316Y-120600684D01*
X105666905Y-119716800D02*
X105348707Y-119398602D01*
X100823223Y-128590990D02*
X107894291Y-121519922D01*
X100398959Y-124984746D02*
X104288047Y-121095658D01*
X107894291Y-121519922D02*
X107187184Y-120812816D01*
X98277639Y-126469670D02*
X100823223Y-129015254D01*
X99656497Y-125302944D02*
X100186827Y-124772614D01*
X99020101Y-126363604D02*
X98701903Y-126045406D01*
X104288047Y-121095658D02*
X104075914Y-120883526D01*
X99868629Y-125515076D02*
X99656497Y-125302944D01*
X100116117Y-127883883D02*
X100823223Y-128590990D01*
X105772971Y-118974338D02*
X98277639Y-126469670D01*
X99903984Y-128096016D02*
X100116117Y-127883883D01*
X104075914Y-120883526D02*
X104606245Y-120353196D01*
X104606245Y-120353196D02*
X104818377Y-120565328D01*
X108318555Y-121519922D02*
X105772971Y-118974338D01*
X106656854Y-120282486D02*
X105879037Y-119504668D01*
X99020101Y-126363604D02*
X99868629Y-125515076D01*
%TO.C,D3*%
X119697500Y-112265000D02*
X117412500Y-112265000D01*
X119697500Y-113735000D02*
X119697500Y-112265000D01*
X117412500Y-113735000D02*
X119697500Y-113735000D01*
%TO.C,J9*%
X101700000Y-130500000D02*
G75*
G03*
X101700000Y-130500000I-700000J0D01*
G01*
%TO.C,C39*%
X98761219Y-49460030D02*
X98960030Y-49261219D01*
X98039970Y-48738781D02*
X98238781Y-48539970D01*
%TO.C,J14*%
X105700000Y-130500000D02*
G75*
G03*
X105700000Y-130500000I-700000J0D01*
G01*
%TO.C,D15*%
X115800000Y-69765000D02*
X113515000Y-69765000D01*
X113515000Y-71235000D02*
X115800000Y-71235000D01*
X113515000Y-69765000D02*
X113515000Y-71235000D01*
D15*
%TO.C,J4*%
X116300000Y-112000000D02*
X116300000Y-122500000D01*
X116300000Y-112000000D02*
X112800000Y-112000000D01*
X112800000Y-122500000D02*
X112800000Y-112000000D01*
X116300000Y-122500000D02*
X112800000Y-122500000D01*
D14*
%TO.C,C31*%
X125211252Y-128590000D02*
X123788748Y-128590000D01*
X125211252Y-130410000D02*
X123788748Y-130410000D01*
%TO.C,C30*%
X120646398Y-60640536D02*
X119640536Y-61646398D01*
X119359464Y-59353602D02*
X118353602Y-60359464D01*
%TO.C,C35*%
X125211252Y-126090000D02*
X123788748Y-126090000D01*
X125211252Y-127910000D02*
X123788748Y-127910000D01*
%TO.C,C1*%
X119859464Y-140646398D02*
X118853602Y-139640536D01*
X121146398Y-139359464D02*
X120140536Y-138353602D01*
%TO.C,C28*%
X121859464Y-138646398D02*
X120853602Y-137640536D01*
X123146398Y-137359464D02*
X122140536Y-136353602D01*
%TO.C,C27*%
X122646398Y-62640536D02*
X121640536Y-63646398D01*
X121359464Y-61353602D02*
X120353602Y-62359464D01*
%TO.C,J18*%
X125100000Y-82100000D02*
G75*
G03*
X125100000Y-82100000I-1700000J0D01*
G01*
%TO.C,C29*%
X118646398Y-58640536D02*
X117640536Y-59646398D01*
X117359464Y-57353602D02*
X116353602Y-58359464D01*
%TO.C,J13*%
X106587304Y-146513736D02*
X106771095Y-146329946D01*
X112592726Y-140805299D02*
X111066083Y-141433917D01*
X100311740Y-146241549D02*
X103585616Y-149515425D01*
X103585616Y-149515425D02*
X105356882Y-147744159D01*
X111066083Y-141433917D02*
X111694701Y-139907274D01*
X108001517Y-145099523D02*
X108185309Y-144915732D01*
X111694701Y-139907274D02*
X112592726Y-140805299D01*
X104533825Y-137324218D02*
X98995790Y-142862252D01*
X109415732Y-143685309D02*
X111186998Y-141914043D01*
X111186998Y-141914043D02*
X107913122Y-138640167D01*
%TO.C,SW2*%
X118980000Y-130070000D02*
X118680000Y-130070000D01*
X118680000Y-125930000D02*
X118980000Y-125930000D01*
X121820000Y-125930000D02*
X121820000Y-130070000D01*
X121820000Y-130070000D02*
X121520000Y-130070000D01*
X118680000Y-130070000D02*
X118680000Y-125930000D01*
X121520000Y-125930000D02*
X121820000Y-125930000D01*
%TD*%
M02*
