%TF.GenerationSoftware,KiCad,Pcbnew,(6.0.11)*%
%TF.CreationDate,2024-04-02T23:15:32+09:00*%
%TF.ProjectId,ORION_VV_driver_v4,4f52494f-4e5f-4565-965f-647269766572,rev?*%
%TF.SameCoordinates,Original*%
%TF.FileFunction,Soldermask,Top*%
%TF.FilePolarity,Negative*%
%FSLAX46Y46*%
G04 Gerber Fmt 4.6, Leading zero omitted, Abs format (unit mm)*
G04 Created by KiCad (PCBNEW (6.0.11)) date 2024-04-02 23:15:32*
%MOMM*%
%LPD*%
G01*
G04 APERTURE LIST*
G04 Aperture macros list*
%AMRoundRect*
0 Rectangle with rounded corners*
0 $1 Rounding radius*
0 $2 $3 $4 $5 $6 $7 $8 $9 X,Y pos of 4 corners*
0 Add a 4 corners polygon primitive as box body*
4,1,4,$2,$3,$4,$5,$6,$7,$8,$9,$2,$3,0*
0 Add four circle primitives for the rounded corners*
1,1,$1+$1,$2,$3*
1,1,$1+$1,$4,$5*
1,1,$1+$1,$6,$7*
1,1,$1+$1,$8,$9*
0 Add four rect primitives between the rounded corners*
20,1,$1+$1,$2,$3,$4,$5,0*
20,1,$1+$1,$4,$5,$6,$7,0*
20,1,$1+$1,$6,$7,$8,$9,0*
20,1,$1+$1,$8,$9,$2,$3,0*%
%AMHorizOval*
0 Thick line with rounded ends*
0 $1 width*
0 $2 $3 position (X,Y) of the first rounded end (center of the circle)*
0 $4 $5 position (X,Y) of the second rounded end (center of the circle)*
0 Add line between two ends*
20,1,$1,$2,$3,$4,$5,0*
0 Add two circle primitives to create the rounded ends*
1,1,$1,$2,$3*
1,1,$1,$4,$5*%
%AMRotRect*
0 Rectangle, with rotation*
0 The origin of the aperture is its center*
0 $1 length*
0 $2 width*
0 $3 Rotation angle, in degrees counterclockwise*
0 Add horizontal line*
21,1,$1,$2,0,0,$3*%
%AMFreePoly0*
4,1,9,3.862500,-0.866500,0.737500,-0.866500,0.737500,-0.450000,-0.737500,-0.450000,-0.737500,0.450000,0.737500,0.450000,0.737500,0.866500,3.862500,0.866500,3.862500,-0.866500,3.862500,-0.866500,$1*%
G04 Aperture macros list end*
%ADD10RoundRect,0.225000X0.475000X-0.225000X0.475000X0.225000X-0.475000X0.225000X-0.475000X-0.225000X0*%
%ADD11O,1.400000X0.900000*%
%ADD12C,1.000000*%
%ADD13R,0.900000X1.300000*%
%ADD14FreePoly0,270.000000*%
%ADD15RoundRect,0.218750X0.218750X0.256250X-0.218750X0.256250X-0.218750X-0.256250X0.218750X-0.256250X0*%
%ADD16C,1.800000*%
%ADD17RoundRect,0.200000X0.800000X-0.200000X0.800000X0.200000X-0.800000X0.200000X-0.800000X-0.200000X0*%
%ADD18RoundRect,0.250000X0.325000X0.650000X-0.325000X0.650000X-0.325000X-0.650000X0.325000X-0.650000X0*%
%ADD19RoundRect,0.250000X-0.325000X-0.650000X0.325000X-0.650000X0.325000X0.650000X-0.325000X0.650000X0*%
%ADD20RoundRect,0.250000X1.775000X-0.262500X1.775000X0.262500X-1.775000X0.262500X-1.775000X-0.262500X0*%
%ADD21RoundRect,0.250000X0.689429X0.229810X0.229810X0.689429X-0.689429X-0.229810X-0.229810X-0.689429X0*%
%ADD22RoundRect,0.218750X-0.218750X-0.256250X0.218750X-0.256250X0.218750X0.256250X-0.218750X0.256250X0*%
%ADD23RotRect,1.100000X1.450000X135.000000*%
%ADD24RotRect,1.350000X2.899999X135.000000*%
%ADD25C,1.400000*%
%ADD26R,3.500000X3.500000*%
%ADD27C,3.500000*%
%ADD28RoundRect,0.225000X0.494975X0.176777X0.176777X0.494975X-0.494975X-0.176777X-0.176777X-0.494975X0*%
%ADD29HorizOval,0.900000X0.176777X0.176777X-0.176777X-0.176777X0*%
%ADD30RoundRect,0.250000X-0.229810X0.689429X-0.689429X0.229810X0.229810X-0.689429X0.689429X-0.229810X0*%
%ADD31RoundRect,0.250000X0.650000X-0.325000X0.650000X0.325000X-0.650000X0.325000X-0.650000X-0.325000X0*%
%ADD32R,1.500000X4.000000*%
%ADD33R,1.500000X2.400000*%
%ADD34R,1.500000X1.050000*%
%ADD35RoundRect,0.200000X-0.800000X0.200000X-0.800000X-0.200000X0.800000X-0.200000X0.800000X0.200000X0*%
%ADD36RoundRect,0.250000X-1.775000X0.262500X-1.775000X-0.262500X1.775000X-0.262500X1.775000X0.262500X0*%
%ADD37RoundRect,0.225000X-0.475000X0.225000X-0.475000X-0.225000X0.475000X-0.225000X0.475000X0.225000X0*%
%ADD38RoundRect,0.225000X-0.335876X-0.017678X-0.017678X-0.335876X0.335876X0.017678X0.017678X0.335876X0*%
%ADD39RoundRect,0.225000X0.176777X-0.494975X0.494975X-0.176777X-0.176777X0.494975X-0.494975X0.176777X0*%
%ADD40HorizOval,0.900000X-0.176777X0.176777X0.176777X-0.176777X0*%
%ADD41RoundRect,0.225000X0.017678X-0.335876X0.335876X-0.017678X-0.017678X0.335876X-0.335876X0.017678X0*%
%ADD42RoundRect,0.225000X-0.575000X0.225000X-0.575000X-0.225000X0.575000X-0.225000X0.575000X0.225000X0*%
%ADD43RotRect,1.100000X1.450000X45.000000*%
%ADD44RotRect,1.350000X2.899999X45.000000*%
G04 APERTURE END LIST*
D10*
%TO.C,J2*%
X108500000Y-86875000D03*
D11*
X108500000Y-85625000D03*
X108500000Y-84375000D03*
X108500000Y-83125000D03*
%TD*%
D12*
%TO.C,J10*%
X103000000Y-130500000D03*
%TD*%
%TO.C,J8*%
X100500000Y-69500000D03*
%TD*%
D13*
%TO.C,U2*%
X116500000Y-72850000D03*
D14*
X115000000Y-72937500D03*
D13*
X113500000Y-72850000D03*
%TD*%
D15*
%TO.C,D2*%
X119000000Y-115500000D03*
X117425000Y-115500000D03*
%TD*%
D16*
%TO.C,J16*%
X123400000Y-119500000D03*
%TD*%
D17*
%TO.C,SW4*%
X113250000Y-130100000D03*
X113250000Y-125900000D03*
%TD*%
D18*
%TO.C,C37*%
X125975000Y-70500000D03*
X123025000Y-70500000D03*
%TD*%
%TO.C,C49*%
X114475000Y-78500000D03*
X111525000Y-78500000D03*
%TD*%
D19*
%TO.C,C48*%
X116525000Y-78500000D03*
X119475000Y-78500000D03*
%TD*%
D12*
%TO.C,J7*%
X102500000Y-69500000D03*
%TD*%
D20*
%TO.C,R26*%
X127000000Y-80000000D03*
X127000000Y-78125000D03*
%TD*%
D21*
%TO.C,C26*%
X125042983Y-136542983D03*
X122957017Y-134457017D03*
%TD*%
D17*
%TO.C,SW5*%
X109750000Y-130100000D03*
X109750000Y-125900000D03*
%TD*%
D16*
%TO.C,J19*%
X123400000Y-112100000D03*
%TD*%
D22*
%TO.C,D14*%
X110712500Y-70500000D03*
X112287500Y-70500000D03*
%TD*%
D23*
%TO.C,J12*%
X105596016Y-53075558D03*
X107010230Y-54489772D03*
X108424443Y-55903985D03*
D24*
X99323981Y-55253448D03*
X106246554Y-62176020D03*
%TD*%
D15*
%TO.C,D1*%
X119000000Y-118000000D03*
X117425000Y-118000000D03*
%TD*%
D18*
%TO.C,C36*%
X125975000Y-68000000D03*
X123025000Y-68000000D03*
%TD*%
D25*
%TO.C,J11*%
X124675000Y-99500000D03*
X124675000Y-88500000D03*
D26*
X134675000Y-91500000D03*
D27*
X134675000Y-96500000D03*
%TD*%
D28*
%TO.C,J6*%
X106505204Y-78298097D03*
D29*
X105621321Y-77414214D03*
X104737437Y-76530330D03*
X103853554Y-75646447D03*
X102969670Y-74762563D03*
X102085787Y-73878680D03*
X101201903Y-72994796D03*
%TD*%
D21*
%TO.C,C3*%
X119085966Y-142585966D03*
X117000000Y-140500000D03*
%TD*%
D30*
%TO.C,C25*%
X124542983Y-63457017D03*
X122457017Y-65542983D03*
%TD*%
D17*
%TO.C,SW3*%
X116750000Y-130100000D03*
X116750000Y-125900000D03*
%TD*%
D31*
%TO.C,C4*%
X118500000Y-75475000D03*
X118500000Y-72525000D03*
%TD*%
D32*
%TO.C,L1*%
X115800000Y-83000000D03*
X112200000Y-83000000D03*
%TD*%
D33*
%TO.C,D20*%
X120000000Y-83350000D03*
D34*
X120000000Y-80975000D03*
%TD*%
D15*
%TO.C,D4*%
X119000000Y-120500000D03*
X117425000Y-120500000D03*
%TD*%
D35*
%TO.C,SW1*%
X108000000Y-71400000D03*
X108000000Y-75600000D03*
%TD*%
D18*
%TO.C,C34*%
X125975000Y-73500000D03*
X123025000Y-73500000D03*
%TD*%
D36*
%TO.C,R20*%
X127000000Y-120562500D03*
X127000000Y-122437500D03*
%TD*%
D12*
%TO.C,J1*%
X104500000Y-69500000D03*
%TD*%
D18*
%TO.C,C33*%
X125975000Y-132000000D03*
X123025000Y-132000000D03*
%TD*%
%TO.C,C32*%
X125975000Y-76000000D03*
X123025000Y-76000000D03*
%TD*%
D31*
%TO.C,C2*%
X111500000Y-75475000D03*
X111500000Y-72525000D03*
%TD*%
D37*
%TO.C,J3*%
X107500000Y-113000000D03*
D11*
X107500000Y-114250000D03*
X107500000Y-115500000D03*
X107500000Y-116750000D03*
%TD*%
D38*
%TO.C,C38*%
X97951992Y-150451992D03*
X99048008Y-151548008D03*
%TD*%
D18*
%TO.C,C10*%
X125975000Y-124500000D03*
X123025000Y-124500000D03*
%TD*%
D25*
%TO.C,J15*%
X129650000Y-111500000D03*
X129650000Y-100500000D03*
D26*
X134650000Y-108500000D03*
D27*
X134650000Y-103500000D03*
%TD*%
D16*
%TO.C,J17*%
X123400000Y-85600000D03*
%TD*%
D39*
%TO.C,J5*%
X101000000Y-127000000D03*
D40*
X101883883Y-126116117D03*
X102767767Y-125232233D03*
X103651650Y-124348350D03*
X104535534Y-123464466D03*
X105419417Y-122580583D03*
X106303301Y-121696699D03*
%TD*%
D15*
%TO.C,D3*%
X119000000Y-113000000D03*
X117425000Y-113000000D03*
%TD*%
D12*
%TO.C,J9*%
X101000000Y-130500000D03*
%TD*%
D41*
%TO.C,C39*%
X97951992Y-49548008D03*
X99048008Y-48451992D03*
%TD*%
D12*
%TO.C,J14*%
X105000000Y-130500000D03*
%TD*%
D22*
%TO.C,D15*%
X114212500Y-70500000D03*
X115787500Y-70500000D03*
%TD*%
D42*
%TO.C,J4*%
X115000000Y-113500000D03*
X115000000Y-115000000D03*
X115000000Y-116500000D03*
X115000000Y-118000000D03*
X115000000Y-119500000D03*
X115000000Y-121000000D03*
%TD*%
D18*
%TO.C,C31*%
X125975000Y-129500000D03*
X123025000Y-129500000D03*
%TD*%
D30*
%TO.C,C30*%
X120542983Y-59457017D03*
X118457017Y-61542983D03*
%TD*%
D18*
%TO.C,C35*%
X125975000Y-127000000D03*
X123025000Y-127000000D03*
%TD*%
D21*
%TO.C,C1*%
X121042983Y-140542983D03*
X118957017Y-138457017D03*
%TD*%
%TO.C,C28*%
X123042983Y-138542983D03*
X120957017Y-136457017D03*
%TD*%
D30*
%TO.C,C27*%
X122542983Y-61457017D03*
X120457017Y-63542983D03*
%TD*%
D16*
%TO.C,J18*%
X123400000Y-82100000D03*
%TD*%
D30*
%TO.C,C29*%
X118542983Y-57457017D03*
X116457017Y-59542983D03*
%TD*%
D43*
%TO.C,J13*%
X108500000Y-144000000D03*
X107085786Y-145414214D03*
X105671573Y-146828427D03*
D44*
X106322110Y-137727965D03*
X99399538Y-144650538D03*
%TD*%
D17*
%TO.C,SW2*%
X120250000Y-130100000D03*
X120250000Y-125900000D03*
%TD*%
G36*
X106544032Y-42560134D02*
G01*
X106589095Y-42589095D01*
X128963095Y-64963095D01*
X128997121Y-65025407D01*
X129000000Y-65052190D01*
X129000000Y-83981885D01*
X129007530Y-84007530D01*
X132463095Y-87463095D01*
X132497121Y-87525407D01*
X132500000Y-87552190D01*
X132500000Y-112447810D01*
X132479998Y-112515931D01*
X132463095Y-112536905D01*
X129012812Y-115987188D01*
X129000000Y-116010650D01*
X129000000Y-135447810D01*
X128979998Y-135515931D01*
X128963095Y-135536905D01*
X107089095Y-157410905D01*
X107026783Y-157444931D01*
X106955968Y-157439866D01*
X106910905Y-157410905D01*
X106089095Y-156589095D01*
X106055069Y-156526783D01*
X106060134Y-156455968D01*
X106089095Y-156410905D01*
X127487188Y-135012812D01*
X127500000Y-134989350D01*
X127500000Y-115552190D01*
X127520002Y-115484069D01*
X127536905Y-115463095D01*
X130987188Y-112012812D01*
X131000000Y-111989350D01*
X131000000Y-88018115D01*
X130992470Y-87992470D01*
X127536905Y-84536905D01*
X127502879Y-84474593D01*
X127500000Y-84447810D01*
X127500000Y-65518115D01*
X127492470Y-65492470D01*
X105589095Y-43589095D01*
X105555069Y-43526783D01*
X105560134Y-43455968D01*
X105589095Y-43410905D01*
X106410905Y-42589095D01*
X106473217Y-42555069D01*
X106544032Y-42560134D01*
G37*
M02*
