%TF.GenerationSoftware,KiCad,Pcbnew,(6.0.8)*%
%TF.CreationDate,2023-03-29T20:05:15+09:00*%
%TF.ProjectId,ORION_VV_driver_v4,4f52494f-4e5f-4565-965f-647269766572,rev?*%
%TF.SameCoordinates,Original*%
%TF.FileFunction,Profile,NP*%
%FSLAX46Y46*%
G04 Gerber Fmt 4.6, Leading zero omitted, Abs format (unit mm)*
G04 Created by KiCad (PCBNEW (6.0.8)) date 2023-03-29 20:05:15*
%MOMM*%
%LPD*%
G01*
G04 APERTURE LIST*
%TA.AperFunction,Profile*%
%ADD10C,0.200000*%
%TD*%
G04 APERTURE END LIST*
D10*
X99026736Y-125096687D02*
G75*
G03*
X98472955Y-120890339I-2380036J1826287D01*
G01*
X130052921Y-121376471D02*
G75*
G03*
X131378973Y-115921514I-76050921J21375971D01*
G01*
X98011531Y-117385094D02*
G75*
G03*
X98472955Y-120890339I1983369J-1521906D01*
G01*
X135013836Y-111565364D02*
G75*
G03*
X131378973Y-115921514I2241864J-5565236D01*
G01*
X87155928Y-140567108D02*
G75*
G03*
X87617363Y-144072360I1983472J-1521892D01*
G01*
X87617363Y-144072360D02*
X109584994Y-160928716D01*
X131378974Y-84078486D02*
G75*
G03*
X130052921Y-78623535I-77379774J-15921714D01*
G01*
X87617363Y-55927640D02*
X109584994Y-39071284D01*
X131282450Y-73084893D02*
G75*
G03*
X132260048Y-66828251I-4546550J3915093D01*
G01*
X131378945Y-84078492D02*
G75*
G03*
X135013839Y-88434629I5877055J1209392D01*
G01*
X131282449Y-73084892D02*
G75*
G03*
X130052921Y-78623535I4546651J-3915108D01*
G01*
X101594859Y-118906955D02*
G75*
G03*
X101594859Y-118906955I-1600000J0D01*
G01*
X113511703Y-39309308D02*
G75*
G03*
X109584994Y-39071284I-2100403J-2141892D01*
G01*
X87155883Y-59432927D02*
X99026731Y-74903317D01*
X99999978Y-87243169D02*
G75*
G03*
X98760120Y-83590601I-5999878J69D01*
G01*
X87155883Y-140567073D02*
X99026731Y-125096683D01*
X135013844Y-111565384D02*
G75*
G03*
X138754492Y-106455696I-2242044J5565384D01*
G01*
X87617350Y-55927623D02*
G75*
G03*
X87155883Y-59432927I1521850J-1983377D01*
G01*
X90739267Y-142088977D02*
G75*
G03*
X90739267Y-142088977I-1600000J0D01*
G01*
X138754478Y-93544305D02*
G75*
G03*
X135013839Y-88434629I-5982678J-455695D01*
G01*
X130052921Y-121376472D02*
G75*
G03*
X131282450Y-126915107I5776179J-1623528D01*
G01*
X98760120Y-116409399D02*
X98011476Y-117385052D01*
X98472953Y-79109658D02*
G75*
G03*
X98011476Y-82614948I1521817J-1983372D01*
G01*
X132260033Y-133171743D02*
G75*
G03*
X131282450Y-126915107I-5524233J2341543D01*
G01*
X100000000Y-87243169D02*
X100000000Y-112756831D01*
X138754492Y-106455696D02*
G75*
G03*
X138754492Y-93544304I-84754292J6455696D01*
G01*
X113511691Y-160690680D02*
G75*
G03*
X132260048Y-133171749I-59511691J60690680D01*
G01*
X98760138Y-116409413D02*
G75*
G03*
X100000000Y-112756831I-4760338J3652613D01*
G01*
X101594859Y-81093045D02*
G75*
G03*
X101594859Y-81093045I-1600000J0D01*
G01*
X90739267Y-57911023D02*
G75*
G03*
X90739267Y-57911023I-1600000J0D01*
G01*
X132260048Y-66828251D02*
G75*
G03*
X113511691Y-39309320I-78260048J-33171749D01*
G01*
X109585014Y-160928690D02*
G75*
G03*
X113511691Y-160690680I1826286J2380090D01*
G01*
X98760120Y-83590601D02*
X98011476Y-82614948D01*
X98472951Y-79109655D02*
G75*
G03*
X99026731Y-74903317I-1826251J2380055D01*
G01*
M02*
