%TF.GenerationSoftware,KiCad,Pcbnew,(6.0.11)*%
%TF.CreationDate,2024-04-02T23:15:32+09:00*%
%TF.ProjectId,ORION_VV_driver_v4,4f52494f-4e5f-4565-965f-647269766572,rev?*%
%TF.SameCoordinates,Original*%
%TF.FileFunction,Profile,NP*%
%FSLAX46Y46*%
G04 Gerber Fmt 4.6, Leading zero omitted, Abs format (unit mm)*
G04 Created by KiCad (PCBNEW (6.0.11)) date 2024-04-02 23:15:32*
%MOMM*%
%LPD*%
G01*
G04 APERTURE LIST*
%TA.AperFunction,Profile*%
%ADD10C,0.200000*%
%TD*%
G04 APERTURE END LIST*
D10*
X87155914Y-140567097D02*
G75*
G03*
X87617363Y-144072360I1983386J-1521903D01*
G01*
X135013844Y-111565384D02*
G75*
G03*
X138754492Y-106455696I-2242044J5565384D01*
G01*
X87617363Y-144072360D02*
X109584994Y-160928716D01*
X87617339Y-55927609D02*
G75*
G03*
X87155883Y-59432927I1521961J-1983391D01*
G01*
X87155883Y-140567073D02*
X99026731Y-125096683D01*
X98472951Y-79109655D02*
G75*
G03*
X99026731Y-74903317I-1826251J2380055D01*
G01*
X132260048Y-66828251D02*
G75*
G03*
X113511691Y-39309320I-78260048J-33171749D01*
G01*
X99026736Y-125096687D02*
G75*
G03*
X98472955Y-120890339I-2380036J1826287D01*
G01*
X109585009Y-160928696D02*
G75*
G03*
X113511691Y-160690680I1826291J2379996D01*
G01*
X102760120Y-88803502D02*
X98011476Y-82614948D01*
X113511708Y-39309302D02*
G75*
G03*
X109584994Y-39071284I-2100408J-2141998D01*
G01*
X90739267Y-142088977D02*
G75*
G03*
X90739267Y-142088977I-1600000J0D01*
G01*
X131282450Y-73084893D02*
G75*
G03*
X132260048Y-66828251I-4546550J3915093D01*
G01*
X138754492Y-106455696D02*
G75*
G03*
X138754492Y-93544304I-84754292J6455696D01*
G01*
X98011531Y-117385094D02*
G75*
G03*
X98472955Y-120890339I1983369J-1521906D01*
G01*
X101594859Y-118906955D02*
G75*
G03*
X101594859Y-118906955I-1600000J0D01*
G01*
X87617363Y-55927640D02*
X109584994Y-39071284D01*
X98472952Y-79109657D02*
G75*
G03*
X98011476Y-82614948I1521908J-1983383D01*
G01*
X130052921Y-121376472D02*
G75*
G03*
X131282450Y-126915107I5776179J-1623528D01*
G01*
X87155883Y-59432927D02*
X99026731Y-74903317D01*
X135013840Y-111565374D02*
G75*
G03*
X131378973Y-115921514I2241960J-5565326D01*
G01*
X102760106Y-111196487D02*
G75*
G03*
X104000000Y-107543929I-4760106J3652587D01*
G01*
X132260033Y-133171743D02*
G75*
G03*
X131282450Y-126915107I-5524233J2341543D01*
G01*
X131282449Y-73084892D02*
G75*
G03*
X130052921Y-78623535I4546651J-3915108D01*
G01*
X104000018Y-92456071D02*
G75*
G03*
X102760120Y-88803502I-6000018J-29D01*
G01*
X131378957Y-84078489D02*
G75*
G03*
X135013839Y-88434629I5876943J1209289D01*
G01*
X90739267Y-57911023D02*
G75*
G03*
X90739267Y-57911023I-1600000J0D01*
G01*
X102760120Y-111196498D02*
X98011476Y-117385052D01*
X131378974Y-84078486D02*
G75*
G03*
X130052921Y-78623535I-77379774J-15921714D01*
G01*
X138754478Y-93544305D02*
G75*
G03*
X135013839Y-88434629I-5982678J-455695D01*
G01*
X104000000Y-92456071D02*
X104000000Y-107543929D01*
X113511691Y-160690680D02*
G75*
G03*
X132260048Y-133171749I-59511691J60690680D01*
G01*
X101594859Y-81093045D02*
G75*
G03*
X101594859Y-81093045I-1600000J0D01*
G01*
X130052922Y-121376472D02*
G75*
G03*
X131378973Y-115921514I-76053922J21376672D01*
G01*
M02*
