0
SECTION
2
HEADER
9
$INSUNITS
70
4
9
$ACADVER
1
AC1014
9
$HANDSEED
5
FFFF
0
ENDSEC
0
SECTION
2
TABLES
0
TABLE
2
VPORT
5
8
100
AcDbSymbolTable
0
ENDTAB
0
TABLE
2
LTYPE
5
5
100
AcDbSymbolTable
0
LTYPE
5
14
100
AcDbSymbolTableRecord
100
AcDbLinetypeTableRecord
2
BYBLOCK
70
0
0
LTYPE
5
15
100
AcDbSymbolTableRecord
100
AcDbLinetypeTableRecord
2
BYLAYER
70
0
0
ENDTAB
0
TABLE
2
LAYER
5
2
100
AcDbSymbolTable
70
2
0
LAYER
5
50
100
AcDbSymbolTableRecord
100
AcDbLayerTableRecord
2
0
70
0
6
CONTINUOUS
0
ENDTAB
0
TABLE
2
STYLE
5
3
100
AcDbSymbolTable
70
1
0
STYLE
5
11
100
AcDbSymbolTableRecord
100
AcDbTextStyleTableRecord
2
STANDARD
70
0
0
ENDTAB
0
TABLE
2
VIEW
5
6
100
AcDbSymbolTable
70
0
0
ENDTAB
0
TABLE
2
UCS
5
7
100
AcDbSymbolTable
70
0
0
ENDTAB
0
TABLE
2
APPID
5
9
100
AcDbSymbolTable
70
2
0
APPID
5
12
100
AcDbSymbolTableRecord
100
AcDbRegAppTableRecord
2
ACAD
70
0
0
ENDTAB
0
TABLE
2
DIMSTYLE
5
A
100
AcDbSymbolTable
70
1
0
ENDTAB
0
TABLE
2
BLOCK_RECORD
5
1
100
AcDbSymbolTable
70
1
0
BLOCK_RECORD
5
1F
100
AcDbSymbolTableRecord
100
AcDbBlockTableRecord
2
*MODEL_SPACE
0
BLOCK_RECORD
5
1B
100
AcDbSymbolTableRecord
100
AcDbBlockTableRecord
2
*PAPER_SPACE
0
ENDTAB
0
ENDSEC
0
SECTION
2
BLOCKS
0
BLOCK
5
20
100
AcDbEntity
100
AcDbBlockBegin
2
*MODEL_SPACE
0
ENDBLK
5
21
100
AcDbEntity
100
AcDbBlockEnd
0
BLOCK
5
1C
100
AcDbEntity
100
AcDbBlockBegin
2
*PAPER_SPACE
0
ENDBLK
5
1D
100
AcDbEntity
100
AcDbBlockEnd
0
ENDSEC
0
SECTION
2
ENTITIES
0
LINE
5
100
100
AcDbEntity
8
0
100
AcDbLine
10
-5.1317459790021653e-14
20
7.5439290473222922
30
0
11
-4.1088752323813028e-14
21
-7.5439290473222922
31
0
0
LINE
5
101
100
AcDbEntity
8
0
100
AcDbLine
10
-1.2398799582526365
20
11.196497621374606
30
0
11
-5.9885244396351087
21
17.385051596114618
31
0
0
LINE
5
102
100
AcDbEntity
8
0
100
AcDbLine
10
-16.382637015045045
20
44.072359886190085
30
0
11
5.5849940266621729
21
60.928716046456387
31
0
0
LINE
5
103
100
AcDbEntity
8
0
100
AcDbLine
10
-1.2398799582511439
20
-11.196497621372679
30
0
11
-5.9885244396174633
21
-17.385051596096851
31
0
0
LINE
5
104
100
AcDbEntity
8
0
100
AcDbLine
10
-16.382637015027445
20
-44.072359886171412
30
0
11
5.5849940266827947
21
-60.928716046425848
31
0
0
ARC
5
105
100
AcDbEntity
8
0
100
AcDbCircle
10
31.829090181932401
20
23.000000000000004
30
0
40
6.0000000000047136
210
0
220
0
230
1
100
AcDbArc
50
139.26829815729778
51
195.69932902166451
0
ARC
5
106
100
AcDbEntity
8
0
100
AcDbCircle
10
31.829090181925103
20
-23.000000000000004
30
0
40
6.0000000000000071
210
0
220
0
230
1
100
AcDbArc
50
164.30072673239744
51
220.73170184271436
0
ARC
5
107
100
AcDbEntity
8
0
100
AcDbCircle
10
-50.000000000000036
20
4.3533525093647949e-12
30
0
40
85.000000000078572
210
-0
220
0
230
1
100
AcDbArc
50
314.43803992889667
51
337.02957896870402
0
ARC
5
108
100
AcDbEntity
8
0
100
AcDbCircle
10
-50.000000000000036
20
4.3533525093647949e-12
30
0
40
85.000000000081116
210
-0
220
0
230
1
100
AcDbArc
50
22.970421031295572
51
45.561960071124069
0
LINE
5
109
100
AcDbEntity
8
0
100
AcDbLine
10
-16.844116793235177
20
-40.567072962921728
30
0
11
-4.9732689275740221
21
-25.096682827241207
31
0
0
LINE
5
110
100
AcDbEntity
8
0
100
AcDbLine
10
-16.844116793251331
20
40.56707296294347
30
0
11
-4.9732689275812678
21
25.096682827264374
31
0
0
CIRCLE
5
111
100
AcDbEntity
8
0
100
AcDbCircle
10
-4.0051410889070214
20
18.906955168636415
30
0
40
1.6000000000000005
210
0
220
0
230
1
0
CIRCLE
5
112
100
AcDbEntity
8
0
100
AcDbCircle
10
-4.0051410888887542
20
-18.906955168617849
30
0
40
1.6000000000000003
210
0
220
0
230
1
0
LINE
5
113
100
AcDbEntity
8
0
100
AcDbLine
10
-50.000000000000036
20
4.3533525093647949e-12
30
0
11
-9.5389796451374771
21
-31.046832879421565
31
0
0
LINE
5
114
100
AcDbEntity
8
0
100
AcDbLine
10
-50.000000000000036
20
4.3533525093647949e-12
30
0
11
-9.5389796451412909
21
31.04683287944162
31
0
0
CIRCLE
5
115
100
AcDbEntity
8
0
100
AcDbCircle
10
-14.860733442523241
20
42.088976535465264
30
0
40
1.5999999999999974
210
0
220
0
230
1
0
CIRCLE
5
116
100
AcDbEntity
8
0
100
AcDbCircle
10
-14.86073344250647
20
-42.088976535442711
30
0
40
1.5999999999999974
210
0
220
0
230
1
0
ARC
5
117
100
AcDbEntity
8
0
100
AcDbCircle
10
-4.0051410889070214
20
18.906955168636415
30
0
40
2.4999999999999947
210
0
220
0
230
1
100
AcDbArc
50
127.49999999999967
51
217.49999999999989
0
ARC
5
118
100
AcDbEntity
8
0
100
AcDbCircle
10
-4.0051410888887542
20
-18.906955168617849
30
0
40
2.5000000000000027
210
0
220
0
230
1
100
AcDbArc
50
142.50000000002331
51
232.4999999998918
0
ARC
5
119
100
AcDbEntity
8
0
100
AcDbCircle
10
22.735809224459715
20
-30.830213370583209
30
0
40
5.999999999999063
210
0
220
0
230
1
100
AcDbArc
50
-22.970421031296052
51
40.731701842481243
0
ARC
5
120
100
AcDbEntity
8
0
100
AcDbCircle
10
22.735809224452805
20
30.830213370588282
30
0
40
6.0000000000203091
210
0
220
0
230
1
100
AcDbArc
50
-40.731701842441602
51
22.970421031295782
0
LINE
5
121
100
AcDbEntity
8
0
100
AcDbLine
10
0
20
0
30
0
11
-50.000000000000036
21
4.3533525093647949e-12
31
0
0
ARC
5
122
100
AcDbEntity
8
0
100
AcDbCircle
10
-14.86073344250647
20
-42.088976535442711
30
0
40
2.4999999999999973
210
0
220
0
230
1
100
AcDbArc
50
142.5000000000235
51
232.50000000002362
0
ARC
5
123
100
AcDbEntity
8
0
100
AcDbCircle
10
-14.860733442523241
20
42.088976535465264
30
0
40
2.499999999997411
210
0
220
0
230
1
100
AcDbArc
50
127.50000000004563
51
217.49999999999977
0
ARC
5
124
100
AcDbEntity
8
0
100
AcDbCircle
10
-7.3533289484461246
20
-23.270398540214849
30
0
40
2.9999999999988485
210
0
220
0
230
1
100
AcDbArc
50
-37.500000000021586
51
52.499999999891898
0
ARC
5
125
100
AcDbEntity
8
0
100
AcDbCircle
10
-7.3533289484549735
20
23.270398540238212
30
0
40
2.9999999999999987
210
0
220
0
230
1
100
AcDbArc
50
-52.499999999999936
51
37.500000000000007
0
ARC
5
126
100
AcDbEntity
8
0
100
AcDbCircle
10
7.4112783137079807
20
-58.548656025551402
30
0
40
2.9999999999999916
210
0
220
0
230
1
100
AcDbArc
50
232.50000000002339
51
314.43803992889502
0
ARC
5
127
100
AcDbEntity
8
0
100
AcDbCircle
10
7.4112783136883316
20
58.548656025582694
30
0
40
2.999999999999996
210
0
220
-0
230
1
100
AcDbArc
50
45.561960071124261
51
127.50000000000011
0
ARC
5
128
100
AcDbEntity
8
0
100
AcDbCircle
10
-6.0000000000000426
20
-7.5439290473222922
30
0
40
6.0000000000000009
210
0
220
0
230
1
100
AcDbArc
50
-37.499999999976652
51
0
0
ARC
5
129
100
AcDbEntity
8
0
100
AcDbCircle
10
-6.0000000000000391
20
7.5439290473222922
30
0
40
5.9999999999999876
210
0
220
-0
230
1
100
AcDbArc
50
0
51
37.499999999999957
0
ARC
5
130
100
AcDbEntity
8
0
100
AcDbCircle
10
-50.000000000000036
20
4.3533525093647949e-12
30
0
40
85.000000000000369
210
-0
220
0
230
1
100
AcDbArc
50
-4.3557726270344048
51
4.3557726270280455
0
ARC
5
131
100
AcDbEntity
8
0
100
AcDbCircle
10
28.77182237323251
20
6.0000000000000018
30
0
40
6.0000000000000329
210
0
220
-0
230
1
100
AcDbArc
50
4.3557726270280455
51
68.057895500422688
0
ARC
5
132
100
AcDbEntity
8
0
100
AcDbCircle
10
33.25585653578046
20
17.13074290553455
30
0
40
6.0000000000000275
210
0
220
0
230
1
100
AcDbArc
50
191.62692039068358
51
248.05789550042397
0
ARC
5
133
100
AcDbEntity
8
0
100
AcDbCircle
10
28.771822373230876
20
-6
30
0
40
6.0000000000010019
210
0
220
0
230
1
100
AcDbArc
50
291.94210449957581
51
355.64422737296559
0
ARC
5
134
100
AcDbEntity
8
0
100
AcDbCircle
10
33.255856535779323
20
-17.130742905536302
30
0
40
6.0000000000010099
210
0
220
0
230
1
100
AcDbArc
50
111.94210449957568
51
168.3730796093063
0
ARC
5
135
100
AcDbEntity
8
0
100
AcDbCircle
10
-50.000000000000036
20
4.3533525093647949e-12
30
0
40
79.0000000000108
210
-0
220
0
230
1
100
AcDbArc
50
344.30072673239749
51
348.37307960930963
0
ARC
5
136
100
AcDbEntity
8
0
100
AcDbCircle
10
-50.000000000000036
20
4.3533525093647949e-12
30
0
40
79.000000000010772
210
-0
220
0
230
1
100
AcDbArc
50
11.626920390683603
51
15.699269033109285
0
ENDSEC
0
SECTION
2
OBJECTS
0
DICTIONARY
5
C
100
AcDbDictionary
3
ACAD_GROUP
350
D
3
ACAD_MLINESTYLE
350
17
0
DICTIONARY
5
D
100
AcDbDictionary
0
DICTIONARY
5
1A
330
C
100
AcDbDictionary
0
DICTIONARY
5
17
100
AcDbDictionary
0
ENDSEC
0
EOF
