0
SECTION
2
HEADER
9
$INSUNITS
70
4
9
$ACADVER
1
AC1014
9
$HANDSEED
5
FFFF
0
ENDSEC
0
SECTION
2
TABLES
0
TABLE
2
VPORT
5
8
100
AcDbSymbolTable
0
ENDTAB
0
TABLE
2
LTYPE
5
5
100
AcDbSymbolTable
0
LTYPE
5
14
100
AcDbSymbolTableRecord
100
AcDbLinetypeTableRecord
2
BYBLOCK
70
0
0
LTYPE
5
15
100
AcDbSymbolTableRecord
100
AcDbLinetypeTableRecord
2
BYLAYER
70
0
0
ENDTAB
0
TABLE
2
LAYER
5
2
100
AcDbSymbolTable
70
2
0
LAYER
5
50
100
AcDbSymbolTableRecord
100
AcDbLayerTableRecord
2
0
70
0
6
CONTINUOUS
0
ENDTAB
0
TABLE
2
STYLE
5
3
100
AcDbSymbolTable
70
1
0
STYLE
5
11
100
AcDbSymbolTableRecord
100
AcDbTextStyleTableRecord
2
STANDARD
70
0
0
ENDTAB
0
TABLE
2
VIEW
5
6
100
AcDbSymbolTable
70
0
0
ENDTAB
0
TABLE
2
UCS
5
7
100
AcDbSymbolTable
70
0
0
ENDTAB
0
TABLE
2
APPID
5
9
100
AcDbSymbolTable
70
2
0
APPID
5
12
100
AcDbSymbolTableRecord
100
AcDbRegAppTableRecord
2
ACAD
70
0
0
ENDTAB
0
TABLE
2
DIMSTYLE
5
A
100
AcDbSymbolTable
70
1
0
ENDTAB
0
TABLE
2
BLOCK_RECORD
5
1
100
AcDbSymbolTable
70
1
0
BLOCK_RECORD
5
1F
100
AcDbSymbolTableRecord
100
AcDbBlockTableRecord
2
*MODEL_SPACE
0
BLOCK_RECORD
5
1B
100
AcDbSymbolTableRecord
100
AcDbBlockTableRecord
2
*PAPER_SPACE
0
ENDTAB
0
ENDSEC
0
SECTION
2
BLOCKS
0
BLOCK
5
20
100
AcDbEntity
100
AcDbBlockBegin
2
*MODEL_SPACE
0
ENDBLK
5
21
100
AcDbEntity
100
AcDbBlockEnd
0
BLOCK
5
1C
100
AcDbEntity
100
AcDbBlockBegin
2
*PAPER_SPACE
0
ENDBLK
5
1D
100
AcDbEntity
100
AcDbBlockEnd
0
ENDSEC
0
SECTION
2
ENTITIES
0
LINE
5
100
100
AcDbEntity
8
0
100
AcDbLine
10
-3.7554702356557778e-14
20
12.756830538686817
30
0
11
-2.0257894955838652e-14
21
-12.756830538686817
31
0
0
LINE
5
101
100
AcDbEntity
8
0
100
AcDbLine
10
-1.2398799582526279
20
16.409399112739138
30
0
11
-1.988524439635607
21
17.385051596114984
31
0
0
LINE
5
102
100
AcDbEntity
8
0
100
AcDbLine
10
-12.382637015045567
20
44.072359886194477
30
0
11
9.5849940266809917
21
60.928716046475657
31
0
0
LINE
5
103
100
AcDbEntity
8
0
100
AcDbLine
10
-1.2398799582511302
20
-16.409399112737212
30
0
11
-1.9885244396215076
21
-17.385051596097458
31
0
0
LINE
5
104
100
AcDbEntity
8
0
100
AcDbLine
10
-12.382637015029125
20
-44.072359886173103
30
0
11
9.5849940266827929
21
-60.92871604642972
31
0
0
ARC
5
105
100
AcDbEntity
8
0
100
AcDbCircle
10
35.829090181932337
20
23.000000000000004
30
0
40
6.0000000000047136
210
0
220
0
230
1
100
AcDbArc
50
139.26829815732768
51
195.69932902166451
0
ARC
5
106
100
AcDbEntity
8
0
100
AcDbCircle
10
35.829090181925231
20
-23.000000000000004
30
0
40
6.0000000000000506
210
0
220
0
230
1
100
AcDbArc
50
164.30072673239769
51
220.73170184271396
0
ARC
5
107
100
AcDbEntity
8
0
100
AcDbCircle
10
-46.000000000000021
20
4.0079009962536498e-12
30
0
40
85.000000000081087
210
-0
220
0
230
1
100
AcDbArc
50
314.4380399288944
51
337.02957896870402
0
ARC
5
108
100
AcDbEntity
8
0
100
AcDbCircle
10
-46.000000000000021
20
4.0079009962536498e-12
30
0
40
85.000000000108116
210
-0
220
0
230
1
100
AcDbArc
50
22.970421031295572
51
45.561960071124268
0
LINE
5
109
100
AcDbEntity
8
0
100
AcDbLine
10
-12.844116793236839
20
-40.5670729629242
30
0
11
-0.9732689275721198
21
-25.096682827239107
31
0
0
LINE
5
110
100
AcDbEntity
8
0
100
AcDbLine
10
-12.84411679325185
20
40.567072962943826
30
0
11
-0.97326892758178718
21
25.096682827264736
31
0
0
CIRCLE
5
111
100
AcDbEntity
8
0
100
AcDbCircle
10
-0.0051410889075212407
20
18.906955168636784
30
0
40
1.6000000000000005
210
0
220
0
230
1
0
CIRCLE
5
112
100
AcDbEntity
8
0
100
AcDbCircle
10
-0.0051410888928082876
20
-18.906955168618463
30
0
40
1.6000000000000003
210
0
220
0
230
1
0
LINE
5
113
100
AcDbEntity
8
0
100
AcDbLine
10
-46.000000000000021
20
4.0079009962536498e-12
30
0
11
-5.5389796450883786
21
-31.046832879354543
31
0
0
LINE
5
114
100
AcDbEntity
8
0
100
AcDbLine
10
-46.000000000000021
20
4.0079009962536498e-12
30
0
11
-5.5389796451383813
21
31.046832879443503
31
0
0
CIRCLE
5
115
100
AcDbEntity
8
0
100
AcDbCircle
10
-10.860733442523756
20
42.088976535465619
30
0
40
1.5999999999999974
210
0
220
0
230
1
0
CIRCLE
5
116
100
AcDbEntity
8
0
100
AcDbCircle
10
-10.860733442508126
20
-42.088976535445198
30
0
40
1.5999999999999974
210
0
220
0
230
1
0
ARC
5
117
100
AcDbEntity
8
0
100
AcDbCircle
10
-0.0051410889075212407
20
18.906955168636784
30
0
40
2.5000000000000027
210
0
220
0
230
1
100
AcDbArc
50
127.50000000000009
51
217.5
0
ARC
5
118
100
AcDbEntity
8
0
100
AcDbCircle
10
-0.0051410888928082876
20
-18.906955168618463
30
0
40
2.5000000000000004
210
0
220
0
230
1
100
AcDbArc
50
142.50000000002302
51
232.49999999989186
0
ARC
5
119
100
AcDbEntity
8
0
100
AcDbCircle
10
26.735809224484612
20
-30.830213370594102
30
0
40
5.999999999999063
210
0
220
0
230
1
100
AcDbArc
50
-22.970421031296052
51
40.731701842714834
0
ARC
5
120
100
AcDbEntity
8
0
100
AcDbCircle
10
26.735809224480747
20
30.83021337060018
30
0
40
6.0000000000068479
210
0
220
0
230
1
100
AcDbArc
50
-40.731701842732079
51
22.970421031292219
0
LINE
5
121
100
AcDbEntity
8
0
100
AcDbLine
10
0
20
0
30
0
11
-46.000000000000021
21
4.0079009962536498e-12
31
0
0
ARC
5
122
100
AcDbEntity
8
0
100
AcDbCircle
10
-10.860733442508126
20
-42.088976535445198
30
0
40
2.500000000000008
210
0
220
0
230
1
100
AcDbArc
50
142.50000000002333
51
232.50000000002331
0
ARC
5
123
100
AcDbEntity
8
0
100
AcDbCircle
10
-10.860733442523756
20
42.088976535465619
30
0
40
2.5000000000006155
210
0
220
0
230
1
100
AcDbArc
50
127.49999999998946
51
217.49999999999974
0
ARC
5
124
100
AcDbEntity
8
0
100
AcDbCircle
10
-3.3533289484489961
20
-23.270398540213918
30
0
40
3.0000000000019211
210
0
220
0
230
1
100
AcDbArc
50
-37.499999999948407
51
52.499999999891813
0
ARC
5
125
100
AcDbEntity
8
0
100
AcDbCircle
10
-3.3533289484554922
20
23.270398540238574
30
0
40
2.9999999999999987
210
0
220
0
230
1
100
AcDbArc
50
-52.499999999999893
51
37.500000000000014
0
ARC
5
126
100
AcDbEntity
8
0
100
AcDbCircle
10
11.411278313707987
20
-58.548656025555282
30
0
40
2.9999999999999889
210
0
220
0
230
1
100
AcDbArc
50
232.50000000002319
51
314.43803992887649
0
ARC
5
127
100
AcDbEntity
8
0
100
AcDbCircle
10
11.411278313707152
20
58.54865602560195
30
0
40
2.999999999999996
210
0
220
-0
230
1
100
AcDbArc
50
45.561960071124261
51
127.49999999999999
0
ARC
5
128
100
AcDbEntity
8
0
100
AcDbCircle
10
-6.0000000000000222
20
-12.756830538686817
30
0
40
6.0000000000000018
210
0
220
0
230
1
100
AcDbArc
50
-37.499999999976751
51
0
0
ARC
5
129
100
AcDbEntity
8
0
100
AcDbCircle
10
-6.000000000000024
20
12.756830538686817
30
0
40
5.9999999999999867
210
0
220
-0
230
1
100
AcDbArc
50
0
51
37.500000000000064
0
ARC
5
130
100
AcDbEntity
8
0
100
AcDbCircle
10
-46.000000000000021
20
4.0079009962536498e-12
30
0
40
85.000000000000341
210
-0
220
0
230
1
100
AcDbArc
50
-4.3557726270341499
51
4.3557726270282968
0
ARC
5
131
100
AcDbEntity
8
0
100
AcDbCircle
10
32.77182237323251
20
6.0000000000000036
30
0
40
6.0000000000000311
210
0
220
-0
230
1
100
AcDbArc
50
4.3557726270282968
51
68.057895500422958
0
ARC
5
132
100
AcDbEntity
8
0
100
AcDbCircle
10
37.255856535780453
20
17.130742905534202
30
0
40
6.0000000000000275
210
0
220
0
230
1
100
AcDbArc
50
191.62692039068358
51
248.05789550042257
0
ARC
5
133
100
AcDbEntity
8
0
100
AcDbCircle
10
32.771822373230904
20
-5.9999999999999982
30
0
40
6.0000000000010036
210
0
220
0
230
1
100
AcDbArc
50
291.94210449957581
51
355.64422737296587
0
ARC
5
134
100
AcDbEntity
8
0
100
AcDbCircle
10
37.255856535779358
20
-17.130742905536302
30
0
40
6.0000000000010099
210
0
220
0
230
1
100
AcDbArc
50
111.94210449957576
51
168.37307960931122
0
ARC
5
135
100
AcDbEntity
8
0
100
AcDbCircle
10
-46.000000000000021
20
4.0079009962536498e-12
30
0
40
79.000000000010772
210
-0
220
0
230
1
100
AcDbArc
50
344.30072673239772
51
348.37307960930946
0
ARC
5
136
100
AcDbEntity
8
0
100
AcDbCircle
10
-46.000000000000021
20
4.0079009962536498e-12
30
0
40
79.000000000010772
210
-0
220
0
230
1
100
AcDbArc
50
11.626920390683603
51
15.699269033109545
0
ENDSEC
0
SECTION
2
OBJECTS
0
DICTIONARY
5
C
100
AcDbDictionary
3
ACAD_GROUP
350
D
3
ACAD_MLINESTYLE
350
17
0
DICTIONARY
5
D
100
AcDbDictionary
0
DICTIONARY
5
1A
330
C
100
AcDbDictionary
0
DICTIONARY
5
17
100
AcDbDictionary
0
ENDSEC
0
EOF
