%TF.GenerationSoftware,KiCad,Pcbnew,(6.0.8)*%
%TF.CreationDate,2022-12-08T06:23:49+09:00*%
%TF.ProjectId,ORION_VV_driver_v3,4f52494f-4e5f-4565-965f-647269766572,rev?*%
%TF.SameCoordinates,Original*%
%TF.FileFunction,Legend,Bot*%
%TF.FilePolarity,Positive*%
%FSLAX46Y46*%
G04 Gerber Fmt 4.6, Leading zero omitted, Abs format (unit mm)*
G04 Created by KiCad (PCBNEW (6.0.8)) date 2022-12-08 06:23:49*
%MOMM*%
%LPD*%
G01*
G04 APERTURE LIST*
%ADD10C,0.150000*%
%ADD11C,0.120000*%
G04 APERTURE END LIST*
D10*
X138892822Y-95430322D02*
G75*
G03*
X138892822Y-95430322I-83000000J0D01*
G01*
%TO.C,C7*%
X93857723Y-144910961D02*
X93857723Y-144843618D01*
X93790379Y-144708931D01*
X93723036Y-144641587D01*
X93588348Y-144574244D01*
X93453661Y-144574244D01*
X93352646Y-144607915D01*
X93184287Y-144708931D01*
X93083272Y-144809946D01*
X92982257Y-144978305D01*
X92948585Y-145079320D01*
X92948585Y-145214007D01*
X93015929Y-145348694D01*
X93083272Y-145416038D01*
X93217959Y-145483381D01*
X93285303Y-145483381D01*
X93453661Y-145786427D02*
X93925066Y-146257831D01*
X94329127Y-145247679D01*
%TO.C,FB1*%
X91362645Y-130428740D02*
X91598347Y-130193038D01*
X91968736Y-130563427D02*
X91261629Y-129856320D01*
X90924912Y-130193038D01*
X90756553Y-131034832D02*
X90689209Y-131169519D01*
X90689209Y-131236862D01*
X90722881Y-131337878D01*
X90823897Y-131438893D01*
X90924912Y-131472565D01*
X90992255Y-131472565D01*
X91093271Y-131438893D01*
X91362645Y-131169519D01*
X90655538Y-130462412D01*
X90419835Y-130698114D01*
X90386164Y-130799129D01*
X90386164Y-130866473D01*
X90419835Y-130967488D01*
X90487179Y-131034832D01*
X90588194Y-131068504D01*
X90655538Y-131068504D01*
X90756553Y-131034832D01*
X90992255Y-130799129D01*
X90285148Y-132247015D02*
X90689209Y-131842954D01*
X90487179Y-132044984D02*
X89780072Y-131337878D01*
X89948431Y-131371549D01*
X90083118Y-131371549D01*
X90184133Y-131337878D01*
%TO.C,R5*%
X111592128Y-113013205D02*
X111019708Y-113114220D01*
X111188067Y-112609144D02*
X110480960Y-113316250D01*
X110750334Y-113585625D01*
X110851349Y-113619296D01*
X110918693Y-113619296D01*
X111019708Y-113585625D01*
X111120723Y-113484609D01*
X111154395Y-113383594D01*
X111154395Y-113316250D01*
X111120723Y-113215235D01*
X110851349Y-112945861D01*
X111524785Y-114360075D02*
X111188067Y-114023357D01*
X111491113Y-113652968D01*
X111491113Y-113720312D01*
X111524785Y-113821327D01*
X111693143Y-113989686D01*
X111794159Y-114023357D01*
X111861502Y-114023357D01*
X111962517Y-113989686D01*
X112130876Y-113821327D01*
X112164548Y-113720312D01*
X112164548Y-113652968D01*
X112130876Y-113551953D01*
X111962517Y-113383594D01*
X111861502Y-113349922D01*
X111794159Y-113349922D01*
%TO.C,R10*%
X102073629Y-145214006D02*
X101501210Y-145315021D01*
X101669568Y-144809945D02*
X100962462Y-145517052D01*
X101231836Y-145786426D01*
X101332851Y-145820098D01*
X101400194Y-145820098D01*
X101501210Y-145786426D01*
X101602225Y-145685411D01*
X101635897Y-145584395D01*
X101635897Y-145517052D01*
X101602225Y-145416037D01*
X101332851Y-145146663D01*
X102747065Y-145887441D02*
X102343004Y-145483380D01*
X102545034Y-145685411D02*
X101837927Y-146392518D01*
X101871599Y-146224159D01*
X101871599Y-146089472D01*
X101837927Y-145988457D01*
X102477691Y-147032281D02*
X102545034Y-147099624D01*
X102646049Y-147133296D01*
X102713393Y-147133296D01*
X102814408Y-147099624D01*
X102982767Y-146998609D01*
X103151126Y-146830250D01*
X103252141Y-146661892D01*
X103285813Y-146560876D01*
X103285813Y-146493533D01*
X103252141Y-146392518D01*
X103184797Y-146325174D01*
X103083782Y-146291502D01*
X103016439Y-146291502D01*
X102915423Y-146325174D01*
X102747065Y-146426189D01*
X102578706Y-146594548D01*
X102477691Y-146762907D01*
X102444019Y-146863922D01*
X102444019Y-146931266D01*
X102477691Y-147032281D01*
%TO.C,C22*%
X117346863Y-94373251D02*
X117394482Y-94420870D01*
X117537339Y-94468489D01*
X117632577Y-94468489D01*
X117775434Y-94420870D01*
X117870672Y-94325632D01*
X117918291Y-94230394D01*
X117965910Y-94039918D01*
X117965910Y-93897061D01*
X117918291Y-93706585D01*
X117870672Y-93611347D01*
X117775434Y-93516109D01*
X117632577Y-93468489D01*
X117537339Y-93468489D01*
X117394482Y-93516109D01*
X117346863Y-93563728D01*
X116965910Y-93563728D02*
X116918291Y-93516109D01*
X116823053Y-93468489D01*
X116584958Y-93468489D01*
X116489720Y-93516109D01*
X116442101Y-93563728D01*
X116394482Y-93658966D01*
X116394482Y-93754204D01*
X116442101Y-93897061D01*
X117013529Y-94468489D01*
X116394482Y-94468489D01*
X116013529Y-93563728D02*
X115965910Y-93516109D01*
X115870672Y-93468489D01*
X115632577Y-93468489D01*
X115537339Y-93516109D01*
X115489720Y-93563728D01*
X115442101Y-93658966D01*
X115442101Y-93754204D01*
X115489720Y-93897061D01*
X116061148Y-94468489D01*
X115442101Y-94468489D01*
%TO.C,R2*%
X90007694Y-150882309D02*
X89435274Y-150983324D01*
X89603633Y-150478248D02*
X88896526Y-151185354D01*
X89165900Y-151454729D01*
X89266915Y-151488400D01*
X89334259Y-151488400D01*
X89435274Y-151454729D01*
X89536289Y-151353713D01*
X89569961Y-151252698D01*
X89569961Y-151185354D01*
X89536289Y-151084339D01*
X89266915Y-150814965D01*
X89637305Y-151791446D02*
X89637305Y-151858790D01*
X89670976Y-151959805D01*
X89839335Y-152128164D01*
X89940351Y-152161835D01*
X90007694Y-152161835D01*
X90108709Y-152128164D01*
X90176053Y-152060820D01*
X90243396Y-151926133D01*
X90243396Y-151118011D01*
X90681129Y-151555744D01*
%TO.C,R13*%
X117124902Y-133125847D02*
X117023887Y-132553428D01*
X117528963Y-132721786D02*
X116821856Y-132014680D01*
X116552482Y-132284054D01*
X116518810Y-132385069D01*
X116518810Y-132452412D01*
X116552482Y-132553428D01*
X116653497Y-132654443D01*
X116754513Y-132688115D01*
X116821856Y-132688115D01*
X116922871Y-132654443D01*
X117192245Y-132385069D01*
X116451467Y-133799283D02*
X116855528Y-133395222D01*
X116653497Y-133597252D02*
X115946390Y-132890145D01*
X116114749Y-132923817D01*
X116249436Y-132923817D01*
X116350452Y-132890145D01*
X115508658Y-133327878D02*
X115070925Y-133765611D01*
X115576001Y-133799283D01*
X115474986Y-133900298D01*
X115441314Y-134001313D01*
X115441314Y-134068657D01*
X115474986Y-134169672D01*
X115643345Y-134338031D01*
X115744360Y-134371702D01*
X115811703Y-134371702D01*
X115912719Y-134338031D01*
X116114749Y-134136000D01*
X116148421Y-134034985D01*
X116148421Y-133967641D01*
%TO.C,C21*%
X118475361Y-99737212D02*
X118522980Y-99689593D01*
X118570599Y-99546736D01*
X118570599Y-99451498D01*
X118522980Y-99308641D01*
X118427742Y-99213403D01*
X118332504Y-99165784D01*
X118142028Y-99118165D01*
X117999171Y-99118165D01*
X117808695Y-99165784D01*
X117713457Y-99213403D01*
X117618219Y-99308641D01*
X117570599Y-99451498D01*
X117570599Y-99546736D01*
X117618219Y-99689593D01*
X117665838Y-99737212D01*
X117665838Y-100118165D02*
X117618219Y-100165784D01*
X117570599Y-100261022D01*
X117570599Y-100499117D01*
X117618219Y-100594355D01*
X117665838Y-100641974D01*
X117761076Y-100689593D01*
X117856314Y-100689593D01*
X117999171Y-100641974D01*
X118570599Y-100070546D01*
X118570599Y-100689593D01*
X118570599Y-101641974D02*
X118570599Y-101070546D01*
X118570599Y-101356260D02*
X117570599Y-101356260D01*
X117713457Y-101261022D01*
X117808695Y-101165784D01*
X117856314Y-101070546D01*
%TO.C,Q10*%
X53258460Y-165216018D02*
X53210841Y-165120780D01*
X53115602Y-165025542D01*
X52972745Y-164882685D01*
X52925126Y-164787447D01*
X52925126Y-164692208D01*
X53163221Y-164739827D02*
X53115602Y-164644589D01*
X53020364Y-164549351D01*
X52829888Y-164501732D01*
X52496555Y-164501732D01*
X52306079Y-164549351D01*
X52210841Y-164644589D01*
X52163221Y-164739827D01*
X52163221Y-164930304D01*
X52210841Y-165025542D01*
X52306079Y-165120780D01*
X52496555Y-165168399D01*
X52829888Y-165168399D01*
X53020364Y-165120780D01*
X53115602Y-165025542D01*
X53163221Y-164930304D01*
X53163221Y-164739827D01*
X53163221Y-166120780D02*
X53163221Y-165549351D01*
X53163221Y-165835066D02*
X52163221Y-165835066D01*
X52306079Y-165739827D01*
X52401317Y-165644589D01*
X52448936Y-165549351D01*
X52163221Y-166739827D02*
X52163221Y-166835066D01*
X52210841Y-166930304D01*
X52258460Y-166977923D01*
X52353698Y-167025542D01*
X52544174Y-167073161D01*
X52782269Y-167073161D01*
X52972745Y-167025542D01*
X53067983Y-166977923D01*
X53115602Y-166930304D01*
X53163221Y-166835066D01*
X53163221Y-166739827D01*
X53115602Y-166644589D01*
X53067983Y-166596970D01*
X52972745Y-166549351D01*
X52782269Y-166501732D01*
X52544174Y-166501732D01*
X52353698Y-166549351D01*
X52258460Y-166596970D01*
X52210841Y-166644589D01*
X52163221Y-166739827D01*
%TO.C,C16*%
X105188266Y-127957234D02*
X105188266Y-127889890D01*
X105120922Y-127755203D01*
X105053579Y-127687860D01*
X104918892Y-127620516D01*
X104784205Y-127620516D01*
X104683190Y-127654188D01*
X104514831Y-127755203D01*
X104413816Y-127856218D01*
X104312800Y-128024577D01*
X104279129Y-128125592D01*
X104279129Y-128260279D01*
X104346472Y-128394966D01*
X104413816Y-128462310D01*
X104548503Y-128529653D01*
X104615846Y-128529653D01*
X105929045Y-128563325D02*
X105524984Y-128159264D01*
X105727014Y-128361295D02*
X105019907Y-129068402D01*
X105053579Y-128900043D01*
X105053579Y-128765356D01*
X105019907Y-128664341D01*
X105828029Y-129876524D02*
X105693342Y-129741837D01*
X105659671Y-129640821D01*
X105659671Y-129573478D01*
X105693342Y-129405119D01*
X105794358Y-129236760D01*
X106063732Y-128967386D01*
X106164747Y-128933715D01*
X106232090Y-128933715D01*
X106333106Y-128967386D01*
X106467793Y-129102073D01*
X106501464Y-129203089D01*
X106501464Y-129270432D01*
X106467793Y-129371447D01*
X106299434Y-129539806D01*
X106198419Y-129573478D01*
X106131075Y-129573478D01*
X106030060Y-129539806D01*
X105895373Y-129405119D01*
X105861701Y-129304104D01*
X105861701Y-129236760D01*
X105895373Y-129135745D01*
%TO.C,C15*%
X88066180Y-153564601D02*
X88133524Y-153564601D01*
X88268211Y-153497257D01*
X88335554Y-153429914D01*
X88402898Y-153295227D01*
X88402898Y-153160540D01*
X88369226Y-153059525D01*
X88268211Y-152891166D01*
X88167196Y-152790151D01*
X87998837Y-152689135D01*
X87897822Y-152655464D01*
X87763135Y-152655464D01*
X87628448Y-152722807D01*
X87561104Y-152790151D01*
X87493761Y-152924838D01*
X87493761Y-152992181D01*
X87460089Y-154305380D02*
X87864150Y-153901319D01*
X87662119Y-154103349D02*
X86955012Y-153396242D01*
X87123371Y-153429914D01*
X87258058Y-153429914D01*
X87359073Y-153396242D01*
X86113219Y-154238036D02*
X86449936Y-153901319D01*
X86820325Y-154204364D01*
X86752982Y-154204364D01*
X86651967Y-154238036D01*
X86483608Y-154406395D01*
X86449936Y-154507410D01*
X86449936Y-154574754D01*
X86483608Y-154675769D01*
X86651967Y-154844128D01*
X86752982Y-154877799D01*
X86820325Y-154877799D01*
X86921341Y-154844128D01*
X87089699Y-154675769D01*
X87123371Y-154574754D01*
X87123371Y-154507410D01*
%TO.C,U3*%
X114027100Y-135516541D02*
X114599520Y-136088961D01*
X114633192Y-136189976D01*
X114633192Y-136257320D01*
X114599520Y-136358335D01*
X114464833Y-136493022D01*
X114363818Y-136526694D01*
X114296474Y-136526694D01*
X114195459Y-136493022D01*
X113623039Y-135920602D01*
X113353665Y-136189976D02*
X112915933Y-136627709D01*
X113421009Y-136661381D01*
X113319994Y-136762396D01*
X113286322Y-136863411D01*
X113286322Y-136930755D01*
X113319994Y-137031770D01*
X113488352Y-137200129D01*
X113589368Y-137233801D01*
X113656711Y-137233801D01*
X113757726Y-137200129D01*
X113959757Y-136998098D01*
X113993429Y-136897083D01*
X113993429Y-136829740D01*
%TO.C,D13*%
X110486982Y-123558485D02*
X109779875Y-122851379D01*
X109611516Y-123019737D01*
X109544173Y-123154424D01*
X109544173Y-123289111D01*
X109577845Y-123390127D01*
X109678860Y-123558485D01*
X109779875Y-123659501D01*
X109948234Y-123760516D01*
X110049249Y-123794188D01*
X110183936Y-123794188D01*
X110318623Y-123726844D01*
X110486982Y-123558485D01*
X109409486Y-124635982D02*
X109813547Y-124231921D01*
X109611516Y-124433951D02*
X108904409Y-123726844D01*
X109072768Y-123760516D01*
X109207455Y-123760516D01*
X109308471Y-123726844D01*
X108466677Y-124164577D02*
X108028944Y-124602310D01*
X108534020Y-124635982D01*
X108433005Y-124736997D01*
X108399333Y-124838012D01*
X108399333Y-124905356D01*
X108433005Y-125006371D01*
X108601364Y-125174730D01*
X108702379Y-125208401D01*
X108769722Y-125208401D01*
X108870738Y-125174730D01*
X109072768Y-124972699D01*
X109106440Y-124871684D01*
X109106440Y-124804340D01*
%TO.C,D8*%
X63533629Y-157569349D02*
X63533629Y-156569349D01*
X63295534Y-156569349D01*
X63152676Y-156616969D01*
X63057438Y-156712207D01*
X63009819Y-156807445D01*
X62962200Y-156997921D01*
X62962200Y-157140778D01*
X63009819Y-157331254D01*
X63057438Y-157426492D01*
X63152676Y-157521730D01*
X63295534Y-157569349D01*
X63533629Y-157569349D01*
X62390772Y-156997921D02*
X62486010Y-156950302D01*
X62533629Y-156902683D01*
X62581248Y-156807445D01*
X62581248Y-156759826D01*
X62533629Y-156664588D01*
X62486010Y-156616969D01*
X62390772Y-156569349D01*
X62200295Y-156569349D01*
X62105057Y-156616969D01*
X62057438Y-156664588D01*
X62009819Y-156759826D01*
X62009819Y-156807445D01*
X62057438Y-156902683D01*
X62105057Y-156950302D01*
X62200295Y-156997921D01*
X62390772Y-156997921D01*
X62486010Y-157045540D01*
X62533629Y-157093159D01*
X62581248Y-157188397D01*
X62581248Y-157378873D01*
X62533629Y-157474111D01*
X62486010Y-157521730D01*
X62390772Y-157569349D01*
X62200295Y-157569349D01*
X62105057Y-157521730D01*
X62057438Y-157474111D01*
X62009819Y-157378873D01*
X62009819Y-157188397D01*
X62057438Y-157093159D01*
X62105057Y-157045540D01*
X62200295Y-156997921D01*
%TO.C,C43*%
X76048954Y-169740783D02*
X76096573Y-169693164D01*
X76144192Y-169550307D01*
X76144192Y-169455069D01*
X76096573Y-169312212D01*
X76001335Y-169216974D01*
X75906097Y-169169355D01*
X75715621Y-169121736D01*
X75572764Y-169121736D01*
X75382288Y-169169355D01*
X75287050Y-169216974D01*
X75191812Y-169312212D01*
X75144192Y-169455069D01*
X75144192Y-169550307D01*
X75191812Y-169693164D01*
X75239431Y-169740783D01*
X75477526Y-170597926D02*
X76144192Y-170597926D01*
X75096573Y-170359831D02*
X75810859Y-170121736D01*
X75810859Y-170740783D01*
X75144192Y-171026498D02*
X75144192Y-171645545D01*
X75525145Y-171312212D01*
X75525145Y-171455069D01*
X75572764Y-171550307D01*
X75620383Y-171597926D01*
X75715621Y-171645545D01*
X75953716Y-171645545D01*
X76048954Y-171597926D01*
X76096573Y-171550307D01*
X76144192Y-171455069D01*
X76144192Y-171169355D01*
X76096573Y-171074117D01*
X76048954Y-171026498D01*
%TO.C,C40*%
X52007323Y-165498143D02*
X52054942Y-165450524D01*
X52102561Y-165307667D01*
X52102561Y-165212429D01*
X52054942Y-165069572D01*
X51959704Y-164974334D01*
X51864466Y-164926715D01*
X51673990Y-164879096D01*
X51531133Y-164879096D01*
X51340657Y-164926715D01*
X51245419Y-164974334D01*
X51150181Y-165069572D01*
X51102561Y-165212429D01*
X51102561Y-165307667D01*
X51150181Y-165450524D01*
X51197800Y-165498143D01*
X51435895Y-166355286D02*
X52102561Y-166355286D01*
X51054942Y-166117191D02*
X51769228Y-165879096D01*
X51769228Y-166498143D01*
X51102561Y-167069572D02*
X51102561Y-167164810D01*
X51150181Y-167260048D01*
X51197800Y-167307667D01*
X51293038Y-167355286D01*
X51483514Y-167402905D01*
X51721609Y-167402905D01*
X51912085Y-167355286D01*
X52007323Y-167307667D01*
X52054942Y-167260048D01*
X52102561Y-167164810D01*
X52102561Y-167069572D01*
X52054942Y-166974334D01*
X52007323Y-166926715D01*
X51912085Y-166879096D01*
X51721609Y-166831477D01*
X51483514Y-166831477D01*
X51293038Y-166879096D01*
X51197800Y-166926715D01*
X51150181Y-166974334D01*
X51102561Y-167069572D01*
%TO.C,D10*%
X118570599Y-102701318D02*
X117570599Y-102701318D01*
X117570599Y-102939413D01*
X117618219Y-103082270D01*
X117713457Y-103177508D01*
X117808695Y-103225127D01*
X117999171Y-103272746D01*
X118142028Y-103272746D01*
X118332504Y-103225127D01*
X118427742Y-103177508D01*
X118522980Y-103082270D01*
X118570599Y-102939413D01*
X118570599Y-102701318D01*
X118570599Y-104225127D02*
X118570599Y-103653699D01*
X118570599Y-103939413D02*
X117570599Y-103939413D01*
X117713457Y-103844175D01*
X117808695Y-103748937D01*
X117856314Y-103653699D01*
X117570599Y-104844175D02*
X117570599Y-104939413D01*
X117618219Y-105034651D01*
X117665838Y-105082270D01*
X117761076Y-105129889D01*
X117951552Y-105177508D01*
X118189647Y-105177508D01*
X118380123Y-105129889D01*
X118475361Y-105082270D01*
X118522980Y-105034651D01*
X118570599Y-104939413D01*
X118570599Y-104844175D01*
X118522980Y-104748937D01*
X118475361Y-104701318D01*
X118380123Y-104653699D01*
X118189647Y-104606080D01*
X117951552Y-104606080D01*
X117761076Y-104653699D01*
X117665838Y-104701318D01*
X117618219Y-104748937D01*
X117570599Y-104844175D01*
%TO.C,Q5*%
X58481242Y-173007883D02*
X58433623Y-172912645D01*
X58338384Y-172817407D01*
X58195527Y-172674550D01*
X58147908Y-172579312D01*
X58147908Y-172484074D01*
X58386003Y-172531693D02*
X58338384Y-172436455D01*
X58243146Y-172341217D01*
X58052670Y-172293598D01*
X57719337Y-172293598D01*
X57528861Y-172341217D01*
X57433623Y-172436455D01*
X57386003Y-172531693D01*
X57386003Y-172722169D01*
X57433623Y-172817407D01*
X57528861Y-172912645D01*
X57719337Y-172960264D01*
X58052670Y-172960264D01*
X58243146Y-172912645D01*
X58338384Y-172817407D01*
X58386003Y-172722169D01*
X58386003Y-172531693D01*
X57386003Y-173865026D02*
X57386003Y-173388836D01*
X57862194Y-173341217D01*
X57814575Y-173388836D01*
X57766956Y-173484074D01*
X57766956Y-173722169D01*
X57814575Y-173817407D01*
X57862194Y-173865026D01*
X57957432Y-173912645D01*
X58195527Y-173912645D01*
X58290765Y-173865026D01*
X58338384Y-173817407D01*
X58386003Y-173722169D01*
X58386003Y-173484074D01*
X58338384Y-173388836D01*
X58290765Y-173341217D01*
%TO.C,GD2*%
X115296970Y-103180070D02*
X115392208Y-103132450D01*
X115535065Y-103132450D01*
X115677923Y-103180070D01*
X115773161Y-103275308D01*
X115820780Y-103370546D01*
X115868399Y-103561022D01*
X115868399Y-103703879D01*
X115820780Y-103894355D01*
X115773161Y-103989593D01*
X115677923Y-104084831D01*
X115535065Y-104132450D01*
X115439827Y-104132450D01*
X115296970Y-104084831D01*
X115249351Y-104037212D01*
X115249351Y-103703879D01*
X115439827Y-103703879D01*
X114820780Y-104132450D02*
X114820780Y-103132450D01*
X114582685Y-103132450D01*
X114439827Y-103180070D01*
X114344589Y-103275308D01*
X114296970Y-103370546D01*
X114249351Y-103561022D01*
X114249351Y-103703879D01*
X114296970Y-103894355D01*
X114344589Y-103989593D01*
X114439827Y-104084831D01*
X114582685Y-104132450D01*
X114820780Y-104132450D01*
X113868399Y-103227689D02*
X113820780Y-103180070D01*
X113725542Y-103132450D01*
X113487446Y-103132450D01*
X113392208Y-103180070D01*
X113344589Y-103227689D01*
X113296970Y-103322927D01*
X113296970Y-103418165D01*
X113344589Y-103561022D01*
X113916018Y-104132450D01*
X113296970Y-104132450D01*
%TO.C,C9*%
X107646305Y-140314767D02*
X107646305Y-140247424D01*
X107578961Y-140112737D01*
X107511618Y-140045393D01*
X107376930Y-139978050D01*
X107242243Y-139978050D01*
X107141228Y-140011721D01*
X106972869Y-140112737D01*
X106871854Y-140213752D01*
X106770839Y-140382111D01*
X106737167Y-140483126D01*
X106737167Y-140617813D01*
X106804511Y-140752500D01*
X106871854Y-140819844D01*
X107006541Y-140887187D01*
X107073885Y-140887187D01*
X108050366Y-140584141D02*
X108185053Y-140718828D01*
X108218724Y-140819844D01*
X108218724Y-140887187D01*
X108185053Y-141055546D01*
X108084037Y-141223905D01*
X107814663Y-141493279D01*
X107713648Y-141526950D01*
X107646305Y-141526950D01*
X107545289Y-141493279D01*
X107410602Y-141358592D01*
X107376930Y-141257576D01*
X107376930Y-141190233D01*
X107410602Y-141089218D01*
X107578961Y-140920859D01*
X107679976Y-140887187D01*
X107747320Y-140887187D01*
X107848335Y-140920859D01*
X107983022Y-141055546D01*
X108016694Y-141156561D01*
X108016694Y-141223905D01*
X107983022Y-141324920D01*
%TO.C,D5*%
X87333820Y-147444760D02*
X86626713Y-148151866D01*
X86795072Y-148320225D01*
X86929759Y-148387569D01*
X87064446Y-148387569D01*
X87165461Y-148353897D01*
X87333820Y-148252882D01*
X87434835Y-148151866D01*
X87535850Y-147983508D01*
X87569522Y-147882492D01*
X87569522Y-147747805D01*
X87502179Y-147613118D01*
X87333820Y-147444760D01*
X87670538Y-149195691D02*
X87333820Y-148858973D01*
X87636866Y-148488584D01*
X87636866Y-148555928D01*
X87670538Y-148656943D01*
X87838896Y-148825302D01*
X87939912Y-148858973D01*
X88007255Y-148858973D01*
X88108270Y-148825302D01*
X88276629Y-148656943D01*
X88310301Y-148555928D01*
X88310301Y-148488584D01*
X88276629Y-148387569D01*
X88108270Y-148219210D01*
X88007255Y-148185538D01*
X87939912Y-148185538D01*
%TO.C,U5*%
X85000114Y-159253191D02*
X85572534Y-158680771D01*
X85673549Y-158647099D01*
X85740893Y-158647099D01*
X85841908Y-158680771D01*
X85976595Y-158815458D01*
X86010267Y-158916473D01*
X86010267Y-158983817D01*
X85976595Y-159084832D01*
X85404175Y-159657252D01*
X86077610Y-160330687D02*
X85740893Y-159993969D01*
X86043939Y-159623580D01*
X86043939Y-159690923D01*
X86077610Y-159791939D01*
X86245969Y-159960297D01*
X86346984Y-159993969D01*
X86414328Y-159993969D01*
X86515343Y-159960297D01*
X86683702Y-159791939D01*
X86717374Y-159690923D01*
X86717374Y-159623580D01*
X86683702Y-159522565D01*
X86515343Y-159354206D01*
X86414328Y-159320534D01*
X86346984Y-159320534D01*
%TO.C,C5*%
X100253662Y-127842194D02*
X100301281Y-127889813D01*
X100444138Y-127937432D01*
X100539376Y-127937432D01*
X100682234Y-127889813D01*
X100777472Y-127794575D01*
X100825091Y-127699337D01*
X100872710Y-127508861D01*
X100872710Y-127366004D01*
X100825091Y-127175528D01*
X100777472Y-127080290D01*
X100682234Y-126985052D01*
X100539376Y-126937432D01*
X100444138Y-126937432D01*
X100301281Y-126985052D01*
X100253662Y-127032671D01*
X99348900Y-126937432D02*
X99825091Y-126937432D01*
X99872710Y-127413623D01*
X99825091Y-127366004D01*
X99729853Y-127318385D01*
X99491757Y-127318385D01*
X99396519Y-127366004D01*
X99348900Y-127413623D01*
X99301281Y-127508861D01*
X99301281Y-127746956D01*
X99348900Y-127842194D01*
X99396519Y-127889813D01*
X99491757Y-127937432D01*
X99729853Y-127937432D01*
X99825091Y-127889813D01*
X99872710Y-127842194D01*
%TO.C,C11*%
X89551104Y-132846373D02*
X89618448Y-132846373D01*
X89753135Y-132779029D01*
X89820478Y-132711686D01*
X89887822Y-132576999D01*
X89887822Y-132442312D01*
X89854150Y-132341297D01*
X89753135Y-132172938D01*
X89652120Y-132071923D01*
X89483761Y-131970907D01*
X89382746Y-131937236D01*
X89248059Y-131937236D01*
X89113372Y-132004579D01*
X89046028Y-132071923D01*
X88978685Y-132206610D01*
X88978685Y-132273953D01*
X88945013Y-133587152D02*
X89349074Y-133183091D01*
X89147043Y-133385121D02*
X88439936Y-132678014D01*
X88608295Y-132711686D01*
X88742982Y-132711686D01*
X88843998Y-132678014D01*
X88271578Y-134260587D02*
X88675639Y-133856526D01*
X88473608Y-134058556D02*
X87766501Y-133351449D01*
X87934860Y-133385121D01*
X88069547Y-133385121D01*
X88170562Y-133351449D01*
%TO.C,C42*%
X74634741Y-169740783D02*
X74682360Y-169693164D01*
X74729979Y-169550307D01*
X74729979Y-169455069D01*
X74682360Y-169312212D01*
X74587122Y-169216974D01*
X74491884Y-169169355D01*
X74301408Y-169121736D01*
X74158551Y-169121736D01*
X73968075Y-169169355D01*
X73872837Y-169216974D01*
X73777599Y-169312212D01*
X73729979Y-169455069D01*
X73729979Y-169550307D01*
X73777599Y-169693164D01*
X73825218Y-169740783D01*
X74063313Y-170597926D02*
X74729979Y-170597926D01*
X73682360Y-170359831D02*
X74396646Y-170121736D01*
X74396646Y-170740783D01*
X73825218Y-171074117D02*
X73777599Y-171121736D01*
X73729979Y-171216974D01*
X73729979Y-171455069D01*
X73777599Y-171550307D01*
X73825218Y-171597926D01*
X73920456Y-171645545D01*
X74015694Y-171645545D01*
X74158551Y-171597926D01*
X74729979Y-171026498D01*
X74729979Y-171645545D01*
%TO.C,C12*%
X63822519Y-148816884D02*
X63822519Y-148749540D01*
X63755175Y-148614853D01*
X63687832Y-148547510D01*
X63553145Y-148480166D01*
X63418458Y-148480166D01*
X63317443Y-148513838D01*
X63149084Y-148614853D01*
X63048069Y-148715868D01*
X62947053Y-148884227D01*
X62913382Y-148985242D01*
X62913382Y-149119929D01*
X62980725Y-149254616D01*
X63048069Y-149321960D01*
X63182756Y-149389303D01*
X63250099Y-149389303D01*
X64563298Y-149422975D02*
X64159237Y-149018914D01*
X64361267Y-149220945D02*
X63654160Y-149928052D01*
X63687832Y-149759693D01*
X63687832Y-149625006D01*
X63654160Y-149523991D01*
X64192908Y-150332113D02*
X64192908Y-150399456D01*
X64226580Y-150500471D01*
X64394939Y-150668830D01*
X64495954Y-150702502D01*
X64563298Y-150702502D01*
X64664313Y-150668830D01*
X64731656Y-150601487D01*
X64799000Y-150466800D01*
X64799000Y-149658678D01*
X65236733Y-150096410D01*
%TO.C,D6*%
X55223174Y-150338426D02*
X54516068Y-149631319D01*
X54347709Y-149799678D01*
X54280365Y-149934365D01*
X54280365Y-150069052D01*
X54314037Y-150170067D01*
X54415052Y-150338426D01*
X54516068Y-150439441D01*
X54684426Y-150540457D01*
X54785442Y-150574128D01*
X54920129Y-150574128D01*
X55054816Y-150506785D01*
X55223174Y-150338426D01*
X53505915Y-150641472D02*
X53640602Y-150506785D01*
X53741617Y-150473113D01*
X53808961Y-150473113D01*
X53977319Y-150506785D01*
X54145678Y-150607800D01*
X54415052Y-150877174D01*
X54448724Y-150978189D01*
X54448724Y-151045533D01*
X54415052Y-151146548D01*
X54280365Y-151281235D01*
X54179350Y-151314907D01*
X54112006Y-151314907D01*
X54010991Y-151281235D01*
X53842632Y-151112876D01*
X53808961Y-151011861D01*
X53808961Y-150944518D01*
X53842632Y-150843502D01*
X53977319Y-150708815D01*
X54078335Y-150675144D01*
X54145678Y-150675144D01*
X54246693Y-150708815D01*
%TO.C,Q2*%
X64274150Y-165093655D02*
X64226531Y-164998417D01*
X64131292Y-164903179D01*
X63988435Y-164760322D01*
X63940816Y-164665084D01*
X63940816Y-164569846D01*
X64178911Y-164617465D02*
X64131292Y-164522227D01*
X64036054Y-164426989D01*
X63845578Y-164379370D01*
X63512245Y-164379370D01*
X63321769Y-164426989D01*
X63226531Y-164522227D01*
X63178911Y-164617465D01*
X63178911Y-164807941D01*
X63226531Y-164903179D01*
X63321769Y-164998417D01*
X63512245Y-165046036D01*
X63845578Y-165046036D01*
X64036054Y-164998417D01*
X64131292Y-164903179D01*
X64178911Y-164807941D01*
X64178911Y-164617465D01*
X63274150Y-165426989D02*
X63226531Y-165474608D01*
X63178911Y-165569846D01*
X63178911Y-165807941D01*
X63226531Y-165903179D01*
X63274150Y-165950798D01*
X63369388Y-165998417D01*
X63464626Y-165998417D01*
X63607483Y-165950798D01*
X64178911Y-165379370D01*
X64178911Y-165998417D01*
%TO.C,Q4*%
X125746632Y-99457941D02*
X125841870Y-99410322D01*
X125937108Y-99315083D01*
X126079965Y-99172226D01*
X126175203Y-99124607D01*
X126270441Y-99124607D01*
X126222822Y-99362702D02*
X126318060Y-99315083D01*
X126413298Y-99219845D01*
X126460917Y-99029369D01*
X126460917Y-98696036D01*
X126413298Y-98505560D01*
X126318060Y-98410322D01*
X126222822Y-98362702D01*
X126032346Y-98362702D01*
X125937108Y-98410322D01*
X125841870Y-98505560D01*
X125794251Y-98696036D01*
X125794251Y-99029369D01*
X125841870Y-99219845D01*
X125937108Y-99315083D01*
X126032346Y-99362702D01*
X126222822Y-99362702D01*
X124937108Y-98696036D02*
X124937108Y-99362702D01*
X125175203Y-98315083D02*
X125413298Y-99029369D01*
X124794251Y-99029369D01*
%TO.C,R4*%
X87179267Y-153710736D02*
X86606847Y-153811751D01*
X86775206Y-153306675D02*
X86068099Y-154013781D01*
X86337473Y-154283156D01*
X86438488Y-154316827D01*
X86505832Y-154316827D01*
X86606847Y-154283156D01*
X86707862Y-154182140D01*
X86741534Y-154081125D01*
X86741534Y-154013781D01*
X86707862Y-153912766D01*
X86438488Y-153643392D01*
X87313954Y-154788232D02*
X87785359Y-154316827D01*
X86876221Y-154889247D02*
X87212939Y-154215812D01*
X87650672Y-154653545D01*
%TO.C,R3*%
X91421908Y-149468096D02*
X90849488Y-149569111D01*
X91017847Y-149064035D02*
X90310740Y-149771141D01*
X90580114Y-150040516D01*
X90681129Y-150074187D01*
X90748473Y-150074187D01*
X90849488Y-150040516D01*
X90950503Y-149939500D01*
X90984175Y-149838485D01*
X90984175Y-149771141D01*
X90950503Y-149670126D01*
X90681129Y-149400752D01*
X90950503Y-150410905D02*
X91388236Y-150848638D01*
X91421908Y-150343561D01*
X91522923Y-150444577D01*
X91623939Y-150478248D01*
X91691282Y-150478248D01*
X91792297Y-150444577D01*
X91960656Y-150276218D01*
X91994328Y-150175203D01*
X91994328Y-150107859D01*
X91960656Y-150006844D01*
X91758626Y-149804813D01*
X91657610Y-149771141D01*
X91590267Y-149771141D01*
%TO.C,C24*%
X113522024Y-129522970D02*
X113589368Y-129522970D01*
X113724055Y-129455626D01*
X113791398Y-129388283D01*
X113858742Y-129253596D01*
X113858742Y-129118909D01*
X113825070Y-129017894D01*
X113724055Y-128849535D01*
X113623040Y-128748520D01*
X113454681Y-128647504D01*
X113353666Y-128613833D01*
X113218979Y-128613833D01*
X113084292Y-128681176D01*
X113016948Y-128748520D01*
X112949605Y-128883207D01*
X112949605Y-128950550D01*
X112680230Y-129219924D02*
X112612887Y-129219924D01*
X112511872Y-129253596D01*
X112343513Y-129421955D01*
X112309841Y-129522970D01*
X112309841Y-129590313D01*
X112343513Y-129691329D01*
X112410856Y-129758672D01*
X112545543Y-129826016D01*
X113353666Y-129826016D01*
X112915933Y-130263749D01*
X111838437Y-130398436D02*
X112309841Y-130869840D01*
X111737421Y-129960703D02*
X112410856Y-130297420D01*
X111973124Y-130735153D01*
%TO.C,Q9*%
X52770835Y-173061436D02*
X52723216Y-172966198D01*
X52627977Y-172870960D01*
X52485120Y-172728103D01*
X52437501Y-172632865D01*
X52437501Y-172537627D01*
X52675596Y-172585246D02*
X52627977Y-172490008D01*
X52532739Y-172394770D01*
X52342263Y-172347151D01*
X52008930Y-172347151D01*
X51818454Y-172394770D01*
X51723216Y-172490008D01*
X51675596Y-172585246D01*
X51675596Y-172775722D01*
X51723216Y-172870960D01*
X51818454Y-172966198D01*
X52008930Y-173013817D01*
X52342263Y-173013817D01*
X52532739Y-172966198D01*
X52627977Y-172870960D01*
X52675596Y-172775722D01*
X52675596Y-172585246D01*
X52675596Y-173490008D02*
X52675596Y-173680484D01*
X52627977Y-173775722D01*
X52580358Y-173823341D01*
X52437501Y-173918579D01*
X52247025Y-173966198D01*
X51866073Y-173966198D01*
X51770835Y-173918579D01*
X51723216Y-173870960D01*
X51675596Y-173775722D01*
X51675596Y-173585246D01*
X51723216Y-173490008D01*
X51770835Y-173442389D01*
X51866073Y-173394770D01*
X52104168Y-173394770D01*
X52199406Y-173442389D01*
X52247025Y-173490008D01*
X52294644Y-173585246D01*
X52294644Y-173775722D01*
X52247025Y-173870960D01*
X52199406Y-173918579D01*
X52104168Y-173966198D01*
%TO.C,Q7*%
X133524806Y-105114796D02*
X133620044Y-105067177D01*
X133715282Y-104971938D01*
X133858139Y-104829081D01*
X133953377Y-104781462D01*
X134048615Y-104781462D01*
X134000996Y-105019557D02*
X134096234Y-104971938D01*
X134191472Y-104876700D01*
X134239091Y-104686224D01*
X134239091Y-104352891D01*
X134191472Y-104162415D01*
X134096234Y-104067177D01*
X134000996Y-104019557D01*
X133810520Y-104019557D01*
X133715282Y-104067177D01*
X133620044Y-104162415D01*
X133572425Y-104352891D01*
X133572425Y-104686224D01*
X133620044Y-104876700D01*
X133715282Y-104971938D01*
X133810520Y-105019557D01*
X134000996Y-105019557D01*
X133239091Y-104019557D02*
X132572425Y-104019557D01*
X133000996Y-105019557D01*
%TO.C,Q8*%
X125746632Y-105114796D02*
X125841870Y-105067177D01*
X125937108Y-104971938D01*
X126079965Y-104829081D01*
X126175203Y-104781462D01*
X126270441Y-104781462D01*
X126222822Y-105019557D02*
X126318060Y-104971938D01*
X126413298Y-104876700D01*
X126460917Y-104686224D01*
X126460917Y-104352891D01*
X126413298Y-104162415D01*
X126318060Y-104067177D01*
X126222822Y-104019557D01*
X126032346Y-104019557D01*
X125937108Y-104067177D01*
X125841870Y-104162415D01*
X125794251Y-104352891D01*
X125794251Y-104686224D01*
X125841870Y-104876700D01*
X125937108Y-104971938D01*
X126032346Y-105019557D01*
X126222822Y-105019557D01*
X125222822Y-104448129D02*
X125318060Y-104400510D01*
X125365679Y-104352891D01*
X125413298Y-104257653D01*
X125413298Y-104210034D01*
X125365679Y-104114796D01*
X125318060Y-104067177D01*
X125222822Y-104019557D01*
X125032346Y-104019557D01*
X124937108Y-104067177D01*
X124889489Y-104114796D01*
X124841870Y-104210034D01*
X124841870Y-104257653D01*
X124889489Y-104352891D01*
X124937108Y-104400510D01*
X125032346Y-104448129D01*
X125222822Y-104448129D01*
X125318060Y-104495748D01*
X125365679Y-104543367D01*
X125413298Y-104638605D01*
X125413298Y-104829081D01*
X125365679Y-104924319D01*
X125318060Y-104971938D01*
X125222822Y-105019557D01*
X125032346Y-105019557D01*
X124937108Y-104971938D01*
X124889489Y-104924319D01*
X124841870Y-104829081D01*
X124841870Y-104638605D01*
X124889489Y-104543367D01*
X124937108Y-104495748D01*
X125032346Y-104448129D01*
%TO.C,D7*%
X54258900Y-156937669D02*
X53551793Y-157644775D01*
X53720152Y-157813134D01*
X53854839Y-157880478D01*
X53989526Y-157880478D01*
X54090541Y-157846806D01*
X54258900Y-157745791D01*
X54359915Y-157644775D01*
X54460930Y-157476417D01*
X54494602Y-157375401D01*
X54494602Y-157240714D01*
X54427259Y-157106027D01*
X54258900Y-156937669D01*
X54191556Y-158284539D02*
X54662961Y-158755943D01*
X55067022Y-157745791D01*
%TO.C,R15*%
X79516650Y-152097692D02*
X79849983Y-151621502D01*
X80088078Y-152097692D02*
X80088078Y-151097692D01*
X79707126Y-151097692D01*
X79611888Y-151145312D01*
X79564269Y-151192931D01*
X79516650Y-151288169D01*
X79516650Y-151431026D01*
X79564269Y-151526264D01*
X79611888Y-151573883D01*
X79707126Y-151621502D01*
X80088078Y-151621502D01*
X78564269Y-152097692D02*
X79135697Y-152097692D01*
X78849983Y-152097692D02*
X78849983Y-151097692D01*
X78945221Y-151240550D01*
X79040459Y-151335788D01*
X79135697Y-151383407D01*
X77659507Y-151097692D02*
X78135697Y-151097692D01*
X78183316Y-151573883D01*
X78135697Y-151526264D01*
X78040459Y-151478645D01*
X77802364Y-151478645D01*
X77707126Y-151526264D01*
X77659507Y-151573883D01*
X77611888Y-151669121D01*
X77611888Y-151907216D01*
X77659507Y-152002454D01*
X77707126Y-152050073D01*
X77802364Y-152097692D01*
X78040459Y-152097692D01*
X78135697Y-152050073D01*
X78183316Y-152002454D01*
%TO.C,Y1*%
X83799731Y-137026985D02*
X84275921Y-137026985D01*
X83275921Y-136693652D02*
X83799731Y-137026985D01*
X83275921Y-137360318D01*
X84275921Y-138217461D02*
X84275921Y-137646033D01*
X84275921Y-137931747D02*
X83275921Y-137931747D01*
X83418779Y-137836509D01*
X83514017Y-137741271D01*
X83561636Y-137646033D01*
%TO.C,D11*%
X117509939Y-95276697D02*
X116509939Y-95276697D01*
X116509939Y-95514792D01*
X116557559Y-95657649D01*
X116652797Y-95752887D01*
X116748035Y-95800506D01*
X116938511Y-95848125D01*
X117081368Y-95848125D01*
X117271844Y-95800506D01*
X117367082Y-95752887D01*
X117462320Y-95657649D01*
X117509939Y-95514792D01*
X117509939Y-95276697D01*
X117509939Y-96800506D02*
X117509939Y-96229078D01*
X117509939Y-96514792D02*
X116509939Y-96514792D01*
X116652797Y-96419554D01*
X116748035Y-96324316D01*
X116795654Y-96229078D01*
X117509939Y-97752887D02*
X117509939Y-97181459D01*
X117509939Y-97467173D02*
X116509939Y-97467173D01*
X116652797Y-97371935D01*
X116748035Y-97276697D01*
X116795654Y-97181459D01*
%TO.C,C20*%
X118573798Y-107500635D02*
X118573798Y-107433291D01*
X118506454Y-107298604D01*
X118439111Y-107231261D01*
X118304424Y-107163917D01*
X118169737Y-107163917D01*
X118068722Y-107197589D01*
X117900363Y-107298604D01*
X117799348Y-107399619D01*
X117698332Y-107567978D01*
X117664661Y-107668993D01*
X117664661Y-107803680D01*
X117732004Y-107938367D01*
X117799348Y-108005711D01*
X117934035Y-108073054D01*
X118001378Y-108073054D01*
X118270752Y-108342429D02*
X118270752Y-108409772D01*
X118304424Y-108510787D01*
X118472783Y-108679146D01*
X118573798Y-108712818D01*
X118641141Y-108712818D01*
X118742157Y-108679146D01*
X118809500Y-108611803D01*
X118876844Y-108477116D01*
X118876844Y-107668993D01*
X119314577Y-108106726D01*
X119045203Y-109251566D02*
X119112546Y-109318909D01*
X119213561Y-109352581D01*
X119280905Y-109352581D01*
X119381920Y-109318909D01*
X119550279Y-109217894D01*
X119718638Y-109049535D01*
X119819653Y-108881177D01*
X119853325Y-108780161D01*
X119853325Y-108712818D01*
X119819653Y-108611803D01*
X119752309Y-108544459D01*
X119651294Y-108510787D01*
X119583951Y-108510787D01*
X119482935Y-108544459D01*
X119314577Y-108645474D01*
X119146218Y-108813833D01*
X119045203Y-108982192D01*
X119011531Y-109083207D01*
X119011531Y-109150551D01*
X119045203Y-109251566D01*
%TO.C,R12*%
X87779971Y-160349458D02*
X87678956Y-159777039D01*
X88184032Y-159945397D02*
X87476925Y-159238291D01*
X87207551Y-159507665D01*
X87173879Y-159608680D01*
X87173879Y-159676023D01*
X87207551Y-159777039D01*
X87308566Y-159878054D01*
X87409582Y-159911726D01*
X87476925Y-159911726D01*
X87577940Y-159878054D01*
X87847314Y-159608680D01*
X87106536Y-161022894D02*
X87510597Y-160618833D01*
X87308566Y-160820863D02*
X86601459Y-160113756D01*
X86769818Y-160147428D01*
X86904505Y-160147428D01*
X87005520Y-160113756D01*
X86197398Y-160652504D02*
X86130055Y-160652504D01*
X86029040Y-160686176D01*
X85860681Y-160854535D01*
X85827009Y-160955550D01*
X85827009Y-161022894D01*
X85860681Y-161123909D01*
X85928024Y-161191252D01*
X86062711Y-161258596D01*
X86870833Y-161258596D01*
X86433101Y-161696329D01*
%TO.C,C44*%
X131135445Y-113818687D02*
X131183064Y-113866306D01*
X131325921Y-113913925D01*
X131421159Y-113913925D01*
X131564016Y-113866306D01*
X131659254Y-113771068D01*
X131706873Y-113675830D01*
X131754492Y-113485354D01*
X131754492Y-113342497D01*
X131706873Y-113152021D01*
X131659254Y-113056783D01*
X131564016Y-112961545D01*
X131421159Y-112913925D01*
X131325921Y-112913925D01*
X131183064Y-112961545D01*
X131135445Y-113009164D01*
X130278302Y-113247259D02*
X130278302Y-113913925D01*
X130516397Y-112866306D02*
X130754492Y-113580592D01*
X130135445Y-113580592D01*
X129325921Y-113247259D02*
X129325921Y-113913925D01*
X129564016Y-112866306D02*
X129802111Y-113580592D01*
X129183064Y-113580592D01*
%TO.C,R16*%
X117832009Y-117569498D02*
X117730994Y-116997079D01*
X118236070Y-117165437D02*
X117528963Y-116458331D01*
X117259589Y-116727705D01*
X117225917Y-116828720D01*
X117225917Y-116896063D01*
X117259589Y-116997079D01*
X117360604Y-117098094D01*
X117461620Y-117131766D01*
X117528963Y-117131766D01*
X117629978Y-117098094D01*
X117899352Y-116828720D01*
X117158574Y-118242934D02*
X117562635Y-117838873D01*
X117360604Y-118040903D02*
X116653497Y-117333796D01*
X116821856Y-117367468D01*
X116956543Y-117367468D01*
X117057559Y-117333796D01*
X115845375Y-118141918D02*
X115980062Y-118007231D01*
X116081078Y-117973560D01*
X116148421Y-117973560D01*
X116316780Y-118007231D01*
X116485139Y-118108247D01*
X116754513Y-118377621D01*
X116788184Y-118478636D01*
X116788184Y-118545979D01*
X116754513Y-118646995D01*
X116619826Y-118781682D01*
X116518810Y-118815353D01*
X116451467Y-118815353D01*
X116350452Y-118781682D01*
X116182093Y-118613323D01*
X116148421Y-118512308D01*
X116148421Y-118444964D01*
X116182093Y-118343949D01*
X116316780Y-118209262D01*
X116417795Y-118175590D01*
X116485139Y-118175590D01*
X116586154Y-118209262D01*
%TO.C,U4*%
X98603567Y-143041342D02*
X98603567Y-143850866D01*
X98555948Y-143946104D01*
X98508329Y-143993723D01*
X98413091Y-144041342D01*
X98222615Y-144041342D01*
X98127377Y-143993723D01*
X98079758Y-143946104D01*
X98032139Y-143850866D01*
X98032139Y-143041342D01*
X97127377Y-143374676D02*
X97127377Y-144041342D01*
X97365472Y-142993723D02*
X97603567Y-143708009D01*
X96984520Y-143708009D01*
%TO.C,D16*%
X108033529Y-149759693D02*
X107326423Y-150466800D01*
X107494781Y-150635159D01*
X107629468Y-150702502D01*
X107764155Y-150702502D01*
X107865171Y-150668830D01*
X108033529Y-150567815D01*
X108134545Y-150466800D01*
X108235560Y-150298441D01*
X108269232Y-150197426D01*
X108269232Y-150062739D01*
X108201888Y-149928052D01*
X108033529Y-149759693D01*
X109111026Y-150837189D02*
X108706965Y-150433128D01*
X108908995Y-150635159D02*
X108201888Y-151342266D01*
X108235560Y-151173907D01*
X108235560Y-151039220D01*
X108201888Y-150938205D01*
X109010010Y-152150388D02*
X108875323Y-152015701D01*
X108841652Y-151914685D01*
X108841652Y-151847342D01*
X108875323Y-151678983D01*
X108976339Y-151510624D01*
X109245713Y-151241250D01*
X109346728Y-151207579D01*
X109414071Y-151207579D01*
X109515087Y-151241250D01*
X109649774Y-151375937D01*
X109683445Y-151476953D01*
X109683445Y-151544296D01*
X109649774Y-151645311D01*
X109481415Y-151813670D01*
X109380400Y-151847342D01*
X109313056Y-151847342D01*
X109212041Y-151813670D01*
X109077354Y-151678983D01*
X109043682Y-151577968D01*
X109043682Y-151510624D01*
X109077354Y-151409609D01*
%TO.C,R11*%
X105811194Y-132418740D02*
X105710179Y-131846321D01*
X106215255Y-132014679D02*
X105508148Y-131307573D01*
X105238774Y-131576947D01*
X105205102Y-131677962D01*
X105205102Y-131745305D01*
X105238774Y-131846321D01*
X105339789Y-131947336D01*
X105440805Y-131981008D01*
X105508148Y-131981008D01*
X105609163Y-131947336D01*
X105878537Y-131677962D01*
X105137759Y-133092176D02*
X105541820Y-132688115D01*
X105339789Y-132890145D02*
X104632682Y-132183038D01*
X104801041Y-132216710D01*
X104935728Y-132216710D01*
X105036744Y-132183038D01*
X104464324Y-133765611D02*
X104868385Y-133361550D01*
X104666354Y-133563580D02*
X103959247Y-132856473D01*
X104127606Y-132890145D01*
X104262293Y-132890145D01*
X104363308Y-132856473D01*
%TO.C,D12*%
X120231121Y-125894839D02*
X119524015Y-126601946D01*
X119692373Y-126770305D01*
X119827060Y-126837648D01*
X119961747Y-126837648D01*
X120062763Y-126803976D01*
X120231121Y-126702961D01*
X120332137Y-126601946D01*
X120433152Y-126433587D01*
X120466824Y-126332572D01*
X120466824Y-126197885D01*
X120399480Y-126063198D01*
X120231121Y-125894839D01*
X121308618Y-126972335D02*
X120904557Y-126568274D01*
X121106587Y-126770305D02*
X120399480Y-127477412D01*
X120433152Y-127309053D01*
X120433152Y-127174366D01*
X120399480Y-127073351D01*
X120938228Y-127881473D02*
X120938228Y-127948816D01*
X120971900Y-128049831D01*
X121140259Y-128218190D01*
X121241274Y-128251862D01*
X121308618Y-128251862D01*
X121409633Y-128218190D01*
X121476976Y-128150847D01*
X121544320Y-128016160D01*
X121544320Y-127208038D01*
X121982053Y-127645770D01*
%TO.C,C13*%
X109267187Y-98322998D02*
X109314806Y-98275379D01*
X109362425Y-98132522D01*
X109362425Y-98037284D01*
X109314806Y-97894427D01*
X109219568Y-97799189D01*
X109124330Y-97751570D01*
X108933854Y-97703951D01*
X108790997Y-97703951D01*
X108600521Y-97751570D01*
X108505283Y-97799189D01*
X108410045Y-97894427D01*
X108362425Y-98037284D01*
X108362425Y-98132522D01*
X108410045Y-98275379D01*
X108457664Y-98322998D01*
X109362425Y-99275379D02*
X109362425Y-98703951D01*
X109362425Y-98989665D02*
X108362425Y-98989665D01*
X108505283Y-98894427D01*
X108600521Y-98799189D01*
X108648140Y-98703951D01*
X108362425Y-99608713D02*
X108362425Y-100227760D01*
X108743378Y-99894427D01*
X108743378Y-100037284D01*
X108790997Y-100132522D01*
X108838616Y-100180141D01*
X108933854Y-100227760D01*
X109171949Y-100227760D01*
X109267187Y-100180141D01*
X109314806Y-100132522D01*
X109362425Y-100037284D01*
X109362425Y-99751570D01*
X109314806Y-99656332D01*
X109267187Y-99608713D01*
%TO.C,R17*%
X120306883Y-120044372D02*
X120205868Y-119471953D01*
X120710944Y-119640311D02*
X120003837Y-118933205D01*
X119734463Y-119202579D01*
X119700791Y-119303594D01*
X119700791Y-119370937D01*
X119734463Y-119471953D01*
X119835478Y-119572968D01*
X119936494Y-119606640D01*
X120003837Y-119606640D01*
X120104852Y-119572968D01*
X120374226Y-119303594D01*
X119633448Y-120717808D02*
X120037509Y-120313747D01*
X119835478Y-120515777D02*
X119128371Y-119808670D01*
X119296730Y-119842342D01*
X119431417Y-119842342D01*
X119532433Y-119808670D01*
X118690639Y-120246403D02*
X118219234Y-120717808D01*
X119229387Y-121121869D01*
%TO.C,Q1*%
X64138096Y-173007883D02*
X64090477Y-172912645D01*
X63995238Y-172817407D01*
X63852381Y-172674550D01*
X63804762Y-172579312D01*
X63804762Y-172484074D01*
X64042857Y-172531693D02*
X63995238Y-172436455D01*
X63900000Y-172341217D01*
X63709524Y-172293598D01*
X63376191Y-172293598D01*
X63185715Y-172341217D01*
X63090477Y-172436455D01*
X63042857Y-172531693D01*
X63042857Y-172722169D01*
X63090477Y-172817407D01*
X63185715Y-172912645D01*
X63376191Y-172960264D01*
X63709524Y-172960264D01*
X63900000Y-172912645D01*
X63995238Y-172817407D01*
X64042857Y-172722169D01*
X64042857Y-172531693D01*
X64042857Y-173912645D02*
X64042857Y-173341217D01*
X64042857Y-173626931D02*
X63042857Y-173626931D01*
X63185715Y-173531693D01*
X63280953Y-173436455D01*
X63328572Y-173341217D01*
%TO.C,R6*%
X106132085Y-122099360D02*
X106031070Y-121526940D01*
X106536146Y-121695299D02*
X105829040Y-120988192D01*
X105559665Y-121257566D01*
X105525994Y-121358581D01*
X105525994Y-121425925D01*
X105559665Y-121526940D01*
X105660681Y-121627955D01*
X105761696Y-121661627D01*
X105829040Y-121661627D01*
X105930055Y-121627955D01*
X106199429Y-121358581D01*
X104818887Y-121998345D02*
X104953574Y-121863658D01*
X105054589Y-121829986D01*
X105121933Y-121829986D01*
X105290291Y-121863658D01*
X105458650Y-121964673D01*
X105728024Y-122234047D01*
X105761696Y-122335062D01*
X105761696Y-122402406D01*
X105728024Y-122503421D01*
X105593337Y-122638108D01*
X105492322Y-122671780D01*
X105424978Y-122671780D01*
X105323963Y-122638108D01*
X105155604Y-122469749D01*
X105121933Y-122368734D01*
X105121933Y-122301391D01*
X105155604Y-122200375D01*
X105290291Y-122065688D01*
X105391307Y-122032017D01*
X105458650Y-122032017D01*
X105559665Y-122065688D01*
%TO.C,GD1*%
X57339017Y-153109453D02*
X57291397Y-153014215D01*
X57291397Y-152871358D01*
X57339017Y-152728500D01*
X57434255Y-152633262D01*
X57529493Y-152585643D01*
X57719969Y-152538024D01*
X57862826Y-152538024D01*
X58053302Y-152585643D01*
X58148540Y-152633262D01*
X58243778Y-152728500D01*
X58291397Y-152871358D01*
X58291397Y-152966596D01*
X58243778Y-153109453D01*
X58196159Y-153157072D01*
X57862826Y-153157072D01*
X57862826Y-152966596D01*
X58291397Y-153585643D02*
X57291397Y-153585643D01*
X57291397Y-153823739D01*
X57339017Y-153966596D01*
X57434255Y-154061834D01*
X57529493Y-154109453D01*
X57719969Y-154157072D01*
X57862826Y-154157072D01*
X58053302Y-154109453D01*
X58148540Y-154061834D01*
X58243778Y-153966596D01*
X58291397Y-153823739D01*
X58291397Y-153585643D01*
X58291397Y-155109453D02*
X58291397Y-154538024D01*
X58291397Y-154823739D02*
X57291397Y-154823739D01*
X57434255Y-154728500D01*
X57529493Y-154633262D01*
X57577112Y-154538024D01*
%TO.C,R8*%
X111298679Y-128177111D02*
X110726259Y-128278126D01*
X110894618Y-127773050D02*
X110187511Y-128480156D01*
X110456885Y-128749531D01*
X110557900Y-128783202D01*
X110625244Y-128783202D01*
X110726259Y-128749531D01*
X110827274Y-128648515D01*
X110860946Y-128547500D01*
X110860946Y-128480156D01*
X110827274Y-128379141D01*
X110557900Y-128109767D01*
X111298679Y-128985233D02*
X111197664Y-128951561D01*
X111130320Y-128951561D01*
X111029305Y-128985233D01*
X110995633Y-129018905D01*
X110961961Y-129119920D01*
X110961961Y-129187263D01*
X110995633Y-129288279D01*
X111130320Y-129422966D01*
X111231336Y-129456637D01*
X111298679Y-129456637D01*
X111399694Y-129422966D01*
X111433366Y-129389294D01*
X111467038Y-129288279D01*
X111467038Y-129220935D01*
X111433366Y-129119920D01*
X111298679Y-128985233D01*
X111265007Y-128884218D01*
X111265007Y-128816874D01*
X111298679Y-128715859D01*
X111433366Y-128581172D01*
X111534381Y-128547500D01*
X111601725Y-128547500D01*
X111702740Y-128581172D01*
X111837427Y-128715859D01*
X111871099Y-128816874D01*
X111871099Y-128884218D01*
X111837427Y-128985233D01*
X111702740Y-129119920D01*
X111601725Y-129153592D01*
X111534381Y-129153592D01*
X111433366Y-129119920D01*
%TO.C,Q3*%
X133531379Y-99525048D02*
X133626617Y-99477429D01*
X133721855Y-99382190D01*
X133864712Y-99239333D01*
X133959950Y-99191714D01*
X134055188Y-99191714D01*
X134007569Y-99429809D02*
X134102807Y-99382190D01*
X134198045Y-99286952D01*
X134245664Y-99096476D01*
X134245664Y-98763143D01*
X134198045Y-98572667D01*
X134102807Y-98477429D01*
X134007569Y-98429809D01*
X133817093Y-98429809D01*
X133721855Y-98477429D01*
X133626617Y-98572667D01*
X133578998Y-98763143D01*
X133578998Y-99096476D01*
X133626617Y-99286952D01*
X133721855Y-99382190D01*
X133817093Y-99429809D01*
X134007569Y-99429809D01*
X133245664Y-98429809D02*
X132626617Y-98429809D01*
X132959950Y-98810762D01*
X132817093Y-98810762D01*
X132721855Y-98858381D01*
X132674236Y-98906000D01*
X132626617Y-99001238D01*
X132626617Y-99239333D01*
X132674236Y-99334571D01*
X132721855Y-99382190D01*
X132817093Y-99429809D01*
X133102807Y-99429809D01*
X133198045Y-99382190D01*
X133245664Y-99334571D01*
%TO.C,D17*%
X104144441Y-145870606D02*
X103437335Y-146577713D01*
X103605693Y-146746072D01*
X103740380Y-146813415D01*
X103875067Y-146813415D01*
X103976083Y-146779743D01*
X104144441Y-146678728D01*
X104245457Y-146577713D01*
X104346472Y-146409354D01*
X104380144Y-146308339D01*
X104380144Y-146173652D01*
X104312800Y-146038965D01*
X104144441Y-145870606D01*
X105221938Y-146948102D02*
X104817877Y-146544041D01*
X105019907Y-146746072D02*
X104312800Y-147453179D01*
X104346472Y-147284820D01*
X104346472Y-147150133D01*
X104312800Y-147049118D01*
X104750533Y-147890911D02*
X105221938Y-148362316D01*
X105625999Y-147352163D01*
%TO.C,C19*%
X67513711Y-157959679D02*
X67581055Y-157959679D01*
X67715742Y-157892335D01*
X67783085Y-157824992D01*
X67850429Y-157690305D01*
X67850429Y-157555618D01*
X67816757Y-157454603D01*
X67715742Y-157286244D01*
X67614727Y-157185229D01*
X67446368Y-157084213D01*
X67345353Y-157050542D01*
X67210666Y-157050542D01*
X67075979Y-157117885D01*
X67008635Y-157185229D01*
X66941292Y-157319916D01*
X66941292Y-157387259D01*
X66907620Y-158700458D02*
X67311681Y-158296397D01*
X67109650Y-158498427D02*
X66402543Y-157791320D01*
X66570902Y-157824992D01*
X66705589Y-157824992D01*
X66806604Y-157791320D01*
X66570902Y-159037175D02*
X66436215Y-159171862D01*
X66335200Y-159205534D01*
X66267856Y-159205534D01*
X66099498Y-159171862D01*
X65931139Y-159070847D01*
X65661765Y-158801473D01*
X65628093Y-158700458D01*
X65628093Y-158633114D01*
X65661765Y-158532099D01*
X65796452Y-158397412D01*
X65897467Y-158363740D01*
X65964811Y-158363740D01*
X66065826Y-158397412D01*
X66234185Y-158565771D01*
X66267856Y-158666786D01*
X66267856Y-158734129D01*
X66234185Y-158835145D01*
X66099498Y-158969832D01*
X65998482Y-159003503D01*
X65931139Y-159003503D01*
X65830124Y-158969832D01*
%TO.C,Q6*%
X58617296Y-165093655D02*
X58569677Y-164998417D01*
X58474438Y-164903179D01*
X58331581Y-164760322D01*
X58283962Y-164665084D01*
X58283962Y-164569846D01*
X58522057Y-164617465D02*
X58474438Y-164522227D01*
X58379200Y-164426989D01*
X58188724Y-164379370D01*
X57855391Y-164379370D01*
X57664915Y-164426989D01*
X57569677Y-164522227D01*
X57522057Y-164617465D01*
X57522057Y-164807941D01*
X57569677Y-164903179D01*
X57664915Y-164998417D01*
X57855391Y-165046036D01*
X58188724Y-165046036D01*
X58379200Y-164998417D01*
X58474438Y-164903179D01*
X58522057Y-164807941D01*
X58522057Y-164617465D01*
X57522057Y-165903179D02*
X57522057Y-165712703D01*
X57569677Y-165617465D01*
X57617296Y-165569846D01*
X57760153Y-165474608D01*
X57950629Y-165426989D01*
X58331581Y-165426989D01*
X58426819Y-165474608D01*
X58474438Y-165522227D01*
X58522057Y-165617465D01*
X58522057Y-165807941D01*
X58474438Y-165903179D01*
X58426819Y-165950798D01*
X58331581Y-165998417D01*
X58093486Y-165998417D01*
X57998248Y-165950798D01*
X57950629Y-165903179D01*
X57903010Y-165807941D01*
X57903010Y-165617465D01*
X57950629Y-165522227D01*
X57998248Y-165474608D01*
X58093486Y-165426989D01*
%TO.C,R9*%
X114431162Y-125044628D02*
X113858742Y-125145643D01*
X114027101Y-124640567D02*
X113319994Y-125347673D01*
X113589368Y-125617048D01*
X113690383Y-125650719D01*
X113757727Y-125650719D01*
X113858742Y-125617048D01*
X113959757Y-125516032D01*
X113993429Y-125415017D01*
X113993429Y-125347673D01*
X113959757Y-125246658D01*
X113690383Y-124977284D01*
X114767880Y-125381345D02*
X114902567Y-125516032D01*
X114936238Y-125617048D01*
X114936238Y-125684391D01*
X114902567Y-125852750D01*
X114801551Y-126021109D01*
X114532177Y-126290483D01*
X114431162Y-126324154D01*
X114363819Y-126324154D01*
X114262803Y-126290483D01*
X114128116Y-126155796D01*
X114094444Y-126054780D01*
X114094444Y-125987437D01*
X114128116Y-125886422D01*
X114296475Y-125718063D01*
X114397490Y-125684391D01*
X114464834Y-125684391D01*
X114565849Y-125718063D01*
X114700536Y-125852750D01*
X114734208Y-125953765D01*
X114734208Y-126021109D01*
X114700536Y-126122124D01*
%TO.C,R1*%
X88621764Y-152268239D02*
X88049344Y-152369254D01*
X88217703Y-151864178D02*
X87510596Y-152571284D01*
X87779970Y-152840659D01*
X87880985Y-152874330D01*
X87948329Y-152874330D01*
X88049344Y-152840659D01*
X88150359Y-152739643D01*
X88184031Y-152638628D01*
X88184031Y-152571284D01*
X88150359Y-152470269D01*
X87880985Y-152200895D01*
X89295199Y-152941674D02*
X88891138Y-152537613D01*
X89093169Y-152739643D02*
X88386062Y-153446750D01*
X88419734Y-153278391D01*
X88419733Y-153143704D01*
X88386062Y-153042689D01*
%TO.C,Q12*%
X126222822Y-110771650D02*
X126318060Y-110724031D01*
X126413298Y-110628792D01*
X126556155Y-110485935D01*
X126651394Y-110438316D01*
X126746632Y-110438316D01*
X126699013Y-110676411D02*
X126794251Y-110628792D01*
X126889489Y-110533554D01*
X126937108Y-110343078D01*
X126937108Y-110009745D01*
X126889489Y-109819269D01*
X126794251Y-109724031D01*
X126699013Y-109676411D01*
X126508536Y-109676411D01*
X126413298Y-109724031D01*
X126318060Y-109819269D01*
X126270441Y-110009745D01*
X126270441Y-110343078D01*
X126318060Y-110533554D01*
X126413298Y-110628792D01*
X126508536Y-110676411D01*
X126699013Y-110676411D01*
X125318060Y-110676411D02*
X125889489Y-110676411D01*
X125603774Y-110676411D02*
X125603774Y-109676411D01*
X125699013Y-109819269D01*
X125794251Y-109914507D01*
X125889489Y-109962126D01*
X124937108Y-109771650D02*
X124889489Y-109724031D01*
X124794251Y-109676411D01*
X124556155Y-109676411D01*
X124460917Y-109724031D01*
X124413298Y-109771650D01*
X124365679Y-109866888D01*
X124365679Y-109962126D01*
X124413298Y-110104983D01*
X124984727Y-110676411D01*
X124365679Y-110676411D01*
%TO.C,U6*%
X114717371Y-130280586D02*
X115289791Y-129708166D01*
X115390806Y-129674494D01*
X115458150Y-129674494D01*
X115559165Y-129708166D01*
X115693852Y-129842853D01*
X115727524Y-129943868D01*
X115727524Y-130011212D01*
X115693852Y-130112227D01*
X115121432Y-130684647D01*
X115761196Y-131324410D02*
X115626509Y-131189723D01*
X115592837Y-131088708D01*
X115592837Y-131021364D01*
X115626509Y-130853005D01*
X115727524Y-130684647D01*
X115996898Y-130415273D01*
X116097913Y-130381601D01*
X116165257Y-130381601D01*
X116266272Y-130415273D01*
X116400959Y-130549960D01*
X116434631Y-130650975D01*
X116434631Y-130718318D01*
X116400959Y-130819334D01*
X116232600Y-130987692D01*
X116131585Y-131021364D01*
X116064241Y-131021364D01*
X115963226Y-130987692D01*
X115828539Y-130853005D01*
X115794867Y-130751990D01*
X115794867Y-130684647D01*
X115828539Y-130583631D01*
%TO.C,Q11*%
X133958890Y-110771650D02*
X134054128Y-110724031D01*
X134149366Y-110628792D01*
X134292223Y-110485935D01*
X134387462Y-110438316D01*
X134482700Y-110438316D01*
X134435081Y-110676411D02*
X134530319Y-110628792D01*
X134625557Y-110533554D01*
X134673176Y-110343078D01*
X134673176Y-110009745D01*
X134625557Y-109819269D01*
X134530319Y-109724031D01*
X134435081Y-109676411D01*
X134244604Y-109676411D01*
X134149366Y-109724031D01*
X134054128Y-109819269D01*
X134006509Y-110009745D01*
X134006509Y-110343078D01*
X134054128Y-110533554D01*
X134149366Y-110628792D01*
X134244604Y-110676411D01*
X134435081Y-110676411D01*
X133054128Y-110676411D02*
X133625557Y-110676411D01*
X133339842Y-110676411D02*
X133339842Y-109676411D01*
X133435081Y-109819269D01*
X133530319Y-109914507D01*
X133625557Y-109962126D01*
X132101747Y-110676411D02*
X132673176Y-110676411D01*
X132387462Y-110676411D02*
X132387462Y-109676411D01*
X132482700Y-109819269D01*
X132577938Y-109914507D01*
X132673176Y-109962126D01*
%TO.C,C6*%
X89084752Y-141905756D02*
X89084752Y-141838413D01*
X89017408Y-141703726D01*
X88950065Y-141636382D01*
X88815377Y-141569039D01*
X88680690Y-141569039D01*
X88579675Y-141602710D01*
X88411316Y-141703726D01*
X88310301Y-141804741D01*
X88209286Y-141973100D01*
X88175614Y-142074115D01*
X88175614Y-142208802D01*
X88242958Y-142343489D01*
X88310301Y-142410833D01*
X88444988Y-142478176D01*
X88512332Y-142478176D01*
X89051080Y-143151611D02*
X88916393Y-143016924D01*
X88882721Y-142915909D01*
X88882721Y-142848565D01*
X88916393Y-142680207D01*
X89017408Y-142511848D01*
X89286782Y-142242474D01*
X89387797Y-142208802D01*
X89455141Y-142208802D01*
X89556156Y-142242474D01*
X89690843Y-142377161D01*
X89724515Y-142478176D01*
X89724515Y-142545520D01*
X89690843Y-142646535D01*
X89522484Y-142814894D01*
X89421469Y-142848565D01*
X89354126Y-142848565D01*
X89253110Y-142814894D01*
X89118423Y-142680207D01*
X89084752Y-142579191D01*
X89084752Y-142511848D01*
X89118423Y-142410833D01*
%TO.C,D18*%
X106972869Y-143042178D02*
X106265763Y-143749285D01*
X106434121Y-143917644D01*
X106568808Y-143984987D01*
X106703495Y-143984987D01*
X106804511Y-143951315D01*
X106972869Y-143850300D01*
X107073885Y-143749285D01*
X107174900Y-143580926D01*
X107208572Y-143479911D01*
X107208572Y-143345224D01*
X107141228Y-143210537D01*
X106972869Y-143042178D01*
X108050366Y-144119674D02*
X107646305Y-143715613D01*
X107848335Y-143917644D02*
X107141228Y-144624751D01*
X107174900Y-144456392D01*
X107174900Y-144321705D01*
X107141228Y-144220690D01*
X108050366Y-144927796D02*
X107949350Y-144894125D01*
X107882007Y-144894125D01*
X107780992Y-144927796D01*
X107747320Y-144961468D01*
X107713648Y-145062483D01*
X107713648Y-145129827D01*
X107747320Y-145230842D01*
X107882007Y-145365529D01*
X107983022Y-145399201D01*
X108050366Y-145399201D01*
X108151381Y-145365529D01*
X108185053Y-145331857D01*
X108218724Y-145230842D01*
X108218724Y-145163499D01*
X108185053Y-145062483D01*
X108050366Y-144927796D01*
X108016694Y-144826781D01*
X108016694Y-144759438D01*
X108050366Y-144658422D01*
X108185053Y-144523735D01*
X108286068Y-144490064D01*
X108353411Y-144490064D01*
X108454427Y-144523735D01*
X108589114Y-144658422D01*
X108622785Y-144759438D01*
X108622785Y-144826781D01*
X108589114Y-144927796D01*
X108454427Y-145062483D01*
X108353411Y-145096155D01*
X108286068Y-145096155D01*
X108185053Y-145062483D01*
%TO.C,C8*%
X95861192Y-125970601D02*
X95928535Y-125970601D01*
X96063222Y-125903257D01*
X96130566Y-125835914D01*
X96197909Y-125701226D01*
X96197909Y-125566539D01*
X96164238Y-125465524D01*
X96063222Y-125297165D01*
X95962207Y-125196150D01*
X95793848Y-125095135D01*
X95692833Y-125061463D01*
X95558146Y-125061463D01*
X95423459Y-125128807D01*
X95356115Y-125196150D01*
X95288772Y-125330837D01*
X95288772Y-125398181D01*
X95120413Y-126037944D02*
X95154085Y-125936929D01*
X95154085Y-125869585D01*
X95120413Y-125768570D01*
X95086741Y-125734898D01*
X94985726Y-125701226D01*
X94918383Y-125701226D01*
X94817367Y-125734898D01*
X94682680Y-125869585D01*
X94649009Y-125970601D01*
X94649009Y-126037944D01*
X94682680Y-126138959D01*
X94716352Y-126172631D01*
X94817367Y-126206303D01*
X94884711Y-126206303D01*
X94985726Y-126172631D01*
X95120413Y-126037944D01*
X95221428Y-126004272D01*
X95288772Y-126004272D01*
X95389787Y-126037944D01*
X95524474Y-126172631D01*
X95558146Y-126273646D01*
X95558146Y-126340990D01*
X95524474Y-126442005D01*
X95389787Y-126576692D01*
X95288772Y-126610364D01*
X95221428Y-126610364D01*
X95120413Y-126576692D01*
X94985726Y-126442005D01*
X94952054Y-126340990D01*
X94952054Y-126273646D01*
X94985726Y-126172631D01*
%TO.C,D9*%
X114380654Y-107316450D02*
X113673547Y-108023556D01*
X113841906Y-108191915D01*
X113976593Y-108259259D01*
X114111280Y-108259259D01*
X114212295Y-108225587D01*
X114380654Y-108124572D01*
X114481669Y-108023556D01*
X114582685Y-107855198D01*
X114616356Y-107754182D01*
X114616356Y-107619495D01*
X114549013Y-107484808D01*
X114380654Y-107316450D01*
X115121433Y-108057228D02*
X115256120Y-108191915D01*
X115289791Y-108292931D01*
X115289791Y-108360274D01*
X115256120Y-108528633D01*
X115155104Y-108696992D01*
X114885730Y-108966366D01*
X114784715Y-109000037D01*
X114717372Y-109000037D01*
X114616356Y-108966366D01*
X114481669Y-108831679D01*
X114447997Y-108730663D01*
X114447997Y-108663320D01*
X114481669Y-108562305D01*
X114650028Y-108393946D01*
X114751043Y-108360274D01*
X114818387Y-108360274D01*
X114919402Y-108393946D01*
X115054089Y-108528633D01*
X115087761Y-108629648D01*
X115087761Y-108696992D01*
X115054089Y-108798007D01*
%TO.C,R14*%
X109378211Y-111758027D02*
X108902021Y-111424694D01*
X109378211Y-111186599D02*
X108378211Y-111186599D01*
X108378211Y-111567551D01*
X108425831Y-111662789D01*
X108473450Y-111710408D01*
X108568688Y-111758027D01*
X108711545Y-111758027D01*
X108806783Y-111710408D01*
X108854402Y-111662789D01*
X108902021Y-111567551D01*
X108902021Y-111186599D01*
X109378211Y-112710408D02*
X109378211Y-112138980D01*
X109378211Y-112424694D02*
X108378211Y-112424694D01*
X108521069Y-112329456D01*
X108616307Y-112234218D01*
X108663926Y-112138980D01*
X108711545Y-113567551D02*
X109378211Y-113567551D01*
X108330592Y-113329456D02*
X109044878Y-113091361D01*
X109044878Y-113710408D01*
%TO.C,R7*%
X92864405Y-145904278D02*
X92291985Y-146005293D01*
X92460344Y-145500217D02*
X91753237Y-146207323D01*
X92022611Y-146476698D01*
X92123626Y-146510369D01*
X92190970Y-146510369D01*
X92291985Y-146476698D01*
X92393000Y-146375682D01*
X92426672Y-146274667D01*
X92426672Y-146207323D01*
X92393000Y-146106308D01*
X92123626Y-145836934D01*
X92393000Y-146847087D02*
X92864405Y-147318491D01*
X93268466Y-146308339D01*
%TO.C,C18*%
X58657000Y-157305754D02*
X58704619Y-157353373D01*
X58847476Y-157400992D01*
X58942714Y-157400992D01*
X59085571Y-157353373D01*
X59180809Y-157258135D01*
X59228428Y-157162897D01*
X59276047Y-156972421D01*
X59276047Y-156829564D01*
X59228428Y-156639088D01*
X59180809Y-156543850D01*
X59085571Y-156448612D01*
X58942714Y-156400992D01*
X58847476Y-156400992D01*
X58704619Y-156448612D01*
X58657000Y-156496231D01*
X57704619Y-157400992D02*
X58276047Y-157400992D01*
X57990333Y-157400992D02*
X57990333Y-156400992D01*
X58085571Y-156543850D01*
X58180809Y-156639088D01*
X58276047Y-156686707D01*
X57133190Y-156829564D02*
X57228428Y-156781945D01*
X57276047Y-156734326D01*
X57323666Y-156639088D01*
X57323666Y-156591469D01*
X57276047Y-156496231D01*
X57228428Y-156448612D01*
X57133190Y-156400992D01*
X56942714Y-156400992D01*
X56847476Y-156448612D01*
X56799857Y-156496231D01*
X56752238Y-156591469D01*
X56752238Y-156639088D01*
X56799857Y-156734326D01*
X56847476Y-156781945D01*
X56942714Y-156829564D01*
X57133190Y-156829564D01*
X57228428Y-156877183D01*
X57276047Y-156924802D01*
X57323666Y-157020040D01*
X57323666Y-157210516D01*
X57276047Y-157305754D01*
X57228428Y-157353373D01*
X57133190Y-157400992D01*
X56942714Y-157400992D01*
X56847476Y-157353373D01*
X56799857Y-157305754D01*
X56752238Y-157210516D01*
X56752238Y-157020040D01*
X56799857Y-156924802D01*
X56847476Y-156877183D01*
X56942714Y-156829564D01*
%TO.C,C14*%
X118118218Y-124926776D02*
X118185562Y-124926776D01*
X118320249Y-124859432D01*
X118387592Y-124792089D01*
X118454936Y-124657402D01*
X118454936Y-124522715D01*
X118421264Y-124421700D01*
X118320249Y-124253341D01*
X118219234Y-124152326D01*
X118050875Y-124051310D01*
X117949860Y-124017639D01*
X117815173Y-124017639D01*
X117680486Y-124084982D01*
X117613142Y-124152326D01*
X117545799Y-124287013D01*
X117545799Y-124354356D01*
X117512127Y-125667555D02*
X117916188Y-125263494D01*
X117714157Y-125465524D02*
X117007050Y-124758417D01*
X117175409Y-124792089D01*
X117310096Y-124792089D01*
X117411112Y-124758417D01*
X116434631Y-125802242D02*
X116906035Y-126273646D01*
X116333615Y-125364509D02*
X117007050Y-125701226D01*
X116569318Y-126138959D01*
%TO.C,D19*%
X110861956Y-146931266D02*
X110154850Y-147638373D01*
X110323208Y-147806732D01*
X110457895Y-147874075D01*
X110592582Y-147874075D01*
X110693598Y-147840403D01*
X110861956Y-147739388D01*
X110962972Y-147638373D01*
X111063987Y-147470014D01*
X111097659Y-147368999D01*
X111097659Y-147234312D01*
X111030315Y-147099625D01*
X110861956Y-146931266D01*
X111939453Y-148008762D02*
X111535392Y-147604701D01*
X111737422Y-147806732D02*
X111030315Y-148513839D01*
X111063987Y-148345480D01*
X111063987Y-148210793D01*
X111030315Y-148109778D01*
X112276170Y-148345480D02*
X112410857Y-148480167D01*
X112444529Y-148581182D01*
X112444529Y-148648526D01*
X112410857Y-148816884D01*
X112309842Y-148985243D01*
X112040468Y-149254617D01*
X111939453Y-149288289D01*
X111872109Y-149288289D01*
X111771094Y-149254617D01*
X111636407Y-149119930D01*
X111602735Y-149018915D01*
X111602735Y-148951571D01*
X111636407Y-148850556D01*
X111804766Y-148682197D01*
X111905781Y-148648526D01*
X111973124Y-148648526D01*
X112074140Y-148682197D01*
X112208827Y-148816884D01*
X112242498Y-148917900D01*
X112242498Y-148985243D01*
X112208827Y-149086258D01*
%TO.C,C45*%
X131135445Y-115232901D02*
X131183064Y-115280520D01*
X131325921Y-115328139D01*
X131421159Y-115328139D01*
X131564016Y-115280520D01*
X131659254Y-115185282D01*
X131706873Y-115090044D01*
X131754492Y-114899568D01*
X131754492Y-114756711D01*
X131706873Y-114566235D01*
X131659254Y-114470997D01*
X131564016Y-114375759D01*
X131421159Y-114328139D01*
X131325921Y-114328139D01*
X131183064Y-114375759D01*
X131135445Y-114423378D01*
X130278302Y-114661473D02*
X130278302Y-115328139D01*
X130516397Y-114280520D02*
X130754492Y-114994806D01*
X130135445Y-114994806D01*
X129278302Y-114328139D02*
X129754492Y-114328139D01*
X129802111Y-114804330D01*
X129754492Y-114756711D01*
X129659254Y-114709092D01*
X129421159Y-114709092D01*
X129325921Y-114756711D01*
X129278302Y-114804330D01*
X129230683Y-114899568D01*
X129230683Y-115137663D01*
X129278302Y-115232901D01*
X129325921Y-115280520D01*
X129421159Y-115328139D01*
X129659254Y-115328139D01*
X129754492Y-115280520D01*
X129802111Y-115232901D01*
%TO.C,C17*%
X53170461Y-152610007D02*
X53237805Y-152610007D01*
X53372492Y-152542663D01*
X53439835Y-152475320D01*
X53507179Y-152340633D01*
X53507179Y-152205946D01*
X53473507Y-152104931D01*
X53372492Y-151936572D01*
X53271477Y-151835557D01*
X53103118Y-151734541D01*
X53002103Y-151700870D01*
X52867416Y-151700870D01*
X52732729Y-151768213D01*
X52665385Y-151835557D01*
X52598042Y-151970244D01*
X52598042Y-152037587D01*
X52564370Y-153350786D02*
X52968431Y-152946725D01*
X52766400Y-153148755D02*
X52059293Y-152441648D01*
X52227652Y-152475320D01*
X52362339Y-152475320D01*
X52463354Y-152441648D01*
X51621561Y-152879381D02*
X51150156Y-153350786D01*
X52160309Y-153754847D01*
%TO.C,C41*%
X127953464Y-92251930D02*
X128001083Y-92299549D01*
X128143940Y-92347168D01*
X128239178Y-92347168D01*
X128382035Y-92299549D01*
X128477273Y-92204311D01*
X128524892Y-92109073D01*
X128572511Y-91918597D01*
X128572511Y-91775740D01*
X128524892Y-91585264D01*
X128477273Y-91490026D01*
X128382035Y-91394788D01*
X128239178Y-91347168D01*
X128143940Y-91347168D01*
X128001083Y-91394788D01*
X127953464Y-91442407D01*
X127096321Y-91680502D02*
X127096321Y-92347168D01*
X127334416Y-91299549D02*
X127572511Y-92013835D01*
X126953464Y-92013835D01*
X126048702Y-92347168D02*
X126620130Y-92347168D01*
X126334416Y-92347168D02*
X126334416Y-91347168D01*
X126429654Y-91490026D01*
X126524892Y-91585264D01*
X126620130Y-91632883D01*
%TO.C,C23*%
X83823539Y-156393028D02*
X83890883Y-156393028D01*
X84025570Y-156325684D01*
X84092913Y-156258341D01*
X84160257Y-156123654D01*
X84160257Y-155988967D01*
X84126585Y-155887952D01*
X84025570Y-155719593D01*
X83924555Y-155618578D01*
X83756196Y-155517562D01*
X83655181Y-155483891D01*
X83520494Y-155483891D01*
X83385807Y-155551234D01*
X83318463Y-155618578D01*
X83251120Y-155753265D01*
X83251120Y-155820608D01*
X82981745Y-156089982D02*
X82914402Y-156089982D01*
X82813387Y-156123654D01*
X82645028Y-156292013D01*
X82611356Y-156393028D01*
X82611356Y-156460371D01*
X82645028Y-156561387D01*
X82712371Y-156628730D01*
X82847058Y-156696074D01*
X83655181Y-156696074D01*
X83217448Y-157133807D01*
X82274639Y-156662402D02*
X81836906Y-157100135D01*
X82341982Y-157133807D01*
X82240967Y-157234822D01*
X82207295Y-157335837D01*
X82207295Y-157403181D01*
X82240967Y-157504196D01*
X82409326Y-157672555D01*
X82510341Y-157706226D01*
X82577684Y-157706226D01*
X82678700Y-157672555D01*
X82880730Y-157470524D01*
X82914402Y-157369509D01*
X82914402Y-157302165D01*
D11*
%TO.C,C7*%
X92639632Y-143688830D02*
X92487129Y-143536327D01*
X92130515Y-144197947D02*
X91978012Y-144045444D01*
%TO.C,FB1*%
X90371178Y-130280252D02*
X90035645Y-130615785D01*
X89632251Y-129541325D02*
X89296718Y-129876858D01*
%TO.C,R5*%
X112259668Y-115766542D02*
X111924135Y-115431009D01*
X112998595Y-115027615D02*
X112663062Y-114692082D01*
%TO.C,R10*%
X103806207Y-144726100D02*
X103470674Y-144390567D01*
X103067280Y-145465027D02*
X102731747Y-145129494D01*
%TO.C,C22*%
X118315326Y-93168422D02*
X118315326Y-93449582D01*
X119335326Y-93168422D02*
X119335326Y-93449582D01*
%TO.C,R2*%
X92125145Y-154321882D02*
X92460678Y-154657415D01*
X92864072Y-153582955D02*
X93199605Y-153918488D01*
%TO.C,R13*%
X114752562Y-131998178D02*
X115088095Y-131662645D01*
X115491489Y-132737105D02*
X115827022Y-132401572D01*
%TO.C,C21*%
X120042433Y-100239490D02*
X120042433Y-100520650D01*
X119022433Y-100239490D02*
X119022433Y-100520650D01*
%TO.C,Q10*%
X58292822Y-163118894D02*
X58492822Y-163118894D01*
X53292822Y-163118894D02*
X53492822Y-163118894D01*
X58492822Y-167418894D02*
X58342822Y-167418894D01*
X58492822Y-163118894D02*
X58492822Y-167418894D01*
X53292822Y-167418894D02*
X53292822Y-163118894D01*
X53442822Y-167418894D02*
X53292822Y-167418894D01*
%TO.C,C16*%
X104507944Y-129394191D02*
X104660447Y-129546694D01*
X103998827Y-129903308D02*
X104151330Y-130055811D01*
%TO.C,C15*%
X85241725Y-155337320D02*
X85394228Y-155184817D01*
X85750842Y-155846437D02*
X85903345Y-155693934D01*
%TO.C,U3*%
X107469191Y-134278769D02*
X108848049Y-132899910D01*
X111089577Y-137899155D02*
X112468436Y-136520297D01*
X111089577Y-137899155D02*
X108650059Y-140338674D01*
X107469191Y-134278769D02*
X106090332Y-135657627D01*
%TO.C,D13*%
X108749054Y-121437710D02*
X109788501Y-122477157D01*
X109788501Y-122477157D02*
X108172762Y-124092896D01*
X107133315Y-123053449D02*
X108749054Y-121437710D01*
%TO.C,D8*%
X64448890Y-157627826D02*
X64448890Y-159097826D01*
X62163890Y-157627826D02*
X64448890Y-157627826D01*
X64448890Y-159097826D02*
X62163890Y-159097826D01*
%TO.C,C43*%
X73373385Y-170243061D02*
X73373385Y-170524221D01*
X72353385Y-170243061D02*
X72353385Y-170524221D01*
%TO.C,C40*%
X51806628Y-162818440D02*
X51806628Y-163099600D01*
X50786628Y-162818440D02*
X50786628Y-163099600D01*
%TO.C,D10*%
X120267433Y-102430604D02*
X120267433Y-104715604D01*
X118797433Y-104715604D02*
X118797433Y-102430604D01*
X118797433Y-102430604D02*
X120267433Y-102430604D01*
%TO.C,Q5*%
X64013623Y-175333122D02*
X63863623Y-175333122D01*
X58813623Y-171033122D02*
X59013623Y-171033122D01*
X63813623Y-171033122D02*
X64013623Y-171033122D01*
X64013623Y-171033122D02*
X64013623Y-175333122D01*
X58963623Y-175333122D02*
X58813623Y-175333122D01*
X58813623Y-175333122D02*
X58813623Y-171033122D01*
%TO.C,GD2*%
X112472685Y-98270070D02*
X112472685Y-98745070D01*
X112947685Y-102490070D02*
X112472685Y-102490070D01*
X116692685Y-102490070D02*
X116692685Y-102015070D01*
X116217685Y-98270070D02*
X116692685Y-98270070D01*
X116217685Y-102490070D02*
X116692685Y-102490070D01*
X116692685Y-98270070D02*
X116692685Y-98745070D01*
X112947685Y-98270070D02*
X112472685Y-98270070D01*
%TO.C,C9*%
X105919097Y-139601753D02*
X105766594Y-139449250D01*
X106428214Y-139092636D02*
X106275711Y-138940133D01*
%TO.C,D5*%
X84375084Y-146165234D02*
X85414531Y-145125787D01*
X85414531Y-145125787D02*
X87030270Y-146741526D01*
X85990823Y-147780973D02*
X84375084Y-146165234D01*
%TO.C,U5*%
X87665571Y-156675281D02*
X88655521Y-157665231D01*
X87015033Y-159305719D02*
X85671530Y-157962216D01*
%TO.C,C5*%
X99979160Y-129095052D02*
X100194832Y-129095052D01*
X99979160Y-128375052D02*
X100194832Y-128375052D01*
%TO.C,C11*%
X87735371Y-131668015D02*
X87887874Y-131515512D01*
X88244488Y-132177132D02*
X88396991Y-132024629D01*
%TO.C,C42*%
X71959172Y-170243061D02*
X71959172Y-170524221D01*
X70939172Y-170243061D02*
X70939172Y-170524221D01*
%TO.C,C12*%
X62861770Y-151203780D02*
X62662959Y-151004969D01*
X63583019Y-150482531D02*
X63384208Y-150283720D01*
%TO.C,D6*%
X54172785Y-151972348D02*
X55788524Y-150356609D01*
X56827971Y-151396056D02*
X55212232Y-153011795D01*
X55212232Y-153011795D02*
X54172785Y-151972348D01*
%TO.C,Q2*%
X69606531Y-163118894D02*
X69806531Y-163118894D01*
X64606531Y-163118894D02*
X64806531Y-163118894D01*
X69806531Y-167418894D02*
X69656531Y-167418894D01*
X64606531Y-167418894D02*
X64606531Y-163118894D01*
X69806531Y-163118894D02*
X69806531Y-167418894D01*
X64756531Y-167418894D02*
X64606531Y-167418894D01*
%TO.C,Q4*%
X127881394Y-98030322D02*
X123581394Y-98030322D01*
X123581394Y-98030322D02*
X123581394Y-97830322D01*
X123581394Y-93030322D02*
X123581394Y-92830322D01*
X127881394Y-97880322D02*
X127881394Y-98030322D01*
X127881394Y-92830322D02*
X127881394Y-92980322D01*
X123581394Y-92830322D02*
X127881394Y-92830322D01*
%TO.C,R4*%
X89296718Y-157150309D02*
X89632251Y-157485842D01*
X90035645Y-156411382D02*
X90371178Y-156746915D01*
%TO.C,R3*%
X94278286Y-152168742D02*
X94613819Y-152504275D01*
X93539359Y-152907669D02*
X93874892Y-153243202D01*
%TO.C,C24*%
X113614359Y-130325631D02*
X113415548Y-130524442D01*
X114335608Y-131046880D02*
X114136797Y-131245691D01*
%TO.C,Q9*%
X53103216Y-171086675D02*
X53303216Y-171086675D01*
X58303216Y-175386675D02*
X58153216Y-175386675D01*
X58303216Y-171086675D02*
X58303216Y-175386675D01*
X58103216Y-171086675D02*
X58303216Y-171086675D01*
X53103216Y-175386675D02*
X53103216Y-171086675D01*
X53253216Y-175386675D02*
X53103216Y-175386675D01*
%TO.C,Q7*%
X131359568Y-103687177D02*
X131359568Y-103487177D01*
X135659568Y-103537177D02*
X135659568Y-103687177D01*
X131359568Y-98487177D02*
X135659568Y-98487177D01*
X131359568Y-98687177D02*
X131359568Y-98487177D01*
X135659568Y-98487177D02*
X135659568Y-98637177D01*
X135659568Y-103687177D02*
X131359568Y-103687177D01*
%TO.C,Q8*%
X127881394Y-103537177D02*
X127881394Y-103687177D01*
X123581394Y-98687177D02*
X123581394Y-98487177D01*
X127881394Y-103687177D02*
X123581394Y-103687177D01*
X123581394Y-98487177D02*
X127881394Y-98487177D01*
X127881394Y-98487177D02*
X127881394Y-98637177D01*
X123581394Y-103687177D02*
X123581394Y-103487177D01*
%TO.C,D7*%
X56069599Y-158164836D02*
X54453860Y-156549097D01*
X55493307Y-155509650D02*
X57109046Y-157125389D01*
X57109046Y-157125389D02*
X56069599Y-158164836D01*
%TO.C,R15*%
X74514857Y-149355045D02*
X74040341Y-149355045D01*
X74514857Y-150400045D02*
X74040341Y-150400045D01*
%TO.C,Y1*%
X86744861Y-135703176D02*
X87144861Y-135703176D01*
X84744861Y-139303176D02*
X86744861Y-139303176D01*
X86744861Y-135503176D02*
X87144861Y-135503176D01*
X84744861Y-135703176D02*
X84744861Y-136703176D01*
X86744861Y-139303176D02*
X87144861Y-139303176D01*
X87144861Y-136703176D02*
X87544861Y-136703176D01*
X86744861Y-135703176D02*
X84744861Y-135703176D01*
X84744861Y-135503176D02*
X86744861Y-135503176D01*
X87144861Y-139303176D02*
X87144861Y-138503176D01*
X84744861Y-138503176D02*
X84744861Y-139303176D01*
X87144861Y-136703176D02*
X87144861Y-135703176D01*
%TO.C,D11*%
X119560326Y-95359536D02*
X119560326Y-97644536D01*
X118090326Y-97644536D02*
X118090326Y-95359536D01*
X118090326Y-95359536D02*
X119560326Y-95359536D01*
%TO.C,C20*%
X117503447Y-109678935D02*
X117304636Y-109480124D01*
X118224696Y-108957686D02*
X118025885Y-108758875D01*
%TO.C,R12*%
X85774232Y-160295497D02*
X86109765Y-159959964D01*
X85035305Y-159556570D02*
X85370838Y-159221037D01*
%TO.C,C44*%
X130352008Y-111143118D02*
X130633168Y-111143118D01*
X130352008Y-110123118D02*
X130633168Y-110123118D01*
%TO.C,R16*%
X116198596Y-117180756D02*
X116534129Y-116845223D01*
X115459669Y-116441829D02*
X115795202Y-116106296D01*
%TO.C,U4*%
X91441462Y-140248962D02*
X90101462Y-140248962D01*
X101661462Y-141198962D02*
X101661462Y-140248962D01*
X100711462Y-130978962D02*
X101661462Y-130978962D01*
X92391462Y-130978962D02*
X91441462Y-130978962D01*
X91441462Y-141198962D02*
X91441462Y-140248962D01*
X101661462Y-130978962D02*
X101661462Y-131928962D01*
X91441462Y-130978962D02*
X91441462Y-131928962D01*
X100711462Y-141198962D02*
X101661462Y-141198962D01*
X92391462Y-141198962D02*
X91441462Y-141198962D01*
%TO.C,D16*%
X104506414Y-157337521D02*
X108324791Y-153519145D01*
X104506414Y-157337521D02*
X102172962Y-155004069D01*
X102172962Y-155004069D02*
X105991338Y-151185692D01*
%TO.C,R11*%
X103067280Y-131322891D02*
X102731747Y-130987358D01*
X103806207Y-130583964D02*
X103470674Y-130248431D01*
%TO.C,D12*%
X118871288Y-126214216D02*
X117255549Y-124598477D01*
X117255549Y-124598477D02*
X118294996Y-123559030D01*
X118294996Y-123559030D02*
X119910735Y-125174769D01*
%TO.C,C13*%
X109830045Y-98825276D02*
X109830045Y-99106436D01*
X110850045Y-98825276D02*
X110850045Y-99106436D01*
%TO.C,R17*%
X117934543Y-118916703D02*
X118270076Y-118581170D01*
X118673470Y-119655630D02*
X119009003Y-119320097D01*
%TO.C,Q1*%
X69670477Y-171033122D02*
X69670477Y-175333122D01*
X64470477Y-171033122D02*
X64670477Y-171033122D01*
X69470477Y-171033122D02*
X69670477Y-171033122D01*
X64470477Y-175333122D02*
X64470477Y-171033122D01*
X64620477Y-175333122D02*
X64470477Y-175333122D01*
X69670477Y-175333122D02*
X69520477Y-175333122D01*
%TO.C,R6*%
X104145960Y-120684470D02*
X104481493Y-120348937D01*
X104884887Y-121423397D02*
X105220420Y-121087864D01*
%TO.C,GD1*%
X63249017Y-151713739D02*
X62774017Y-151713739D01*
X63249017Y-155458739D02*
X63249017Y-155933739D01*
X59029017Y-152188739D02*
X59029017Y-151713739D01*
X59029017Y-155933739D02*
X59504017Y-155933739D01*
X63249017Y-152188739D02*
X63249017Y-151713739D01*
X63249017Y-155933739D02*
X62774017Y-155933739D01*
X59029017Y-155458739D02*
X59029017Y-155933739D01*
%TO.C,R8*%
X111570582Y-127805378D02*
X111906115Y-128140911D01*
X112309509Y-127066451D02*
X112645042Y-127401984D01*
%TO.C,Q3*%
X135666141Y-97947429D02*
X135666141Y-98097429D01*
X131366141Y-92897429D02*
X135666141Y-92897429D01*
X135666141Y-98097429D02*
X131366141Y-98097429D01*
X131366141Y-93097429D02*
X131366141Y-92897429D01*
X131366141Y-98097429D02*
X131366141Y-97897429D01*
X135666141Y-92897429D02*
X135666141Y-93047429D01*
%TO.C,D17*%
X98283874Y-151114982D02*
X102102250Y-147296605D01*
X100617326Y-153448434D02*
X98283874Y-151114982D01*
X100617326Y-153448434D02*
X104435703Y-149630058D01*
%TO.C,C19*%
X66252347Y-157209831D02*
X66053536Y-157408642D01*
X65531098Y-156488582D02*
X65332287Y-156687393D01*
%TO.C,Q6*%
X64149677Y-167418894D02*
X63999677Y-167418894D01*
X58949677Y-167418894D02*
X58949677Y-163118894D01*
X63949677Y-163118894D02*
X64149677Y-163118894D01*
X64149677Y-163118894D02*
X64149677Y-167418894D01*
X59099677Y-167418894D02*
X58949677Y-167418894D01*
X58949677Y-163118894D02*
X59149677Y-163118894D01*
%TO.C,R9*%
X113705702Y-126341324D02*
X113370169Y-126005791D01*
X112966775Y-127080251D02*
X112631242Y-126744718D01*
%TO.C,R1*%
X90710931Y-155736096D02*
X91046464Y-156071629D01*
X91449858Y-154997169D02*
X91785391Y-155332702D01*
%TO.C,Q12*%
X127881394Y-109194031D02*
X127881394Y-109344031D01*
X123581394Y-104144031D02*
X127881394Y-104144031D01*
X123581394Y-104344031D02*
X123581394Y-104144031D01*
X123581394Y-109344031D02*
X123581394Y-109144031D01*
X127881394Y-104144031D02*
X127881394Y-104294031D01*
X127881394Y-109344031D02*
X123581394Y-109344031D01*
%TO.C,U6*%
X116732290Y-130333114D02*
X115388787Y-128989611D01*
X117382828Y-127702676D02*
X118372778Y-128692626D01*
%TO.C,Q11*%
X131317462Y-104344031D02*
X131317462Y-104144031D01*
X131317462Y-104144031D02*
X135617462Y-104144031D01*
X135617462Y-104144031D02*
X135617462Y-104294031D01*
X131317462Y-109344031D02*
X131317462Y-109144031D01*
X135617462Y-109344031D02*
X131317462Y-109344031D01*
X135617462Y-109194031D02*
X135617462Y-109344031D01*
%TO.C,C6*%
X89655641Y-141723073D02*
X89503138Y-141570570D01*
X90164758Y-141213956D02*
X90012255Y-141061453D01*
%TO.C,D18*%
X109102608Y-144963152D02*
X112920985Y-141144776D01*
X106769156Y-142629700D02*
X110587532Y-138811323D01*
X109102608Y-144963152D02*
X106769156Y-142629700D01*
%TO.C,C8*%
X94407399Y-127428435D02*
X94254896Y-127580938D01*
X93898282Y-126919318D02*
X93745779Y-127071821D01*
%TO.C,D9*%
X117213122Y-107627914D02*
X116173675Y-108667361D01*
X115597383Y-106012175D02*
X117213122Y-107627914D01*
X116173675Y-108667361D02*
X114557936Y-107051622D01*
%TO.C,R14*%
X110862545Y-112163627D02*
X110862545Y-112638143D01*
X109817545Y-112163627D02*
X109817545Y-112638143D01*
%TO.C,R7*%
X90357378Y-144775941D02*
X90692911Y-145111474D01*
X91096305Y-144037014D02*
X91431838Y-144372547D01*
%TO.C,C18*%
X58154723Y-157852826D02*
X57873563Y-157852826D01*
X58154723Y-158872826D02*
X57873563Y-158872826D01*
%TO.C,C14*%
X115821652Y-127227384D02*
X115974155Y-127074881D01*
X115312535Y-126718267D02*
X115465038Y-126565764D01*
%TO.C,D19*%
X112991695Y-148852240D02*
X110658243Y-146518788D01*
X110658243Y-146518788D02*
X114476619Y-142700411D01*
X112991695Y-148852240D02*
X116810072Y-145033864D01*
%TO.C,C45*%
X130352008Y-111537332D02*
X130633168Y-111537332D01*
X130352008Y-112557332D02*
X130633168Y-112557332D01*
%TO.C,C17*%
X53679168Y-154226662D02*
X53877979Y-154027851D01*
X52957919Y-153505413D02*
X53156730Y-153306602D01*
%TO.C,C41*%
X123280940Y-91344128D02*
X123562100Y-91344128D01*
X123280940Y-90324128D02*
X123562100Y-90324128D01*
%TO.C,C23*%
X83543549Y-157530470D02*
X83344738Y-157729281D01*
X84264798Y-158251719D02*
X84065987Y-158450530D01*
%TD*%
M02*
