M48
; DRILL file {KiCad (6.0.8)} date Thu Dec  8 06:23:51 2022
; FORMAT={-:-/ absolute / inch / decimal}
; #@! TF.CreationDate,2022-12-08T06:23:51+09:00
; #@! TF.GenerationSoftware,Kicad,Pcbnew,(6.0.8)
; #@! TF.FileFunction,Plated,1,4,PTH
FMAT,2
INCH
; #@! TA.AperFunction,Plated,PTH,ViaDrill
T1C0.0157
; #@! TA.AperFunction,Plated,PTH,ComponentDrill
T2C0.0236
; #@! TA.AperFunction,Plated,PTH,ComponentDrill
T3C0.0276
; #@! TA.AperFunction,Plated,PTH,ViaDrill
T4C0.0315
; #@! TA.AperFunction,Plated,PTH,ComponentDrill
T5C0.0394
; #@! TA.AperFunction,Plated,PTH,ComponentDrill
T6C0.0709
; #@! TA.AperFunction,Plated,PTH,ComponentDrill
T7C0.0748
%
G90
G05
T1
X2.0752Y-6.1373
X2.1187Y-6.1251
X2.1727Y-6.374
X2.2144Y-6.0538
X2.22Y-6.7442
X2.2283Y-5.9007
X2.2283Y-6.374
X2.2378Y-5.9981
X2.2562Y-6.1345
X2.2656Y-5.9703
X2.2701Y-6.4157
X2.284Y-6.7359
X2.3119Y-6.2626
X2.3213Y-5.9146
X2.3738Y-6.2132
X2.3954Y-6.374
X2.426Y-5.8311
X2.4308Y-5.8762
X2.4455Y-6.747
X2.4479Y-6.3708
X2.4511Y-6.2626
X2.4846Y-6.4315
X2.5012Y-6.7303
X2.5067Y-5.8304
X2.5902Y-6.0956
X2.6181Y-6.374
X2.6598Y-6.1652
X2.6598Y-6.2543
X2.6682Y-6.7414
X2.6738Y-6.374
X2.6877Y-6.2208
X2.7434Y-6.2487
X2.7434Y-6.4157
X2.7517Y-6.708
X2.7851Y-6.2626
X2.8408Y-6.2626
X3.0496Y-6.4435
X3.0913Y-6.4853
X3.1331Y-6.5271
X3.1895Y-5.8033
X3.2445Y-5.8033
X3.3141Y-5.7337
X3.3558Y-5.5805
X3.3976Y-5.5945
X3.3976Y-6.0399
X3.4254Y-6.0064
X3.4338Y-5.4135
X3.4393Y-5.5805
X3.4533Y-5.2604
X3.4811Y-6.3183
X3.4832Y-5.5409
X3.495Y-5.3022
X3.5089Y-5.3439
X3.5089Y-5.9285
X3.5507Y-6.193
X3.5507Y-6.3322
X3.5646Y-5.8729
X3.5785Y-6.2487
X3.5785Y-6.3044
X3.5931Y-5.0495
X3.6064Y-5.5527
X3.6064Y-6.1373
X3.6203Y-5.0934
X3.6264Y-5.2894
X3.6342Y-5.0238
X3.6342Y-5.33
X3.6342Y-5.3857
X3.6481Y-5.2326
X3.6481Y-6.1791
X3.662Y-5.7476
X3.662Y-6.0816
X3.7167Y-5.0516
X3.7177Y-6.026
X3.7177Y-6.1095
X3.724Y-5.5033
X3.7254Y-5.3223
X3.7316Y-5.2047
X3.7316Y-5.678
X3.7379Y-5.4058
X3.7657Y-5.282
X3.7734Y-4.8846
X3.7734Y-5.3703
X3.7873Y-6.0399
X3.8077Y-5.4167
X3.8137Y-5.33
X3.8291Y-5.2465
X3.8569Y-5.4135
X3.8569Y-5.6641
X3.8569Y-5.9703
X3.866Y-5.005
X3.8708Y-4.7871
X3.8987Y-5.6501
X3.9126Y-4.9952
X3.9126Y-5.9146
X3.9265Y-5.5109
X3.9397Y-5.4692
X3.9488Y-4.9263
X3.9655Y-4.9957
X3.9683Y-4.689
X3.9683Y-5.2743
X3.9683Y-5.3578
X3.9683Y-5.7754
X3.9683Y-5.8589
X3.9822Y-5.1769
X4.0156Y-4.9152
X4.0239Y-5.8033
X4.0601Y-5.6223
X4.0796Y-5.3022
X4.1075Y-5.2465
X4.1353Y-5.7754
X4.1492Y-5.149
X4.1587Y-5.2456
X4.1631Y-5.4413
X4.1631Y-5.5805
X4.1764Y-5.2096
X4.1771Y-5.6501
X4.2049Y-5.1769
X4.2188Y-5.497
X4.2467Y-5.5805
X4.3023Y-5.0516
X4.3163Y-4.0912
X4.3163Y-5.5109
X4.3302Y-3.9659
X4.3441Y-4.6201
X4.358Y-4.0494
X4.358Y-4.6619
X4.3859Y-5.4413
X4.3986Y-4.0907
X4.3998Y-5.2047
X4.4271Y-4.1185
X4.4415Y-3.771
X4.4543Y-4.1747
X4.4555Y-5.2604
X4.4833Y-4.2025
X4.4895Y-3.7633
X4.4972Y-5.33
X4.5111Y-5.0377
X4.539Y-4.1468
X4.5443Y-3.7812
X4.5807Y-3.6875
X4.6086Y-4.3278
X4.6093Y-3.7432
X4.6127Y-4.5463
X4.6225Y-4.815
X4.6225Y-5.2047
X4.6385Y-4.2422
X4.6503Y-4.6201
X4.6642Y-3.9102
X4.6642Y-3.9659
X4.6759Y-4.094
X4.6782Y-3.8685
X4.6858Y-5.0732
X4.706Y-4.6479
X4.7199Y-4.3
X4.7338Y-5.0655
X4.7617Y-4.8985
X4.7895Y-4.9542
X4.8034Y-4.0494
X4.8034Y-4.2728
X4.8034Y-4.8567
X4.8174Y-3.7293
X4.8452Y-3.8697
X4.8591Y-4.1051
X4.8591Y-4.8011
X4.873Y-3.6179
X4.9148Y-4.7454
X5.1793Y-3.6736
X5.1793Y-3.7293
X5.1793Y-3.8963
X5.1793Y-3.952
X5.1793Y-4.119
X5.1793Y-4.1747
T2
X2.7573Y-5.8172
X2.8065Y-5.8172
X2.8557Y-5.8172
X2.9049Y-5.8172
X2.9541Y-5.8172
X3.0033Y-5.8172
X3.0526Y-5.8172
X3.2236Y-5.7128
X3.2584Y-5.678
X3.2932Y-5.6432
X3.328Y-5.6084
X4.0831Y-4.9089
X4.1179Y-4.8741
X4.1527Y-4.8393
X4.1875Y-4.8045
X4.2663Y-4.3194
X4.2663Y-4.3686
X4.2663Y-4.4178
X4.2663Y-4.467
X4.2663Y-4.5162
X4.2663Y-4.5654
X4.2663Y-4.6146
T3
X3.3141Y-6.0399
X3.3558Y-5.9981
X3.3976Y-5.9564
X3.4393Y-5.9146
X3.4811Y-5.8729
X3.5229Y-5.8311
T4
X1.9917Y-6.0816
X2.0056Y-6.2069
X2.0056Y-6.3183
X2.0196Y-6.4992
X2.0613Y-6.7637
X2.0613Y-6.8194
X2.117Y-6.9864
X2.1309Y-6.4714
X2.1309Y-6.5271
X2.1309Y-6.5827
X2.1309Y-6.6384
X2.1448Y-5.8729
X2.1727Y-6.9864
X2.1866Y-6.4714
X2.1866Y-6.5271
X2.1866Y-6.5827
X2.1866Y-6.6384
X2.2283Y-6.9864
X2.2423Y-6.5271
X2.2423Y-6.5827
X2.2423Y-6.6384
X2.284Y-6.9864
X2.3397Y-5.845
X2.3397Y-6.9864
X2.3536Y-6.5827
X2.3536Y-6.6384
X2.3954Y-6.9864
X2.4093Y-6.4714
X2.4093Y-6.5271
X2.4093Y-6.5827
X2.4093Y-6.6384
X2.4511Y-6.9864
X2.465Y-6.5827
X2.465Y-6.6384
X2.5067Y-6.9864
X2.5624Y-6.9864
X2.6042Y-6.4714
X2.6042Y-6.5271
X2.6042Y-6.5827
X2.6042Y-6.6384
X2.6181Y-5.7893
X2.6181Y-6.9864
X2.6459Y-6.012
X2.6598Y-6.5271
X2.6598Y-6.5827
X2.6598Y-6.6384
X2.6738Y-6.9864
X2.7155Y-6.4714
X2.7155Y-6.5271
X2.7155Y-6.5827
X2.7155Y-6.6384
X2.7294Y-6.9864
X2.7851Y-6.8194
X2.7851Y-6.8751
X2.7851Y-6.9307
X2.7851Y-6.9864
X2.8269Y-6.36
X2.8269Y-6.4157
X2.8269Y-6.4714
X2.8269Y-6.5271
X2.8269Y-6.5827
X2.8408Y-5.9564
X2.8408Y-6.8194
X2.8826Y-6.5827
X2.8965Y-6.012
X2.8965Y-6.8194
X2.9382Y-6.5827
X2.9522Y-6.8194
X2.9939Y-6.5827
X3.0078Y-6.8194
X3.0496Y-6.5827
X3.0635Y-6.8194
X3.1053Y-6.5827
X3.1192Y-6.8194
X3.1609Y-6.5827
X3.1749Y-6.8194
X3.2305Y-6.8194
X3.2723Y-6.7776
X3.3001Y-6.4435
X3.3141Y-6.7359
X3.3558Y-6.6941
X3.3976Y-6.6523
X3.4393Y-6.6106
X3.9404Y-5.9703
X3.9822Y-5.9285
X3.9823Y-5.1212
X4.0935Y-6.1234
X4.1353Y-6.0816
X4.2327Y-4.0076
X4.2327Y-4.1747
X4.2606Y-3.8685
X4.2745Y-5.6362
X4.2884Y-3.7293
X4.3163Y-5.5945
X4.4276Y-5.7893
X4.4694Y-5.7476
X4.539Y-3.5622
X4.6503Y-3.5622
X4.6921Y-5.2465
X4.7199Y-4.7732
X4.7756Y-3.5761
X4.7895Y-4.3696
X4.8452Y-4.3696
X4.9009Y-4.3696
X4.9148Y-3.7432
X4.9148Y-3.7989
X4.9148Y-3.9659
X4.9148Y-4.2164
X4.9148Y-4.2721
X4.9426Y-3.5761
X4.9566Y-4.3696
X4.9705Y-3.6875
X4.9705Y-3.7432
X4.9705Y-3.7989
X4.9705Y-3.9659
X4.9705Y-4.1608
X4.9705Y-4.2164
X4.9705Y-4.2721
X5.0122Y-4.3696
X5.0122Y-4.4252
X5.0122Y-4.4809
X5.0122Y-4.5366
X5.0122Y-4.5923
X5.0122Y-4.6479
X5.0122Y-4.7036
X5.0261Y-3.6875
X5.0261Y-3.7432
X5.0261Y-3.7989
X5.0261Y-3.9102
X5.0261Y-3.9659
X5.0261Y-4.0216
X5.0261Y-4.1608
X5.0261Y-4.2164
X5.0261Y-4.2721
X5.0401Y-5.0098
X5.0818Y-3.6875
X5.0818Y-3.7432
X5.0818Y-3.7989
X5.0818Y-3.9102
X5.0818Y-3.9659
X5.0818Y-4.0216
X5.0818Y-4.1608
X5.0818Y-4.2164
X5.0818Y-4.2721
X5.0818Y-4.9681
X5.1236Y-4.9263
X5.1653Y-4.8846
X5.2071Y-4.8428
X5.2238Y-3.6179
X5.2489Y-4.8011
X5.2628Y-4.3417
X5.2628Y-4.3974
X5.2628Y-4.4531
X5.2628Y-4.5087
X5.2628Y-4.5644
X5.2628Y-4.6201
X5.2628Y-4.6758
X5.2628Y-4.7315
X5.2739Y-3.6235
X5.3185Y-4.3417
X5.3741Y-4.3417
X5.4298Y-3.6736
X5.4298Y-3.7293
X5.4298Y-3.7849
X5.4298Y-3.8406
X5.4298Y-3.8963
X5.4298Y-3.952
X5.4298Y-4.0076
X5.4298Y-4.0633
X5.4298Y-4.119
X5.4298Y-4.1747
X5.4298Y-4.2304
X5.4298Y-4.286
X5.4298Y-4.3417
T5
X3.9864Y-6.1833
X4.1819Y-5.7107
X4.2451Y-4.9975
X4.2926Y-5.877
X4.3158Y-4.9267
X4.3866Y-4.856
X4.4882Y-5.4045
T6
X2.407Y-6.0561
X4.5111Y-3.952
T7
X4.2091Y-6.2389
X4.3483Y-6.0997
X4.5438Y-5.9056
X4.683Y-5.7664
T0
M30
